<?xml version="1.0" encoding="UTF-8"?>
<!DOCTYPE svg PUBLIC "-//W3C//DTD SVG 1.1//EN" "http://www.w3.org/Graphics/SVG/1.1/DTD/svg11.dtd">
<!-- Creator: CorelDRAW -->
<svg xmlns="http://www.w3.org/2000/svg" xml:space="preserve" width="16.9332mm" height="16.9332mm" version="1.1" style="shape-rendering:geometricPrecision; text-rendering:geometricPrecision; image-rendering:optimizeQuality; fill-rule:evenodd; clip-rule:evenodd"
viewBox="0 0 1693.32 1693.32"
 xmlns:xlink="http://www.w3.org/1999/xlink"
 xmlns:xodm="http://www.corel.com/coreldraw/odm/2003">
 <defs>
  <style type="text/css">
   <![CDATA[
    .str0 {stroke:black;stroke-width:40;stroke-miterlimit:22.9256}
    .str1 {stroke:#FD5631;stroke-width:40;stroke-miterlimit:22.9256}
    .fil0 {fill:none}
   ]]>
  </style>
 </defs>
 <g id="Layer_x0020_1">
  <metadata id="CorelCorpID_0Corel-Layer"/>
  <path class="fil0 str0" d="M807.44 1210.53l0.08 39.83 -422.18 -0.06c0,-33.17 7.76,-76.08 -22.66,-80.01 -35.63,-4.61 -23.04,46.04 -29.01,78.78 -100.02,6.62 -233.04,-37.11 -222.82,79.15 50.58,35.72 67.44,26.35 149.15,26.37l1238.58 0.08c36.19,0 47.55,-10.35 70.03,-26.53 9.34,-115.26 -122.17,-73.73 -223.08,-78.84 -3.78,-23.5 7.67,-73.84 -23.35,-79.14 -35.74,-6.11 -27.96,49 -28.12,80.26l-421.82 -0.11c-0.23,-129.23 18.27,-163.83 -32.48,-190.53 -47.6,25.31 -32.32,42.46 -32.32,150.75z"/>
  <path class="fil0 str0" d="M629.87 1427.72c-41.22,18.45 -76.45,100.57 60.2,100.21 112.68,-0.3 677.17,7.11 706.81,-6.61 25.11,-11.63 37.3,-44.37 21.14,-71.48 -16.53,-27.77 -48.1,-27.16 -85.88,-26.92 -107.32,0.68 -679.54,-5.36 -702.27,4.8z"/>
  <path class="fil0 str1" d="M622.19 719.38c78.27,300.85 309.45,87.78 169.57,3.71 -48.34,-29.06 -115.76,-15.56 -169.57,-3.71z"/>
  <path class="fil0 str1" d="M1053.82 531.12c-51.39,-8.58 -108.13,-23.31 -153.87,1.34 -136.56,73.62 4.08,220.06 98.66,125.35 17.32,-17.34 54.93,-91.99 55.21,-126.69z"/>
  <path class="fil0 str1" d="M623.7 349.68c11.37,42.2 31.39,94.91 59.81,121.19 34.13,31.54 107.08,41.68 136.35,-0.75 70.33,-101.96 -101.29,-178.01 -196.16,-120.44z"/>
  <path class="fil0 str1" d="M1056.55 905.87c-51.89,-10.99 -112.75,-23.89 -160,1.17 -33.73,17.88 -78.66,80.12 -31.77,129.41 86.15,90.53 174.96,-48.64 191.77,-130.58z"/>
  <path class="fil0 str1" d="M623.01 905.91c17.19,82.14 105.42,220.95 191.63,130.44 43.79,-45.99 6.21,-106.54 -25.99,-126.24 -48.12,-29.45 -111.72,-15.47 -165.64,-4.2z"/>
  <path class="fil0 str1" d="M839.76 114.02c-24.95,24.7 -69,69.81 -77.35,114.76 -37.76,203.16 310.68,115.8 77.35,-114.76z"/>
  <path class="fil0 str1" d="M1055.4 344.92c-51.86,-9.37 -112.37,-24.1 -158.06,0.84 -36.52,19.94 -73.54,83.28 -33.67,129.28 32.24,37.2 100.52,25.52 132.36,-4.11 24.23,-22.57 55.34,-86.35 59.37,-126.01z"/>
  <path class="fil0 str1" d="M1057.44 719.3c-339.32,-69.68 -203.68,253.22 -63.84,126.85 29.25,-26.44 51.57,-80.99 63.84,-126.85z"/>
  <path class="fil0 str1" d="M622.24 533.5c11.03,37.96 37.65,103.53 58.54,124.4 32.53,32.49 114.65,40.46 141.04,-1.4 31.08,-49.3 4.12,-178.33 -199.58,-123z"/>
  <path class="fil0 str0" d="M496.56 1502.69c10.38,-81.55 -23.69,-80.17 -95.69,-79.65 -50.84,0.35 -122.21,-13.42 -142.32,32.47 -43.29,98.76 185.01,86.71 238.01,47.18z"/>
  <path class="fil0 str0" d="M1160.38 635.58c0.78,61.99 71.53,160.49 136.45,100.87 33.69,-30.93 9.81,-77.52 -12.02,-93.76 -35.7,-26.57 -80.57,-14.79 -124.43,-7.11z"/>
  <path class="fil0 str0" d="M203.24 635.58c4.53,60.13 69.19,162.5 136.4,101.22 34.04,-31.05 9.96,-78.33 -12.07,-94.32 -35.8,-26.01 -80.76,-14.59 -124.33,-6.9z"/>
  <path class="fil0 str0" d="M519.28 635.37c-43.96,-7.56 -89.02,-19.01 -124.55,7.4 -21.79,16.2 -45.72,62.72 -12.09,93.79 67.11,61.96 131.94,-40.82 136.64,-101.19z"/>
  <path class="fil0 str0" d="M1476.25 635.65c-43.57,-8 -88.57,-19.22 -124.22,6.91 -22.15,16.23 -45.8,63.26 -12.05,94.14 66.8,61.15 132.03,-40.9 136.27,-101.05z"/>
  <path class="fil0 str0" d="M522.04 1052.52c-38.79,-7.09 -84.17,-19.45 -120.84,0.84 -115.5,63.94 66.35,220.94 120.84,-0.84z"/>
  <path class="fil0 str0" d="M1312.76 463.7c-14.95,26.47 -46.65,50.91 -52.02,89.25 -15.63,111.37 130.94,109.12 115.12,0.22 -5.65,-38.85 -40.72,-76.29 -63.1,-89.47z"/>
  <path class="fil0 str0" d="M379.56 878.87c94.67,28.97 118.18,-20.91 141.03,-98.77 -69.69,-45.33 -187.64,-3.91 -141.03,98.77z"/>
  <path class="fil0 str0" d="M367.07 463.63c-57.59,33.57 -106.28,164.14 -10.02,170.72 45.7,3.12 68.26,-35.21 61.76,-81.36 -5.4,-38.25 -36.87,-62.84 -51.74,-89.36z"/>
  <path class="fil0 str0" d="M522.04 913.52c-315.27,-55.48 -74.49,289.16 0,0z"/>
  <path class="fil0 str0" d="M1479.03 1053.01c-246.73,-54.24 -155.57,189.33 -45.97,92.2 24.95,-22.11 37.39,-57.41 45.97,-92.2z"/>
  <path class="fil0 str0" d="M200.55 1053.07c33.3,134.61 119.78,126.69 145.23,93.5 29.67,-38.7 0.58,-136.96 -145.23,-93.5z"/>
  <path class="fil0 str0" d="M1157.55 1052.76c39.65,139.29 120.57,126.19 145.39,93.43 24.24,-31.99 7.12,-74.77 -25.11,-92.42 -33.11,-18.15 -82.79,-10.92 -120.28,-1.01z"/>
  <path class="fil0 str0" d="M1157.47 913.52c8.56,33.34 24.68,73.02 44.57,92.74 26.11,25.87 80.33,29.87 101.63,0.09 22.52,-31.51 27.28,-124.96 -146.2,-92.83z"/>
  <path class="fil0 str0" d="M201.79 774.81c11.45,81.1 53.92,129.9 140.93,104.34 47.31,-103.52 -43.73,-123.22 -140.93,-104.34z"/>
  <path class="fil0 str0" d="M1158.82 774.6c12.02,80.75 53.85,131.15 141.03,104.3 47.78,-103.38 -44.39,-122.3 -141.03,-104.3z"/>
  <path class="fil0 str0" d="M1336.86 879.08c87.87,25.94 128.48,-23.69 141,-104.55 -96.11,-17.58 -188.98,0.59 -141,104.55z"/>
  <path class="fil0 str0" d="M1331.29 1010.05c85.51,46.07 127.26,-14.36 147.54,-96.21 -93.21,-17.13 -177.32,-12.03 -147.54,96.21z"/>
  <path class="fil0 str0" d="M200.75 913.88c20.65,85.23 61.42,138.41 147.58,96.07 28.98,-105.73 -52.85,-114.96 -147.58,-96.07z"/>
 </g>
</svg>
