<?xml version="1.0" encoding="UTF-8"?>
<!DOCTYPE svg PUBLIC "-//W3C//DTD SVG 1.1//EN" "http://www.w3.org/Graphics/SVG/1.1/DTD/svg11.dtd">
<!-- Creator: CorelDRAW -->
<svg xmlns="http://www.w3.org/2000/svg" xml:space="preserve" width="16.9332mm" height="16.9332mm" version="1.1" style="shape-rendering:geometricPrecision; text-rendering:geometricPrecision; image-rendering:optimizeQuality; fill-rule:evenodd; clip-rule:evenodd"
viewBox="0 0 1693.32 1693.32"
 xmlns:xlink="http://www.w3.org/1999/xlink"
 xmlns:xodm="http://www.corel.com/coreldraw/odm/2003">
 <defs>
  <style type="text/css">
   <![CDATA[
    .fil0 {fill:#2B2B2A}
    .fil1 {fill:#FD5631}
   ]]>
  </style>
 </defs>
 <g id="Layer_x0020_1">
  <metadata id="CorelCorpID_0Corel-Layer"/>
  <path class="fil0" d="M798.24 1332.01l-0.26 -77.87 74.77 0.16 16.25 32.24 -90.76 45.47zm-104.87 -78.56l29.87 0.48 14.23 0.03 24.06 0.88 -0.09 18.05 -0.01 32.04 0.04 24.87 -87.2 -39.26 19.1 -37.09zm-155.08 -76.02l482.94 0.07c-1.23,49.66 -28.27,37.67 -98.66,37.63l-352.67 0.29c-25.56,-0.42 -31.06,-11.29 -31.61,-37.99zm-235.21 -64.72c-4.16,-18.84 -0.94,-306.71 -1.09,-352.43 -0.1,-31.47 2.66,-53.79 33.29,-56.62 23.62,-2.18 64.64,-2.85 84.79,3.92 124.6,41.87 173.02,-4.5 228.33,-4.04 29.69,0.25 59.39,0.12 89.07,0.11 62.49,-0.02 204.23,-5.39 259.38,7.13 59.66,13.55 83.2,-0.16 118.93,-6.2 13.64,-2.3 31.14,-1.2 45.29,-1.19 112.52,0.06 96.23,-11.3 96.23,167.26 0,59.33 -0.08,118.66 -0.06,177.99 0.03,113.59 17.93,88.81 -267.03,89.58l-622.94 0.08c-32.19,-0.03 -58,2.45 -64.19,-25.59zm-39.43 -41.94c-51.36,4.45 -56.25,2.11 -55.92,-47 0.23,-34.41 0.04,-68.87 0.04,-103.28 0,-153.85 -12.44,-152.64 55.53,-149.28l0.35 299.56zm1085.31 -223.26c32.81,-15.01 119.18,-71.17 138.86,-76.95l-0.37 301.94c-46.74,-23.65 -90.71,-55.46 -138.26,-77.71l-0.23 -147.28zm-52.15 -1.09c20.22,6.05 13.17,30.04 13.2,74.07 0.02,38.95 6.44,67.11 -10.12,74.67l-3.08 -148.74zm-283.23 -533.21c58.77,-11.2 108.03,9.99 144.76,36.93 35.09,25.74 59.56,69.28 67.26,114.17 18.05,105.25 -58.16,193.44 -147.25,209.65 -111.74,20.32 -198.62,-59.09 -214.38,-150.34 -19.07,-110.43 60.92,-193.5 149.61,-210.41zm-521.77 -113.16c70.2,-9.13 143.85,23.87 183.47,56.59 44.14,36.46 76.63,99.37 83.33,158.55 16.36,144.49 -91.59,254.58 -214.45,268.84 -141.97,16.49 -257.41,-91.78 -269.49,-215.59 -14.15,-145.07 88.18,-251.62 217.14,-268.39zm201.34 464.57c3.22,-4.2 1.88,-2.51 5.82,-6.45 0.84,-0.84 4.86,-4.44 5.92,-5.37 52.9,-46.44 89.59,-118.22 93.67,-191.33 2.62,-46.93 -4.73,-93.07 -22.37,-131.32 -8.85,-19.18 -15.8,-31.51 -26.93,-47.89 -11.3,-16.62 -23.9,-27.7 -32.59,-43.26l234.11 51.96c-6.82,4.98 -16.36,9.51 -24.08,14.29 -91.94,56.96 -128.89,174.51 -85.76,276.77 7.03,16.66 16.43,31.8 26.07,45.18 4.92,6.81 26.99,31.03 33.67,37.17l-207.53 0.25zm600.53 461.27l-11.32 -2.34c-4.26,-14.48 -31.23,-37.3 13.7,-60.65l0.12 -27.97c32.05,-2.89 20.29,-15.49 48.63,0.88 13.16,7.6 27.17,15.85 40.29,23.73 13.69,8.22 26.59,14.77 40.98,23.19 13.49,7.9 29.77,18.73 42.69,24.95 17.65,8.51 37.12,5.19 47.92,-6.06 17.54,-18.28 9.92,-155.87 9.92,-184.69 0,-42.74 -0.04,-85.48 0.09,-128.22 0.07,-22.54 1.24,-37.41 -12.96,-50.02 -15.72,-13.97 -31.58,-11.87 -48.72,-2.09 -27.22,15.54 -55.11,31 -81.5,46.85 -82.46,49.51 -41.61,26.1 -87.45,23.69 0.07,-101.96 7.97,-142.32 -107.05,-142.5 19.66,-25.71 41.77,-38.79 59.13,-80.69 45.72,-110.41 1.7,-233.15 -93.38,-283.67 -44.26,-23.52 -57.9,-22.13 -109.8,-29.49 -47.79,-6.78 -282.44,-61.94 -341.3,-74.89 -74.36,-16.37 -156.98,-45.9 -235.47,-32.06 -82.13,14.47 -136.74,58.29 -173.66,103.75 -40.41,49.77 -69.6,131.36 -57.06,217.37 9.05,62.1 56.11,153.66 102.41,174.91 -0.85,0.64 -2.26,0.25 -2.78,1.52 -2.01,4.92 -29.9,2.5 -50.03,22.28 -19.31,18.99 -16.56,25.1 -25.41,45.71 -0.23,0.55 -0.68,1.7 -1.19,2.45 -31.15,0 -81.02,-3.26 -90.39,48.31l-0.23 280.89c8.14,44.24 45.38,49.63 92.9,49.42 21.86,93.41 95.3,62.82 235.2,67.26 15.41,105.79 62.09,65.41 149.17,77.61 -15.88,32.65 -36.42,71.11 -53.81,104.89 -20.44,39.72 -53.63,85.75 -45.57,113.34 20.47,8.9 27.67,5.46 38.04,-14.22l68.27 -134.02 107.62 50.17c-0.3,39.13 -6.4,122.8 7.09,150.46l22.03 -0.04c15.58,-41.89 3.61,-101.71 7.85,-149.78l106.08 -51.68c10.59,8.51 54.32,105.36 68.12,133.01 10.91,21.88 16.34,26.59 38.99,15.3 6.32,-23.8 -5.31,-36.21 -15.29,-56.7 -17.58,-36.08 -72.45,-141.11 -78.38,-162.02 91.72,0 127.95,16.48 143.5,-76.38 47.36,0 94.77,-0.18 142.13,0.05 48.74,0.23 75.15,-13.86 89.88,-51.81z"/>
  <path class="fil0" d="M502.67 577.77c39.49,-14.85 57.18,45.63 21.65,58.4 -38.44,13.81 -61.61,-43.37 -21.65,-58.4zm120.44 -46.98c38.9,-11.51 55.04,49.64 16.27,60.42 -38.65,10.75 -59.34,-47.68 -16.27,-60.42zm-237.79 -2.31c38.69,-20.47 60.48,41.68 26.19,55.81 -37.41,15.42 -65.68,-34.9 -26.19,-55.81zm284.37 -110.73c38.02,-16.12 58.12,39.61 26.32,55.71 -39.12,19.8 -66.56,-38.66 -26.32,-55.71zm-330.18 -6.9c41.62,-19.34 59.53,42.8 25.84,56.12 -18.76,7.42 -35.78,-2.03 -41.69,-15.63 -3.78,-8.69 -3.91,-16.91 0.09,-26.25 4.3,-10.08 7.9,-10.58 15.76,-14.24zm68.21 -16.01c48.15,-14.77 46.92,-19.37 66.34,-61.58 34.9,13.62 49.28,25.38 88.38,0.8 10.87,14.48 6.63,26.75 23.53,43.71 19.12,19.2 30.47,15.57 40.42,23.02 -23.99,35.9 -17.33,52.53 -1.82,90.1 -35.93,6.39 -57.03,24.41 -62.93,60.92 -45.96,-17.17 -43.35,-25.06 -91.14,-1.87 -11.15,-18.96 -9.42,-43.21 -42.14,-57.12 -14.91,-6.34 -13.87,-2.97 -22.05,-11.5 24.34,-22.13 17.94,-64.39 1.41,-86.48zm215.94 -94.85c37.8,-18.79 58.72,41.85 26.41,56.32 -37.63,16.83 -66.82,-36.24 -26.41,-56.32zm-226.56 -6.49c40.31,-8.95 49.02,50.45 14.77,59.55 -40.87,10.85 -58.67,-49.81 -14.77,-59.55zm109.41 -42.88c37.19,-21.53 63.96,39.01 28.91,54.93 -38.47,17.48 -66.53,-33.15 -28.91,-54.93zm-57.36 17.23c-21.1,-7.97 -54.08,-31.13 -94.03,3.3 -25.27,21.79 -29.35,62.49 -9.01,94.04l-7.27 3.72c-0.71,0.29 -1.8,0.72 -2.6,1.02 -13.13,5.01 -21.77,5.93 -34.38,18.81 -9.87,10.08 -19.44,26.86 -19.99,47.67 -0.56,21 7.58,38.4 17.81,49.82 11.8,13.17 23.93,15.54 38.26,22.38 0.65,0.31 1.84,0.99 2.36,1.25 0.51,0.25 1.61,0.78 2.35,1.27 -47.33,86.6 30.76,139.99 98.87,100.83 29.32,100.89 128.07,74.03 141.07,4.26 20.87,8.18 59.02,31.45 96.8,-3.02 36.89,-33.65 15.4,-75.26 8.38,-96.97 95.7,-23.17 76.42,-127.05 1.81,-140.07 16.81,-33.77 28.12,-64.83 -2.1,-96.25 -27.77,-28.87 -60.91,-24.2 -96.44,-7.85 -18.21,-78.3 -85.78,-75.38 -118.11,-46.77 -17,15.05 -13.12,21.46 -23.78,42.56z"/>
  <path class="fil1" d="M406.44 852.86c-0.01,-21.46 -3.28,-29.94 17.63,-31.54l283.54 1.51c5.33,40.24 2.57,111.09 2.58,154.61 0,34.5 7.9,43.42 -29.67,43.42 -63.51,0 -218.77,4.43 -271.62,-3.11 -6.88,-32.24 -2.45,-124.85 -2.46,-164.89zm-31.96 178c1.36,-0.04 -1.12,-12.96 1.18,-18.32 3.83,-8.98 -7.26,-4.73 9.27,-8.17 27.15,-5.65 19.71,41.45 19.92,51.69 7.19,4.81 286.41,7.64 309.12,1.1 45.79,-13.18 35.43,-70.25 35.43,-122.43 0,-45.4 11,-118.38 -20.21,-141.35 -28.03,-20.62 -104.59,-11.26 -144.78,-11.26 -201.4,0 -216.23,-22.1 -216.77,99.21 -0.11,25.74 -5.2,137.29 6.84,149.53z"/>
  <path class="fil1" d="M1034.1 479.84c23.36,-18 40.98,15.13 21.65,29.35 -17.36,12.76 -44.51,-11.73 -21.65,-29.35zm-7.21 -40.37c-75.42,26.17 -35.91,136.08 39.25,108.38 67.89,-25.02 33.54,-133.63 -39.25,-108.38z"/>
  <path class="fil0" d="M838.9 988.74c20.24,-14.8 36.72,16.75 20.1,28.63 -17.79,12.71 -44.93,-10.47 -20.1,-28.63zm-5.44 -41.26c-76.86,21.92 -43.46,130.51 30.86,110.6 25.27,-6.77 47.64,-35.63 38.07,-71.23 -6.66,-24.79 -36.33,-48.66 -68.93,-39.37z"/>
  <path class="fil0" d="M1162.47 1020.57c-16.84,0.48 -31.15,-0.97 -27.28,-21.29 3.05,-15.96 17.27,-15 30.65,-11.62 8.21,17.7 7.41,15.96 -3.37,32.91zm-23.25 -73.16c-29.97,6.95 -50.16,35.23 -41.65,71.89 5.81,25.06 38.25,49.41 72.38,38.21 70.04,-22.97 40.95,-126.73 -30.73,-110.1z"/>
  <path class="fil0" d="M1015.3 1013.04c-13.09,20.24 -46.35,0.16 -29.21,-21.65 13.28,-16.9 43.27,-0.09 29.21,21.65zm-63.91 17.82c12.09,-9.44 3.23,-9.08 26.35,-8.7l5.35 20.29c17.41,5.49 24.43,2.53 42.48,-0.2 4.88,4.41 0.61,1.37 2.23,10.53 4.26,-2.09 7.38,-3.5 10.29,-6.17 8.89,-8.16 5.19,-3.93 7.33,-12.61 -4.21,-9.03 -31.23,-22.29 -14.03,-64.17 2.85,-6.96 1.13,5.37 3.73,-10.95 -16.42,-20.02 -52.77,-14.81 -71.68,-1.01 -14.91,10.88 -32.75,51.66 -12.05,72.99z"/>
  <path class="fil1" d="M506.28 414.44c-35.79,14.84 -20.86,67 19.98,56.74 36.58,-9.2 20.65,-73.59 -19.98,-56.74z"/>
  <path class="fil0" d="M1045.42 1034c12.58,-10.9 13.73,-23.91 10.99,-40.74 -2.63,-16.24 -8.25,-23.72 -21.29,-34.38 -2.6,16.32 -0.88,3.99 -3.73,10.95 -17.2,41.88 9.82,55.14 14.03,64.17z"/>
  <path class="fil0" d="M951.39 1030.86c6.49,12.12 13.12,21.71 29.82,26.88 17.05,5.29 33.46,4.2 46.59,-4.96 -1.62,-9.16 2.65,-6.12 -2.23,-10.53 -18.05,2.73 -25.07,5.69 -42.48,0.2l-5.35 -20.29c-23.12,-0.38 -14.26,-0.74 -26.35,8.7z"/>
  <path class="fil1" d="M374.48 1030.86c7.09,14.06 11.32,20.44 30.37,25.2 -0.21,-10.24 7.23,-57.34 -19.92,-51.69 -16.53,3.44 -5.44,-0.81 -9.27,8.17 -2.3,5.36 0.18,18.28 -1.18,18.32z"/>
  <path class="fil0" d="M1134.51 381.05c-20.57,11.53 -4.43,46.55 19.48,34.26 22.35,-11.49 4.81,-47.88 -19.48,-34.26z"/>
  <path class="fil0" d="M896.39 473.85c-20.64,12.12 -4.09,46.66 19.07,34.12 20.95,-11.34 6.39,-49.06 -19.07,-34.12z"/>
  <path class="fil0" d="M1155.08 577.78c-38.39,-10.61 -41.7,22.29 -25.38,32.68 21.07,13.41 34.8,-10.56 25.38,-32.68z"/>
  <path class="fil0" d="M1037.64 340.67c-24.24,19.23 3.57,44.38 21.8,29.81 18.88,-15.09 -0.12,-47.01 -21.8,-29.81z"/>
  <path class="fil0" d="M937.57 379.68c-21.71,17.53 4.99,43.89 24.5,28.81 17.64,-13.63 -2.23,-46.81 -24.5,-28.81z"/>
  <path class="fil0" d="M1165.61 507.08c26.78,20.69 42.96,4.96 32.63,-25.86 -20.43,-5.87 -38.62,-4.53 -32.63,25.86z"/>
  <path class="fil0" d="M956.05 571.5l-22.31 -0.42c-34.34,47.45 56.37,51.84 22.31,0.42z"/>
  <path class="fil0" d="M1053.19 648.75c18.22,-25.12 -2.04,-44.37 -21.74,-33 -14.71,8.5 -14.96,41.58 21.74,33z"/>
  <path class="fil0" d="M1293.68 1125.89l2.38 -62.99c-44.93,23.35 -17.96,46.17 -13.7,60.65l11.32 2.34z"/>
 </g>
</svg>
