<?xml version="1.0" encoding="UTF-8"?>
<!DOCTYPE svg PUBLIC "-//W3C//DTD SVG 1.1//EN" "http://www.w3.org/Graphics/SVG/1.1/DTD/svg11.dtd">
<!-- Creator: CorelDRAW -->
<svg xmlns="http://www.w3.org/2000/svg" xml:space="preserve" width="16.9332mm" height="16.9332mm" version="1.1" style="shape-rendering:geometricPrecision; text-rendering:geometricPrecision; image-rendering:optimizeQuality; fill-rule:evenodd; clip-rule:evenodd"
viewBox="0 0 1693.32 1693.32"
 xmlns:xlink="http://www.w3.org/1999/xlink"
 xmlns:xodm="http://www.corel.com/coreldraw/odm/2003">
 <defs>
  <style type="text/css">
   <![CDATA[
    .str1 {stroke:#FD5631;stroke-width:20;stroke-miterlimit:22.9256}
    .str0 {stroke:#FD5631;stroke-width:7.62;stroke-miterlimit:22.9256}
    .fil0 {fill:black}
    .fil1 {fill:#FD5631}
   ]]>
  </style>
 </defs>
 <g id="Layer_x0020_1">
  <metadata id="CorelCorpID_0Corel-Layer"/>
  <path class="fil0" d="M859.6 143.05c30.16,20.2 156.22,133.48 199.88,165.84 20.81,15.43 14.03,43.17 18.81,88.75l30.18 341.68c0.96,19.27 1.87,29.68 3.37,48.89 0.92,11.84 2.61,33.87 4.61,47.63 4.88,33.74 4.31,65.37 7.92,99.65 6.51,61.94 12.84,131.48 17.74,194.32 2.5,32.14 3.56,64.73 8.15,96.33l16.66 195.4c0.79,31.58 6.71,68.1 9.22,98.34l-316.54 0 0 -1376.83zm-353.43 1315.37c39.63,-20.98 76.47,-48.97 115.01,-72.47l195.39 -124.22 0 258.15 -316.55 0c1.48,-17.75 6.15,-42.47 6.15,-61.46zm6.14 -55.32c0,-53.12 9.97,-103.63 12.24,-153.73 0.64,-14.15 -2.48,-24.04 6.38,-33.57l206.36 -131.7c9.46,-6.35 15.88,-10.97 26.05,-16.97 19.08,-11.26 34.01,-22.66 53.23,-32.83l0 175.18c-13.88,7.34 -23.62,15.21 -37.86,23.61 -67,39.53 -173.91,111.21 -245.47,157.12 -7.68,4.93 -13.79,8.11 -20.93,12.89zm18.44 -239.72c4.49,-53.96 15.37,-134.89 15.37,-187.47 10.09,-2.69 53.51,-33.19 66.63,-40.93 23.89,-14.09 43.83,-29 67.61,-43.03 15.04,-8.87 126.13,-82.38 136.21,-85.07l0 175.18 -285.82 181.32zm-73.76 356.5l-156.73 0 15.88 -100.9c21.77,-156.95 54.19,-355.78 80.26,-512.89 7.09,-42.76 -1.38,-27.34 52.25,-67.6 11.98,-8.99 60.28,-47.51 69.81,-50.05l-30.73 365.72c-1.01,40.42 -10.31,96.17 -12.24,135.28l-18.5 230.44zm95.28 -599.29l3.54 -45.63c1.16,-11.02 3.46,-33.84 4.83,-44.34 1.71,-13.07 3.33,-34.49 3.86,-45.31 0.99,-20.05 3.13,-29.46 3.13,-49.12 21.74,-14.55 237.04,-153.56 248.94,-156.73l0 175.17c-7.35,1.97 -25.63,14.17 -33.22,19.03l-99.53 63.35c-22.37,13.99 -42.27,28.33 -65.24,42.33l-66.31 41.25zm21.51 -242.79l11.82 -135.69c1.59,-15.05 3.55,-35.71 3.55,-48.71 10.78,-5.7 17.48,-10.86 28.64,-17.45l140.99 -89.51c19.76,-12.36 38.98,-24.88 57.79,-37.48l0 178.25c-10.5,2.45 -50.18,29.42 -61.44,36.91l-150.02 95.84c-7.83,4.91 -23.76,15.82 -31.33,17.84zm21.51 -239.71c0,-18.23 6.33,-109.29 10.8,-118.29 2.74,-5.52 60.16,-50.88 69.79,-59.28l140.69 -117.47 0 153.66c-69.16,46.31 -152.12,95.07 -221.28,141.38zm-331.91 1124.82l1091.28 0.26c40.79,-0.74 23.41,-34.48 21.3,-77.15 -1.61,-32.65 -4.59,-69.82 -8.42,-99.14 -3.67,-28.06 3.14,-85.2 -25.44,-85.2 -24.76,0 -25.14,18.55 -22.44,37.65 2.9,20.52 2.32,39.5 4.49,60.21l11.81 120.34 -116.79 0 -21.46 -252.06c-2.69,-54.56 -13.92,-139.35 -15.42,-187.41 -0.64,-20.28 -5.51,-44.28 -6.14,-64.55l-10.07 -125.15c-8.59,-65.66 -13.97,-196.44 -22.44,-254.16 -3.12,-21.26 -2.61,-41.28 -4.86,-62.75 -1.88,-17.92 -5.66,-45.23 -5.66,-65.03 26.52,17.76 69.98,57.75 97.91,80.34 28.34,22.92 29.27,12.73 31.17,88.69 0.38,15.49 2.53,40.24 4.8,56.66 2.96,21.39 -0.8,37.77 20.87,40.71 14.59,1.99 26.34,-9.86 24.47,-30.5 -2.25,-24.81 -7.42,-146.02 -18.44,-160.04l-148.91 -124.62c-8.33,-6.93 -7.07,-9.78 -18.02,-12.7 0,-16.56 -9.09,-143.76 -17.77,-154.34l-258.48 -215.07c-21.74,-14.2 -44.88,17.52 -75.87,41.87l-187.83 156.38c-22.16,18.62 -27.74,18.47 -28.61,57.44 -0.56,25.29 -4.27,52.4 -6.35,79.71 -5.69,74.99 -17.13,163.27 -21.22,236.93 -5.02,90.54 2.29,69.54 -57.6,114.5 -33.7,25.29 -64.87,48.27 -98.43,73.68 -20.14,15.25 -16.12,23.6 -22.76,63.29l-98.94 632.72c-2.36,17.57 1.78,15.81 10.27,28.49z"/>
  <path class="fil1 str0" d="M1323.66 1197.19c35.79,0 23.74,-29.46 21.57,-73.81 -0.86,-17.48 -3.82,-33.76 -21.57,-33.76 -30.68,0 -22.62,25.28 -21.54,49.19 0.93,20.51 1.54,58.38 21.54,58.38z"/>
  <path class="fil1" d="M1305.22 985.13c29.89,0 26.87,-18.68 24.38,-48.92 -1.86,-22.45 -0.29,-55.57 -24.38,-55.57 -29.11,0 -22.87,24.57 -21.43,49.07 1.14,19.38 1.96,55.42 21.43,55.42z"/>
  <polygon class="fil1 str1" points="512.31,1403.1 816.57,1209.48 816.57,1261.73 506.17,1458.42 "/>
  <polygon class="fil1 str1" points="526.72,1166.53 814.73,983.25 814.73,1035.5 523.01,1220.35 "/>
  <polygon class="fil1 str1" points="548.72,923.39 817.94,752.06 817.94,804.31 543.63,978.13 "/>
  <polygon class="fil1 str1" points="572.96,680.74 815.77,524.66 815.77,576.91 567.38,735.76 "/>
  <polygon class="fil1 str1" points="595.3,436.77 816.57,295.96 816.57,348.96 589.78,494.51 "/>
 </g>
</svg>
