<?xml version="1.0" encoding="UTF-8"?>
<!DOCTYPE svg PUBLIC "-//W3C//DTD SVG 1.1//EN" "http://www.w3.org/Graphics/SVG/1.1/DTD/svg11.dtd">
<!-- Creator: CorelDRAW -->
<svg xmlns="http://www.w3.org/2000/svg" xml:space="preserve" width="16.9332mm" height="16.9332mm" version="1.1" style="shape-rendering:geometricPrecision; text-rendering:geometricPrecision; image-rendering:optimizeQuality; fill-rule:evenodd; clip-rule:evenodd"
viewBox="0 0 1693.32 1693.32"
 xmlns:xlink="http://www.w3.org/1999/xlink"
 xmlns:xodm="http://www.corel.com/coreldraw/odm/2003">
 <defs>
  <style type="text/css">
   <![CDATA[
    .fil0 {fill:black}
    .fil1 {fill:#FD5631}
   ]]>
  </style>
 </defs>
 <g id="Layer_x0020_1">
  <metadata id="CorelCorpID_0Corel-Layer"/>
  <path class="fil0" d="M647.56 256.82c-175.83,26.78 -288.16,156.58 -356.81,276.85 -55.22,96.74 -162.86,326.73 -178.35,452.27l-9.12 63.27 -0.84 65.18 4.58 59.81c8.58,11.23 17.88,57.37 24.56,74.52 4.67,11.99 8.98,21.67 16.14,33.09 7.33,11.71 15.03,18.65 19.14,32.01 7.42,3.41 4.65,1.92 9.53,8.45 0.05,0.07 3.29,5.26 3.63,5.94 4.04,8.04 0.12,-4.62 2.43,6.4l4.06 3.35c14.57,13 13.63,16.38 23.25,26.7 9.91,10.64 19.6,16.64 28.9,26.97l61.36 52.41 15.56 7.52c20.5,8.18 28.05,15.09 53.58,23.17l19.73 8.58c31.04,-3.95 144.02,38.28 240.21,-71.76 49.57,-56.7 69.96,-147.38 96.68,-232.3 3.28,-15.22 14.97,-52.61 24.17,-61.76 13.57,-35.8 41.24,-64.88 76.21,-81.12 46.5,-21.6 85.79,-15.34 137.75,-9.67 1.44,-32.37 5.54,-45.38 12.01,-73.54 -87.13,-14.37 -199.64,-11.21 -257.6,60.72 -51.58,64.01 -65.32,124.72 -86.35,203.19 -1.48,5.51 -2.71,10.91 -3.98,15.59l-7.42 17.68c1.54,15.43 -9.47,50.27 -18.77,59.08 -11.82,42.41 -59.7,84.39 -108.05,95.17 -112.41,25.07 -202.56,-55.39 -260.73,-135.65 -29.22,-40.3 -47.82,-91.67 -51.03,-156.05l1.19 -66.18 10.41 -60.77c2.07,-13.8 4.55,-24.57 8.17,-37.87l11.13 -32.77c0.31,-0.55 0.91,-1.57 1.46,-2.28 -2.38,-35.93 106.73,-277.97 127.68,-314.74 57.64,-101.15 117.07,-177.93 215.71,-231.66 175.89,-95.81 452.34,-27 625.31,67.37 23.93,13.05 49.74,35.43 69.68,43.36 12.8,-15.03 27.86,-46.8 38.21,-63.66 -29.4,-36.6 -184.25,-98.63 -192.04,-106.58 -9.35,-0.07 -50.76,-12.72 -56.68,-17.95 -14.33,-3.16 -148.3,-36.45 -150.15,-37.84l-50.62 -4.24 -114.92 -1.78 -17.04 1.48 -61.93 10.04z"/>
  <path class="fil0" d="M1459.63 191.07c-8.16,27.29 -411.6,692.67 -442.9,746.44 -26.97,46.34 -32.79,93.92 -44.39,152.74 -18.51,93.86 -25.27,85.31 47.84,128.26 31.7,18.63 45.47,13.38 63.03,-13.89l75.89 -121.65c47.32,-94.71 102.77,-249.26 143.63,-352.93l194.96 -495.57c7.82,-20.51 24.51,-55.15 28.15,-74.02 -6.95,-8.24 -17.5,-16.53 -28.03,-21.91 -18.69,7.69 -22.26,41.63 -38.18,52.53z"/>
  <path class="fil0" d="M1270.63 1126.88c41.86,0.59 61.86,-3.44 100.48,-9.91 8.52,-5.44 70.66,-18.48 123.59,-73.2 54.24,-56.08 50.54,-78.01 74.42,-123.61l11.53 -68.47 1.88 -59.61 -15.51 -70.67c-17.84,-60.02 -68.56,-156.35 -120.28,-199.15 -10.25,-8.49 -11.46,-13.75 -22.99,-22.22 -8.38,7.91 -30.76,70.27 -32.51,78.33 79.58,84.55 140.2,198.69 100.42,320.95 -19.01,58.44 -54.66,101.23 -94.18,126.17 -58.86,37.14 -119.39,25.47 -187.92,16.76l-34.24 71.52c26.78,8.63 65.23,12.33 95.31,13.11z"/>
  <path class="fil1" d="M722.06 1517.29c52.2,12.31 78,23.32 138.45,10.41 135.45,-28.93 230.16,-181.06 169.54,-263.15 -19.12,-25.89 -69.53,-46.01 -112.33,-24.95 -42.51,20.91 -44.24,47.56 -60.9,96.97 -17.4,51.64 -55.21,112.68 -92.52,144.26l-42.24 36.46z"/>
  <path class="fil1" d="M381.27 1050.48c-127.79,25.61 -88.86,215.06 37.57,189.74 124.21,-24.87 87.08,-214.72 -37.57,-189.74z"/>
  <path class="fil1" d="M655.81 452.91c-45.03,13.31 -84.06,58.19 -67.31,118.35 34.01,122.19 221.45,71.59 187.16,-51.82 -12.41,-44.67 -60.83,-83.99 -119.85,-66.53z"/>
  <path class="fil1" d="M953.45 455.28c-15.9,18.83 -26.69,14.08 -41.62,41.77 -36.14,67.05 9.84,145.12 84.37,145.07 49.23,-0.04 83.21,-33.03 93.59,-72.13 15.24,-57.39 -19.01,-93.93 -51.59,-112.56 -26.41,-8.78 -34.81,-11.88 -65.64,-6.42l-19.11 4.27z"/>
  <path class="fil1" d="M587.44 850.38c7.53,-27.15 3.95,-39.71 -2.71,-64.51 -18.81,-36.51 -53.75,-70.14 -112.28,-56.93 -42.61,9.62 -76.43,47.24 -74.49,99.04 3.93,104.86 154.71,130.19 189.48,22.4z"/>
 </g>
</svg>
