<?xml version="1.0" encoding="UTF-8"?>
<!DOCTYPE svg PUBLIC "-//W3C//DTD SVG 1.1//EN" "http://www.w3.org/Graphics/SVG/1.1/DTD/svg11.dtd">
<!-- Creator: CorelDRAW -->
<svg xmlns="http://www.w3.org/2000/svg" xml:space="preserve" width="16.9332mm" height="16.9332mm" version="1.1" style="shape-rendering:geometricPrecision; text-rendering:geometricPrecision; image-rendering:optimizeQuality; fill-rule:evenodd; clip-rule:evenodd"
viewBox="0 0 1693.32 1693.32"
 xmlns:xlink="http://www.w3.org/1999/xlink"
 xmlns:xodm="http://www.corel.com/coreldraw/odm/2003">
 <defs>
  <style type="text/css">
   <![CDATA[
    .str0 {stroke:black;stroke-width:10;stroke-miterlimit:22.9256}
    .fil0 {fill:#2B2B2A}
    .fil1 {fill:#FD5631}
   ]]>
  </style>
 </defs>
 <g id="Layer_x0020_1">
  <metadata id="CorelCorpID_0Corel-Layer"/>
  <path class="fil0 str0" d="M1202.07 1195.43c-26.46,-9.47 -56,-26.18 -82.25,-38.28 -145.99,-67.25 -176.01,-85.41 -289.51,-188.02 -31.22,-28.23 -105.36,-91.14 -125.12,-113.83 -6.37,-7.3 -6.85,-9.55 -13.69,-16.09 -78.42,-74.93 -351.13,-344.5 -397.37,-408.68 -28.7,-39.84 -75.63,-120.35 -24.85,-168.02 88.9,-83.47 232.03,82.64 292.57,139.09 20.58,19.19 42.2,37.73 61.59,57.87l238.25 239.34c13.99,11.16 29.14,32.15 42.94,46.71 5.68,5.99 9.72,8.49 15.52,14.22l137.6 160.98c58.81,80.86 62.39,97.95 106.15,192.38 12.03,25.96 28.97,55.35 38.17,82.33zm57.36 -111.95c-18.05,11.11 -32.41,25.94 -9.17,43.49 18.89,6.06 49.62,-18.74 64.26,-28.14l118.83 -73.6c31.66,-19.26 38.75,-28.62 12.05,-54.29 -52.76,-50.73 -32.15,-40.26 -136.28,-19.82 -53.05,10.41 -107.26,21.92 -161.55,31.58 -13.32,-36.67 -41.78,-70.15 -65.75,-99.29 -23.77,-28.89 -47.7,-63.08 -74.13,-88.47 -12.72,-12.23 -14.45,-17.46 -24.68,-28.42l-78.82 -83.62c-37.76,-41.76 -141.58,-136.59 -161.61,-164.75 0.83,-0.47 1.95,-0.94 2.6,-1.2l304.76 -57.57c42.86,-8.02 289.78,-57.78 310.89,-54.03 8.02,7.18 6.22,6.11 12.97,13.57 2.86,3.17 4.47,4.6 6.45,6.95 5.26,6.26 0.08,-2.82 4.31,6.04 -12.63,10.75 -36.71,24.3 -50.58,32.84l-303.8 193.78c-8.01,4.98 -17.8,11.17 -26.19,16.83 -11.23,7.57 -13.34,11.01 -11.13,29.69 14.2,10.93 18.91,15.47 37.41,3.39l350.12 -223.73c81.04,-49.84 75.33,-44.09 15.43,-104.4 -28.82,-29.02 -26.92,-21.91 -76.37,-12.78l-439.82 80.66c-44.96,7.92 -140.07,31.41 -180.45,31.39 -13.42,-18.95 -30.93,-35 -48.12,-51.07 -17.4,-16.29 -32.49,-30.02 -49.77,-46.49l-47.5 -48.63c-71.16,-68.23 -214.51,-198.35 -313.76,-100.12 -75.42,74.66 -11.21,186.98 44.38,253.43l57.38 62c8.88,9.05 17.18,14.07 26.15,23.55 8.38,8.85 14.03,15.16 22.49,23.97 30.77,32 60.24,69.79 95.86,96.57 0.27,36.7 -23.54,138.77 -31.22,179.98 -10.91,58.5 -22.1,118.11 -32.51,176.73l-48.81 265.95c-8.58,47.58 -14.56,46.25 13.27,73.68 61.84,60.99 54.05,64.37 104.46,-15.48 53.48,-84.71 110.56,-168.82 162.99,-254.94 13.5,-22.16 26.58,-42.27 41.34,-64.78 17.21,-26.26 36.57,-39.74 16.06,-67.9 -29.59,-2.97 -34.91,18.55 -47.85,39.41 -10.59,17.07 -20.74,32.35 -32.1,50.87 -21.14,34.44 -43.11,66.78 -64.81,101.03 -11.94,18.84 -117.28,193.32 -133.42,201.6 -24.02,-35.76 -27.5,-10.67 -17.05,-66.69l45.38 -246.68c2.83,-15.84 53.11,-312.45 62.89,-329.74 15.73,11.22 40.55,39.33 56.05,54.69 19.23,19.06 36.39,34.89 55.66,53.8 7.52,7.38 19.1,21.55 27.09,29.26 9.78,9.45 17.55,16.28 27.73,25.38l70.92 65.13c50.55,51.48 171.03,153.92 226.98,176.99 -11.61,74.59 -29.68,153.28 -44.96,227.99 -6.22,30.39 -5.52,31.13 11.71,48.08 31.88,31.34 44.46,60.6 74.72,11.59 15.45,-25.02 100.31,-155.58 103.79,-168.82 4.96,-18.88 -13.08,-36.27 -31,-24.01 -7.06,4.84 -94,146.22 -103.83,164.27 -23.74,-14.52 -13.94,-24.71 -7.79,-56.56 9.52,-49.29 22.01,-141.41 37.13,-181.62 52,12.03 186.45,109.63 217.81,78.16 31.22,-31.34 -65.26,-164.64 -78.15,-217.8 25.68,-9.75 92.4,-19.48 123.48,-25.56 20.49,-4.01 40.19,-7.92 60.89,-12.07 30.36,-6.08 39.7,-14.96 53.58,8.05l-147.29 90.7z"/>
  <path class="fil1" d="M784.53 398.88l84.96 -86.53 73.62 72.86c10.28,10.6 12.23,17.78 33.96,16.49 23.38,-25.89 6.91,-34.16 -9.82,-50.57 -45.07,-44.22 -94.57,-113.84 -119.49,-80.78 -10.87,14.41 0.49,4.42 -20.78,25.78 -15.75,15.8 -28.95,29 -44.77,44.77 -8.06,8.04 -13.41,13.88 -21.46,21.69 -9.1,8.83 -21.42,12.68 -25.93,20.78 -11.09,19.93 20.14,47.25 28.71,52.53 24.63,15.16 46.88,-8.73 21,-37.02z"/>
  <path class="fil1" d="M405.49 777.85c14.9,12.66 15.65,15.75 37.91,7.39 5.27,-18.12 3.98,-24.27 -7.23,-35.78 -13.65,-14.01 -36.56,-39.78 -54.31,-12.79 -15.28,23.23 -64.34,69.96 -87.24,91.89 -10.04,9.61 -16.23,9.84 -24.61,17.93 -7.3,28.07 11.38,37.4 23.28,49.23 13.04,12.97 23.16,23.61 36.41,36.59 13.17,12.92 23.29,23.7 36.32,36.68 15.71,15.64 23.67,19.27 42.35,1.3 1.48,-21.89 -5.82,-23.64 -16.45,-33.89l-72.71 -73.76 86.28 -84.79z"/>
 </g>
</svg>
