<?xml version="1.0" encoding="UTF-8"?>
<!DOCTYPE svg PUBLIC "-//W3C//DTD SVG 1.1//EN" "http://www.w3.org/Graphics/SVG/1.1/DTD/svg11.dtd">
<!-- Creator: CorelDRAW -->
<svg xmlns="http://www.w3.org/2000/svg" xml:space="preserve" width="42.3332mm" height="33.8666mm" version="1.1" style="shape-rendering:geometricPrecision; text-rendering:geometricPrecision; image-rendering:optimizeQuality; fill-rule:evenodd; clip-rule:evenodd"
viewBox="0 0 4233.32 3386.66"
 xmlns:xlink="http://www.w3.org/1999/xlink"
 xmlns:xodm="http://www.corel.com/coreldraw/odm/2003">
 <defs>
  <style type="text/css">
   <![CDATA[
    .str0 {stroke:black;stroke-width:20;stroke-miterlimit:22.9256}
    .str1 {stroke:#FD5631;stroke-width:20;stroke-miterlimit:22.9256}
    .fil2 {fill:#2A2A2A}
    .fil4 {fill:#2B2A2B}
    .fil0 {fill:#2A2929}
    .fil5 {fill:#2A2A2A}
    .fil1 {fill:#29282A}
    .fil3 {fill:#FD5631}
   ]]>
  </style>
 </defs>
 <g id="Layer_x0020_1">
  <metadata id="CorelCorpID_0Corel-Layer"/>
  <path class="fil0 str0" d="M4001.09 2890.66l0 -3.81 -5.15 -8.32 -690.37 -0.08c-3.94,-38.42 -0.74,-94.25 -0.74,-134.55l0.26 -915.03c-0.4,-15.31 -1.22,-17.9 -16.67,-15.84 -8.47,20.41 -3.35,468.88 -3.35,532.93 0,51.5 2.88,493.62 -0.59,532.54l-2261.7 -0.06c-3.88,-35.97 -0.75,-739.57 -0.75,-811.59 0,-64.02 2.32,-176.4 0.23,-237.88 -0.48,-13.91 -2.2,-17.56 -16.9,-16.11 -9.1,20.19 -3.69,469.25 -3.69,533.1 0,53.73 3.06,490.53 -0.48,531.79 -21.78,2.79 -372.32,0.75 -404.68,0.75 -45.9,0 -387.54,-4.74 -402.76,4.36 -2.73,23.01 23.72,15.82 43.51,15.8l3714.09 0c27.54,0.01 38.75,4.42 49.74,-8z"/>
  <path class="fil0 str0" d="M1580.65 1763.78c0.4,-2.52 14.61,-16.87 -13.86,-17.75l-122.14 0.27c-17.75,38.12 -29.91,30.54 -52.95,30.54l-402.78 0c-60.74,-0.03 -84.37,-8.15 -83.07,17.74 54.52,6.38 388.08,2.5 469.96,2.59l32.22 0.06c-4.54,14.75 -67.97,96.17 -74.83,112.18l1640.37 0.18c-4.45,-11.45 -29.84,-45.41 -37.93,-56.71 -7.11,-9.94 -34.69,-47.34 -36.82,-55.59l452.86 -0.1c34.03,0 49.56,5.66 49.5,-15.46 -15.94,-9.98 -89.29,-4.91 -115.82,-4.89l-403.86 0.13c-3.65,-9.43 -14.42,-23.57 -21.72,-30.56 -7.35,-3.06 -918.64,-0.13 -1083.27,-0.13 -29.25,0 -133.46,-5.71 -148.73,5.17 -0.5,21.68 16.94,15 63.06,15l1157.89 0.09c8.62,7.7 80.51,110.04 86.5,122.92l-1563.87 -0.57c24.82,-40.6 64.1,-88.22 84.97,-122.32 23.91,-0.39 109.36,3.93 124.32,-2.79z"/>
  <path class="fil1 str0" d="M198.42 2987.08l3802.67 0 0 -11.71 -5.43 -7.11c-32.68,-4.28 -86.73,-1.1 -121.69,-1.1l-3208.37 0c-52.18,0 -456.21,-4.45 -471.84,4.18 -0.97,8.51 0.23,10.47 4.66,15.74z"/>
  <path class="fil2 str0" d="M1723.26 1074.59c-11.59,-16.78 -20.41,-24.28 -31.78,-47.52 -36.78,-75.18 3.56,-119.57 38.59,-173.22l845.07 0.76c18.55,18.78 51.65,71.35 54.14,107.26 4.01,58.01 -30.91,87.78 -45.62,112.78l-860.4 -0.06zm-4.79 19.85l874.65 0c28.64,-35.54 73.37,-90.46 50.79,-162.98 -17,-54.59 -57.08,-94.5 -92.06,-134.63 -40.44,-46.4 -136.17,-113.91 -191.48,-148.49 -11.27,-7.05 -24.47,-14.26 -37.08,-20.9 -16.16,-8.51 -23.68,-19.42 -37.56,-7.87 0.28,19.47 39.05,29.18 70.2,49.93 95.08,63.35 117.66,77.18 201.77,163.95l-32.29 0.82c-247.19,3.11 -515.58,-0.14 -765.48,-0.12l-10.97 -0.1 77.28 -74.42c44.75,-39.32 111.88,-84.86 167.11,-114.57 8.06,-4.34 24.37,-10.15 26.45,-18.85 7.84,-32.66 -72.18,21.22 -78.27,24.98 -17.49,10.79 -37.55,23.07 -53.57,34.84 -16.23,11.93 -34.29,24.46 -49.23,36.38 -17.29,13.78 -31.4,27.87 -48.04,40.5 -8.21,6.24 -13.49,13.52 -20.66,20.69 -50.69,50.69 -117.12,116.43 -112.59,194.56 2.36,40.67 34.88,103.96 61.03,116.28z"/>
  <path class="fil2 str0" d="M2732.75 2143.85l129.81 -0.22 15.56 1.32 -0.07 566.16 -23.79 0.6 -121.47 0 -0.04 -567.86zm0.09 -121.08l145.33 1.02 -1.09 99.48 -144.08 0.06 -0.16 -100.56zm165.64 121c12.08,0.16 12.61,2.14 21.96,-5.07l-0.47 -10.95c-8.72,-5.31 -9,-4.26 -21.52,-4.62l0.07 -120 -185.51 -0.08 -0.14 776.96c-0.21,32.29 18.54,27.88 20.1,8.42 1.26,-15.92 -0.21,-39.38 -0.15,-56.28l145.2 1.29c0.26,18.99 -3.03,54.39 4.14,67.97 23.79,2.25 16.17,-19.91 16.3,-69.21 12.5,0.13 12.88,1.11 22.17,-4.13l-0.28 -12.12c-9.09,-4.95 -9.12,-4.4 -21.91,-4.17l0.04 -568.01z"/>
  <path class="fil2 str0" d="M1428.44 2143.85l145.07 0.14 0.12 567.46 -143.43 0.24c-6.46,-21.07 -1.78,-241.77 -1.78,-282.83 0,-95 0.07,-190.01 0.02,-285.01zm0.04 -121.08l145.24 1.12 -1.03 99.38 -144.06 0.06 -0.15 -100.56zm-41.67 103.69c-2.44,19.09 5.7,16.95 21.78,17.74l-0.39 566.47 -21.42 4.38c-1.44,18.78 5.56,16.9 21.87,17.42 -0.12,18.53 -2.55,55.54 3.74,68.77 23.57,3.03 15.99,-18.53 16.04,-69.09l145.14 1.38c0.26,18.67 -2.63,54.76 4.14,67.92 22.35,1.91 16.46,-16.26 16.35,-35.43 -0.08,-16.58 -0.01,-33.18 -0.01,-49.75 0,-235.38 -2.69,-480.05 0.1,-713.13l-185.56 -0.1 0 119.38 -21.78 4.04z"/>
  <path class="fil3 str1" d="M3085.82 2832.81c-17.52,-7.81 -1474.08,-3.25 -1759.75,-3.25 -21.19,0 -95.68,-5.81 -107.43,7.68l2.23 9.86c20.49,6.63 195.02,2.62 232.31,2.62 250.05,0 1612.88,4.84 1633.63,-3.29l-0.99 -13.62z"/>
  <path class="fil0 str0" d="M1656.39 1380.36l993.64 -1.37c1.69,36.67 -5.25,261.28 5.37,275.48l10.46 0.23c11.25,-16.07 2.51,-244.68 5.37,-294.4l-1035.48 -1.01c0.31,34.16 -5.2,283.81 3.32,292.82 21.4,22.65 17.23,-39.99 17.23,-49.52l0.09 -222.23z"/>
  <path class="fil2 str0" d="M1409.19 1962.68c10.02,10.71 23.75,7.07 41.23,7.04l1373.44 -0.01c52.37,0 76.45,7.51 71.98,-17.52 -24.29,-8.42 -1245.97,-1.19 -1453.78,-2.97 -18.14,-0.16 -30.09,-4.27 -32.87,13.46z"/>
  <path class="fil0 str0" d="M1716.52 1151.31c5.66,35.15 -5.14,97.85 3.31,128.65 24.15,3.93 17.91,-13.1 17.91,-53.2 -0.01,-19.89 -2.14,-58.51 1.23,-76.1l829.18 0c3.21,17.05 1.16,54.2 1.16,73.34 0,47.57 -6.01,60.62 17.48,55.7 8.45,-31.24 -3.01,-93.75 3.54,-128.96 15.72,-0.39 61.57,6.49 68.39,-6.33 10.62,-19.93 -43.11,-14.21 -55.94,-14.21l-895.36 0c-13.57,0.01 -65.26,-6.62 -59.61,12.48 3.97,13.43 54.99,7.05 68.71,8.63z"/>
  <path class="fil0 str0" d="M1546.17 1679.48c-4.52,15.05 8.16,14.55 22.92,14.48l1174.93 0.06c17.42,-0.41 19.93,-2.69 16.6,-17.87 -24.52,-7.75 -257.8,-2.68 -304.3,-2.66l-762.72 0c-23.55,0 -136.63,-6.77 -147.43,5.99z"/>
  <path class="fil2 str0" d="M2789.72 1530.83l479.22 0.07c14.98,0.09 17.23,0.05 24.89,-8.29 39.02,-42.46 34.09,-89.52 -0.8,-134.94 -4.83,-6.3 -9.26,-10.21 -13.98,-16.38 -25.58,-33.49 -140.71,-125.38 -168.47,-117.51 -6.39,21.53 19.06,22.57 62.34,52.26 39.7,27.22 97.91,75.08 119.38,118.25 17.66,35.5 4.31,65.19 -15.07,86.28l-459.07 0.06c-20.21,0.22 -21.76,-1.89 -30.41,-15.51 -45.16,-71.07 64.36,-153.83 114.21,-187.49l58.69 -35.37c7.93,-5.72 33.95,-57.58 -93.95,35.97 -30.94,22.63 -70.07,58.74 -92.33,92.92 -35.09,53.89 -15.71,92.88 15.35,129.68z"/>
  <path class="fil2 str0" d="M1019.32 1530.59l497.98 0.08c8.06,-12.63 17.31,-19.9 25.49,-37.48 25.17,-54.11 -12.35,-102.21 -47.87,-136.82 -32.28,-31.46 -71.02,-63.82 -110.4,-85.88 -14.1,-7.9 -29.74,-21.82 -44.41,-15.8 -3.34,16.73 7.22,18.28 18.89,24.88 10.16,5.74 18.37,10.29 27.89,16.3 46.91,29.61 110.4,79.18 135.91,129.13 12.97,25.39 9.88,46.06 -3.75,69.31 -13.31,22.68 -19.51,16.19 -71.39,16.19l-400.88 0.13c-18.86,0.14 -21.06,-1.65 -28.62,-14.63 -37.42,-64.21 26.36,-119.67 77.76,-162.19l79.43 -53.23c13.14,-6.99 22.22,-8.75 22.59,-22.6 -12.37,-12.64 -28.95,2.76 -42.9,10.48 -54.51,30.14 -148.38,105.56 -166.61,165.04 -14.65,47.76 19.61,79.37 30.89,97.09z"/>
  <path class="fil0 str0" d="M2737.58 1332.41c1.06,-21.96 -14.61,-15.68 -57.42,-15.68l-1041.82 0c-15.21,0 -65.18,-6.37 -69.16,7.42 -5.76,19.94 45.52,12.95 58.1,12.95l817.98 0c41.9,0 275.98,6.21 292.32,-4.69z"/>
  <path class="fil3 str1" d="M1139.02 2370.98l160.12 -0.03c-0.52,46.84 -0.04,93.95 -0.04,140.82 0,26.99 3.38,117.12 -1.59,136.89l-158.43 -0.5 -0.06 -277.18zm-19.75 298.16l200.35 -1.09 -0.09 -317.11 -200.75 0.19 0.49 318.01z"/>
  <path class="fil3 str1" d="M3007.65 2371l159.78 -0.06c0.98,36.85 4.13,258.32 -1.66,277.75l-158.16 -0.84 0.04 -276.85zm-20.11 298.11l200.52 -0.78 0.11 -317.44 -201.09 0.49 0.46 317.73z"/>
  <path class="fil3 str1" d="M1139.02 2273.34c-0.15,-59.63 0.04,-119.28 -0.04,-178.91 -0.07,-54.74 22.91,-97.1 79.3,-97.68 28.67,-0.29 51.87,15.17 62.95,29.25 17.16,21.82 17.93,37.97 17.91,71.25 -0.03,58.92 0.29,117.9 -0.04,176.91l-160.08 -0.82zm180.63 19.33c0,-69.39 1.29,-140.01 0.01,-209.24 -1.12,-60.2 -39.95,-107.21 -101.11,-107.15 -57.83,0.06 -99.35,45.12 -99.8,109.87 -0.48,69.18 -0.24,138.79 0.06,207.98 35.04,0.76 176.02,4.51 200.84,-1.46z"/>
  <path class="fil3 str1" d="M3007.6 2094.49l-0.01 -8.29c-0.26,-119.14 159.98,-120.19 159.98,0l-0.01 8.29 0.04 168.57 -0.1 11.06 -159.85 -0.17 -0.05 -179.46zm180.52 198.79c-0.13,-69.85 0.85,-140.16 0,-209.94 -1.74,-142.23 -199.55,-144.96 -201.06,2.8 -0.71,68.97 -0.13,138.54 0.02,208.14l201.04 -1z"/>
  <path class="fil4 str0" d="M2387.23 2003.37c-14.34,6.25 -10.31,11.27 -10.24,41.37l0 356.49c0,46.92 -4.56,383.99 4.02,400.93l12.55 -0.11c9.34,-18.59 3.6,-630.74 4.01,-760.08 0.09,-29.67 3.49,-32.79 -10.34,-38.6z"/>
  <path class="fil0 str0" d="M980.54 1923.69c2.44,-23.17 -15.12,-17.12 -35.82,-17.03 -127.01,0.6 -733.93,-5.77 -751.86,4.45l0.85 11.52c16.47,9.96 163.02,4.43 195.54,4.43 87.8,0 574.05,4.02 591.29,-3.37z"/>
  <path class="fil2 str0" d="M1925.68 2801.6c8.09,-16.36 3.93,-599.79 3.93,-712.64 0,-13.28 7.77,-99.1 -15,-83.47 -11.46,7.87 -5.39,172.11 -5.39,199.54l-0.04 563.76c-0.15,18.99 -5.28,34.44 16.5,32.81z"/>
  <path class="fil5 str0" d="M1735.07 2801.44c22.43,2.43 16.59,-16.12 16.47,-35.42l-0.01 -560.99c0,-27.33 5.99,-191.86 -5.28,-199.6 -17.75,-12.18 -15.19,23.97 -15.12,33.78 0.84,129.32 -5.12,744.83 3.94,762.23z"/>
  <path class="fil2 str0" d="M2559.24 2801.37c22.69,2.84 16.14,-15.68 16.04,-35.36 -0.55,-109.4 4.29,-735.49 -2.04,-761.45l-15.5 0.75c-6.64,25.15 -2.12,161.8 -2.12,199.72 0,89.74 -4.65,577.98 3.62,596.34z"/>
  <path class="fil5 str0" d="M980.56 2111.61c1.55,-22.88 -15.69,-17 -35.84,-16.9l-353.73 0.01c-46.76,0 -381.28,-4.99 -398.05,4.53l0.62 11.61c16.46,9.02 163.5,4.27 195.69,4.27 88.08,0 573.64,4.09 591.31,-3.52z"/>
  <path class="fil3 str1" d="M610.57 2775.02c0.1,-54.59 0.02,-109.18 0.02,-163.77 0,-54.38 -10.8,-112.26 33.2,-129.5 25.66,-10.06 49.36,1.03 61.15,15.56 21.8,26.84 7.72,100.48 11.83,150.19 1.53,18.52 13.81,20.61 19.08,9.47 4.22,-8.92 1.47,-26.52 1.46,-37.42 -0.05,-49.83 8.28,-112.83 -21.46,-141.42 -32.68,-31.41 -83.24,-25.73 -110.72,9.06 -22.52,28.51 -14.28,105.56 -14.28,148.93 0,46.25 -4.16,116.38 0.76,159.68l144.79 -0.36c2.49,-17.36 0.92,-44.16 0.92,-62.59 0,-16.7 5.27,-50.46 -10.93,-49.27 -15.22,1.12 -9.37,67.99 -9.5,91.59l-106.32 -0.15z"/>
  <path class="fil3 str1" d="M3587.35 2661.64c9.01,-33.88 -4.28,-105.46 3.97,-142.45 9.07,-40.69 60.23,-56.22 89.93,-24.69 23.32,24.74 14.63,93.74 14.63,133.33 0,48.74 1.03,98.62 -0.19,147.34l-106.04 -0.13c-0.18,-21.76 2.15,-73.33 -2.45,-90.41l-15.29 0.95c-3.67,13.97 -3.5,92.23 -1.24,110.22l144.7 -0.46c5.86,-41.6 0.89,-126.8 0.89,-173.03 0,-53.13 9.15,-121.82 -26.07,-147.79 -41.03,-30.27 -94.8,-16.09 -113.32,24.9 -9.57,21.21 -11.36,137.38 -5.01,162.77l15.49 -0.55z"/>
  <path class="fil3 str1" d="M3383.49 2775.06c-1.93,-76.73 -1.42,-158.8 -0.27,-235.68 0.55,-36.66 19.15,-63.41 56.9,-61.21 51.48,2.99 45.27,56.48 55.26,60.97 27.3,0.81 8.35,-38.87 2.22,-48.94 -28.09,-46.26 -112.41,-45.62 -131.4,19.7 -5.25,18.04 -6.09,259.6 -2.42,285.82l144.71 0.02c2.83,-22.01 2.41,-204.94 -1.27,-218.87 -23.7,-5.81 -17.7,14.28 -17.6,34.38l-0.2 163.89 -105.93 -0.08z"/>
  <path class="fil3 str1" d="M943.75 2533.83c-3.62,-88.49 -109.77,-100.62 -140.01,-33 -15.03,33.62 1.49,49.53 11.63,33.88 9.11,-14.06 -1.05,-24.82 21.75,-44.83 29.41,-25.83 73.73,-6.91 83.33,23.86 7.36,23.61 3.15,221.53 2.72,261.46l-105.57 -0.17c-0.24,-33.83 5.27,-183.96 -5.12,-199.84l-10.88 1.08c-7.62,12.7 -6.1,202.51 -3.3,219.56l144.78 -0.88 0.67 -261.12z"/>
  <path class="fil2 str0" d="M1004.08 1763.36c16.51,3.78 18.15,-1.78 18.18,-19.6 0.03,-13.84 -0.22,-27.8 -0.22,-41.69 0,-28.68 0.04,-57.37 0.02,-86.05l492.15 -0.02c0.42,52.06 -7.59,71.71 17.28,69.57 4.29,-12.46 7.64,-76.07 1.31,-87.78 -3.57,-2.18 0.92,-0.83 -5.69,-1.92 -2.74,-0.45 -4.6,-0.54 -7.38,-0.63 -63.55,-2.27 -183.64,0.2 -248.94,0.2 -88.9,0 -178.35,0.97 -267.18,-0.11 -4.35,14.73 -3.42,154.08 0.47,168.03z"/>
  <path class="fil2 str0" d="M2789.12 1685.54c6.56,-17.29 3.29,-48.19 3.28,-69.53l492.69 -0.01c-0.08,28.84 -3.24,128.13 2.24,147.31 19.85,4.79 17.84,-5.81 17.61,-25.21 -0.39,-31.88 2.22,-124.63 -1.37,-142.79l-530.61 0.15c-2.83,15.51 -1.06,35.55 -1.11,51.35 -0.06,20.92 -6.51,40.62 17.27,38.73z"/>
  <path class="fil0 str0" d="M4001.09 1919.19l0 -4.37c-10.46,-12.02 -16.71,-8.33 -35.91,-8.17 -205.25,1.67 -413.83,-1.27 -619.25,-0.17 -18.55,0.1 -22.77,1.03 -19.71,18.03 15.15,4.42 632.2,6.67 670.34,1.15l4.53 -6.47z"/>
  <path class="fil5 str0" d="M4001.09 2107.24l0 -4.34c-10.77,-11.82 -16.57,-8.32 -35.91,-8.2l-574.81 0.02c-50.76,0 -68.23,-6.75 -63.95,17.66 12.24,3.91 632.16,6.79 670.18,1.34l4.49 -6.48z"/>
  <path class="fil4 str0" d="M2080 593.62l10.44 -0.42c16.62,-24.12 -6.44,-160.51 12.07,-192.92 27.89,-48.82 108.03,-40.96 108.85,36.09 0.49,45.99 -0.47,92.14 0,138.15 -19.01,-0.05 -108.12,-6.63 -88.54,15.46 7.72,8.71 93.2,6.03 109.22,3.66 -1.06,-53.21 0.88,-106.88 -0.15,-160.04 -2.17,-111.3 -155.9,-113.4 -156.97,2.75 -0.27,29.99 -5.66,141.61 5.08,157.27z"/>
  <path class="fil3 str1" d="M3383.93 2402.16c-1.89,-20.38 -2.34,-134.37 1.87,-149.21 5.29,-18.67 19.44,-33.4 40.65,-37.09 36.84,-6.43 39.38,18.39 60.17,15.64 21.22,-28.83 -78,-64.59 -114.01,0.04 -15.53,27.86 -11.27,150.82 -9.43,191.67l145.94 -0.12c1,-28.57 3.15,-143.91 -2,-164.04l-15.17 0.67c-8.06,28.41 1.07,106.14 -3.1,143.14l-104.92 -0.7z"/>
  <path class="fil3 str1" d="M943.47 2422.11c1.88,-27.88 3.02,-152.74 -2.83,-174.14 -11.84,-43.3 -64.56,-71.26 -110.47,-41.46 -6.65,4.31 -22.29,16.19 -10.51,24.01 10.75,7.15 19.05,-6.73 28.58,-11.14 27.96,-12.92 53.77,2.5 64.91,17.22 14.53,19.2 10.17,52.3 10.17,78.96 0,22.37 2.45,67.69 -1.32,87.2l-103.52 0.24c-3.11,-21.9 -0.98,-58.42 -0.98,-81.91 0,-19.68 6.14,-71.95 -13.94,-61.79 -11.77,9.61 -6.45,63.87 -6.45,81.13 0,27.08 -0.97,55.97 0.44,82.88l145.92 -1.2z"/>
  <path class="fil3 str1" d="M994.6 1555.61c-19.48,20.6 35.98,16.55 46.83,16.55 75.16,-0.02 492.36,3.97 499.98,-3.46 20.97,-20.45 -37.59,-16.73 -46.78,-16.72 -74.29,0.02 -493.18,-3.61 -500.03,3.63z"/>
  <path class="fil3 str1" d="M3285.36 1572.19c19.24,0.04 32.7,3.93 27.94,-17.62 -16.94,-5.29 -535.41,-5.16 -544.22,-1.26 -10.4,4.6 -9.06,15.32 2.64,18.39l513.64 0.49z"/>
  <path class="fil3 str1" d="M3715.98 2422.7c1.77,-40.03 0.24,-83.31 0.27,-123.72 0.03,-42.89 -1.99,-70.14 -30.57,-90.81 -27.74,-20.07 -67.67,-17.62 -91.21,4.7 -28.97,27.48 -24.5,49.25 -24.62,97.17 -0.02,8.44 -1.46,25.24 1.06,32.48 2.85,8.17 10.65,10.46 15.57,3.74 5.83,-7.96 3,-46.24 2.97,-58.34 -0.05,-19.45 -0.32,-37.01 10.02,-50.78 25.93,-34.49 96.27,-37.28 96.37,45.19 0.04,36.42 2.6,84.79 -0.62,119.79 -23.06,2.63 -111.92,-5.56 -123.77,6.43 -3.29,15.23 8.15,14.96 23.25,14.86l121.28 -0.71z"/>
  <path class="fil3 str1" d="M611.64 2402.7c-4.12,-24.23 -1.01,-78.95 -1.05,-106.48 -0.06,-35.82 2.38,-63.64 30.95,-76.51 33.95,-15.3 62.87,5.87 71.5,29.09 10.59,28.49 -3.14,74.33 6.93,99.93 17.42,1.84 17.48,-3.15 17.54,-19.14 0.13,-30.71 2.64,-71.5 -8.05,-94.43 -26.12,-56.05 -138.87,-68.42 -138.62,52.77 0.09,44.46 -1.43,91.13 0.25,135.29 27.58,0.21 55.22,0.02 82.8,0.02 50.22,0 65.8,6.52 61.24,-17.73 -18.11,-5.91 -97.21,-2.49 -123.49,-2.81z"/>
  <path class="fil4 str0" d="M1296.08 1229.54c-18.51,0 -37.91,-2.82 -49.83,5.01l0.39 10.43c11.58,7.58 54.04,7.22 70.31,3.18 -1.79,-52.26 13.09,-123.33 -28.95,-140.81 -27.97,-11.63 -52.23,3.55 -61.45,19.98 -9.65,17.21 -10.88,111.59 -2.62,119.1 29.32,26.66 8.27,-81.15 18.72,-106.03 9.14,-21.76 44.13,-20.05 51.56,2.09 3.78,11.25 2.2,71.33 1.87,87.05z"/>
  <path class="fil4 str0" d="M3060.92 1244.7l-1.79 -12.63c-16.24,-4.18 -32.54,-0.22 -48.71,-3.93 0.17,-22.51 -0.35,-45.19 -0.06,-67.66 0.3,-22.31 8.64,-40.28 33.99,-35.69 33.99,6.15 20.07,66.08 23.09,120.1 27.25,14.75 19.11,-24.96 19.28,-73.4 0.36,-99 -88.13,-75.25 -95.94,-26.79 -4,24.82 -0.58,76.61 -0.94,104.58 19.67,1.49 62.02,3.09 71.08,-4.58z"/>
  <path class="fil2 str0" d="M2281.87 1654.87l10.59 -0.52c8.75,-12.94 4.54,-129.88 4.6,-162.3 0.04,-20.38 6.74,-41.27 -15.06,-41.15 -11.1,16.13 -5.26,76.15 -5.26,101.95 0,25.94 -5.84,85.57 5.13,102.02z"/>
  <path class="fil2 str0" d="M1881.09 1654.72l10.4 -0.35c9.38,-14.47 4.69,-136.93 4.88,-167.85 0.11,-18.95 5.34,-35.7 -15.08,-35.42 -11.03,14.74 -5.26,76.89 -5.26,101.75 0,25.29 -5.79,86.31 5.06,101.87z"/>
  <path class="fil2 str0" d="M2148.46 1452.04c-9.17,5.37 -5.03,135.05 -5.1,161.61 -0.03,10.56 -4.59,52.62 15.15,39.89 8.98,-5.79 4.87,-133.84 4.94,-161.49 0.03,-13.26 4.42,-51.39 -14.99,-40.01z"/>
  <path class="fil2 str0" d="M1747.66 1451.89c-9.08,5.32 -5.01,135.34 -5.06,161.76 -0.03,11.09 -3.62,52.09 15.25,39.87 8.87,-5.74 4.83,-133.89 4.88,-161.47 0.03,-13.08 4.41,-51.58 -15.07,-40.16z"/>
  <path class="fil4 str0" d="M2410.26 1486.53l0 135.41c0,15.37 -2.4,22.34 4.96,32.41l10.68 0.43c5.99,-8.25 4.93,-9.54 4.93,-21.79l-0.01 -160.28c0.02,-12.68 1.07,-13.45 -5.16,-21.53l-10.27 -0.07c-7.77,10.33 -5.13,19.71 -5.13,35.42z"/>
  <path class="fil4 str0" d="M2009.54 1481l0 143.7c0,15.27 -2.31,19.79 5.17,29.62l10.16 0.48c7.57,-10.21 5.21,-14.85 5.21,-30.1l0.01 -140.94c0,-15.75 2.62,-22.45 -5.35,-32.47l-9.94 -0.18c-7.66,10.02 -5.26,14.57 -5.26,29.89z"/>
  <path class="fil2 str0" d="M2549.21 1451.96c-9.15,5.26 -5.02,135.21 -5.1,161.69 -0.03,11.09 -3.8,51.98 15.26,39.96 8.68,-5.48 4.74,-134.23 4.79,-161.56 0.02,-13.28 4.75,-51.43 -14.95,-40.09z"/>
 </g>
</svg>
