<?xml version="1.0" encoding="UTF-8"?>
<!DOCTYPE svg PUBLIC "-//W3C//DTD SVG 1.1//EN" "http://www.w3.org/Graphics/SVG/1.1/DTD/svg11.dtd">
<!-- Creator: CorelDRAW -->
<svg xmlns="http://www.w3.org/2000/svg" xml:space="preserve" width="42.3332mm" height="33.8666mm" version="1.1" style="shape-rendering:geometricPrecision; text-rendering:geometricPrecision; image-rendering:optimizeQuality; fill-rule:evenodd; clip-rule:evenodd"
viewBox="0 0 4233.32 3386.66"
 xmlns:xlink="http://www.w3.org/1999/xlink"
 xmlns:xodm="http://www.corel.com/coreldraw/odm/2003">
 <defs>
  <style type="text/css">
   <![CDATA[
    .str2 {stroke:black;stroke-width:7.62;stroke-miterlimit:22.9256}
    .str0 {stroke:#231F20;stroke-width:40;stroke-linecap:round;stroke-linejoin:round;stroke-miterlimit:10}
    .str1 {stroke:#FD5631;stroke-width:40;stroke-linecap:round;stroke-linejoin:round;stroke-miterlimit:10}
    .fil0 {fill:none;fill-rule:nonzero}
    .fil1 {fill:#2B2B2A}
   ]]>
  </style>
 </defs>
 <g id="Layer_x0020_1">
  <metadata id="CorelCorpID_0Corel-Layer"/>
  <line class="fil0 str0" x1="3352.6" y1="2119.59" x2="3352.6" y2= "3268.37" />
  <line class="fil0 str0" x1="3897.14" y1="2119.59" x2="3897.14" y2= "3268.37" />
  <line class="fil0 str0" x1="1778.11" y1="1077.4" x2="1778.11" y2= "3268.37" />
  <line class="fil0 str0" x1="2463.38" y1="1077.4" x2="2463.38" y2= "3268.37" />
  <path class="fil0 str1" d="M3768.65 3272.9l-296.75 0 0 -148.37c0,-81.95 66.43,-148.38 148.38,-148.38l0 0c81.94,0 148.37,66.43 148.37,148.38l0 148.37z"/>
  <path class="fil0 str0" d="M2311.67 3272.9l-381.85 0 0 -268.28c0,-105.45 85.48,-190.93 190.92,-190.93l0 0c105.45,0 190.93,85.48 190.93,190.93l0 268.28z"/>
  <path class="fil0 str1" d="M3768.65 2857.2l-296.75 0 0 -289.78c0,-81.95 66.43,-148.37 148.38,-148.37l0 0c81.94,0 148.37,66.42 148.37,148.37l0 289.78z"/>
  <path class="fil0 str0" d="M2731.11 3262.12l-181.05 0 0 -176.8c0,-50 40.53,-90.53 90.52,-90.53 50,0 90.53,40.53 90.53,90.53l0 176.8z"/>
  <path class="fil0 str0" d="M3002.42 3262.12l-181.05 0 0 -176.8c0,-50 40.53,-90.53 90.52,-90.53l0 0c50,0 90.53,40.53 90.53,90.53l0 176.8z"/>
  <path class="fil0 str0" d="M3273.74 3262.12l-181.05 0 0 -176.8c0,-50 40.53,-90.53 90.52,-90.53l0 0c50,0 90.53,40.53 90.53,90.53l0 176.8z"/>
  <path class="fil0 str1" d="M2086.3 2072.86l-139.14 0 0 -277.09c0,-34.97 28.35,-63.32 63.32,-63.32l12.5 0c34.97,0 63.32,28.35 63.32,63.32l0 277.09z"/>
  <path class="fil0 str1" d="M2302.49 2072.86l-139.15 0 0 -277.09c0,-34.97 28.36,-63.32 63.33,-63.32l12.5 0c34.97,0 63.32,28.35 63.32,63.32l0 277.09z"/>
  <path class="fil0 str1" d="M2086.3 2695.4l-139.14 0 0 -277.09c0,-34.97 28.35,-63.32 63.32,-63.32l12.5 0c34.97,0 63.32,28.35 63.32,63.32l0 277.09z"/>
  <path class="fil0 str1" d="M2302.49 2695.4l-139.15 0 0 -277.09c0,-34.97 28.36,-63.32 63.33,-63.32l12.5 0c34.97,0 63.32,28.35 63.32,63.32l0 277.09z"/>
  <path class="fil0 str0" d="M2635.26 2720.04l-79.65 0 0 -158.6c0,-20.02 16.23,-36.24 36.25,-36.24l7.16 0c20.01,0 36.24,16.22 36.24,36.24l0 158.6z"/>
  <path class="fil0 str0" d="M2719.25 2720.04l-79.65 0 0 -158.6c0,-20.02 16.23,-36.24 36.25,-36.24l7.16 0c20.01,0 36.24,16.22 36.24,36.24l0 158.6z"/>
  <path class="fil0 str0" d="M2909.72 2720.04l-79.64 0 0 -158.6c0,-20.02 16.22,-36.24 36.25,-36.24l7.15 0c20.02,0 36.24,16.22 36.24,36.24l0 158.6z"/>
  <path class="fil0 str0" d="M2993.71 2720.04l-79.64 0 0 -158.6c0,-20.02 16.22,-36.24 36.25,-36.24l7.15 0c20.02,0 36.24,16.22 36.24,36.24l0 158.6z"/>
  <path class="fil0 str0" d="M3181.04 2720.04l-79.65 0 0 -158.6c0,-20.02 16.23,-36.24 36.25,-36.24l7.16 0c20.01,0 36.24,16.22 36.24,36.24l0 158.6z"/>
  <path class="fil0 str0" d="M3265.03 2720.04l-79.65 0 0 -158.6c0,-20.02 16.23,-36.24 36.25,-36.24l7.16 0c20.01,0 36.24,16.22 36.24,36.24l0 158.6z"/>
  <path class="fil0 str1" d="M3669.32 2264.39l-98.08 0 0 -95.77c0,-27.08 21.96,-49.04 49.04,-49.04 27.08,0 49.04,21.96 49.04,49.04l0 95.77z"/>
  <line class="fil0 str0" x1="3279.18" y1="2264.39" x2="3964.44" y2= "2264.39" />
  <line class="fil0 str0" x1="3397.63" y1="1775.96" x2="3846" y2= "1775.96" />
  <polyline class="fil0 str0" points="3294.13,2082.04 3513.04,2082.04 3628.6,1958.31 3742.82,2082.04 3964.44,2082.04 "/>
  <line class="fil0 str0" x1="3468.17" y1="1775.96" x2="3352.6" y2= "2082.04" />
  <line class="fil0 str0" x1="3768.65" y1="1775.96" x2="3897.14" y2= "2082.04" />
  <line class="fil0 str0" x1="3503.52" y1="1580.48" x2="3503.52" y2= "1775.96" />
  <line class="fil0 str0" x1="3742.82" y1="1580.48" x2="3742.82" y2= "1775.96" />
  <line class="fil0 str0" x1="3516.77" y1="1663.76" x2="3742.82" y2= "1663.76" />
  <line class="fil0 str0" x1="361.35" y1="2119.59" x2="361.35" y2= "3268.37" />
  <line class="fil0 str0" x1="905.89" y1="2119.59" x2="905.89" y2= "3268.37" />
  <path class="fil0 str1" d="M777.4 3272.9l-296.75 0 0 -148.37c0,-81.95 66.43,-148.38 148.37,-148.38l0 0c81.95,0 148.38,66.43 148.38,148.38l0 148.37z"/>
  <path class="fil0 str1" d="M777.4 2857.2l-296.75 0 0 -289.78c0,-81.95 66.43,-148.37 148.37,-148.37l0 0c81.95,0 148.38,66.42 148.38,148.37l0 289.78z"/>
  <path class="fil0 str1" d="M678.06 2264.39l-98.07 0 0 -95.77c0,-27.08 21.96,-49.04 49.04,-49.04l0 0c27.08,0 49.03,21.96 49.03,49.04l0 95.77z"/>
  <line class="fil0 str0" x1="287.92" y1="2264.39" x2="973.19" y2= "2264.39" />
  <line class="fil0 str0" x1="406.37" y1="1775.96" x2="854.75" y2= "1775.96" />
  <polyline class="fil0 str0" points="302.88,2082.04 521.78,2082.04 637.35,1958.31 751.57,2082.04 973.19,2082.04 "/>
  <line class="fil0 str0" x1="476.91" y1="1775.96" x2="361.35" y2= "2082.04" />
  <line class="fil0 str0" x1="777.4" y1="1775.96" x2="905.89" y2= "2082.04" />
  <line class="fil0 str0" x1="512.27" y1="1580.48" x2="512.27" y2= "1775.96" />
  <line class="fil0 str0" x1="751.57" y1="1580.48" x2="751.57" y2= "1775.96" />
  <line class="fil0 str0" x1="525.52" y1="1663.76" x2="751.56" y2= "1663.76" />
  <line class="fil0 str0" x1="2000.63" y1="141.62" x2="2000.63" y2= "337.1" />
  <line class="fil0 str0" x1="2120.28" y1="18.23" x2="2120.28" y2= "213.71" />
  <line class="fil0 str0" x1="2239.93" y1="141.62" x2="2239.93" y2= "337.1" />
  <line class="fil0 str0" x1="2013.89" y1="224.9" x2="2239.93" y2= "224.9" />
  <line class="fil0 str0" x1="1975.19" y1="358.14" x2="2278.63" y2= "358.14" />
  <line class="fil0 str0" x1="2239.93" y1="358.14" x2="2463.37" y2= "1077.41" />
  <line class="fil0 str0" x1="2000.63" y1="358.14" x2="1778.11" y2= "1077.41" />
  <line class="fil0 str0" x1="1929.03" y1="1088.28" x2="1778.11" y2= "1088.28" />
  <line class="fil0 str0" x1="2463.38" y1="1088.28" x2="2320.61" y2= "1088.28" />
  <polygon class="fil0 str0" points="2239.93,963.19 2126.91,659.99 2006.53,963.19 1929.04,963.19 1929.04,1436.36 2320.61,1436.36 2320.61,963.19 "/>
  <path class="fil0 str0" d="M3422.87 2264.39l-49.03 0 0 -47.89c0,-13.53 10.97,-24.51 24.52,-24.51 13.53,0 24.51,10.98 24.51,24.51l0 47.89z"/>
  <path class="fil0 str0" d="M3480.36 2264.39l-49.03 0 0 -47.89c0,-13.53 10.97,-24.51 24.51,-24.51l0 0c13.54,0 24.52,10.98 24.52,24.51l0 47.89z"/>
  <path class="fil0 str0" d="M3817.69 2264.39l-49.03 0 0 -47.89c0,-13.53 10.97,-24.51 24.51,-24.51 13.54,0 24.52,10.98 24.52,24.51l0 47.89z"/>
  <path class="fil0 str0" d="M3870.51 2264.39l-49.03 0 0 -47.89c0,-13.53 10.97,-24.51 24.51,-24.51l0 0c13.54,0 24.52,10.98 24.52,24.51l0 47.89z"/>
  <path class="fil0 str0" d="M431.62 2264.39l-49.03 0 0 -47.89c0,-13.53 10.97,-24.51 24.51,-24.51l0 0c13.54,0 24.52,10.98 24.52,24.51l0 47.89z"/>
  <path class="fil0 str0" d="M489.11 2264.39l-49.03 0 0 -47.89c0,-13.53 10.97,-24.51 24.51,-24.51l0 0c13.54,0 24.52,10.98 24.52,24.51l0 47.89z"/>
  <path class="fil0 str0" d="M826.44 2264.39l-49.04 0 0 -47.89c0,-13.53 10.97,-24.51 24.52,-24.51 13.54,0 24.52,10.98 24.52,24.51l0 47.89z"/>
  <path class="fil0 str0" d="M879.26 2264.39l-49.03 0 0 -47.89c0,-13.53 10.97,-24.51 24.51,-24.51 13.54,0 24.52,10.98 24.52,24.51l0 47.89z"/>
  <path class="fil0 str0" d="M2229.86 1208.95c0,59.14 -47.94,107.08 -107.08,107.08 -59.13,0 -107.07,-47.94 -107.07,-107.08 0,-59.13 47.94,-107.07 107.07,-107.07 59.14,0 107.08,47.94 107.08,107.07z"/>
  <line class="fil0 str0" x1="2122.78" y1="1162.55" x2="2122.78" y2= "1217.11" />
  <line class="fil0 str0" x1="2165.1" y1="1246.17" x2="2122.78" y2= "1217.11" />
  <line class="fil0 str0" x1="1778.11" y1="1436.35" x2="2463.38" y2= "1436.35" />
  <line class="fil0 str0" x1="1778.11" y1="2702.88" x2="2463.38" y2= "2702.88" />
  <polygon class="fil0 str1" points="2368.2,2231.76 1892.32,2231.76 1892.32,2147.46 2368.2,2147.46 "/>
  <polygon class="fil0 str0" points="2634.69,2910.9 2549.58,2910.9 2549.58,2815.05 2634.69,2815.05 "/>
  <polygon class="fil0 str0" points="2719.81,2910.9 2634.69,2910.9 2634.69,2815.05 2719.81,2815.05 "/>
  <polygon class="fil0 str0" points="2906.48,2910.9 2821.37,2910.9 2821.37,2815.05 2906.48,2815.05 "/>
  <polygon class="fil0 str0" points="2991.59,2910.9 2906.48,2910.9 2906.48,2815.05 2991.59,2815.05 "/>
  <polygon class="fil0 str0" points="3183.21,2910.9 3098.1,2910.9 3098.1,2815.05 3183.21,2815.05 "/>
  <polygon class="fil0 str0" points="3268.33,2910.9 3183.21,2910.9 3183.21,2815.05 3268.33,2815.05 "/>
  <path class="fil0 str0" d="M1154.72 3262.12l-181.05 0 0 -176.8c0,-50 40.52,-90.53 90.52,-90.53l0 0c50,0 90.53,40.53 90.53,90.53l0 176.8z"/>
  <path class="fil0 str0" d="M1426.03 3262.12l-181.05 0 0 -176.8c0,-50 40.53,-90.53 90.52,-90.53l0 0c50,0 90.53,40.53 90.53,90.53l0 176.8z"/>
  <path class="fil0 str0" d="M1697.34 3262.12l-181.04 0 0 -176.8c0,-50 40.53,-90.53 90.52,-90.53l0 0c50,0 90.52,40.53 90.52,90.53l0 176.8z"/>
  <path class="fil0 str0" d="M1058.87 2720.04l-79.65 0 0 -158.6c0,-20.02 16.23,-36.24 36.25,-36.24l7.16 0c20.01,0 36.24,16.22 36.24,36.24l0 158.6z"/>
  <path class="fil0 str0" d="M1142.86 2720.04l-79.65 0 0 -158.6c0,-20.02 16.23,-36.24 36.25,-36.24l7.16 0c20.01,0 36.24,16.22 36.24,36.24l0 158.6z"/>
  <path class="fil0 str0" d="M1333.33 2720.04l-79.64 0 0 -158.6c0,-20.02 16.22,-36.24 36.25,-36.24l7.15 0c20.02,0 36.24,16.22 36.24,36.24l0 158.6z"/>
  <path class="fil0 str0" d="M1417.32 2720.04l-79.64 0 0 -158.6c0,-20.02 16.22,-36.24 36.25,-36.24l7.15 0c20.02,0 36.24,16.22 36.24,36.24l0 158.6z"/>
  <path class="fil0 str0" d="M1604.65 2720.04l-79.65 0 0 -158.6c0,-20.02 16.23,-36.24 36.25,-36.24l7.16 0c20.01,0 36.24,16.22 36.24,36.24l0 158.6z"/>
  <path class="fil0 str0" d="M1688.64 2720.04l-79.65 0 0 -158.6c0,-20.02 16.24,-36.24 36.25,-36.24l7.15 0c20.02,0 36.25,16.22 36.25,36.24l0 158.6z"/>
  <polygon class="fil0 str0" points="1058.31,2910.9 973.19,2910.9 973.19,2815.05 1058.31,2815.05 "/>
  <polygon class="fil0 str0" points="1143.42,2910.9 1058.31,2910.9 1058.31,2815.05 1143.42,2815.05 "/>
  <polygon class="fil0 str0" points="1330.1,2910.9 1244.98,2910.9 1244.98,2815.05 1330.1,2815.05 "/>
  <polygon class="fil0 str0" points="1415.21,2910.9 1330.1,2910.9 1330.1,2815.05 1415.21,2815.05 "/>
  <polygon class="fil0 str0" points="1606.82,2910.9 1521.71,2910.9 1521.71,2815.05 1606.82,2815.05 "/>
  <polygon class="fil0 str0" points="1691.93,2910.9 1606.82,2910.9 1606.82,2815.05 1691.93,2815.05 "/>
  <line class="fil0 str0" x1="905.89" y1="2390.84" x2="1778.11" y2= "2390.84" />
  <line class="fil0 str0" x1="905.89" y1="2191.99" x2="1778.11" y2= "2191.99" />
  <line class="fil0 str0" x1="2463.38" y1="2191.99" x2="3352.6" y2= "2191.99" />
  <line class="fil0 str0" x1="2463.38" y1="2390.84" x2="3352.6" y2= "2390.84" />
  <line class="fil0 str0" x1="252.57" y1="3272.9" x2="3997.07" y2= "3272.9" />
  <path class="fil1 str2" d="M242.63 3349.71l3759.55 0c8,0 14.5,-6.5 14.5,-14.51 0,-8.02 -6.5,-14.5 -14.5,-14.5l-3759.55 0c-8.01,0 -14.5,6.48 -14.5,14.5 0,8.01 6.49,14.51 14.5,14.51z"/>
 </g>
</svg>
