<?xml version="1.0" encoding="UTF-8"?>
<!DOCTYPE svg PUBLIC "-//W3C//DTD SVG 1.1//EN" "http://www.w3.org/Graphics/SVG/1.1/DTD/svg11.dtd">
<!-- Creator: CorelDRAW -->
<svg xmlns="http://www.w3.org/2000/svg" xml:space="preserve" width="16.9332mm" height="16.9332mm" version="1.1" style="shape-rendering:geometricPrecision; text-rendering:geometricPrecision; image-rendering:optimizeQuality; fill-rule:evenodd; clip-rule:evenodd"
viewBox="0 0 1693.32 1693.32"
 xmlns:xlink="http://www.w3.org/1999/xlink"
 xmlns:xodm="http://www.corel.com/coreldraw/odm/2003">
 <defs>
  <style type="text/css">
   <![CDATA[
    .fil0 {fill:black}
    .fil1 {fill:#FD5631}
   ]]>
  </style>
 </defs>
 <g id="Layer_x0020_1">
  <metadata id="CorelCorpID_0Corel-Layer"/>
  <path class="fil0" d="M501.22 586.73c6.06,42.28 -18.89,141.46 38.3,141.8 57.04,0.34 32.58,-99.75 38.25,-141.66l470.33 -0.82c7.19,72.36 -25.55,159.26 62.76,137.46 21.56,-47.14 4.77,-82.7 14.09,-137.35 75.14,-1.01 130.27,-14.37 154.84,47.18l131.71 713.84c3.46,72.61 -76.88,66.12 -143.86,66.03l-846.11 -0.01c-221.29,0.01 -190.36,-12.05 -153.04,-213.78 25.22,-136.31 69.28,-420.02 97.52,-540.39 18.36,-78.24 55.96,-76.45 135.21,-72.3zm74.68 -74.68c-1.2,-94.72 -2.19,-157.55 53.15,-220.45 107.54,-122.24 277.13,-114.17 370.8,4.49 46.23,58.57 50.22,121.06 49.58,217.34l-473.53 -1.38zm-72.75 0.19c-91.33,7.12 -144.31,2 -182.55,67.12 -36.48,62.14 -110.3,529.06 -125.3,617.22 -19.07,112.12 -85.44,289.63 156.84,288.92 164.13,-0.49 328.31,-0.09 492.44,-0.09 160.3,0 334.12,6.46 492.73,-0.11 73.78,-3.06 132.97,-44.44 144.8,-105.54 9.46,-48.85 -91.1,-559.82 -103.77,-629.33 -13.12,-71.98 -18.62,-143.28 -59.71,-190.41 -44.79,-51.36 -111.44,-45.57 -196.15,-46.66 -1.81,-127.84 -12.28,-190.91 -73.82,-273.02 -90.23,-120.4 -323.29,-166.77 -474.44,3 -61.33,68.88 -69.3,153.35 -71.07,268.9z"/>
  <path class="fil1" d="M657.33 1038.79c-35.17,1.91 -185.59,171.14 -217.52,200.63 -23.35,21.56 -61.21,40.68 -49.39,81.77 33.35,36.19 55.94,10.13 78.52,-10.86l189.09 -183.44c25.66,24.61 81.83,92.31 124.13,97.8 18.2,-1.6 217.12,-167.55 259.46,-201.86 28.39,-23.01 55.26,-49.8 85.81,-66 -6.43,60.6 -30.49,125.78 52.08,105.88 16.28,-35.47 39.48,-190.81 27.93,-232.94 -34.26,-13.38 -161.65,-11.93 -210.22,-4.33 -38.35,6 -50.07,45.34 -22.56,64.42 19.04,13.2 77.28,5.51 103.36,7.27 -34.26,33.1 -275.78,230.83 -305.51,242.57 -24.52,-30.8 -72.64,-92.16 -115.18,-100.91z"/>
 </g>
</svg>
