<?xml version="1.0" encoding="UTF-8"?>
<!DOCTYPE svg PUBLIC "-//W3C//DTD SVG 1.1//EN" "http://www.w3.org/Graphics/SVG/1.1/DTD/svg11.dtd">
<!-- Creator: CorelDRAW -->
<svg xmlns="http://www.w3.org/2000/svg" xml:space="preserve" width="16.9332mm" height="16.9332mm" version="1.1" style="shape-rendering:geometricPrecision; text-rendering:geometricPrecision; image-rendering:optimizeQuality; fill-rule:evenodd; clip-rule:evenodd"
viewBox="0 0 1693.32 1693.32"
 xmlns:xlink="http://www.w3.org/1999/xlink"
 xmlns:xodm="http://www.corel.com/coreldraw/odm/2003">
 <defs>
  <style type="text/css">
   <![CDATA[
    .str0 {stroke:black;stroke-width:10;stroke-miterlimit:22.9256}
    .str1 {stroke:#FD5631;stroke-width:10;stroke-miterlimit:22.9256}
    .fil0 {fill:#2B2B2A}
    .fil1 {fill:#FD5631}
   ]]>
  </style>
 </defs>
 <g id="Layer_x0020_1">
  <metadata id="CorelCorpID_0Corel-Layer"/>
  <path class="fil0 str0" d="M431.7 779.15c49.02,-8.21 23.83,-26.08 9.78,-57.08 -36.08,-79.61 -79.02,-147.31 -76.16,-231.8 4.08,-120.35 64.76,-218.16 189.96,-228.1 180.19,-10.41 292.71,92.06 390.14,120.44 69.98,20.38 93.29,1.82 147.95,-13.72l3.48 -21.38 -16.21 -13.23c-42.36,14.4 -56.11,25.9 -106.07,18.17 -27.5,-4.25 -71.92,-18.25 -89.35,-36.54 57.15,-20.09 188.83,-50.88 251.53,-55.48 124.4,3.85 195.51,69.88 213.67,183.84 22.3,139.91 -45.95,204.35 -89.37,306.55 -55.6,130.87 -29.45,207.56 -59.44,339.94 -21.81,96.25 -81.14,224.84 -155.87,249.55 -85.95,50.53 -81.91,-61.43 -80.6,-118.14 1.82,-79.64 0.02,-132.98 -9.9,-211.04 -37.71,-94.12 -172.09,-97 -193.8,23.03 -24.37,134.8 23.07,288.4 -36.24,311.62 -77.38,32.6 -146.35,-96.88 -172.18,-154.43 -48.16,-107.36 -41.74,-169.6 -53.59,-290.03l-15.54 -5.62c-0.45,-40.9 19.86,-18.46 0.85,-80.33l-15.41 -26.96c-22.87,17.42 -20.56,9.65 -16.18,47.5 15.55,92.79 12.66,203.61 37.19,288.67 30.44,105.54 109.72,276.93 234.11,260.4 135.92,-18.07 7.05,-332.36 99.87,-395.39 43.92,-29.83 89.38,-0.89 98.34,46.32 20.84,109.97 -8.67,256.18 18.2,307.61 20.27,38.81 64.84,54.96 117.94,32.65 70.4,-29.58 113.19,-103.16 146.98,-185.49 42.18,-102.77 39.8,-165.26 50.11,-282.43 17.68,-200.97 186.09,-293.02 120.27,-511.76 -24.26,-80.63 -80.64,-141.51 -164.07,-162.63 -100.05,-25.33 -191.08,11.1 -281.33,34.82 -172.91,45.47 -372.66,-135.96 -523.39,22.42 -29.46,30.96 -45.83,49.97 -62.16,101.11 -14.8,46.35 -20.86,102.48 -12.27,153.23 17.46,103.24 76.56,154.01 98.76,233.71z"/>
  <path class="fil1 str1" d="M454.4 404.08c-26.61,81.61 -22.68,86.84 -3.95,169.95 59.23,34.42 4.9,-46.87 27.43,-133.03 19,-72.7 52.42,-63.52 119.4,-77.6 6.05,-48.16 -42.99,-35.03 -77.64,-22.18 -35.78,13.27 -49.38,31.58 -65.24,62.86z"/>
 </g>
</svg>
