<?xml version="1.0" encoding="UTF-8"?>
<!DOCTYPE svg PUBLIC "-//W3C//DTD SVG 1.1//EN" "http://www.w3.org/Graphics/SVG/1.1/DTD/svg11.dtd">
<!-- Creator: CorelDRAW -->
<svg xmlns="http://www.w3.org/2000/svg" xml:space="preserve" width="16.9332mm" height="16.9332mm" version="1.1" style="shape-rendering:geometricPrecision; text-rendering:geometricPrecision; image-rendering:optimizeQuality; fill-rule:evenodd; clip-rule:evenodd"
viewBox="0 0 1693.32 1693.32"
 xmlns:xlink="http://www.w3.org/1999/xlink"
 xmlns:xodm="http://www.corel.com/coreldraw/odm/2003">
 <defs>
  <style type="text/css">
   <![CDATA[
    .fil1 {fill:#2B2B2A}
    .fil0 {fill:#FD5631}
   ]]>
  </style>
 </defs>
 <g id="Layer_x0020_1">
  <metadata id="CorelCorpID_0Corel-Layer"/>
  <path class="fil0" d="M1394.08 781.22l62.85 -0.2 0.11 62.38 -62.35 0.2 -0.61 -62.38zm-1176.95 0.34l62.6 -0.57 0.17 62.57 -62.35 -0.02 -0.42 -61.98zm532.6 -613.82l135.23 -0.15 0.39 136.55c-20.81,0.85 -121.83,2.78 -135.59,-0.85l-0.03 -135.55zm674.06 30.25c21.79,-8.57 41.34,6.4 46.32,21.48 6.55,19.81 -4.99,40.24 -20,45.63 -46.43,16.7 -70.66,-49.67 -26.32,-67.11zm-1219.71 0.17c46.07,-18.09 68.43,52.99 24.65,67.25 -46.07,15.01 -67.32,-50.5 -24.65,-67.25zm283.81 10.84c-0.5,5.99 0.79,6.66 0.02,12.51 -0.23,1.75 -1.44,5.46 -2.02,6.63 -4.93,10 -18.64,6.31 -25.32,4.12 -3.95,-9.94 -4.26,-11.25 -2.1,-23.26l-164.64 0.07c-23.06,-87.69 -158.99,-72.42 -158.02,23.22 0.72,71.26 81.81,101.02 127.57,65.7 19.02,-14.68 19.4,-20.01 31.3,-43.83l304.44 -0.11c-10.93,8.04 -81.01,34.69 -133.74,77.6 -83.19,67.69 -141.87,130.68 -189.17,237.86 -11.1,25.15 -21.31,51.12 -28.91,78.44 -7.88,28.32 -11.51,59.38 -19.21,87.81l-56.33 0.28 0.53 152.87 152.83 -0.34 -0.23 -152.83 -50.32 0.2c3.74,-52.9 32.13,-127.62 53.12,-169.71 27,-54.16 59.33,-96.6 91.77,-133.23 30.5,-34.44 83.82,-75.77 125,-99.95 44.73,-26.27 103.58,-53.25 159.55,-64.39l0.94 80.99 224.54 -0.31c3.79,-17.08 0.54,-66.28 0.73,-87.21 38.7,-1.54 145.47,42.01 175.36,59.12 98.45,56.35 182.92,134.57 233.65,237.29 16.9,34.22 58.48,133.04 56.5,177.37l-47.09 0.04 0.68 153.15 152.72 -0.52 -0.07 -152.72 -58.81 0.25c-3.67,-10.4 -10.17,-57.2 -19.03,-85.68 -8.92,-28.72 -17.17,-52.08 -28.66,-78.68 -22.66,-52.42 -50.49,-94.45 -81.02,-133.4 -53.01,-67.62 -127.51,-128.4 -207.19,-167.21 -11.95,-5.82 -25.41,-10.79 -36.35,-16.84l287.43 -0.22c10.28,20.06 16.55,42.17 50.77,53.77 35.67,12.09 78.65,-5.88 80.03,-16.38l-4.87 -6.45c-10.19,-11.78 -16.89,-10.11 -14.3,-35.91 4.01,-2.07 10.35,-6.22 16.99,-5.84 7.31,0.42 10.3,4.06 11.63,6.25l-16.63 -19.25c-0.22,-0.41 -0.58,-0.96 -0.75,-1.38l3.26 -6.77c6.79,1.02 8.64,3.93 10.52,9.41l8.62 -7.66c8.15,1.64 7.97,2.14 13.35,4.68 -0.98,-89.41 -133.88,-108.47 -157.88,-19.38l-428.82 -0.11 -0.28 -86.85 -225.98 0.48 0.39 86.21 -216.5 0.1z"/>
  <path class="fil1" d="M644.44 1389.95l356.04 -0.4 0.54 123.05 -356.35 -0.02 -0.23 -122.63zm46.33 -73.8l263.44 -0.36 0.37 28.58 -263.87 0.08 0.06 -28.3zm119.94 -459.29c49.51,-17.12 75.85,58.62 25.47,76.95 -48.27,17.55 -81.3,-57.63 -25.47,-76.95zm34.04 -43.56l0.38 -354.78c2.83,2.84 252.07,511.83 254.56,522.47 -12.91,7.66 -54.17,42.63 -64.27,53.28 -20.46,21.57 -35.37,37.9 -52.77,65.03 -25.74,40.18 -56.26,116.07 -65.79,171.55l-188.61 -0.24c-9.44,-55.31 -39.26,-129.48 -65.09,-170.55 -33.16,-52.74 -70.68,-82.59 -116.59,-119.15 0.56,-10.99 176.4,-367.12 188.09,-390.44 11.11,-22.18 21.08,-42.92 31.82,-65.01l27.12 -56.73c1.41,-2.52 1.19,-2.26 2.67,-4.23 2.59,-3.45 1.16,-1.79 3.8,-4.24l-0.01 352.88c-91.04,19.1 -82.4,167.16 22.23,167.96 44.66,0.34 79.06,-33.05 85.28,-72.34 7.51,-47.43 -26.73,-89.6 -62.82,-95.46zm-356.87 183.06c21.59,10.82 80.8,58.15 97,76.86 32.23,37.22 45.8,52.63 68.65,107.89 8.59,20.81 26,66.91 28.06,89.79l-36.04 -0.13 0.14 73.67 -46.25 0.1 -0.2 212.98 446.04 0.1 0.75 -213.17 -46.21 -0.01 -0.11 -73.84 -36.32 0.15c9.97,-67.63 57.71,-165.08 110.83,-210.4l15.07 -14.21c10.42,-9.18 21.42,-16.39 33.03,-25.88 10.35,-8.46 24.77,-15.81 34.5,-24.63 -1.76,-10.19 -29.11,-62.18 -35.64,-75.99 -12.21,-25.84 -24.11,-49.42 -36.4,-75.05l-146.82 -301.11c-11.92,-24.5 -24.19,-49.23 -36.48,-74.91 -10.54,-22.05 -30.4,-56.86 -36.79,-77.14l-82.38 -0.31c-9.35,12.54 -29.41,58.62 -37.39,75.15l-110.22 226.26c-8.92,17.69 -142.93,290.45 -146.82,303.83z"/>
  <path class="fil1" d="M1489.14 291.47c17.79,-11.26 27.63,-34.48 27.82,-62.92 -5.38,-2.54 -5.2,-3.04 -13.35,-4.68l-8.62 7.66c-1.88,-5.48 -3.73,-8.39 -10.52,-9.41l-3.26 6.77c0.17,0.42 0.53,0.97 0.75,1.38l16.63 19.25c-1.33,-2.19 -4.32,-5.83 -11.63,-6.25 -6.64,-0.38 -12.98,3.77 -16.99,5.84 -2.59,25.8 4.11,24.13 14.3,35.91l4.87 6.45z"/>
  <path class="fil1" d="M487.89 209l-29.42 0c-2.16,12.01 -1.85,13.32 2.1,23.26 6.68,2.19 20.39,5.88 25.32,-4.12 0.58,-1.17 1.79,-4.88 2.02,-6.63 0.77,-5.85 -0.52,-6.52 -0.02,-12.51z"/>
 </g>
</svg>
