<?xml version="1.0" encoding="UTF-8"?>
<!DOCTYPE svg PUBLIC "-//W3C//DTD SVG 1.1//EN" "http://www.w3.org/Graphics/SVG/1.1/DTD/svg11.dtd">
<!-- Creator: CorelDRAW -->
<svg xmlns="http://www.w3.org/2000/svg" xml:space="preserve" width="16.9332mm" height="16.9332mm" version="1.1" style="shape-rendering:geometricPrecision; text-rendering:geometricPrecision; image-rendering:optimizeQuality; fill-rule:evenodd; clip-rule:evenodd"
viewBox="0 0 1693.32 1693.32"
 xmlns:xlink="http://www.w3.org/1999/xlink"
 xmlns:xodm="http://www.corel.com/coreldraw/odm/2003">
 <defs>
  <style type="text/css">
   <![CDATA[
    .str0 {stroke:#FD5631;stroke-width:41;stroke-miterlimit:10}
    .str1 {stroke:black;stroke-width:47.11;stroke-miterlimit:10}
    .fil0 {fill:none}
   ]]>
  </style>
 </defs>
 <g id="Layer_x0020_1">
  <metadata id="CorelCorpID_0Corel-Layer"/>
  <path class="fil0 str0" d="M1131.55 1257.14l-181.4 -281.19c-7.1,-11 -23.74,-12.88 -37.19,-4.21 -13.43,8.66 -18.59,24.62 -11.5,35.62l181.4 281.19 48.69 -31.41z"/>
  <path class="fil0 str0" d="M819.32 989.35c1.77,4.22 3.82,8.53 6.66,12.92l205.89 319.17 152.34 -98.27 -205.9 -319.17c-2.84,-4.4 -5.85,-8.08 -9.02,-11.39 55.2,-77.79 60.89,-184.39 6.01,-269.47 -53.54,-82.98 -149.48,-121.96 -241.07,-106.9l119.54 185.3 -160.91 103.8 -119.54 -185.3c-51.47,77.23 -55.51,180.72 -1.98,263.7 54.89,85.08 154.35,123.84 247.98,105.61z"/>
  <path class="fil0 str0" d="M928.61 667.56c50.72,82.92 24.74,191.28 -58.18,242.01"/>
  <path class="fil0 str1" d="M1079.39 1229.72c-211.18,136.24 -492.78,75.43 -628.98,-135.68 -136.21,-211.15 -75.48,-492.72 135.7,-628.95 211.13,-136.21 492.7,-75.46 628.91,135.69 136.19,211.11 75.5,492.74 -135.63,628.94zm319.37 -737.39c-11,-17.06 -22.76,-33.3 -34.98,-49l93.48 -101.99 -174.7 -160.05 -95.32 103.92c-56.63,-34.76 -117.83,-60.62 -181.44,-77.19l12.04 -142.8 -236.1 -19.98 -12.22 144.62c-64.06,6.48 -127.77,22.32 -189.07,47.96l-79.16 -122.71 -199.09 128.44 79.15 122.7c-46.22,43.07 -85.29,91.65 -116.77,144.14l-136.08 -50.45 -82.41 222.24 134.6 49.83c-8.77,46.82 -12.69,94.56 -11.27,142.42l-138.43 30.95 51.74 231.24 135.76 -30.36c15.42,37.88 34.38,74.84 57.36,110.47 7.93,12.29 16.34,24.1 24.94,35.74l-92.6 100.98 174.74 160.12 90.49 -98.77c57.59,37.32 120.04,65.31 185.31,83.38l-11.14 131.41 236.12 20.01 10.97 -129.41c67.54,-5.82 134.79,-22.03 199.44,-49.06l70.06 108.6 199.1 -128.44 -70.06 -108.6c48.82,-45.41 89.6,-97.06 121.96,-152.96l121.78 45.15 82.38 -222.19 -123.53 -45.79c8.38,-48.78 11.19,-98.56 8.52,-148.36l130.11 -29.14 -51.7 -231.2 -132.81 29.7c-14.29,-32.66 -31.23,-64.68 -51.17,-95.57z"/>
 </g>
</svg>
