<?xml version="1.0" encoding="UTF-8"?>
<!DOCTYPE svg PUBLIC "-//W3C//DTD SVG 1.1//EN" "http://www.w3.org/Graphics/SVG/1.1/DTD/svg11.dtd">
<!-- Creator: CorelDRAW -->
<svg xmlns="http://www.w3.org/2000/svg" xml:space="preserve" width="16.9332mm" height="16.9332mm" version="1.1" style="shape-rendering:geometricPrecision; text-rendering:geometricPrecision; image-rendering:optimizeQuality; fill-rule:evenodd; clip-rule:evenodd"
viewBox="0 0 1693.32 1693.32"
 xmlns:xlink="http://www.w3.org/1999/xlink"
 xmlns:xodm="http://www.corel.com/coreldraw/odm/2003">
 <defs>
  <style type="text/css">
   <![CDATA[
    .str0 {stroke:#FD5631;stroke-width:7.62;stroke-miterlimit:22.9256}
    .fil1 {fill:#FD5631}
    .fil0 {fill:black}
    .fil4 {fill:#565656}
    .fil3 {fill:#828282}
    .fil6 {fill:#838383}
    .fil2 {fill:#8B8B8B}
    .fil5 {fill:#909090}
   ]]>
  </style>
 </defs>
 <g id="Layer_x0020_1">
  <metadata id="CorelCorpID_0Corel-Layer"/>
  <path class="fil0" d="M1321.57 1520.54l-891.49 0.03c-5.5,-4.58 -2.53,2.88 -4.14,-9.03l0.24 -28.07c0.01,-381.74 -2.63,-768.61 0.06,-1148.92l899.14 0.4c2.18,97.98 0.06,198.61 0.06,296.89 0,98.93 0,197.86 0,296.78 0,187.28 -2.4,389.48 0.18,576.43 0.22,15.93 -0.34,13.41 -4.05,15.49zm-784.99 -1416.15l678.4 1.05 0.05 8.12 -0.01 6.45 0.08 150.54 -0.52 8.15 -677.86 -0.49 -0.14 -173.82zm-56.81 174.37c-58.83,-0.68 -109.6,-9.62 -109.48,58.42l0.04 1015.11c0,27.87 3.43,151.69 -1.4,168.77l-126.9 -0.28 0.02 55.89 1267.54 0.14 0.06 -56.02 -126.95 0.02c-4.51,-14.96 -1.38,-947.68 -1.38,-1011.55 0,-56.63 -0.16,-113.28 0.01,-169.91 0.2,-70.67 -48.65,-61.11 -109.39,-60.64l-0.66 -154.4c0,-77.35 -0.76,-76.14 -81.47,-76.14l-625.82 0c-21.73,0 -55.48,-4.51 -70.47,7.78 -17.92,14.68 -13.2,38.06 -13.2,66.21 0,46.55 3.84,112.39 -0.55,156.6z"/>
  <path class="fil0" d="M739.67 1360.48l272.57 0.03 -0.61 43.21 -272.15 0.19 0.19 -43.43zm-55.53 99.88l382.93 -1.09 0.4 -154.38 -383.12 0.04 -0.21 155.43z"/>
  <path class="fil1" d="M1104.16 549.57l83.42 0.5 -0.45 83.26 -82.99 -0.07 0.02 -83.69zm-56.51 -44.61l0.01 176.35 0.47 7.94 195.23 0.28 0.62 -195.95 -17.61 -0.22 -159.15 0.02 -19.5 0.11 -0.07 11.47z"/>
  <path class="fil0" d="M564.76 808.9l82.69 0.28 0.05 83.3 -83.46 -0.3 0.72 -83.28zm-57.08 139.7l196.16 0.1 0.08 -195.93 -195.59 -0.23 -0.65 196.06z"/>
  <path class="fil0" d="M563.99 1068.02l83.58 0.59 -0.63 83.07 -82.79 -0.1 -0.16 -83.56zm-55.72 139.91l195.65 -0.16 -0.02 -195.97 -196.21 0.19 0.58 195.94z"/>
  <path class="fil1" d="M564.16 549.57l83.4 0.43 -0.63 83.29 -82.74 -0.04 -0.03 -83.68zm-54.89 140.11l193.1 -0.28 0.83 -195.49 -194.83 0.4 0.9 195.37z"/>
  <path class="fil0" d="M1184.33 892.72l-76.91 -0.16c-5.96,-4.78 -2.77,6.96 -4.31,-8.95l1.24 -75.18 82.88 0.12c2.44,13.42 0.66,46.33 0.99,64.16 0.05,2.37 0.54,9.14 0.37,10.91 -1.28,13.51 0.55,6.18 -4.26,9.1zm58.26 -140.26l-193.43 0.32 -0.78 194.88 194.8 0.54 -0.59 -195.74z"/>
  <path class="fil0" d="M1107.5 1067.95l76.72 -0.06c5.43,4.32 2.85,-6.99 4.41,8.96l-0.47 32.42c0,13.57 1.3,29.54 -0.89,42.85l-82.99 -0.22 -1.1 -75.04c1.3,-13.57 -1.58,-5.79 4.32,-8.91zm-58.37 139.72l193.42 0.38 0.44 -195.74 -194.63 0.8 0.77 194.56z"/>
  <path class="fil0" d="M835.99 1068.23l79.54 -0.1c4.9,4.62 2.3,-6.01 3.52,8.73l-0.96 75.79 -84.45 -1.09 -1 -74.7c0.79,-11.36 -1.33,-5.76 3.35,-8.63zm-55.84 139.96l191.7 0.09 0.63 -195.36 -193.51 0.03c-0.53,32.69 -0.09,65.74 -0.09,98.47 0,22.74 -2.71,77.82 1.27,96.77z"/>
  <path class="fil0" d="M915.76 892.5l-80.02 -0.08c-2.93,-3.2 -2.35,2.27 -3.16,-8.81l0.93 -75.64 84.57 0.81 0.72 63.93c0.14,23.65 1.35,16.83 -3.04,19.79zm56.03 -140.23l-191.63 0.1c-4.02,19.56 -1.24,75.46 -1.24,98.83 0,32.09 0.3,64.32 -0.04,96.39l193.86 -0.07 -0.95 -195.25z"/>
  <path class="fil1" d="M833.44 633.27c-2,-11.51 -2.4,-74.2 0.47,-84.63l83.87 0.65c2.68,9.17 2.45,73.97 0.31,84.16 -11.3,2.73 -73.84,2.86 -84.65,-0.18zm-53.01 56.49l190.83 -0.05c4.31,-17.15 0.18,-161.35 1.69,-195.24l-193.9 -0.28c-0.3,26.15 -2.01,182.06 1.38,195.57z"/>
  <path class="fil1" d="M762.15 167.12c37.41,-19.79 44.24,47.32 20.9,57.89 -24.9,11.26 -38.39,-15.91 -32.1,-42.97 2.49,-10.74 4.2,-11.21 11.2,-14.92zm66.62 45.36c20.09,-87.17 -96.12,-97.93 -111.19,-35.73 -21.26,87.73 96.09,101.24 111.19,35.73z"/>
  <path class="fil1" d="M662.39 175.93c-2.35,6.52 3.13,2.31 -5.87,4.09 -0.36,0.08 -9.61,-0.1 -10.79,-0.11 -7.18,-0.1 -13.72,0.21 -20.88,-0.46 -4.18,-10.87 -1.63,-25.94 -1.81,-37.89l-30.88 -0.5 -0.09 108.87 31.48 -0.13c-0.52,-7.75 -0.4,-14.71 -0.43,-22.26l0.25 -17.28c1.11,-4.46 1.3,-3.45 2.68,-5.16l36.28 1.19 1.04 44.42 33.42 -0.38 -0.48 -110.14 -33.59 -0.05 -0.33 35.79z"/>
  <path class="fil1" d="M963.75 250.66l90.72 -0.03 -0.39 -24.98 -56.89 0.16c-5.12,-5.31 -3.59,-16.06 -1.81,-23.05l52.07 -0.56 0.35 -19.61 -53.47 -0.94 0.23 -18.04c12.38,-3.58 43.58,-2.3 57.13,-1.06l0.3 -21.65 -89.53 0.17 1.29 109.59z"/>
  <polygon class="fil1" points="841.1,167.01 875.74,167.34 876.21,250.33 910.03,250.79 910.64,167.73 944.92,167.23 945.18,140.1 841.99,140.07 "/>
  <path class="fil1" d="M1073.09 248.42l85.44 0.77 0.22 -24.24 -51.89 -0.83c-3.76,-10.81 -1.17,-65.96 -1.48,-82.33l-31.92 1.29 -0.37 105.34z"/>
  <path class="fil2 str0" d="M780.43 689.76c-3.39,-13.51 -1.68,-169.42 -1.38,-195.57l193.9 0.28c-1.51,33.89 2.62,178.09 -1.69,195.24 4.92,-2.09 3.86,6.76 3.71,-21.3 -0.18,-34.89 2.11,-160.87 -1.02,-175.42l-196.31 -0.64c-3.09,17.6 -0.99,116.91 -0.99,148.1l-0.21 38.86c0.36,11.7 1.22,8.44 3.99,10.45z"/>
  <path class="fil3" d="M626.05 205.1c-1.38,1.71 -1.57,0.7 -2.68,5.16l-0.25 17.28c0.03,7.55 -0.09,14.51 0.43,22.26l-31.48 0.13 0.09 -108.87 30.88 0.5c0.18,11.95 -2.37,27.02 1.81,37.89 7.16,0.67 13.7,0.36 20.88,0.46 1.18,0.01 10.43,0.19 10.79,0.11 9,-1.78 3.52,2.43 5.87,-4.09 -11.26,3.29 -24.5,1.51 -36.72,1.61l-0.18 -37.14c-10.24,-3.5 -24.51,-2.54 -35.84,-0.88l0.23 111.53c10.26,2.44 25.81,3.38 35.57,-0.75l0.6 -45.2z"/>
  <path class="fil4" d="M1073.09 248.42c4.51,3.8 -7.21,3.13 7.04,3.19l81.23 -1.03 -0.15 -27.69 -53.12 -0.49 -0.64 -82.76 -27.32 -0.27c-12.15,0.36 -2.9,-0.74 -6.67,3.71l31.92 -1.29c0.31,16.37 -2.28,71.52 1.48,82.33l51.89 0.83 -0.22 24.24 -85.44 -0.77z"/>
  <path class="fil5 str0" d="M963.75 250.66l-1.29 -109.59 89.53 -0.17 -0.3 21.65c1.93,-0.97 2.4,2.76 2.58,-10.16 0.06,-4.09 -0.23,-8.16 -0.65,-12.21 -11.03,-4.05 -82.52,-4.13 -93.11,0.19l-0.29 98.02c-0.06,13.23 -0.05,9.79 3.53,12.27z"/>
  <path class="fil6" d="M997.19 225.81l-0.06 -20.29c15.79,-0.6 37.94,2.27 52.67,-1.84l-0.85 -23.15 -52.52 -0.57 -0.07 -15.43c7.35,-0.29 52.61,1.52 55.33,-1.98 -13.55,-1.24 -44.75,-2.52 -57.13,1.06l-0.23 18.04 53.47 0.94 -0.35 19.61 -52.07 0.56c-1.78,6.99 -3.31,17.74 1.81,23.05z"/>
 </g>
</svg>
