<?xml version="1.0" encoding="UTF-8"?>
<!DOCTYPE svg PUBLIC "-//W3C//DTD SVG 1.1//EN" "http://www.w3.org/Graphics/SVG/1.1/DTD/svg11.dtd">
<!-- Creator: CorelDRAW -->
<svg xmlns="http://www.w3.org/2000/svg" xml:space="preserve" width="42.3332mm" height="33.8666mm" version="1.1" style="shape-rendering:geometricPrecision; text-rendering:geometricPrecision; image-rendering:optimizeQuality; fill-rule:evenodd; clip-rule:evenodd"
viewBox="0 0 4233.32 3386.66"
 xmlns:xlink="http://www.w3.org/1999/xlink"
 xmlns:xodm="http://www.corel.com/coreldraw/odm/2003">
 <defs>
  <style type="text/css">
   <![CDATA[
    .fil0 {fill:#2B2B2A}
    .fil1 {fill:#FD5631}
   ]]>
  </style>
 </defs>
 <g id="Layer_x0020_1">
  <metadata id="CorelCorpID_0Corel-Layer"/>
  <path class="fil0" d="M222.18 3304.28l3759.55 0c8,0 14.5,-6.5 14.5,-14.51 0,-8.02 -6.5,-14.5 -14.5,-14.5l-3759.55 0c-8.01,0 -14.5,6.48 -14.5,14.5 0,8.01 6.49,14.51 14.5,14.51z"/>
  <path class="fil0" d="M222.18 3208.05l3759.55 0c8,0 14.5,-6.5 14.5,-14.51 0,-8.02 -6.5,-14.5 -14.5,-14.5l-3759.55 0c-8.01,0 -14.5,6.48 -14.5,14.5 0,8.01 6.49,14.51 14.5,14.51z"/>
  <path class="fil0" d="M2097.7 2049.78l-847.1 0c-3.82,0 -7.55,1.55 -10.25,4.24 -2.71,2.7 -4.25,6.44 -4.25,10.27l0 1129.25c0,8.01 6.49,14.51 14.5,14.51 8.01,0 14.51,-6.5 14.51,-14.51l-0.01 -1114.75 832.6 0c8.03,0 14.51,-6.5 14.51,-14.5 0,-8.03 -6.48,-14.51 -14.51,-14.51z"/>
  <path class="fil0" d="M1265.1 2064.29l0 -325.26 833.3 0c8.01,0 14.5,-6.48 14.5,-14.48 0.01,-8.03 -6.49,-14.51 -14.5,-14.51l-847.8 0c-3.82,0 -7.55,1.55 -10.25,4.24 -2.71,2.7 -4.25,6.44 -4.25,10.27l0 339.74c0,8 6.49,14.5 14.5,14.5 8.01,0 14.51,-6.5 14.5,-14.5z"/>
  <path class="fil0" d="M1265.1 1724.54l0 -102.47 832.6 0c8.03,0 14.51,-6.48 14.51,-14.48 0,-8.03 -6.48,-14.51 -14.51,-14.51l-847.1 0c-3.82,0 -7.55,1.55 -10.25,4.24 -2.71,2.7 -4.25,6.44 -4.25,10.27l0 116.95c0,8.01 6.49,14.51 14.5,14.51 8.01,0 14.51,-6.5 14.5,-14.51z"/>
  <path class="fil0" d="M1265.1 1607.58l0 -80.17 833.3 0c8.01,0 14.5,-6.5 14.5,-14.51 0.01,-8.02 -6.49,-14.5 -14.5,-14.5l-847.8 0c-3.82,0 -7.55,1.55 -10.25,4.23 -2.71,2.71 -4.25,6.44 -4.25,10.27l0 94.68c0,8.01 6.49,14.51 14.5,14.51 8.01,0 14.51,-6.5 14.5,-14.51z"/>
  <path class="fil0" d="M1250.6 2222.78l-339.74 0c-3.82,0 -7.55,1.55 -10.26,4.24 -2.7,2.71 -4.24,6.44 -4.24,10.27l0 839.29c0,8.01 6.49,14.51 14.5,14.51 8.01,0 14.5,-6.5 14.5,-14.51l0 -824.79 325.24 0c8.01,0 14.5,-6.5 14.5,-14.5 0,-8.03 -6.49,-14.51 -14.5,-14.51z"/>
  <path class="fil0" d="M1250.6 3062.08l-389.86 0c-5.19,0 -10.03,2.8 -12.6,7.29l-66.83 116.96c-3.98,6.96 -1.56,15.82 5.39,19.8 6.96,3.97 15.82,1.55 19.8,-5.39l62.65 -109.65 381.45 0c8.01,0 14.5,-6.5 14.5,-14.51 0,-8.02 -6.49,-14.5 -14.5,-14.5z"/>
  <path class="fil0" d="M920.7 2226.61l-45.15 -41.65 375.05 0c8.01,0 14.5,-6.5 14.5,-14.51 0,-8.02 -6.49,-14.5 -14.5,-14.5l-412.14 0c-5.96,0 -11.34,3.67 -13.51,9.21 -2.17,5.55 -0.71,11.91 3.67,15.95l72.4 66.83c5.89,5.44 15.06,5.07 20.5,-0.83 5.43,-5.88 5.06,-15.06 -0.82,-20.5z"/>
  <path class="fil0" d="M852.96 2170.45l0 -354.51 397.64 0c8.01,0 14.5,-6.5 14.5,-14.5 0,-8.03 -6.49,-14.51 -14.5,-14.51l-412.14 0c-3.82,0 -7.56,1.55 -10.26,4.24 -2.7,2.7 -4.25,6.44 -4.25,10.27l0.01 369.01c0,8.01 6.49,14.51 14.5,14.51 8.01,0 14.5,-6.5 14.5,-14.51z"/>
  <path class="fil0" d="M1000.55 1801.43l0 -349.17 267.57 0 0 60.64c0,8.01 6.5,14.51 14.51,14.51 8.01,0 14.5,-6.5 14.5,-14.51l0 -75.15c0,-3.82 -1.55,-7.56 -4.25,-10.26 -2.7,-2.69 -6.44,-4.24 -10.25,-4.24l-296.58 0c-3.82,0 -7.55,1.55 -10.26,4.24 -2.69,2.7 -4.24,6.44 -4.24,10.26l0 363.68c0,8.01 6.49,14.51 14.5,14.51 8.01,0 14.51,-6.5 14.5,-14.51z"/>
  <path class="fil0" d="M1311.87 1437.75l0 -14.5 -347.52 0 0 -158.96 333.01 0 0 173.46 14.51 0 0 -14.5 0 14.5 14.5 0 0 -187.97c0,-3.83 -1.55,-7.56 -4.25,-10.27 -2.7,-2.68 -6.44,-4.23 -10.25,-4.23l-362.02 0c-3.82,0 -7.56,1.55 -10.26,4.23 -2.7,2.71 -4.25,6.44 -4.25,10.27l0 187.97c0,3.81 1.55,7.55 4.25,10.25 2.7,2.71 6.44,4.26 10.26,4.26l362.02 0c3.82,0 7.55,-1.57 10.25,-4.26 2.7,-2.71 4.25,-6.44 4.25,-10.25l-14.5 0z"/>
  <path class="fil0" d="M1245.88 1249.78l0 -14.5 -223.59 0 0 -288.46 209.09 0 0 302.96 14.5 0 0 -14.5 0 14.5 14.51 0 0 -317.46c0,-3.83 -1.55,-7.56 -4.25,-10.27 -2.7,-2.69 -6.44,-4.23 -10.26,-4.23l-238.09 0c-3.82,0 -7.56,1.54 -10.26,4.23 -2.7,2.71 -4.25,6.44 -4.25,10.27l0 317.46c0,3.81 1.55,7.54 4.25,10.25 2.7,2.71 6.44,4.26 10.26,4.26l238.09 0c3.82,0 7.56,-1.55 10.26,-4.26 2.7,-2.71 4.24,-6.44 4.24,-10.25l-14.5 0z"/>
  <path class="fil0" d="M1276.82 932.32l0 -14.5 -282.07 0 0 -89.36 267.57 0 0 103.86 14.5 0 0 -14.5 0 14.5 14.51 0 0 -118.36c0,-3.82 -1.55,-7.56 -4.25,-10.26 -2.7,-2.7 -6.44,-4.25 -10.26,-4.25l-296.57 0c-3.82,0 -7.56,1.55 -10.26,4.25 -2.7,2.7 -4.24,6.44 -4.24,10.26l0 118.36c0,3.81 1.54,7.54 4.24,10.25 2.7,2.71 6.44,4.25 10.26,4.25l296.57 0c3.82,0 7.56,-1.56 10.26,-4.25 2.7,-2.71 4.25,-6.44 4.25,-10.25l-14.51 0z"/>
  <path class="fil0" d="M1211.23 813.96l0 -14.51 -156.76 0 0 -142.25 142.25 0 0 156.76 14.51 0 0 -14.51 0 14.51 14.5 0 0 -171.27c0,-3.82 -1.55,-7.55 -4.25,-10.25 -2.7,-2.7 -6.43,-4.25 -10.25,-4.25l-171.26 0c-3.82,0 -7.56,1.55 -10.26,4.25 -2.7,2.7 -4.25,6.44 -4.25,10.26l0 171.26c0,3.82 1.55,7.55 4.25,10.26 2.7,2.7 6.44,4.24 10.26,4.24l171.26 0c3.82,0 7.55,-1.54 10.25,-4.25 2.71,-2.7 4.25,-6.43 4.25,-10.25l-14.5 0z"/>
  <path class="fil0" d="M1120.15 478.87c-0.32,0.13 -6.93,2.82 -16.78,7.9 -7.39,3.81 -16.6,8.97 -26.36,15.44 -14.62,9.72 -30.52,22.34 -43.26,38.29 -6.36,7.98 -11.92,16.83 -15.94,26.62 -4.02,9.78 -6.46,20.53 -6.45,31.91 0,8.24 1.27,16.78 3.98,25.4 2.7,8.63 6.81,17.35 12.41,26.09 4.32,6.75 13.3,8.71 20.04,4.39 6.75,-4.32 8.71,-13.29 4.39,-20.04 -4.37,-6.81 -7.3,-13.17 -9.16,-19.1 -1.86,-5.94 -2.65,-11.46 -2.65,-16.74 0,-6.47 1.2,-12.62 3.4,-18.65 1.93,-5.27 4.64,-10.44 8.01,-15.45 5.87,-8.78 13.75,-17.05 22.34,-24.37 12.88,-11.01 27.31,-19.86 38.41,-25.83 5.55,-2.99 10.27,-5.27 13.56,-6.78 1.64,-0.76 2.92,-1.32 3.77,-1.69 0.43,-0.18 0.74,-0.32 0.94,-0.4l0.21 -0.09 0.04 -0.01 0 0 -3.64 -8.96 3.63 8.96 0.01 0 -3.64 -8.96 3.63 8.96c7.42,-3 11.01,-11.46 8,-18.88 -3,-7.43 -11.46,-11.01 -18.89,-8.01z"/>
  <path class="fil0" d="M1223.44 650.52c5.6,-8.74 9.71,-17.46 12.41,-26.09 2.71,-8.62 3.98,-17.16 3.98,-25.4 0,-10.11 -1.92,-19.74 -5.17,-28.61 -2.84,-7.78 -6.69,-14.99 -11.16,-21.65 -7.82,-11.66 -17.53,-21.67 -27.6,-30.28 -15.13,-12.89 -31.14,-22.64 -43.48,-29.3 -12.34,-6.65 -21.01,-10.16 -21.38,-10.32l-5.44 13.45 14.5 0 0 -58.48c0,-8.01 -6.5,-14.5 -14.5,-14.5 -8.01,0 -14.51,6.49 -14.51,14.5l0 58.48c0,5.91 3.59,11.23 9.06,13.44l2.18 -5.38 -2.19 5.38 0.01 0 2.18 -5.38 -2.19 5.38c0.06,0.02 6.1,2.49 15.02,7.12 6.69,3.47 14.99,8.16 23.59,13.9 12.91,8.61 26.43,19.66 36.24,32.09 4.91,6.21 8.9,12.73 11.62,19.42 2.72,6.7 4.2,13.52 4.21,20.74 0,5.28 -0.8,10.8 -2.65,16.74 -1.86,5.93 -4.8,12.29 -9.16,19.1 -4.32,6.75 -2.35,15.72 4.39,20.04 6.75,4.32 15.72,2.36 20.04,-4.39z"/>
  <path class="fil0" d="M1111.09 598.83l0 43.86c0,8.02 6.49,14.51 14.51,14.51 8.01,0 14.5,-6.49 14.5,-14.5l0 -43.87c0,-8.01 -6.49,-14.5 -14.5,-14.5 -8.02,0 -14.51,6.5 -14.51,14.5z"/>
  <path class="fil0" d="M1066.23 598.83l0 43.86c0,8.02 6.49,14.51 14.5,14.51 8.01,0 14.51,-6.49 14.51,-14.5l0 -43.87c0,-8.01 -6.5,-14.5 -14.51,-14.5 -8.01,0 -14.5,6.5 -14.5,14.5z"/>
  <path class="fil0" d="M1155.88 598.83l0 43.86c0,8.02 6.49,14.51 14.5,14.51 8.01,0 14.51,-6.49 14.51,-14.5l0 -43.87c0,-8.01 -6.5,-14.5 -14.51,-14.5 -8.01,0 -14.5,6.5 -14.5,14.5z"/>
  <path class="fil0" d="M1123.23 702.18c-0.38,0.06 -2.96,0.5 -6.75,1.55 -2.85,0.78 -6.39,1.91 -10.24,3.53 -2.89,1.22 -5.96,2.72 -9.05,4.63 -4.62,2.86 -9.38,6.65 -13.25,12.05 -1.93,2.69 -3.6,5.8 -4.77,9.26 -1.17,3.45 -1.81,7.25 -1.8,11.14 0,22.28 0,69.62 0,69.62 0,8.01 6.49,14.5 14.5,14.5 8.01,0 14.51,-6.49 14.51,-14.5 -0.01,0 -0.01,-47.34 -0.01,-69.62 0.01,-0.95 0.15,-1.54 0.4,-2.16 0.22,-0.55 0.55,-1.13 1.09,-1.81 0.94,-1.18 2.58,-2.6 4.7,-3.88 3.17,-1.95 7.27,-3.53 10.44,-4.46 1.58,-0.47 2.93,-0.8 3.83,-1 0.45,-0.1 0.79,-0.16 0.99,-0.2l0.18 -0.04 0.01 0 -1.48 -8.64 1.43 8.65 0.05 -0.01 -1.48 -8.64 1.43 8.65c7.9,-1.3 13.25,-8.77 11.94,-16.67 -1.3,-7.9 -8.77,-13.25 -16.67,-11.95z"/>
  <path class="fil0" d="M1123.23 730.8l1.64 -9.94 -1.69 9.93 0.05 0.01 1.64 -9.94 -1.69 9.93 0 0c0.1,0.02 1.97,0.36 4.56,1.11 1.95,0.56 4.3,1.36 6.6,2.37 1.71,0.76 3.39,1.63 4.84,2.56 2.19,1.4 3.76,2.91 4.55,4.08 0.41,0.59 0.65,1.1 0.82,1.61 0.16,0.51 0.26,1.04 0.27,1.82 0,22.28 0,69.62 0,69.62 0,8.01 6.49,14.5 14.5,14.5 8.01,0 14.51,-6.49 14.51,-14.5 0,0 0,-47.34 0,-69.62 0.01,-4.62 -0.91,-9.08 -2.51,-13.02 -1.39,-3.46 -3.28,-6.51 -5.38,-9.12 -3.7,-4.59 -8,-7.9 -12.19,-10.47 -6.31,-3.83 -12.51,-6.06 -17.27,-7.5 -4.75,-1.41 -8.08,-1.97 -8.52,-2.05 -7.9,-1.3 -15.37,4.05 -16.67,11.95 -1.31,7.9 4.04,15.37 11.94,16.67z"/>
  <path class="fil0" d="M1127.42 1286.47c-0.52,0.11 -3.25,0.77 -7.23,2.32 -2.97,1.16 -6.65,2.8 -10.61,5.14 -5.92,3.52 -12.57,8.67 -17.96,16.29 -2.68,3.78 -5,8.21 -6.62,13.2 -1.63,4.97 -2.53,10.49 -2.53,16.36 0,31.35 0,97.97 0,97.97 0,8.01 6.5,14.51 14.51,14.51 8.01,0 14.5,-6.5 14.5,-14.51 0,0 0,-66.62 0,-97.97 0,-2.63 0.34,-4.79 0.88,-6.69 0.96,-3.3 2.55,-5.91 4.65,-8.27 1.57,-1.77 3.44,-3.35 5.4,-4.68 2.94,-2.02 6.08,-3.47 8.37,-4.36 1.15,-0.42 2.07,-0.73 2.65,-0.9 0.29,-0.08 0.5,-0.14 0.59,-0.16l0.07 -0.02 -1.81 -7.33 1.71 7.35 0.1 -0.02 -1.81 -7.33 1.71 7.35c7.8,-1.82 12.65,-9.61 10.84,-17.4 -1.81,-7.82 -9.61,-12.67 -17.41,-10.85z"/>
  <path class="fil0" d="M1127.42 1314.72l1.72 -7.41 -1.82 7.39 0.1 0.02 1.72 -7.41 -1.82 7.39c0,0 0.09,0.02 0.28,0.08 0.72,0.19 2.76,0.81 5.25,1.93 1.87,0.85 3.99,1.98 6.03,3.35 3.08,2.09 5.87,4.7 7.8,7.77 0.97,1.55 1.75,3.21 2.32,5.15 0.57,1.93 0.92,4.12 0.92,6.8 0,31.35 0,97.97 0,97.97 0,8.01 6.5,14.51 14.51,14.51 8.01,0 14.5,-6.5 14.5,-14.51 0,0 0,-66.62 0,-97.97 0,-5.22 -0.71,-10.15 -2.01,-14.67 -2.27,-7.95 -6.33,-14.55 -10.89,-19.61 -3.42,-3.83 -7.11,-6.89 -10.68,-9.32 -5.36,-3.66 -10.46,-5.98 -14.33,-7.47 -3.86,-1.49 -6.52,-2.13 -7.03,-2.24 -7.81,-1.82 -15.6,3.03 -17.42,10.85 -1.81,7.79 3.05,15.58 10.85,17.4z"/>
  <path class="fil0" d="M1024.23 1286.47c-0.52,0.11 -3.26,0.77 -7.23,2.32 -2.97,1.16 -6.65,2.8 -10.61,5.14 -5.92,3.52 -12.57,8.67 -17.96,16.29 -2.68,3.78 -5.01,8.21 -6.62,13.2 -1.63,4.97 -2.53,10.49 -2.53,16.36 0,31.35 0,97.97 0,97.97 0,8.01 6.49,14.51 14.51,14.51 8.01,0 14.5,-6.5 14.5,-14.51 0,0 0,-66.62 0,-97.97 0,-2.63 0.34,-4.79 0.89,-6.69 0.95,-3.3 2.54,-5.91 4.64,-8.27 1.57,-1.77 3.44,-3.35 5.4,-4.68 2.94,-2.02 6.08,-3.47 8.37,-4.36 1.14,-0.42 2.07,-0.73 2.65,-0.9 0.29,-0.08 0.49,-0.14 0.59,-0.16l0.07 -0.02 -1.85 -7.46 1.74 7.48 0.11 -0.02 -1.85 -7.46 1.74 7.48c7.81,-1.82 12.66,-9.61 10.85,-17.4 -1.81,-7.82 -9.61,-12.67 -17.41,-10.85z"/>
  <path class="fil0" d="M1024.23 1314.72l1.67 -7.19 -1.77 7.17 0.1 0.02 1.67 -7.19 -1.77 7.17c0,0 0.09,0.02 0.28,0.08 0.72,0.19 2.76,0.81 5.25,1.93 1.87,0.85 3.99,1.98 6.03,3.35 3.08,2.09 5.87,4.7 7.8,7.77 0.97,1.55 1.75,3.21 2.32,5.15 0.57,1.93 0.92,4.12 0.93,6.8 -0.01,31.35 -0.01,97.97 0,97.97 0,8.01 6.49,14.51 14.5,14.51 8.01,0 14.5,-6.5 14.5,-14.51 0,0 0,-66.62 0,-97.97 0.01,-5.22 -0.71,-10.15 -2.01,-14.67 -2.27,-7.95 -6.34,-14.55 -10.89,-19.61 -3.42,-3.83 -7.11,-6.89 -10.68,-9.32 -5.36,-3.66 -10.46,-5.98 -14.33,-7.47 -3.87,-1.49 -6.52,-2.13 -7.04,-2.24 -7.8,-1.82 -15.59,3.03 -17.41,10.85 -1.81,7.79 3.05,15.58 10.85,17.4z"/>
  <path class="fil0" d="M1232.25 1286.47c-0.52,0.11 -3.25,0.77 -7.22,2.32 -2.98,1.16 -6.66,2.8 -10.62,5.14 -5.91,3.52 -12.57,8.67 -17.96,16.29 -2.68,3.78 -5,8.21 -6.62,13.2 -1.62,4.97 -2.53,10.49 -2.52,16.36 -0.01,31.35 -0.01,97.97 0,97.97 0,8.01 6.49,14.51 14.5,14.51 8.01,0 14.5,-6.5 14.5,-14.51 0,0 0,-66.62 0,-97.97 0.01,-2.63 0.35,-4.79 0.89,-6.69 0.96,-3.3 2.54,-5.91 4.64,-8.27 1.57,-1.77 3.44,-3.35 5.41,-4.68 2.93,-2.02 6.07,-3.47 8.36,-4.36 1.15,-0.42 2.08,-0.73 2.66,-0.9 0.29,-0.08 0.49,-0.14 0.58,-0.16l0.07 -0.02 -1.84 -7.46 1.74 7.48 0.1 -0.02 -1.84 -7.46 1.74 7.48c7.8,-1.82 12.66,-9.61 10.84,-17.4 -1.81,-7.82 -9.6,-12.67 -17.41,-10.85z"/>
  <path class="fil0" d="M1232.25 1314.72l1.69 -7.27 -1.79 7.25 0.1 0.02 1.69 -7.27 -1.79 7.25c0,0 0.09,0.02 0.28,0.08 0.73,0.19 2.76,0.81 5.25,1.93 1.88,0.85 4,1.98 6.03,3.35 3.08,2.09 5.88,4.7 7.8,7.77 0.98,1.55 1.76,3.21 2.33,5.15 0.56,1.93 0.92,4.12 0.92,6.8 0,31.35 0,97.97 0,97.97 0,8.01 6.49,14.51 14.5,14.51 8.01,0 14.51,-6.5 14.51,-14.51 -0.01,0 -0.01,-66.62 -0.01,-97.97 0.01,-5.22 -0.7,-10.15 -2.01,-14.67 -2.27,-7.95 -6.33,-14.55 -10.89,-19.61 -3.42,-3.83 -7.11,-6.89 -10.68,-9.32 -5.36,-3.66 -10.45,-5.98 -14.32,-7.47 -3.87,-1.49 -6.53,-2.13 -7.04,-2.24 -7.8,-1.82 -15.6,3.03 -17.41,10.85 -1.82,7.79 3.04,15.58 10.84,17.4z"/>
  <path class="fil0" d="M1111.09 864.08l0 58.49c0,8.01 6.49,14.51 14.51,14.51 8.01,0 14.5,-6.5 14.5,-14.51l0 -58.49c0,-8.01 -6.49,-14.5 -14.5,-14.5 -8.02,0 -14.51,6.49 -14.51,14.5z"/>
  <path class="fil0" d="M1070.87 864.08l0 58.49c0,8.01 6.49,14.51 14.5,14.51 8.01,0 14.51,-6.5 14.51,-14.51l0 -58.49c0,-8.01 -6.5,-14.5 -14.51,-14.5 -8.01,0 -14.5,6.49 -14.5,14.5z"/>
  <path class="fil0" d="M1030.64 864.08l0 58.49c0,8.01 6.5,14.51 14.51,14.51 8.01,0 14.5,-6.5 14.5,-14.51l0 -58.49c0,-8.01 -6.49,-14.5 -14.5,-14.5 -8.01,0 -14.51,6.49 -14.51,14.5z"/>
  <path class="fil0" d="M1190.85 864.08l0 58.49c0,8.01 6.49,14.51 14.5,14.51 8.01,0 14.5,-6.5 14.5,-14.51l0 -58.49c0,-8.01 -6.49,-14.5 -14.5,-14.5 -8.01,0 -14.5,6.49 -14.5,14.5z"/>
  <path class="fil0" d="M1150.62 864.08l0 58.49c0,8.01 6.49,14.51 14.5,14.51 8.01,0 14.51,-6.5 14.51,-14.51l0 -58.49c0,-8.01 -6.5,-14.5 -14.51,-14.5 -8.01,0 -14.5,6.49 -14.5,14.5z"/>
  <path class="fil0" d="M838.46 2000.45l407.42 0c8.01,0 14.51,-6.5 14.51,-14.5 0,-8.03 -6.5,-14.51 -14.51,-14.51l-407.42 0c-8.01,0 -14.51,6.48 -14.51,14.51 0.01,8 6.5,14.5 14.51,14.5z"/>
  <path class="fil0" d="M910.9 1881.23l0 219.3c0,8 6.49,14.5 14.5,14.5 8.01,0 14.51,-6.5 14.51,-14.5l0 -219.3c0,-8.03 -6.5,-14.51 -14.51,-14.51 -8.01,0 -14.5,6.48 -14.5,14.51z"/>
  <path class="fil0" d="M975.65 1881.23l0 219.3c0,8 6.49,14.5 14.5,14.5 8.01,0 14.5,-6.5 14.5,-14.5l0 -219.3c0,-8.03 -6.49,-14.51 -14.5,-14.51 -8.01,0 -14.5,6.48 -14.5,14.51z"/>
  <path class="fil0" d="M1040.39 1881.23l0 219.3c0,8 6.49,14.5 14.5,14.5 8.02,0 14.51,-6.5 14.51,-14.5l0 -219.3c0,-8.03 -6.5,-14.51 -14.51,-14.51 -8,0 -14.5,6.48 -14.5,14.51z"/>
  <path class="fil0" d="M1105.14 1881.23l0 219.3c0,8 6.49,14.5 14.5,14.5 8.01,0 14.51,-6.5 14.51,-14.5l0 -219.3c0,-8.03 -6.5,-14.51 -14.51,-14.51 -8.01,0 -14.5,6.48 -14.5,14.51z"/>
  <path class="fil0" d="M1169.88 1881.23l0 219.3c0,8 6.5,14.5 14.51,14.5 8.01,0 14.5,-6.5 14.5,-14.5l0 -219.3c0,-8.03 -6.49,-14.51 -14.5,-14.51 -8.01,0 -14.51,6.48 -14.51,14.51z"/>
  <path class="fil0" d="M946.49 2237.29l0 65.13c0,8.01 6.49,14.51 14.5,14.51 8.01,-0.01 14.5,-6.5 14.5,-14.51l0 -65.13c0,-8.03 -6.49,-14.51 -14.5,-14.51 -8.01,0 -14.51,6.48 -14.5,14.51z"/>
  <path class="fil0" d="M1000.79 2237.29l0 65.13c0,8.01 6.49,14.51 14.5,14.51 8.01,-0.01 14.5,-6.5 14.5,-14.51l0 -65.13c0,-8.03 -6.49,-14.51 -14.5,-14.51 -8.01,0 -14.5,6.48 -14.5,14.51z"/>
  <path class="fil0" d="M1055.09 2237.29l0 65.13c0,8.01 6.49,14.51 14.5,14.51 8.01,-0.01 14.51,-6.5 14.51,-14.51l0 -65.13c0,-8.03 -6.5,-14.51 -14.51,-14.51 -8.01,0 -14.5,6.48 -14.5,14.51z"/>
  <path class="fil0" d="M1109.39 2237.29l0 65.13c0,8.01 6.49,14.51 14.5,14.51 8.02,-0.01 14.51,-6.5 14.51,-14.51l0 -65.13c0,-8.03 -6.5,-14.51 -14.51,-14.51 -8,0 -14.5,6.48 -14.5,14.51z"/>
  <path class="fil0" d="M1163.69 2237.29l0 65.13c0,8.01 6.5,14.51 14.51,14.51 8.01,-0.01 14.5,-6.5 14.5,-14.51l0 -65.13c0,-8.03 -6.49,-14.51 -14.5,-14.51 -8.01,0 -14.51,6.48 -14.51,14.51z"/>
  <path class="fil0" d="M1218 2237.29l0 65.13c0,8.01 6.49,14.51 14.5,14.51 8.01,-0.01 14.5,-6.5 14.5,-14.51l0.01 -65.13c0,-8.03 -6.5,-14.51 -14.51,-14.51 -8.01,0 -14.5,6.48 -14.5,14.51z"/>
  <path class="fil0" d="M946.49 3011.45l0 65.13c0,8.01 6.49,14.51 14.5,14.51 8.01,0 14.5,-6.5 14.5,-14.51l0 -65.13c0,-8.02 -6.49,-14.5 -14.5,-14.5 -8.01,0 -14.51,6.48 -14.5,14.5z"/>
  <path class="fil0" d="M1000.79 3011.45l0 65.13c0,8.01 6.49,14.51 14.5,14.51 8.01,0 14.5,-6.5 14.5,-14.51l0 -65.13c0,-8.02 -6.49,-14.5 -14.5,-14.5 -8.01,0 -14.5,6.48 -14.5,14.5z"/>
  <path class="fil0" d="M1055.09 3011.45l0 65.13c0,8.01 6.49,14.51 14.5,14.51 8.01,0 14.51,-6.5 14.51,-14.51l0 -65.13c0,-8.02 -6.5,-14.5 -14.51,-14.5 -8.01,0 -14.5,6.48 -14.5,14.5z"/>
  <path class="fil0" d="M1109.39 3011.45l0 65.13c0,8.01 6.49,14.51 14.5,14.51 8.02,0 14.51,-6.5 14.51,-14.51l0 -65.13c0,-8.02 -6.5,-14.5 -14.51,-14.5 -8,0 -14.5,6.48 -14.5,14.5z"/>
  <path class="fil0" d="M1163.69 3011.45l0 65.13c0,8.01 6.5,14.51 14.51,14.51 8.01,0 14.5,-6.5 14.5,-14.51l0 -65.13c0,-8.02 -6.49,-14.5 -14.5,-14.5 -8.01,0 -14.51,6.48 -14.51,14.5z"/>
  <path class="fil0" d="M1218 3011.45l0 65.13c0,8.01 6.49,14.51 14.5,14.51 8.01,0 14.5,-6.5 14.5,-14.51l0.01 -65.13c0,-8.02 -6.5,-14.5 -14.51,-14.5 -8.01,0 -14.5,6.48 -14.5,14.5z"/>
  <path class="fil0" d="M891.1 2314.45l-307.17 0c-3.82,0 -7.56,1.55 -10.26,4.23 -2.7,2.71 -4.25,6.44 -4.25,10.27l0 758.83c0,8.03 6.5,14.5 14.51,14.5 8.01,0 14.5,-6.47 14.5,-14.5l0 -744.32 292.67 0c8.01,0 14.5,-6.5 14.5,-14.51 0,-8 -6.49,-14.5 -14.5,-14.5z"/>
  <path class="fil0" d="M854.34 3073.3l-28.7 0 -49.1 0 -49.11 0 -49.08 0 -49.1 0 -45.33 0 -45.31 0c-5.18,0 -10.02,2.8 -12.59,7.29l-60.43 105.74c-3.98,6.96 -1.56,15.82 5.39,19.8 6.96,3.97 15.82,1.55 19.79,-5.39l56.26 -98.46 36.89 0 45.33 0 49.1 0 49.08 0 49.11 0 49.1 0 28.7 0c8,0 14.5,-6.47 14.5,-14.48 0,-8.03 -6.5,-14.5 -14.5,-14.5z"/>
  <path class="fil0" d="M593.76 2318.3l-38.2 -35.28 335.54 0c8.01,0 14.5,-6.49 14.5,-14.5 0,-8.01 -6.49,-14.5 -14.5,-14.5l-372.63 0c-5.96,0 -11.34,3.67 -13.51,9.22 -2.17,5.55 -0.71,11.89 3.67,15.94l65.46 60.43c5.88,5.43 15.06,5.07 20.49,-0.81 5.44,-5.9 5.07,-15.07 -0.82,-20.5z"/>
  <path class="fil0" d="M838.46 1920.39l-186.56 0 -133.44 0c-3.82,0 -7.55,1.54 -10.25,4.23 -2.7,2.71 -4.25,6.44 -4.25,10.27l0 166.82 0 166.83c0,8.01 6.49,14.5 14.5,14.5 8.01,0 14.51,-6.49 14.51,-14.5l0 -166.83 0 -152.34 118.93 0 186.56 0c8.01,0 14.5,-6.47 14.5,-14.48 0,-8.03 -6.49,-14.5 -14.5,-14.5z"/>
  <path class="fil0" d="M666.41 1934.87l0 -314.31 239.14 0 0 53.45 0 127.42c0,8.01 6.49,14.51 14.5,14.51 8.01,0 14.51,-6.5 14.51,-14.5l0 -127.43 0 -67.95c0,-3.81 -1.55,-7.56 -4.25,-10.25 -2.7,-2.71 -6.44,-4.26 -10.26,-4.26l-268.14 0c-3.82,0 -7.56,1.55 -10.26,4.26 -2.7,2.69 -4.25,6.44 -4.25,10.25l0 328.81c0,8.03 6.5,14.51 14.51,14.51 8.01,-0.01 14.5,-6.48 14.5,-14.51z"/>
  <path class="fil0" d="M946.49 1606.06l0 -14.51 -312.81 0 0 -140.94 298.3 0 0.01 155.45 14.5 0 0 -14.51 0 14.51 14.5 0 0 -169.95c0,-3.83 -1.55,-7.56 -4.24,-10.25 -2.71,-2.71 -6.44,-4.25 -10.26,-4.25l-327.31 -0.01c-3.82,0 -7.56,1.55 -10.26,4.26 -2.7,2.69 -4.25,6.42 -4.25,10.25l0 169.95c0,3.83 1.55,7.56 4.25,10.25 2.7,2.7 6.44,4.25 10.26,4.25l327.31 0c3.82,0 7.55,-1.55 10.26,-4.25 2.7,-2.69 4.24,-6.42 4.24,-10.25l-14.5 0z"/>
  <path class="fil0" d="M886.83 1436.11l0 -14.51 -200.77 0 0 -258.01 186.27 0 0 272.52 14.5 0 0 -14.51 0 14.51 14.5 0 0 -287.02c0,-3.83 -1.54,-7.57 -4.24,-10.27 -2.7,-2.69 -6.44,-4.24 -10.26,-4.24l-215.27 0c-3.82,0 -7.55,1.55 -10.26,4.24 -2.7,2.7 -4.24,6.44 -4.24,10.27l0 287.02c0,3.81 1.54,7.56 4.24,10.25 2.71,2.7 6.44,4.25 10.26,4.25l215.27 0c3.82,0 7.56,-1.54 10.26,-4.25 2.7,-2.69 4.24,-6.44 4.24,-10.25l-14.5 0z"/>
  <path class="fil0" d="M914.81 1149.09l0 -14.51 -253.65 0 0 -78.01 239.14 0 0 92.52 14.51 0 0 -14.51 0 14.51 14.5 0 0 -107.02c0,-3.81 -1.55,-7.55 -4.25,-10.25 -2.7,-2.71 -6.43,-4.26 -10.25,-4.26l-268.15 0c-3.82,0 -7.55,1.55 -10.25,4.26 -2.7,2.7 -4.25,6.44 -4.25,10.25l0 107.02c0,3.8 1.55,7.54 4.25,10.25 2.7,2.7 6.43,4.25 10.25,4.25l268.15 0c3.82,0 7.55,-1.55 10.25,-4.25 2.7,-2.71 4.25,-6.44 4.25,-10.25l-14.5 0z"/>
  <path class="fil0" d="M855.5 1042.07l0 -14.51 -140.34 0 0 -125.83 125.84 0 0 140.34 14.5 0 0 -14.51 0 14.51 14.5 0 0 -154.85c0,-3.81 -1.54,-7.55 -4.24,-10.25 -2.71,-2.7 -6.44,-4.25 -10.26,-4.25l-154.84 0c-3.82,0 -7.56,1.55 -10.26,4.25 -2.7,2.7 -4.25,6.44 -4.25,10.26l0 154.84c0,3.82 1.55,7.56 4.25,10.27 2.7,2.68 6.43,4.23 10.26,4.23l154.84 0c3.82,0 7.55,-1.55 10.26,-4.23 2.7,-2.71 4.24,-6.44 4.24,-10.27l-14.5 0z"/>
  <path class="fil0" d="M772.63 737.82c-0.31,0.13 -6.33,2.58 -15.29,7.19 -6.71,3.47 -15.09,8.15 -23.96,14.04 -13.3,8.84 -27.78,20.32 -39.43,34.91 -5.82,7.3 -10.92,15.41 -14.62,24.41 -3.69,8.98 -5.94,18.89 -5.93,29.38 0,7.59 1.17,15.45 3.66,23.38 2.48,7.93 6.26,15.93 11.38,23.92 4.33,6.74 13.3,8.71 20.04,4.39 6.75,-4.33 8.71,-13.3 4.39,-20.04 -3.89,-6.07 -6.49,-11.7 -8.13,-16.93 -1.64,-5.25 -2.33,-10.09 -2.33,-14.72 0,-5.68 1.05,-11.07 2.99,-16.39 1.7,-4.64 4.1,-9.22 7.09,-13.67 5.21,-7.8 12.25,-15.19 19.95,-21.75 11.54,-9.86 24.51,-17.82 34.48,-23.19 4.99,-2.69 9.24,-4.74 12.18,-6.09 1.47,-0.68 2.63,-1.19 3.38,-1.51 0.38,-0.17 0.66,-0.28 0.84,-0.36l0.18 -0.08 0.03 -0.01 -0.61 -1.49 0.61 1.49 0 0 -0.61 -1.49 0.61 1.49 -3.64 -8.95 3.63 8.96 0.01 -0.01 -3.64 -8.95 3.63 8.96c7.42,-3.01 11.01,-11.46 8,-18.89 -3,-7.42 -11.46,-11.01 -18.89,-8z"/>
  <path class="fil0" d="M867.71 895.05c5.13,-8 8.9,-15.99 11.38,-23.92 2.49,-7.93 3.66,-15.79 3.66,-23.38 0,-9.32 -1.77,-18.19 -4.76,-26.35 -2.61,-7.15 -6.15,-13.77 -10.23,-19.87 -7.17,-10.68 -16.04,-19.82 -25.22,-27.66 -13.78,-11.75 -28.34,-20.6 -39.55,-26.66 -11.22,-6.04 -19.1,-9.24 -19.47,-9.39l-5.44 13.44 14.5 0 0 -52.87c0,-8.01 -6.5,-14.5 -14.5,-14.5 -8.01,0 -14.5,6.49 -14.5,14.5l-0.01 52.87c0,5.91 3.59,11.23 9.06,13.45l2.54 -6.28 -2.55 6.27 0.01 0.01 2.54 -6.28 -2.55 6.27c0.03,0.01 5.45,2.23 13.46,6.39 6.01,3.11 13.48,7.33 21.2,12.49 11.59,7.72 23.71,17.64 32.44,28.72 4.38,5.53 7.92,11.32 10.32,17.22 2.4,5.91 3.7,11.9 3.7,18.23 0,4.63 -0.7,9.48 -2.33,14.72 -1.64,5.23 -4.24,10.87 -8.13,16.93 -4.32,6.75 -2.35,15.72 4.4,20.04 6.74,4.32 15.71,2.36 20.03,-4.39l0 0z"/>
  <path class="fil0" d="M763.57 847.57l0 39.65c0,8.02 6.5,14.51 14.51,14.51 8.01,0 14.5,-6.49 14.5,-14.5l0 -39.66c0,-8.01 -6.49,-14.5 -14.5,-14.5 -8.01,0 -14.51,6.49 -14.51,14.5z"/>
  <path class="fil0" d="M723.01 847.57l0 39.65c0,8.02 6.49,14.51 14.5,14.51 8.01,0 14.51,-6.49 14.51,-14.5l0 -39.66c0,-8.01 -6.5,-14.5 -14.51,-14.5 -8.01,0 -14.5,6.49 -14.5,14.5z"/>
  <path class="fil0" d="M804.07 847.57l0 39.65c0,8.02 6.49,14.51 14.5,14.51 8.01,0 14.5,-6.49 14.5,-14.5l0.01 -39.66c0,-8.01 -6.5,-14.5 -14.51,-14.5 -8.01,0 -14.5,6.49 -14.5,14.5z"/>
  <path class="fil0" d="M775.71 939.63c-0.38,0.08 -2.75,0.48 -6.25,1.43 -2.62,0.74 -5.87,1.76 -9.42,3.27 -2.67,1.12 -5.51,2.51 -8.38,4.27 -4.28,2.67 -8.73,6.19 -12.38,11.28 -1.81,2.53 -3.4,5.47 -4.5,8.74 -1.1,3.25 -1.7,6.84 -1.7,10.5 0,20.15 0,62.95 0,62.95 0,8 6.49,14.5 14.5,14.5 8.01,0 14.51,-6.5 14.51,-14.5 0,0 -0.01,-42.8 -0.01,-62.95 0.01,-0.68 0.11,-1.03 0.26,-1.43 0.14,-0.35 0.37,-0.76 0.79,-1.28 0.71,-0.91 2.07,-2.09 3.89,-3.19 2.71,-1.68 6.31,-3.07 9.1,-3.89 1.4,-0.42 2.59,-0.71 3.38,-0.89 0.39,-0.07 0.68,-0.13 0.84,-0.17l0.16 -0.02 -1.54 -8.97 1.48 8.97 0.06 0 -1.54 -8.97 1.48 8.97c7.9,-1.3 13.25,-8.76 11.95,-16.67 -1.31,-7.89 -8.77,-13.25 -16.68,-11.95l0 0z"/>
  <path class="fil0" d="M775.71 968.25l0.99 -5.99 -1.05 5.99 0.06 0 0.99 -5.99 -1.05 5.99c0.06,0 1.7,0.31 3.99,0.97 1.71,0.48 3.78,1.2 5.78,2.07 1.5,0.67 2.96,1.43 4.19,2.22 1.87,1.2 3.14,2.44 3.72,3.31 0.3,0.42 0.45,0.77 0.56,1.08 0.1,0.33 0.17,0.66 0.18,1.22 -0.01,20.15 -0.01,62.95 0,62.95 0,8 6.49,14.5 14.5,14.5 8.01,0 14.5,-6.5 14.5,-14.5 0,0 0,-42.8 0,-62.95 0.01,-4.35 -0.85,-8.57 -2.36,-12.28 -1.32,-3.27 -3.1,-6.15 -5.08,-8.61 -3.47,-4.31 -7.49,-7.38 -11.38,-9.78 -5.85,-3.54 -11.55,-5.59 -15.93,-6.92 -4.38,-1.3 -7.44,-1.82 -7.88,-1.9 -7.9,-1.3 -15.37,4.06 -16.67,11.95 -1.31,7.91 4.04,15.38 11.94,16.67l0 0z"/>
  <path class="fil0" d="M779.41 1467.92c-0.52,0.14 -3.05,0.74 -6.72,2.17 -2.75,1.06 -6.15,2.59 -9.81,4.76 -5.46,3.24 -11.64,8 -16.66,15.1 -2.5,3.54 -4.66,7.68 -6.17,12.32 -1.52,4.64 -2.36,9.76 -2.35,15.22 -0.01,28.35 -0.01,88.57 0,88.57 0,8 6.49,14.5 14.5,14.5 8.01,0 14.5,-6.5 14.5,-14.5 0,0 0,-60.22 0,-88.57 0.01,-2.25 0.3,-4.06 0.75,-5.67 0.8,-2.77 2.12,-4.93 3.9,-6.94 1.33,-1.49 2.93,-2.84 4.63,-4.01 2.54,-1.74 5.28,-3.01 7.28,-3.77 1,-0.38 1.8,-0.65 2.3,-0.79 0.24,-0.08 0.41,-0.11 0.49,-0.13l0.04 -0.02 0 0 -1.8 -7.22 1.69 7.24 0.11 -0.02 -1.8 -7.22 1.69 7.24c7.8,-1.8 12.65,-9.6 10.84,-17.41 -1.81,-7.79 -9.61,-12.65 -17.41,-10.85z"/>
  <path class="fil0" d="M779.41 1496.18l1.87 -8.03 -1.98 8.01 0.11 0.02 1.87 -8.03 -1.98 8.01 0 0c0.1,0.02 1.68,0.44 3.82,1.33 1.6,0.68 3.52,1.61 5.39,2.8 2.82,1.78 5.44,4.09 7.2,6.75 0.89,1.34 1.6,2.77 2.12,4.45 0.51,1.66 0.85,3.6 0.85,6 0,28.35 0,88.57 0,88.57 0,8 6.5,14.5 14.51,14.5 8.01,0 14.5,-6.5 14.5,-14.5 0,0 0,-60.22 0,-88.57 0,-4.84 -0.66,-9.44 -1.87,-13.66 -2.12,-7.4 -5.91,-13.55 -10.15,-18.27 -3.18,-3.56 -6.61,-6.38 -9.91,-8.65 -4.96,-3.38 -9.66,-5.51 -13.24,-6.9 -3.57,-1.37 -6.03,-1.95 -6.54,-2.09 -7.81,-1.8 -15.6,3.06 -17.41,10.85 -1.82,7.81 3.04,15.61 10.84,17.43l0 -0.02z"/>
  <path class="fil0" d="M686.11 1467.92c-0.52,0.14 -3.05,0.74 -6.72,2.17 -2.75,1.06 -6.14,2.59 -9.81,4.76 -5.46,3.24 -11.64,8 -16.66,15.1 -2.5,3.54 -4.66,7.68 -6.17,12.32 -1.51,4.64 -2.36,9.76 -2.35,15.22 0,28.35 0,88.57 0,88.57 0,8 6.49,14.5 14.5,14.5 8.01,0 14.51,-6.5 14.51,-14.5 -0.01,0 -0.01,-60.22 -0.01,-88.57 0.01,-2.25 0.3,-4.06 0.75,-5.67 0.81,-2.77 2.12,-4.93 3.9,-6.94 1.33,-1.49 2.93,-2.84 4.63,-4.01 2.54,-1.74 5.29,-3.01 7.28,-3.77 1,-0.38 1.81,-0.65 2.3,-0.79 0.24,-0.08 0.41,-0.11 0.49,-0.13l0.04 -0.02 0 0 -1.8 -7.22 1.69 7.24 0.11 -0.02 -1.8 -7.22 1.69 7.24c7.8,-1.8 12.65,-9.6 10.84,-17.41 -1.81,-7.79 -9.61,-12.65 -17.41,-10.85z"/>
  <path class="fil0" d="M686.11 1496.18l1.89 -8.11 -2 8.09 0.11 0.02 1.89 -8.11 -2 8.09 0 0c0.11,0.02 1.68,0.44 3.82,1.33 1.6,0.68 3.52,1.61 5.39,2.8 2.83,1.78 5.45,4.09 7.2,6.75 0.9,1.34 1.61,2.77 2.12,4.45 0.52,1.66 0.85,3.6 0.85,6 0,28.35 0,88.57 0,88.57 0,8 6.5,14.5 14.51,14.5 8.01,0 14.5,-6.5 14.5,-14.5 0,0 0,-60.22 0,-88.57 0,-4.84 -0.66,-9.44 -1.87,-13.66 -2.11,-7.4 -5.91,-13.55 -10.15,-18.27 -3.18,-3.56 -6.6,-6.38 -9.91,-8.65 -4.96,-3.38 -9.66,-5.51 -13.24,-6.9 -3.57,-1.37 -6.03,-1.95 -6.54,-2.09 -7.81,-1.8 -15.6,3.06 -17.41,10.85 -1.82,7.81 3.04,15.61 10.84,17.43l0 -0.02z"/>
  <path class="fil0" d="M874.19 1467.92c-0.52,0.14 -3.05,0.74 -6.72,2.17 -2.75,1.06 -6.14,2.59 -9.8,4.76 -5.47,3.24 -11.65,8 -16.67,15.1 -2.49,3.54 -4.66,7.68 -6.17,12.32 -1.51,4.64 -2.36,9.76 -2.35,15.22 0,28.35 0,88.57 0,88.57 0,8 6.49,14.5 14.5,14.5 8.01,0 14.51,-6.5 14.51,-14.5 0,0 0,-60.22 0,-88.57 0,-2.25 0.29,-4.06 0.74,-5.67 0.81,-2.77 2.12,-4.93 3.9,-6.94 1.34,-1.49 2.94,-2.84 4.64,-4.01 2.54,-1.74 5.28,-3.01 7.27,-3.77 1,-0.38 1.81,-0.65 2.3,-0.79 0.25,-0.08 0.42,-0.11 0.49,-0.13l0.04 -0.02 0 0 -1.81 -7.29 1.7 7.31 0.11 -0.02 -1.81 -7.29 1.7 7.31c7.8,-1.8 12.66,-9.6 10.84,-17.41 -1.81,-7.79 -9.6,-12.65 -17.41,-10.85z"/>
  <path class="fil0" d="M874.19 1496.18l1.87 -8.03 -1.98 8.01 0.11 0.02 1.87 -8.03 -1.98 8.01 0 0c0.11,0.02 1.68,0.44 3.82,1.33 1.6,0.68 3.52,1.61 5.39,2.8 2.83,1.78 5.45,4.09 7.21,6.75 0.89,1.34 1.6,2.77 2.11,4.45 0.52,1.66 0.85,3.6 0.86,6 -0.01,28.35 -0.01,88.57 0,88.57 0,8 6.49,14.5 14.5,14.5 8.01,0 14.5,-6.5 14.5,-14.5 0,0 0,-60.22 0,-88.57 0.01,-4.84 -0.66,-9.44 -1.87,-13.66 -2.12,-7.4 -5.91,-13.55 -10.15,-18.27 -3.18,-3.56 -6.6,-6.38 -9.91,-8.65 -4.96,-3.38 -9.66,-5.51 -13.23,-6.9 -3.58,-1.37 -6.04,-1.95 -6.55,-2.09 -7.8,-1.8 -15.6,3.06 -17.41,10.85 -1.81,7.81 3.04,15.61 10.84,17.43l0 -0.02z"/>
  <path class="fil0" d="M763.57 1087.39l0 52.88c0,8 6.5,14.5 14.51,14.5 8.01,0 14.5,-6.5 14.5,-14.5l0 -52.88c0,-8 -6.49,-14.5 -14.5,-14.5 -8.01,0 -14.51,6.5 -14.51,14.5z"/>
  <path class="fil0" d="M727.2 1087.39l0 52.88c0,8 6.5,14.5 14.51,14.5 8.01,0 14.5,-6.5 14.5,-14.5l0 -52.88c0,-8 -6.49,-14.5 -14.5,-14.5 -8.01,0 -14.51,6.5 -14.51,14.5z"/>
  <path class="fil0" d="M690.84 1087.39l0 52.88c0,8 6.49,14.5 14.5,14.5 8.01,0 14.51,-6.5 14.51,-14.5l0 -52.88c0,-8 -6.5,-14.5 -14.51,-14.5 -8.01,0 -14.5,6.5 -14.5,14.5z"/>
  <path class="fil0" d="M835.68 1087.39l0 52.88c0,8 6.49,14.5 14.5,14.5 8.01,0 14.51,-6.5 14.51,-14.5l0 -52.88c0,-8 -6.5,-14.5 -14.51,-14.5 -8.01,0 -14.5,6.5 -14.5,14.5z"/>
  <path class="fil0" d="M799.31 1087.39l0 52.88c0,8 6.5,14.5 14.51,14.5 8.01,0 14.5,-6.5 14.5,-14.5l0 -52.88c0,-8 -6.49,-14.5 -14.5,-14.5 -8.01,0 -14.51,6.5 -14.51,14.5z"/>
  <path class="fil0" d="M838.46 2087.2l-65.77 0 -58.54 0 -58.54 0 -58.54 0 -78.61 0c-8.01,0 -14.5,6.48 -14.5,14.51 0,8 6.49,14.5 14.5,14.5l78.61 0 58.54 0 58.54 0 58.54 0 65.77 0c8.01,0 14.5,-6.5 14.5,-14.5 0,-8.03 -6.49,-14.51 -14.5,-14.51z"/>
  <path class="fil0" d="M582.57 2007.02l0 198.28c0,8.01 6.49,14.51 14.5,14.51 8.01,0 14.51,-6.5 14.51,-14.51l0 -198.28c0,-8 -6.5,-14.5 -14.51,-14.5 -8.01,0 -14.5,6.5 -14.5,14.5z"/>
  <path class="fil0" d="M641.11 2007.02l0 198.28c0,8.01 6.49,14.51 14.5,14.51 8.01,0 14.51,-6.5 14.51,-14.51l0 -198.28c0,-8 -6.5,-14.5 -14.51,-14.5 -8.01,0 -14.5,6.5 -14.5,14.5z"/>
  <path class="fil0" d="M699.65 2007.02l0 198.28c0,8.01 6.49,14.51 14.5,14.51 8.01,0 14.51,-6.5 14.51,-14.51l0 -198.28c0,-8 -6.5,-14.5 -14.51,-14.5 -8.01,0 -14.5,6.5 -14.5,14.5z"/>
  <path class="fil0" d="M758.19 2007.02l0 198.28c0,8.01 6.49,14.51 14.5,14.51 8.01,0 14.51,-6.5 14.51,-14.51l0 -198.28c0,-8 -6.5,-14.5 -14.51,-14.5 -8.01,0 -14.5,6.5 -14.5,14.5z"/>
  <path class="fil0" d="M614.74 2328.95l0 58.89c0,8.01 6.5,14.5 14.51,14.5 8.01,0 14.5,-6.49 14.5,-14.5l0 -58.89c0,-8 -6.49,-14.5 -14.5,-14.5 -8.01,0 -14.51,6.5 -14.51,14.5z"/>
  <path class="fil0" d="M663.84 2328.95l0 58.89c0,8.01 6.49,14.5 14.5,14.5 8.01,0 14.51,-6.49 14.51,-14.5l0 -58.89c0,-8 -6.5,-14.5 -14.51,-14.5 -8.01,0 -14.5,6.5 -14.5,14.5z"/>
  <path class="fil0" d="M712.94 2328.95l0 58.89c0,8.01 6.49,14.5 14.5,14.5 8.01,0 14.5,-6.49 14.5,-14.5l0 -58.89c0,-8 -6.49,-14.5 -14.5,-14.5 -8.01,0 -14.5,6.5 -14.5,14.5z"/>
  <path class="fil0" d="M762.03 2328.95l0 58.89c0,8.01 6.5,14.5 14.51,14.5 8.01,0 14.5,-6.49 14.5,-14.5l0 -58.89c0,-8 -6.49,-14.5 -14.5,-14.5 -8.01,0 -14.51,6.5 -14.51,14.5z"/>
  <path class="fil0" d="M811.13 2328.95l0 58.89c0,8.01 6.49,14.5 14.51,14.5 8,0 14.5,-6.49 14.5,-14.5l0 -58.89c0,-8 -6.5,-14.5 -14.5,-14.5 -8.02,0 -14.51,6.5 -14.51,14.5z"/>
  <path class="fil0" d="M860.23 2328.95l0 58.89c0,8.01 6.49,14.5 14.5,14.5 8.01,0 14.51,-6.49 14.51,-14.5l0 -58.89c0,-8 -6.5,-14.5 -14.51,-14.5 -8.01,0 -14.5,6.5 -14.5,14.5z"/>
  <path class="fil0" d="M614.74 3028.9l0 58.88c0,8.03 6.5,14.5 14.51,14.5 8.01,0 14.5,-6.47 14.5,-14.5l0 -58.88c0,-8.01 -6.49,-14.51 -14.5,-14.51 -8.01,0 -14.51,6.5 -14.51,14.51z"/>
  <path class="fil0" d="M663.84 3028.9l0 58.88c0,8.03 6.49,14.5 14.5,14.5 8.01,0 14.51,-6.47 14.51,-14.5l0 -58.88c0,-8.01 -6.5,-14.51 -14.51,-14.51 -8.01,0 -14.5,6.5 -14.5,14.51z"/>
  <path class="fil0" d="M712.94 3028.9l0 58.88c0,8.03 6.49,14.5 14.5,14.5 8.01,0 14.5,-6.47 14.5,-14.5l0 -58.88c0,-8.01 -6.49,-14.51 -14.5,-14.51 -8.01,0 -14.5,6.5 -14.5,14.51z"/>
  <path class="fil0" d="M762.03 3028.9l0 58.88c0,8.03 6.5,14.5 14.51,14.5 8.01,0 14.5,-6.47 14.5,-14.5l0 -58.88c0,-8.01 -6.49,-14.51 -14.5,-14.51 -8.01,0 -14.51,6.5 -14.51,14.51z"/>
  <path class="fil0" d="M811.13 3028.9l0 58.88c0,8.03 6.49,14.5 14.51,14.5 8,0 14.5,-6.47 14.5,-14.5l0 -58.88c0,-8.01 -6.5,-14.51 -14.5,-14.51 -8.02,0 -14.51,6.5 -14.51,14.51z"/>
  <path class="fil0" d="M889.24 3076.58l0 -47.67c0,-8.02 -6.49,-14.5 -14.5,-14.5 -8.01,0 -14.51,6.48 -14.51,14.5l0 47.67c0,8.01 6.5,14.51 14.51,14.51 8.01,0 14.5,-6.5 14.5,-14.51z"/>
  <path class="fil1" d="M2083.9 1666.06l0 104.41c0,8.01 6.47,14.51 14.5,14.51 8.01,0 14.5,-6.5 14.5,-14.51l0.01 -104.41c0,-8.02 -6.5,-14.5 -14.51,-14.5 -8.03,0 -14.5,6.48 -14.5,14.5z"/>
  <path class="fil1" d="M2017.91 1666.06l0 104.41c0,8.01 6.5,14.51 14.51,14.51 8.02,0 14.5,-6.5 14.5,-14.51l0 -104.41c0,-8.02 -6.48,-14.5 -14.5,-14.5 -8.01,0 -14.51,6.48 -14.51,14.5z"/>
  <path class="fil1" d="M1951.95 1666.06l0 104.41c0,8.01 6.5,14.51 14.5,14.51 8.01,0 14.51,-6.5 14.51,-14.51l0 -104.41c0,-8.02 -6.5,-14.5 -14.51,-14.5 -8,0 -14.5,6.48 -14.5,14.5z"/>
  <path class="fil1" d="M1885.98 1666.06l0 104.41c0,8.01 6.48,14.51 14.51,14.51 8.01,0 14.5,-6.5 14.5,-14.51l0 -104.41c0,-8.02 -6.5,-14.5 -14.5,-14.5 -8.03,0 -14.51,6.48 -14.51,14.5z"/>
  <path class="fil1" d="M1820 1666.06l0 104.41c0,8.01 6.5,14.51 14.5,14.51 8.03,0 14.51,-6.5 14.51,-14.51l0 -104.41c0,-8.02 -6.48,-14.5 -14.51,-14.5 -8,0 -14.5,6.48 -14.5,14.5z"/>
  <path class="fil1" d="M1754.04 1666.06l0 104.41c0,8.01 6.49,14.51 14.5,14.51 8.01,0 14.5,-6.5 14.5,-14.51l0.01 -104.41c0,-8.02 -6.5,-14.5 -14.51,-14.5 -8,0 -14.5,6.48 -14.5,14.5z"/>
  <path class="fil1" d="M1688.07 1666.06l0 104.41c0,8.01 6.5,14.51 14.51,14.51 8,0 14.5,-6.5 14.5,-14.51l0 -104.41c0,-8.02 -6.5,-14.5 -14.5,-14.5 -8.01,0 -14.51,6.48 -14.51,14.5z"/>
  <path class="fil1" d="M1622.11 1666.06l0 104.41c0,8.01 6.48,14.51 14.5,14.51 8.01,0 14.51,-6.5 14.51,-14.51l0 -104.41c0,-8.02 -6.5,-14.5 -14.51,-14.5 -8.02,0 -14.5,6.48 -14.5,14.5z"/>
  <path class="fil1" d="M1556.13 1666.06l0 104.41c0,8.01 6.49,14.51 14.5,14.51 8.01,0 14.51,-6.5 14.51,-14.51l0 -104.41c0,-8.02 -6.5,-14.5 -14.51,-14.5 -8.01,0 -14.5,6.48 -14.5,14.5z"/>
  <path class="fil1" d="M1490.16 1666.06l0 104.41c0,8.01 6.49,14.51 14.51,14.51 8,0 14.5,-6.5 14.5,-14.51l0 -104.41c0,-8.02 -6.5,-14.5 -14.5,-14.5 -8.02,0 -14.51,6.48 -14.51,14.5z"/>
  <path class="fil1" d="M1424.19 1666.06l0 104.41c0,8.01 6.49,14.51 14.5,14.51 8.02,0 14.51,-6.5 14.51,-14.51l0 -104.41c0,-8.02 -6.5,-14.5 -14.51,-14.5 -8,0 -14.5,6.48 -14.5,14.5z"/>
  <path class="fil1" d="M1358.22 1666.06l0 104.41c0,8.01 6.49,14.51 14.5,14.51 8.01,0 14.51,-6.5 14.51,-14.51l0 -104.41c0,-8.02 -6.5,-14.5 -14.51,-14.5 -8.01,0 -14.5,6.48 -14.5,14.5z"/>
  <path class="fil1" d="M1292.25 1666.06l0 104.41c0,8.01 6.49,14.51 14.5,14.51 8.01,0 14.51,-6.5 14.51,-14.51l0 -104.41c0,-8.02 -6.5,-14.5 -14.51,-14.5 -8.01,0 -14.5,6.48 -14.5,14.5z"/>
  <path class="fil0" d="M2090.94 1805.05c-0.18,0.08 -5.61,2.96 -13.76,7.8 -6.11,3.61 -13.74,8.31 -21.81,13.78 -6.05,4.1 -12.36,8.63 -18.47,13.46 -9.18,7.27 -17.94,15.17 -24.92,23.81 -3.48,4.33 -6.56,8.89 -8.9,13.88 -1.16,2.52 -2.15,5.13 -2.84,7.89 -0.7,2.79 -1.13,5.71 -1.13,8.75 0,32.06 0,169.87 0,169.87 0,8 6.5,14.5 14.51,14.5 8.01,0 14.5,-6.5 14.5,-14.5 0,0 0,-137.81 0,-169.87 0,-0.43 0.08,-1.09 0.35,-2.05 0.52,-1.78 1.86,-4.55 4.12,-7.68 3.93,-5.55 10.5,-12.13 18.08,-18.43 11.39,-9.5 25.01,-18.55 35.64,-25.06 5.34,-3.27 9.92,-5.92 13.17,-7.76 1.61,-0.91 2.88,-1.6 3.75,-2.07 0.43,-0.25 0.76,-0.42 0.97,-0.54l0.23 -0.12 0.06 -0.02 0 -0.02 -2.7 -5.12 2.7 5.12 -2.7 -5.12 2.7 5.12c7.08,-3.73 9.79,-12.51 6.03,-19.58 -3.73,-7.08 -12.51,-9.79 -19.58,-6.04z"/>
  <path class="fil0" d="M1893.1 1869.33l3.99 -6.71 -3.99 6.71 3.99 -6.71 -3.99 6.71c0,0 0.17,0.1 0.52,0.33 1.34,0.81 5.03,3.13 9.77,6.52 7.08,5.06 16.48,12.67 23.53,20.73 3.52,4.02 6.44,8.14 8.3,11.85 0.93,1.86 1.61,3.6 2.03,5.17 0.43,1.56 0.6,2.94 0.6,4.19 0,30.64 0,146.17 0,146.17 0,8 6.5,14.5 14.5,14.5 8.03,0 14.51,-6.5 14.51,-14.5 0,0 0,-115.53 0,-146.17 0,-5.89 -1.24,-11.46 -3.15,-16.55 -3.39,-8.9 -8.73,-16.51 -14.57,-23.3 -8.79,-10.12 -18.93,-18.37 -26.97,-24.29 -8.05,-5.92 -14,-9.44 -14.31,-9.61 -6.91,-4.08 -15.8,-1.78 -19.86,5.1 -4.08,6.91 -1.78,15.8 5.1,19.86z"/>
  <path class="fil0" d="M1893.1 1844.37c-0.21,0.13 -3.73,2.2 -8.95,5.8 -7.83,5.41 -19.48,14.13 -29.78,25.25 -5.15,5.59 -10,11.8 -13.77,18.82 -1.88,3.52 -3.48,7.25 -4.65,11.24 -1.15,3.98 -1.85,8.22 -1.85,12.64 0,30.64 0,146.17 0,146.17 0,8 6.5,14.5 14.5,14.5 8.01,0 14.51,-6.5 14.51,-14.5 0,0 0,-115.53 0,-146.17 0,-1.78 0.38,-3.86 1.29,-6.32 1.59,-4.29 4.95,-9.49 9.34,-14.52 6.56,-7.62 15.28,-14.84 22.24,-19.92 3.48,-2.57 6.52,-4.62 8.67,-6 1.06,-0.69 1.91,-1.21 2.45,-1.56 0.29,-0.18 0.49,-0.29 0.62,-0.37l0.14 -0.08 0.02 -0.02 -3.06 -5.14 3.04 5.14 0.02 0 -3.06 -5.14 3.04 5.14c6.9,-4.06 9.18,-12.95 5.12,-19.86 -4.08,-6.88 -12.98,-9.18 -19.88,-5.1z"/>
  <path class="fil0" d="M1734.49 1869.33l3.67 -6.24 -3.69 6.24 0.02 0 3.67 -6.24 -3.69 6.24c0,0 0.17,0.1 0.54,0.33 1.31,0.81 5.03,3.13 9.74,6.52 7.08,5.06 16.48,12.67 23.54,20.73 3.54,4.02 6.44,8.14 8.3,11.85 0.94,1.86 1.6,3.6 2.03,5.17 0.42,1.56 0.62,2.94 0.62,4.19 0,30.64 0,146.17 0,146.17 0,8 6.47,14.5 14.5,14.5 8.01,0 14.5,-6.5 14.5,-14.5 0,0 0,-115.53 0,-146.17 0,-5.89 -1.25,-11.46 -3.17,-16.55 -3.38,-8.9 -8.7,-16.51 -14.56,-23.3 -8.78,-10.12 -18.93,-18.37 -26.98,-24.29 -8.04,-5.92 -14,-9.44 -14.31,-9.61 -6.88,-4.08 -15.78,-1.78 -19.86,5.1 -4.06,6.91 -1.78,15.8 5.13,19.86z"/>
  <path class="fil0" d="M1734.49 1844.37c-0.24,0.13 -3.76,2.2 -8.98,5.8 -7.83,5.41 -19.47,14.13 -29.78,25.25 -5.14,5.59 -9.98,11.8 -13.75,18.82 -1.89,3.52 -3.5,7.25 -4.66,11.24 -1.14,3.98 -1.86,8.22 -1.86,12.64 0.01,30.64 0,146.17 0,146.17 0.01,8 6.5,14.5 14.51,14.5 8.02,0 14.5,-6.5 14.5,-14.5 0,0 0,-115.53 0,-146.17 0,-1.78 0.39,-3.86 1.32,-6.32 1.58,-4.29 4.93,-9.49 9.32,-14.52 6.57,-7.62 15.28,-14.84 22.24,-19.92 3.48,-2.57 6.53,-4.62 8.66,-6 1.07,-0.69 1.92,-1.21 2.48,-1.56 0.27,-0.18 0.48,-0.29 0.6,-0.37l0.13 -0.08 0.02 -0.02 -3.48 -5.88 3.46 5.88 0.02 0 -3.48 -5.88 3.46 5.88c6.91,-4.06 9.19,-12.95 5.13,-19.86 -4.08,-6.88 -12.98,-9.18 -19.86,-5.1z"/>
  <path class="fil0" d="M1575.85 1869.33l3.97 -6.71 -3.98 6.71 0.01 0 3.97 -6.71 -3.98 6.71c0,0 0.18,0.1 0.53,0.33 1.33,0.81 5.03,3.13 9.76,6.52 7.08,5.06 16.48,12.67 23.53,20.73 3.53,4.02 6.45,8.14 8.3,11.85 0.94,1.86 1.62,3.6 2.04,5.17 0.43,1.56 0.6,2.94 0.6,4.19 0,30.64 0,146.17 0,146.17 0,8 6.5,14.5 14.5,14.5 8.01,0 14.51,-6.5 14.51,-14.5 0,0 0,-115.53 0,-146.17 0,-5.89 -1.24,-11.46 -3.15,-16.55 -3.39,-8.9 -8.73,-16.51 -14.57,-23.3 -8.79,-10.12 -18.93,-18.37 -26.98,-24.29 -8.05,-5.92 -14.01,-9.44 -14.31,-9.61 -6.9,-4.08 -15.79,-1.78 -19.86,5.1 -4.07,6.91 -1.78,15.8 5.11,19.86z"/>
  <path class="fil0" d="M1575.85 1844.37c-0.22,0.13 -3.74,2.2 -8.96,5.8 -7.83,5.41 -19.47,14.13 -29.78,25.25 -5.15,5.59 -9.99,11.8 -13.76,18.82 -1.88,3.52 -3.49,7.25 -4.65,11.24 -1.15,3.98 -1.85,8.22 -1.85,12.64 0,30.64 0,146.17 0,146.17 0,8 6.49,14.5 14.5,14.5 8.01,0 14.5,-6.5 14.5,-14.5 0,0 0,-115.53 0,-146.17 0,-1.78 0.38,-3.86 1.3,-6.32 1.59,-4.29 4.94,-9.49 9.34,-14.52 6.56,-7.62 15.27,-14.84 22.24,-19.92 3.47,-2.57 6.52,-4.62 8.66,-6 1.07,-0.69 1.91,-1.21 2.46,-1.56 0.28,-0.18 0.48,-0.29 0.61,-0.37l0.13 -0.08 0.03 -0.02 -3.24 -5.45 3.22 5.45 0.02 0 -3.24 -5.45 3.22 5.45c6.9,-4.06 9.19,-12.95 5.12,-19.86 -4.07,-6.88 -12.97,-9.18 -19.87,-5.1z"/>
  <path class="fil0" d="M1417.23 1869.33l3.97 -6.71 -3.99 6.71 0.02 0 3.97 -6.71 -3.99 6.71c0,0 0.18,0.1 0.54,0.33 1.33,0.81 5.02,3.13 9.75,6.52 7.08,5.06 16.48,12.67 23.53,20.73 3.53,4.02 6.45,8.14 8.3,11.85 0.94,1.86 1.61,3.6 2.03,5.17 0.43,1.56 0.61,2.94 0.61,4.19 0,30.64 0,146.17 0,146.17 0,8 6.5,14.5 14.51,14.5 8.01,0 14.5,-6.5 14.5,-14.5 0,0 0,-115.53 0,-146.17 0,-5.89 -1.24,-11.46 -3.16,-16.55 -3.38,-8.9 -8.71,-16.51 -14.56,-23.3 -8.79,-10.12 -18.93,-18.37 -26.98,-24.29 -8.05,-5.92 -14,-9.44 -14.31,-9.61 -6.9,-4.08 -15.79,-1.78 -19.86,5.1 -4.07,6.91 -1.78,15.8 5.12,19.86z"/>
  <path class="fil0" d="M1417.23 1844.37c-0.23,0.13 -3.75,2.2 -8.97,5.8 -7.82,5.41 -19.47,14.13 -29.78,25.25 -5.14,5.59 -9.99,11.8 -13.76,18.82 -1.88,3.52 -3.49,7.25 -4.65,11.24 -1.15,3.98 -1.85,8.22 -1.85,12.64 0,30.64 0,146.17 0,146.17 0,8 6.49,14.5 14.5,14.5 8.01,0 14.51,-6.5 14.51,-14.5 0,0 -0.01,-115.53 -0.01,-146.17 0.01,-1.78 0.38,-3.86 1.31,-6.32 1.58,-4.29 4.93,-9.49 9.33,-14.52 6.57,-7.62 15.28,-14.84 22.24,-19.92 3.48,-2.57 6.52,-4.62 8.66,-6 1.07,-0.69 1.91,-1.21 2.46,-1.56 0.28,-0.18 0.49,-0.29 0.61,-0.37l0.14 -0.08 0.02 -0.02 -3.05 -5.14 3.03 5.14 0.02 0 -3.05 -5.14 3.03 5.14c6.9,-4.06 9.19,-12.95 5.12,-19.86 -4.07,-6.88 -12.97,-9.18 -19.86,-5.1z"/>
  <path class="fil1" d="M2093.37 1867.38c-0.58,0.17 -3.91,1.26 -8.7,3.65 -7.18,3.58 -17.79,10.14 -26.98,21.49 -4.58,5.67 -8.76,12.55 -11.76,20.69 -2.99,8.12 -4.77,17.48 -4.77,27.87 0,6.9 0.79,13.29 2.26,19.09 2.53,10.15 7.25,18.5 12.86,24.83 4.2,4.75 8.82,8.39 13.32,11.14 6.77,4.13 13.25,6.36 18.12,7.62 4.9,1.23 8.26,1.52 8.92,1.56 7.99,0.6 14.93,-5.39 15.53,-13.38 0.6,-7.99 -5.4,-14.95 -13.38,-15.53l-0.56 7.56 0.69 -7.56 -0.13 0 -0.56 7.56 0.69 -7.56 -0.08 0c-0.42,-0.06 -2.74,-0.35 -5.74,-1.28 -2.26,-0.69 -4.89,-1.74 -7.46,-3.21 -1.94,-1.1 -3.83,-2.43 -5.59,-4.06 -2.63,-2.43 -4.95,-5.43 -6.77,-9.61 -1.8,-4.2 -3.1,-9.65 -3.11,-17.17 0.01,-9.5 2.06,-16.65 5,-22.51 2.23,-4.37 4.99,-8.03 7.99,-11.1 4.47,-4.6 9.46,-7.85 13.25,-9.86 1.88,-1.01 3.46,-1.69 4.48,-2.11 0.51,-0.21 0.87,-0.35 1.09,-0.41l0.17 -0.08 -0.42 -1.23 0.4 1.25 0.02 -0.02 -0.42 -1.23 0.4 1.25 -3.09 -9.55 3.02 9.57 0.07 -0.02 -3.09 -9.55 3.02 9.57c7.63,-2.39 11.89,-10.54 9.49,-18.17 -2.4,-7.64 -10.54,-11.9 -18.18,-9.5z"/>
  <path class="fil0" d="M1311.87 2148.45l786.53 0c8.01,0 14.5,-6.5 14.5,-14.51 0.01,-8.02 -6.49,-14.5 -14.5,-14.5l-786.53 0c-8.01,0 -14.51,6.48 -14.51,14.5 0,8.01 6.5,14.51 14.51,14.51z"/>
  <path class="fil0" d="M1476.48 3193.54l0 -14.5 -150.11 0 0 -960.67 135.6 0 0 975.17 14.51 0 0 -14.5 0 14.5 14.5 0 0 -989.67c0,-3.83 -1.55,-7.56 -4.25,-10.27 -2.7,-2.69 -6.43,-4.23 -10.25,-4.23l-164.61 0c-3.82,0 -7.56,1.54 -10.26,4.23 -2.7,2.71 -4.25,6.44 -4.25,10.27l0 989.67c0,3.81 1.55,7.55 4.25,10.25 2.7,2.71 6.44,4.26 10.26,4.26l164.61 0c3.82,0 7.55,-1.57 10.25,-4.26 2.7,-2.7 4.25,-6.44 4.25,-10.25l-14.5 0z"/>
  <path class="fil0" d="M1311.87 2470.09l164.61 0c8.01,0 14.5,-6.5 14.5,-14.51 0,-8.02 -6.49,-14.5 -14.5,-14.5l-164.61 0c-8.01,0 -14.51,6.48 -14.51,14.5 0,8.01 6.5,14.51 14.51,14.51z"/>
  <path class="fil0" d="M1311.87 2773.62l164.61 0c8.01,0 14.5,-6.49 14.5,-14.5 0,-8.02 -6.49,-14.5 -14.5,-14.5l-164.61 0c-8.01,0 -14.51,6.48 -14.51,14.5 0,8.01 6.5,14.51 14.51,14.5z"/>
  <path class="fil0" d="M1521.51 2205.3l0 988.24c0,8.01 6.5,14.51 14.51,14.51 8.01,0 14.5,-6.5 14.5,-14.51l0 -988.24c0,-8.02 -6.49,-14.5 -14.5,-14.5 -8.01,0 -14.51,6.48 -14.51,14.5z"/>
  <path class="fil0" d="M2086.55 2196.93c-0.22,0.33 -5.96,8.41 -11.88,19.61 -2.96,5.61 -5.97,12.01 -8.35,18.78 -1.18,3.4 -2.23,6.9 -2.98,10.5 -0.75,3.61 -1.24,7.33 -1.24,11.21 0,1.07 0.02,2.23 0.14,3.5l0 -0.11c0.29,3.52 0.89,7.08 1.68,10.83 1.39,6.53 3.38,13.61 5.61,20.67 3.32,10.6 7.17,21.14 10.19,29.1 3.02,7.97 5.22,13.35 5.26,13.43l13.42 -5.5 -7 -12.7c0,0 -0.18,0.08 -0.5,0.27 -5.09,2.78 -49.78,27.21 -105.63,54.36 -27.93,13.59 -58.66,27.87 -88.55,40.44 -29.88,12.59 -58.99,23.47 -83.33,30.28 -27.62,7.74 -54.58,20.07 -79.68,35.82 -37.65,23.65 -71.14,54.96 -95.98,90.56 -12.39,17.81 -22.63,36.7 -30.05,56.27 -7.41,19.57 -12,39.86 -13,60.36 -0.83,17.08 -1.38,42.41 -1.72,73 -0.34,30.58 -0.48,66.33 -0.48,104.03 0,150.7 2.18,332.04 2.18,332.08 0.1,8 6.67,14.42 14.68,14.33 8.01,-0.1 14.43,-6.67 14.34,-14.7 0,0 -0.04,-2.82 -0.1,-8.06 -0.43,-36.75 -2.09,-192.02 -2.09,-323.65 0,-37.62 0.14,-73.3 0.48,-103.7 0.33,-30.4 0.87,-55.58 1.69,-71.92 1.1,-22.8 7.6,-45.99 18.46,-68.48 16.29,-33.7 42.47,-65.69 73.96,-91.68 31.48,-26.01 68.22,-46.01 105.14,-56.31 27.07,-7.61 58.11,-19.36 89.71,-32.74 47.38,-20.08 95.9,-43.83 132.64,-62.58 36.77,-18.76 61.73,-32.53 61.83,-32.57 6.44,-3.56 9.21,-11.41 6.4,-18.22l-0.04 -0.11c-0.52,-1.3 -5.45,-13.46 -10.38,-27.58 -2.46,-7.04 -4.93,-14.58 -6.81,-21.39 -0.95,-3.38 -1.74,-6.59 -2.34,-9.42 -0.58,-2.78 -0.95,-5.22 -1.08,-6.86l-0.02 -0.12c0,-0.17 -0.02,-0.5 -0.02,-0.93 0,-1.35 0.19,-3.17 0.62,-5.26 0.75,-3.65 2.26,-8.06 4.16,-12.45 2.82,-6.62 6.49,-13.19 9.39,-17.99 1.47,-2.39 2.75,-4.37 3.64,-5.7 0.45,-0.68 0.79,-1.2 1.01,-1.53l0.25 -0.37 0.06 -0.05 -0.26 -0.18 0.26 0.18 -0.26 -0.18 0.26 0.18c4.62,-6.54 3.07,-15.59 -3.47,-20.23 -6.53,-4.62 -15.6,-3.08 -20.22,3.48z"/>
  <path class="fil1" d="M1779.27 2302.42l-14.5 0c0,6.77 -1.37,13.17 -3.83,19.01 -3.71,8.74 -9.92,16.23 -17.71,21.51 -7.82,5.25 -17.16,8.31 -27.31,8.33 -6.79,-0.02 -13.17,-1.37 -19.01,-3.85 -8.76,-3.69 -16.24,-9.9 -21.5,-17.71 -5.28,-7.82 -8.34,-17.14 -8.34,-27.29 0,-6.79 1.35,-13.19 3.83,-19.01 3.69,-8.76 9.9,-16.24 17.71,-21.52 7.82,-5.26 17.14,-8.32 27.31,-8.32 6.79,0 13.17,1.36 19.01,3.83 8.74,3.69 16.23,9.9 21.5,17.71 5.27,7.82 8.32,17.14 8.34,27.31l14.5 0 14.51 0c0,-10.71 -2.19,-21 -6.13,-30.32 -5.92,-13.98 -15.78,-25.84 -28.2,-34.23 -12.39,-8.39 -27.46,-13.33 -43.53,-13.31 -10.71,-0.02 -21,2.17 -30.32,6.11 -13.98,5.92 -25.84,15.78 -34.23,28.2 -8.39,12.42 -13.33,27.46 -13.31,43.55 0,10.7 2.17,20.98 6.11,30.3 5.94,13.99 15.78,25.86 28.2,34.23 12.42,8.4 27.48,13.33 43.55,13.33 10.72,0 20.98,-2.19 30.3,-6.13 14.01,-5.92 25.86,-15.78 34.25,-28.2 8.4,-12.41 13.31,-27.46 13.31,-43.53l-14.51 0z"/>
  <path class="fil1" d="M1701.42 2365.77l0 41.77c0,8.01 6.49,14.51 14.5,14.51 8.01,0 14.5,-6.5 14.5,-14.5l0 -41.78c0,-8.02 -6.49,-14.5 -14.5,-14.5 -8,0 -14.5,6.48 -14.5,14.5z"/>
  <path class="fil0" d="M2099.79 2374.51c-0.04,0.02 -58.87,25.32 -127.32,55.87 -34.23,15.28 -70.88,31.87 -103.81,47.29 -16.48,7.71 -32.03,15.12 -45.91,21.95 -13.89,6.8 -26.09,13.03 -35.95,18.41 -19.34,10.54 -37.6,20.96 -54.29,32.83 -12.51,8.9 -24.15,18.63 -34.54,29.8 -15.58,16.75 -28.25,36.86 -36.76,61.54 -8.53,24.68 -12.97,53.78 -12.97,89.07 0,121.14 0,462.27 0,462.27 0,8.01 6.49,14.51 14.5,14.51 8.03,0 14.5,-6.5 14.5,-14.51 0,0 0,-341.13 0,-462.27 0,-29.22 3.29,-52.87 9.09,-72.44 4.37,-14.7 10.14,-27.13 17.16,-38.13 10.52,-16.46 23.96,-29.84 40.28,-42.14 16.32,-12.3 35.52,-23.42 56.89,-35.06 9.3,-5.07 21.24,-11.14 34.89,-17.85 47.81,-23.5 116.84,-54.67 173.8,-79.91 28.48,-12.63 53.97,-23.77 72.32,-31.75 9.19,-4.01 16.59,-7.22 21.68,-9.42 2.55,-1.11 4.53,-1.96 5.88,-2.54 1.33,-0.58 2.03,-0.87 2.03,-0.87 7.35,-3.17 10.75,-11.7 7.58,-19.06 -3.15,-7.35 -11.7,-10.76 -19.05,-7.59z"/>
  <path class="fil0" d="M2092.15 2534.37c-0.11,0.06 -66.06,31.46 -140.61,71.32 -37.28,19.94 -76.71,41.98 -111.27,63.37 -17.29,10.71 -33.34,21.25 -47.38,31.35 -14.04,10.09 -26.01,19.71 -35.31,28.91 -16.64,16.5 -31.64,30.32 -45.06,44.11 -10.04,10.35 -19.23,20.67 -27.31,32.08 -12.12,17.08 -21.62,36.55 -27.77,60.82 -6.19,24.29 -9.19,53.3 -9.2,90.51 0,8.01 6.49,14.5 14.5,14.5 8.03,0 14.5,-6.49 14.5,-14.5 0,-31.7 2.32,-56.28 6.62,-76.12 3.21,-14.91 7.5,-27.15 12.84,-38.04 4.02,-8.18 8.62,-15.6 13.92,-22.82 7.95,-10.81 17.52,-21.13 28.78,-32.35 11.25,-11.24 24.19,-23.32 38.6,-37.59 7.58,-7.51 18.56,-16.44 31.83,-25.98 23.24,-16.72 53.45,-35.44 85.51,-53.95 48.12,-27.79 100.51,-55.19 140.83,-75.59 20.15,-10.22 37.28,-18.69 49.37,-24.58 6.03,-2.96 10.83,-5.28 14.1,-6.85 1.62,-0.79 2.88,-1.39 3.73,-1.8 0.41,-0.19 0.73,-0.35 0.95,-0.46 0.21,-0.1 0.31,-0.14 0.31,-0.14 7.23,-3.44 10.3,-12.1 6.86,-19.34 -3.44,-7.23 -12.1,-10.3 -19.34,-6.86z"/>
  <path class="fil0" d="M2105.52 1545.74l-7.82 0c-8,0 -14.5,6.48 -14.5,14.5 0,8.01 6.5,14.51 14.5,14.51l7.82 0c8.02,0 14.5,-6.5 14.5,-14.51 0,-8.02 -6.48,-14.5 -14.5,-14.5z"/>
  <path class="fil1" d="M2036.32 1545.74l-7.81 0c-8,0 -14.5,6.48 -14.5,14.5 0,8.01 6.49,14.51 14.5,14.51l7.81 0c8.03,0 14.51,-6.5 14.51,-14.51 0,-8.02 -6.48,-14.5 -14.51,-14.5z"/>
  <path class="fil1" d="M1967.13 1545.74l-7.81 0c-8.01,0 -14.51,6.48 -14.51,14.5 0,8.01 6.5,14.51 14.51,14.51l7.81 0c8.01,0 14.5,-6.5 14.5,-14.51 0,-8.02 -6.49,-14.5 -14.5,-14.5z"/>
  <path class="fil1" d="M1897.94 1545.74l-7.82 0c-8,0 -14.5,6.48 -14.5,14.5 0,8.01 6.5,14.51 14.5,14.51l7.82 0c8.02,0 14.5,-6.5 14.5,-14.51 0,-8.02 -6.48,-14.5 -14.5,-14.5z"/>
  <path class="fil1" d="M1828.74 1545.74l-7.81 0c-8.01,0 -14.5,6.48 -14.5,14.5 0,8.01 6.49,14.51 14.5,14.51l7.81 0c8.03,0 14.51,-6.5 14.51,-14.51 0,-8.02 -6.48,-14.5 -14.51,-14.5z"/>
  <path class="fil1" d="M1759.55 1545.74l-7.81 0c-8.01,0 -14.51,6.48 -14.51,14.5 0,8.01 6.5,14.51 14.51,14.51l7.81 0c8,0 14.5,-6.5 14.5,-14.51 0,-8.02 -6.5,-14.5 -14.5,-14.5z"/>
  <path class="fil1" d="M1690.36 1545.74l-7.82 0c-8,0 -14.5,6.48 -14.5,14.5 0,8.01 6.5,14.51 14.5,14.51l7.82 0c8,0 14.5,-6.5 14.5,-14.51 0,-8.02 -6.5,-14.5 -14.5,-14.5z"/>
  <path class="fil1" d="M1621.16 1545.74l-7.8 0c-8.02,0 -14.51,6.48 -14.51,14.5 0,8.01 6.49,14.51 14.51,14.51l7.8 0c8.03,0 14.51,-6.5 14.51,-14.51 0,-8.02 -6.48,-14.5 -14.51,-14.5z"/>
  <path class="fil1" d="M1551.98 1545.74l-7.82 0c-8.01,0 -14.5,6.48 -14.5,14.5 0,8.01 6.49,14.51 14.5,14.51l7.82 0c8,0 14.5,-6.5 14.5,-14.51 0,-8.02 -6.5,-14.5 -14.5,-14.5z"/>
  <path class="fil1" d="M1482.78 1545.74l-7.81 0c-8.01,0 -14.51,6.48 -14.51,14.5 0,8.01 6.5,14.51 14.51,14.51l7.81 0c8.01,0 14.5,-6.5 14.5,-14.51 0,-8.02 -6.49,-14.5 -14.5,-14.5z"/>
  <path class="fil1" d="M1413.59 1545.74l-7.81 0c-8.01,0 -14.51,6.48 -14.51,14.5 0,8.01 6.49,14.51 14.51,14.51l7.81 0c8.01,0 14.5,-6.5 14.5,-14.51 0,-8.02 -6.49,-14.5 -14.5,-14.5z"/>
  <path class="fil1" d="M1344.4 1545.74l-7.82 0c-8.01,0 -14.5,6.48 -14.5,14.5 0,8.01 6.49,14.51 14.5,14.51l7.82 0c8,0 14.5,-6.5 14.5,-14.51 0,-8.02 -6.5,-14.5 -14.5,-14.5z"/>
  <path class="fil1" d="M1275.2 1545.74l-7.81 0c-8.01,0 -14.51,6.48 -14.51,14.5 0,8.01 6.5,14.51 14.51,14.51l7.81 0c8.01,0 14.5,-6.5 14.5,-14.51 0,-8.02 -6.49,-14.5 -14.5,-14.5z"/>
  <path class="fil0" d="M2106.21 2078.79l832.61 0 0 1114.75c0,8.01 6.47,14.51 14.5,14.51 8.01,0 14.5,-6.5 14.5,-14.51l0.01 -1129.25c0,-3.83 -1.55,-7.57 -4.26,-10.27 -2.71,-2.69 -6.44,-4.24 -10.25,-4.24l-847.11 0c-8.02,0 -14.5,6.48 -14.5,14.51 0,8 6.48,14.5 14.5,14.5z"/>
  <path class="fil0" d="M2967.83 2064.29l0 -339.75c0,-3.82 -1.55,-7.56 -4.26,-10.26 -2.71,-2.69 -6.44,-4.24 -10.25,-4.24l-847.8 0c-8.01,0 -14.51,6.48 -14.51,14.51 0,8 6.5,14.5 14.51,14.5l833.3 -0.02 0 325.26c0,8 6.47,14.5 14.5,14.5 8.01,0 14.5,-6.5 14.51,-14.5z"/>
  <path class="fil0" d="M2967.83 1724.54l0 -116.96c0,-3.82 -1.55,-7.56 -4.26,-10.26 -2.71,-2.69 -6.44,-4.24 -10.25,-4.24l-847.11 0c-8.02,0 -14.5,6.48 -14.5,14.51 0,8 6.48,14.5 14.5,14.5l832.61 -0.02 0 102.47c0,8.01 6.47,14.51 14.5,14.51 8.01,0 14.5,-6.5 14.51,-14.51z"/>
  <path class="fil0" d="M2967.83 1607.58l0 -94.68c0,-3.83 -1.55,-7.56 -4.26,-10.27 -2.71,-2.68 -6.44,-4.23 -10.25,-4.23l-847.8 0c-8.01,0 -14.51,6.48 -14.51,14.5 0,8.01 6.5,14.51 14.51,14.51l833.3 0 0 80.17c0,8.01 6.47,14.51 14.5,14.51 8.01,0 14.5,-6.5 14.51,-14.51z"/>
  <path class="fil0" d="M2953.32 2251.79l325.24 0 0 824.79c0,8.01 6.47,14.51 14.5,14.51 8.01,0 14.5,-6.5 14.5,-14.51l0.01 -839.29c0,-3.83 -1.55,-7.56 -4.26,-10.27 -2.71,-2.69 -6.44,-4.24 -10.25,-4.24l-339.74 0c-8.02,0 -14.5,6.48 -14.5,14.51 0,8 6.47,14.5 14.5,14.5z"/>
  <path class="fil0" d="M2953.32 3091.09l381.43 0 62.66 109.65c3.99,6.94 12.84,9.36 19.8,5.39 6.95,-3.98 9.36,-12.84 5.4,-19.8l-66.83 -116.96c-2.57,-4.49 -7.41,-7.29 -12.59,-7.29l-389.87 0c-8.02,0 -14.5,6.48 -14.5,14.5 0,8.01 6.47,14.51 14.5,14.51z"/>
  <path class="fil0" d="M3302.89 2247.94l72.4 -66.83c4.39,-4.04 5.84,-10.4 3.67,-15.95 -2.16,-5.54 -7.54,-9.21 -13.5,-9.21l-412.14 0c-8.02,0 -14.5,6.48 -14.5,14.5 0,8.01 6.47,14.51 14.5,14.51l375.03 0 -45.13 41.65c-5.88,5.44 -6.25,14.62 -0.82,20.5 5.44,5.9 14.61,6.27 20.49,0.83z"/>
  <path class="fil0" d="M3379.97 2170.45l0 -369.02c0,-3.82 -1.55,-7.56 -4.26,-10.26 -2.7,-2.69 -6.44,-4.24 -10.25,-4.24l-412.14 0c-8.02,0 -14.5,6.48 -14.5,14.51 0,8 6.47,14.5 14.5,14.5l397.64 0 0 354.51c0,8.01 6.48,14.51 14.5,14.51 8.01,0 14.51,-6.5 14.51,-14.51z"/>
  <path class="fil0" d="M3232.38 1801.43l0 -363.68c0,-3.82 -1.55,-7.56 -4.26,-10.26 -2.7,-2.69 -6.44,-4.24 -10.25,-4.24l-296.57 0c-3.83,0 -7.57,1.55 -10.27,4.24 -2.69,2.7 -4.24,6.44 -4.24,10.26l0 75.15c0,8.01 6.48,14.51 14.51,14.51 8,0 14.5,-6.5 14.5,-14.51l0 -60.64 267.57 0 0 349.17c0,8.01 6.48,14.51 14.5,14.51 8.01,0 14.51,-6.5 14.51,-14.51z"/>
  <path class="fil0" d="M2892.06 1437.75l0 14.51 362.01 0c3.81,0 7.55,-1.57 10.25,-4.26 2.71,-2.71 4.26,-6.44 4.26,-10.25l0 -187.97c0,-3.83 -1.55,-7.56 -4.26,-10.27 -2.7,-2.68 -6.44,-4.23 -10.25,-4.23l-362.01 0c-3.83,0 -7.57,1.55 -10.27,4.23 -2.69,2.71 -4.24,6.44 -4.24,10.27l0 187.97c0,3.81 1.55,7.55 4.24,10.25 2.71,2.71 6.44,4.26 10.27,4.26l0 -14.51 14.5 0 0 -173.46 333.01 0 0 158.96 -347.51 0 0 14.5 14.5 0 -14.5 0z"/>
  <path class="fil0" d="M2958.04 1249.78l0 14.51 238.1 0c3.81,0 7.54,-1.55 10.24,-4.26 2.71,-2.71 4.26,-6.44 4.26,-10.25l0 -317.46c0,-3.83 -1.55,-7.56 -4.26,-10.27 -2.7,-2.69 -6.43,-4.23 -10.24,-4.23l-238.1 0c-3.83,0 -7.56,1.54 -10.27,4.23 -2.69,2.71 -4.24,6.44 -4.24,10.27l0 317.46c0,3.81 1.55,7.54 4.24,10.25 2.71,2.71 6.44,4.26 10.27,4.26l0 -14.51 14.5 0 0 -302.96 209.09 0 0 288.46 -223.59 0 0 14.5 14.5 0 -14.5 0z"/>
  <path class="fil0" d="M2927.1 932.3l0 14.52 296.58 0c3.8,0 7.54,-1.56 10.24,-4.25 2.71,-2.71 4.24,-6.44 4.24,-10.27l0 -118.34c0,-3.82 -1.53,-7.56 -4.24,-10.26 -2.7,-2.7 -6.44,-4.25 -10.25,-4.25l-296.57 0c-3.83,0 -7.56,1.55 -10.27,4.25 -2.69,2.7 -4.24,6.44 -4.24,10.26l0 118.34c0,3.83 1.55,7.56 4.24,10.27 2.71,2.71 6.44,4.25 10.27,4.25l0 -14.52 14.5 0 0 -103.84 267.57 0 0 89.36 -282.07 0 0 14.48 14.5 0 -14.5 0z"/>
  <path class="fil0" d="M2992.69 813.96l0 14.5 171.27 0c3.81,0 7.54,-1.54 10.25,-4.25 2.7,-2.7 4.25,-6.43 4.25,-10.25l0 -171.27c0,-3.82 -1.55,-7.55 -4.25,-10.25 -2.71,-2.7 -6.44,-4.25 -10.25,-4.25l-171.27 0c-3.82,0 -7.56,1.55 -10.27,4.25 -2.68,2.7 -4.23,6.44 -4.23,10.26l0 171.26c0,3.82 1.55,7.55 4.23,10.25 2.71,2.71 6.44,4.25 10.27,4.25l0 -14.5 14.51 0 0 -156.76 142.25 0 0 142.25 -156.76 0 0 14.51 14.51 0 -14.51 0z"/>
  <path class="fil0" d="M3072.87 505.76l2.19 -5.38 -2.19 5.38 0 0 2.19 -5.38 -2.19 5.38c0.06,0.02 6.09,2.49 15.01,7.12 6.69,3.47 14.99,8.16 23.59,13.9 12.9,8.61 26.44,19.66 36.24,32.09 4.91,6.21 8.9,12.73 11.62,19.42 2.71,6.7 4.2,13.52 4.22,20.74 -0.02,5.28 -0.81,10.8 -2.67,16.74 -1.85,5.93 -4.79,12.29 -9.15,19.1 -4.31,6.75 -2.36,15.72 4.39,20.04 6.75,4.32 15.73,2.35 20.04,-4.39 5.61,-8.74 9.71,-17.46 12.41,-26.08 2.71,-8.63 3.99,-17.16 3.99,-25.41 0,-10.11 -1.94,-19.74 -5.19,-28.61 -2.84,-7.78 -6.69,-14.99 -11.15,-21.65 -7.82,-11.66 -17.52,-21.67 -27.6,-30.28 -15.12,-12.89 -31.13,-22.64 -43.47,-29.3 -12.36,-6.65 -21.02,-10.16 -21.39,-10.32 -7.43,-3 -15.88,0.58 -18.89,8.01 -3,7.42 0.58,15.88 8,18.88z"/>
  <path class="fil0" d="M3004.9 634.87c-4.35,-6.81 -7.29,-13.17 -9.15,-19.1 -1.86,-5.94 -2.65,-11.46 -2.67,-16.74 0.02,-6.47 1.2,-12.62 3.4,-18.65 1.94,-5.27 4.65,-10.44 8.01,-15.45 5.88,-8.78 13.77,-17.05 22.36,-24.37 12.88,-11.01 27.3,-19.86 38.4,-25.83 5.55,-2.99 10.27,-5.27 13.56,-6.78 1.64,-0.76 2.92,-1.32 3.77,-1.69 0.43,-0.18 0.75,-0.32 0.95,-0.4l0.21 -0.09 0.04 -0.01 -3.66 -8.96 3.64 8.96 0.02 0 -3.66 -8.96 3.64 8.96c5.47,-2.21 9.07,-7.53 9.07,-13.44l0 -58.48c0,-8.01 -6.5,-14.5 -14.51,-14.5 -8,0 -14.5,6.49 -14.5,14.5l0 58.48 14.51 0 -5.46 -13.45c-0.31,0.14 -6.92,2.82 -16.78,7.9 -7.39,3.81 -16.6,8.97 -26.36,15.44 -14.62,9.72 -30.52,22.34 -43.26,38.29 -6.37,7.98 -11.92,16.83 -15.94,26.62 -4.02,9.77 -6.46,20.53 -6.46,31.91 0,8.24 1.28,16.78 3.99,25.41 2.7,8.63 6.8,17.34 12.41,26.08 4.31,6.74 13.29,8.71 20.04,4.39 6.75,-4.32 8.72,-13.29 4.39,-20.04l0 0z"/>
  <path class="fil0" d="M3063.82 598.83l0 43.86c0,8.02 6.48,14.51 14.5,14.51 8.01,0 14.51,-6.49 14.51,-14.5l0 -43.87c0,-8.01 -6.5,-14.5 -14.51,-14.5 -8.02,0 -14.5,6.5 -14.5,14.5z"/>
  <path class="fil0" d="M3108.69 598.83l0 43.86c0,8.02 6.47,14.51 14.5,14.51 8.01,0 14.5,-6.49 14.5,-14.5l0.01 -43.87c0,-8.01 -6.5,-14.5 -14.51,-14.5 -8.02,0 -14.5,6.5 -14.5,14.5z"/>
  <path class="fil0" d="M3019.03 598.83l0 43.86c0,8.02 6.48,14.51 14.51,14.51 8,0 14.5,-6.49 14.5,-14.5l0 -43.87c0,-8.01 -6.5,-14.5 -14.5,-14.5 -8.03,0 -14.51,6.5 -14.51,14.5z"/>
  <path class="fil0" d="M3075.95 730.8l1.64 -9.94 -1.68 9.93 0.04 0.01 1.64 -9.94 -1.68 9.93 0 0c0.09,0.02 1.95,0.36 4.56,1.11 1.94,0.56 4.29,1.36 6.6,2.37 1.7,0.76 3.38,1.63 4.83,2.56 2.19,1.4 3.75,2.91 4.54,4.08 0.41,0.59 0.66,1.1 0.84,1.61 0.15,0.51 0.25,1.04 0.27,1.82 0,22.28 0,69.62 0,69.62 0,8.01 6.48,14.5 14.5,14.5 8.01,0 14.51,-6.49 14.51,-14.5 0,0 0,-47.34 0,-69.62 0,-4.62 -0.91,-9.08 -2.52,-13.02 -1.39,-3.46 -3.27,-6.51 -5.38,-9.12 -3.71,-4.59 -8,-7.9 -12.2,-10.47 -6.3,-3.83 -12.49,-6.06 -17.25,-7.5 -4.75,-1.41 -8.08,-1.97 -8.53,-2.05 -7.9,-1.3 -15.37,4.05 -16.67,11.95 -1.31,7.9 4.05,15.37 11.96,16.67l-0.02 0z"/>
  <path class="fil0" d="M3075.95 702.18c-0.37,0.06 -2.96,0.5 -6.75,1.55 -2.84,0.78 -6.38,1.91 -10.23,3.53 -2.9,1.22 -5.96,2.72 -9.05,4.63 -4.62,2.86 -9.38,6.65 -13.27,12.05 -1.91,2.69 -3.6,5.8 -4.76,9.26 -1.16,3.45 -1.81,7.25 -1.8,11.14 0.01,22.28 0,69.62 0,69.62 0.01,8.01 6.48,14.5 14.51,14.5 8.01,0 14.5,-6.49 14.5,-14.5 0,0 0,-47.34 0,-69.62 0,-0.95 0.14,-1.54 0.39,-2.16 0.21,-0.55 0.56,-1.13 1.1,-1.81 0.93,-1.18 2.57,-2.6 4.7,-3.88 3.15,-1.95 7.25,-3.53 10.42,-4.46 1.59,-0.47 2.94,-0.8 3.85,-1 0.45,-0.1 0.78,-0.16 0.97,-0.2l0.19 -0.04 0.02 0 -1.43 -8.31 1.37 8.32 0.06 -0.01 -1.43 -8.31 1.37 8.32c7.9,-1.3 13.25,-8.77 11.96,-16.67 -1.32,-7.9 -8.78,-13.25 -16.67,-11.95l-0.02 0z"/>
  <path class="fil0" d="M3069.93 1314.72l1.68 -7.27 -1.77 7.25 0.09 0.02 1.68 -7.27 -1.77 7.25c0,0 0.07,0.02 0.27,0.08 0.73,0.19 2.76,0.81 5.26,1.93 1.85,0.85 3.98,1.98 6.03,3.35 3.08,2.09 5.86,4.7 7.79,7.77 0.97,1.55 1.76,3.21 2.32,5.15 0.57,1.93 0.91,4.12 0.93,6.8 0,31.35 0,97.97 0,97.97 0,8.01 6.48,14.51 14.51,14.51 8,0 14.5,-6.5 14.5,-14.51 0,0 0,-66.62 0,-97.97 0,-5.22 -0.72,-10.15 -2.01,-14.67 -2.28,-7.95 -6.34,-14.55 -10.91,-19.61 -3.42,-3.83 -7.1,-6.89 -10.67,-9.32 -5.36,-3.66 -10.47,-5.98 -14.33,-7.47 -3.87,-1.49 -6.52,-2.13 -7.04,-2.24 -7.8,-1.82 -15.59,3.03 -17.41,10.85 -1.81,7.79 3.04,15.58 10.85,17.4z"/>
  <path class="fil0" d="M3069.93 1286.47c-0.52,0.11 -3.25,0.77 -7.23,2.32 -2.98,1.16 -6.65,2.8 -10.62,5.14 -5.91,3.52 -12.57,8.67 -17.94,16.29 -2.69,3.78 -5.01,8.21 -6.64,13.2 -1.62,4.97 -2.53,10.49 -2.51,16.36 0,31.35 0,97.97 0,97.97 0,8.01 6.48,14.51 14.5,14.51 8.01,0 14.51,-6.5 14.51,-14.51 0,0 0,-66.62 0,-97.97 0,-2.63 0.33,-4.79 0.87,-6.69 0.96,-3.3 2.55,-5.91 4.66,-8.27 1.57,-1.77 3.42,-3.35 5.39,-4.68 2.94,-2.02 6.08,-3.47 8.38,-4.36 1.14,-0.42 2.07,-0.73 2.65,-0.9 0.29,-0.08 0.48,-0.14 0.58,-0.16l0.08 -0.02 -1.82 -7.33 1.7 7.35 0.12 -0.02 -1.82 -7.33 1.7 7.35c7.81,-1.82 12.66,-9.61 10.85,-17.4 -1.82,-7.82 -9.61,-12.67 -17.41,-10.85z"/>
  <path class="fil0" d="M3173.12 1314.72l1.72 -7.41 -1.83 7.39 0.11 0.02 1.72 -7.41 -1.83 7.39c0.02,0 0.09,0.02 0.29,0.08 0.73,0.19 2.76,0.81 5.26,1.93 1.85,0.85 3.98,1.98 6.03,3.35 3.08,2.09 5.86,4.7 7.79,7.77 0.97,1.55 1.74,3.21 2.32,5.15 0.57,1.93 0.91,4.12 0.93,6.8 0,31.35 0,97.97 0,97.97 0,8.01 6.48,14.51 14.51,14.51 8,0 14.5,-6.5 14.5,-14.51 0,0 0,-66.62 0,-97.97 0,-5.22 -0.72,-10.15 -2.01,-14.67 -2.28,-7.95 -6.34,-14.55 -10.91,-19.61 -3.42,-3.83 -7.09,-6.89 -10.67,-9.32 -5.36,-3.66 -10.46,-5.98 -14.33,-7.47 -3.87,-1.49 -6.52,-2.13 -7.04,-2.24 -7.8,-1.82 -15.59,3.03 -17.41,10.85 -1.81,7.79 3.04,15.58 10.85,17.4z"/>
  <path class="fil0" d="M3173.12 1286.47c-0.52,0.11 -3.25,0.77 -7.23,2.32 -2.98,1.16 -6.65,2.8 -10.62,5.14 -5.91,3.52 -12.57,8.67 -17.94,16.29 -2.69,3.78 -5.01,8.21 -6.64,13.2 -1.62,4.97 -2.53,10.49 -2.51,16.36 0,31.35 0,97.97 0,97.97 0,8.01 6.48,14.51 14.5,14.51 8.01,0 14.51,-6.5 14.51,-14.51 0,0 0,-66.62 0,-97.97 0,-2.63 0.33,-4.79 0.87,-6.69 0.97,-3.3 2.55,-5.91 4.64,-8.27 1.59,-1.77 3.44,-3.35 5.41,-4.68 2.94,-2.02 6.08,-3.47 8.38,-4.36 1.14,-0.42 2.07,-0.73 2.65,-0.9 0.29,-0.08 0.48,-0.14 0.58,-0.16l0.08 -0.02 -1.82 -7.33 1.7 7.35 0.12 -0.02 -1.82 -7.33 1.7 7.35c7.81,-1.82 12.67,-9.61 10.85,-17.4 -1.82,-7.82 -9.61,-12.67 -17.41,-10.85z"/>
  <path class="fil0" d="M2965.1 1314.72l1.7 -7.35 -1.8 7.33 0.1 0.02 1.7 -7.35 -1.8 7.33c0,0 0.08,0.02 0.27,0.08 0.74,0.19 2.77,0.81 5.26,1.93 1.86,0.85 3.98,1.98 6.03,3.35 3.08,2.09 5.86,4.7 7.8,7.77 0.97,1.55 1.76,3.21 2.32,5.15 0.56,1.93 0.91,4.12 0.93,6.8 0,31.35 0,97.97 0,97.97 0,8.01 6.48,14.51 14.5,14.51 8.01,0 14.5,-6.5 14.5,-14.51 0.01,0 0,-66.62 0,-97.97 0.01,-5.22 -0.71,-10.15 -2.01,-14.67 -2.28,-7.95 -6.34,-14.55 -10.9,-19.61 -3.41,-3.83 -7.1,-6.89 -10.68,-9.32 -5.35,-3.66 -10.44,-5.98 -14.33,-7.47 -3.87,-1.49 -6.51,-2.13 -7.04,-2.24 -7.79,-1.82 -15.58,3.03 -17.4,10.85 -1.82,7.79 3.03,15.58 10.85,17.4z"/>
  <path class="fil0" d="M2965.1 1286.47c-0.52,0.11 -3.25,0.77 -7.24,2.32 -2.97,1.16 -6.65,2.8 -10.61,5.14 -5.92,3.52 -12.57,8.67 -17.95,16.29 -2.68,3.78 -5.01,8.21 -6.63,13.2 -1.62,4.97 -2.53,10.49 -2.52,16.36 0.01,31.35 0,97.97 0,97.97 0.01,8.01 6.48,14.51 14.51,14.51 8,0 14.5,-6.5 14.5,-14.51 0,0 0,-66.62 0,-97.97 0,-2.63 0.33,-4.79 0.87,-6.69 0.97,-3.3 2.55,-5.91 4.66,-8.27 1.57,-1.77 3.43,-3.35 5.4,-4.68 2.94,-2.02 6.07,-3.47 8.37,-4.36 1.15,-0.42 2.07,-0.73 2.65,-0.9 0.29,-0.08 0.48,-0.14 0.58,-0.16l0.08 -0.02 -1.86 -7.46 1.74 7.48 0.12 -0.02 -1.86 -7.46 1.74 7.48c7.82,-1.82 12.67,-9.61 10.85,-17.4 -1.81,-7.82 -9.61,-12.67 -17.4,-10.85z"/>
  <path class="fil0" d="M3063.82 864.08l0 58.49c0,8.01 6.48,14.51 14.5,14.51 8.01,0 14.51,-6.5 14.51,-14.51l0 -58.49c0,-8.01 -6.5,-14.5 -14.51,-14.5 -8.02,0 -14.5,6.49 -14.5,14.5z"/>
  <path class="fil0" d="M3104.05 864.08l0 58.49c0,8.01 6.47,14.51 14.5,14.51 8.01,0 14.5,-6.5 14.5,-14.51l0 -58.49c0,-8.01 -6.49,-14.5 -14.5,-14.5 -8.03,0 -14.51,6.49 -14.5,14.5z"/>
  <path class="fil0" d="M3144.27 864.08l0 58.49c0,8.01 6.48,14.51 14.5,14.51 8.01,0 14.51,-6.5 14.51,-14.51l0 -58.49c0,-8.01 -6.5,-14.5 -14.51,-14.5 -8.02,0 -14.5,6.49 -14.5,14.5z"/>
  <path class="fil0" d="M2984.07 864.08l0 58.49c0,8.01 6.48,14.51 14.5,14.51 8.01,0 14.51,-6.5 14.51,-14.51l0 -58.49c0,-8.01 -6.5,-14.5 -14.51,-14.5 -8.02,0 -14.5,6.49 -14.5,14.5z"/>
  <path class="fil0" d="M3024.29 864.08l0 58.49c0,8.01 6.48,14.51 14.51,14.51 8,0 14.5,-6.5 14.5,-14.51l0 -58.49c0,-8.01 -6.5,-14.5 -14.5,-14.5 -8.03,0 -14.51,6.49 -14.51,14.5z"/>
  <path class="fil0" d="M3365.47 1971.44l-407.43 0c-8.03,0 -14.51,6.48 -14.51,14.51 0,8 6.48,14.5 14.51,14.5l407.43 0c8,0 14.5,-6.5 14.5,-14.5 0,-8.03 -6.5,-14.51 -14.5,-14.51z"/>
  <path class="fil0" d="M3264.01 1881.23l0 219.3c0,8 6.48,14.5 14.51,14.5 8.01,0 14.5,-6.5 14.5,-14.5l0 -219.3c0,-8.03 -6.5,-14.51 -14.5,-14.51 -8.03,0 -14.51,6.48 -14.51,14.51z"/>
  <path class="fil0" d="M3199.27 1881.23l0 219.3c0,8 6.48,14.5 14.5,14.5 8.01,0 14.51,-6.5 14.51,-14.5l0 -219.3c0,-8.03 -6.5,-14.51 -14.51,-14.51 -8.02,0 -14.5,6.48 -14.5,14.51z"/>
  <path class="fil0" d="M3134.52 1881.23l0 219.3c0,8 6.48,14.5 14.51,14.5 8,0 14.5,-6.5 14.5,-14.5l0 -219.3c0,-8.03 -6.5,-14.51 -14.5,-14.51 -8.03,0 -14.51,6.48 -14.51,14.51z"/>
  <path class="fil0" d="M3069.78 1881.23l0 219.3c0,8 6.48,14.5 14.5,14.5 8.01,0 14.5,-6.5 14.5,-14.5l0.01 -219.3c0,-8.03 -6.5,-14.51 -14.51,-14.51 -8.02,0 -14.5,6.48 -14.5,14.51z"/>
  <path class="fil0" d="M3005.03 1881.23l0 219.3c0,8 6.48,14.5 14.51,14.5 8,0 14.5,-6.5 14.5,-14.5l0 -219.3c0,-8.03 -6.5,-14.51 -14.5,-14.51 -8.03,0 -14.51,6.48 -14.51,14.51z"/>
  <path class="fil0" d="M3228.43 2237.29l0 65.13c0,8.01 6.48,14.51 14.5,14.51 8.01,-0.01 14.51,-6.5 14.51,-14.51l0 -65.13c0,-8.03 -6.5,-14.51 -14.51,-14.51 -8.02,0 -14.5,6.48 -14.5,14.51z"/>
  <path class="fil0" d="M3174.13 2237.29l0 65.13c0,8.01 6.48,14.51 14.5,14.51 8.01,-0.01 14.51,-6.5 14.51,-14.51l0 -65.13c0,-8.03 -6.5,-14.51 -14.51,-14.51 -8.02,0 -14.5,6.48 -14.5,14.51z"/>
  <path class="fil0" d="M3119.83 2237.29l0 65.13c0,8.01 6.47,14.51 14.5,14.51 8.01,-0.01 14.5,-6.5 14.5,-14.51l0.01 -65.13c0,-8.03 -6.5,-14.51 -14.51,-14.51 -8.03,0 -14.5,6.48 -14.5,14.51z"/>
  <path class="fil0" d="M3065.52 2237.29l0 65.13c0,8.01 6.48,14.51 14.51,14.51 8,-0.01 14.5,-6.5 14.5,-14.51l0 -65.13c0,-8.03 -6.5,-14.51 -14.5,-14.51 -8.03,0 -14.51,6.48 -14.51,14.51z"/>
  <path class="fil0" d="M3011.22 2237.29l0 65.13c0,8.01 6.48,14.51 14.5,14.51 8.01,-0.01 14.51,-6.5 14.51,-14.51l0 -65.13c0,-8.03 -6.5,-14.51 -14.51,-14.51 -8.02,0 -14.5,6.48 -14.5,14.51z"/>
  <path class="fil0" d="M2956.92 2237.29l0 65.13c0,8.01 6.48,14.51 14.5,14.51 8.01,-0.01 14.51,-6.5 14.51,-14.51l0 -65.13c0,-8.03 -6.5,-14.51 -14.51,-14.51 -8.02,0 -14.5,6.48 -14.5,14.51z"/>
  <path class="fil0" d="M3228.43 3011.45l0 65.13c0,8.01 6.48,14.51 14.5,14.51 8.01,0 14.51,-6.5 14.51,-14.51l0 -65.13c0,-8.02 -6.5,-14.5 -14.51,-14.5 -8.02,0 -14.5,6.48 -14.5,14.5z"/>
  <path class="fil0" d="M3174.13 3011.45l0 65.13c0,8.01 6.48,14.51 14.5,14.51 8.01,0 14.51,-6.5 14.51,-14.51l0 -65.13c0,-8.02 -6.5,-14.5 -14.51,-14.5 -8.02,0 -14.5,6.48 -14.5,14.5z"/>
  <path class="fil0" d="M3119.83 3011.45l0 65.13c0,8.01 6.47,14.51 14.5,14.51 8.01,0 14.5,-6.5 14.5,-14.51l0.01 -65.13c0,-8.02 -6.5,-14.5 -14.51,-14.5 -8.03,0 -14.5,6.48 -14.5,14.5z"/>
  <path class="fil0" d="M3065.52 3011.45l0 65.13c0,8.01 6.48,14.51 14.51,14.51 8,0 14.5,-6.5 14.5,-14.51l0 -65.13c0,-8.02 -6.5,-14.5 -14.5,-14.5 -8.03,0 -14.51,6.48 -14.51,14.5z"/>
  <path class="fil0" d="M3011.22 3011.45l0 65.13c0,8.01 6.48,14.51 14.5,14.51 8.01,0 14.51,-6.5 14.51,-14.51l0 -65.13c0,-8.02 -6.5,-14.5 -14.51,-14.5 -8.02,0 -14.5,6.48 -14.5,14.5z"/>
  <path class="fil0" d="M2956.92 3011.45l0 65.13c0,8.01 6.48,14.51 14.5,14.51 8.01,0 14.51,-6.5 14.51,-14.51l0 -65.13c0,-8.02 -6.5,-14.5 -14.51,-14.5 -8.02,0 -14.5,6.48 -14.5,14.5z"/>
  <path class="fil0" d="M3312.83 2343.46l292.65 0 0 744.32c0,8.03 6.49,14.5 14.5,14.5 8.03,0 14.5,-6.47 14.5,-14.5l0 -758.83c0,-3.83 -1.54,-7.56 -4.23,-10.27 -2.71,-2.68 -6.44,-4.23 -10.27,-4.23l-307.15 0c-8.03,0 -14.51,6.5 -14.51,14.5 0,8.01 6.48,14.51 14.51,14.51z"/>
  <path class="fil0" d="M3738.33 3186.33l-60.43 -105.74c-2.57,-4.49 -7.43,-7.29 -12.59,-7.29l-45.31 0 -45.33 0 -49.1 0 -49.08 0 -49.1 0 -49.1 0 -28.7 0c-8.03,0 -14.51,6.47 -14.51,14.5 0,8.01 6.48,14.5 14.51,14.5l28.7 -0.02 49.1 0 49.1 0 49.08 0 49.1 0 45.33 0 36.88 0 56.25 98.46c3.99,6.94 12.84,9.36 19.81,5.39 6.94,-3.98 9.36,-12.84 5.39,-19.8z"/>
  <path class="fil0" d="M3629.82 2339.61l65.46 -60.43c4.38,-4.05 5.84,-10.39 3.68,-15.94 -2.17,-5.55 -7.56,-9.22 -13.5,-9.22l-372.63 0c-8.03,0 -14.51,6.49 -14.51,14.5 0,8.01 6.48,14.5 14.5,14.5l335.53 0 -38.19 35.28c-5.9,5.43 -6.27,14.6 -0.84,20.5 5.44,5.88 14.62,6.24 20.5,0.81z"/>
  <path class="fil0" d="M3699.96 2268.54l0 -166.83 0 -166.82c0,-3.83 -1.54,-7.56 -4.25,-10.27 -2.71,-2.69 -6.44,-4.23 -10.25,-4.23l-133.44 0 -186.55 0c-8.03,0 -14.51,6.48 -14.51,14.5 0,8.01 6.48,14.5 14.5,14.5l186.56 -0.02 118.94 0 0 152.34 0 166.83c0,8.01 6.47,14.5 14.5,14.5 8.01,0 14.5,-6.49 14.5,-14.5z"/>
  <path class="fil0" d="M3566.51 1934.87l0 -328.81c0,-3.81 -1.55,-7.56 -4.24,-10.25 -2.7,-2.71 -6.44,-4.26 -10.27,-4.26l-268.14 0c-3.81,0 -7.55,1.55 -10.25,4.26 -2.71,2.69 -4.26,6.44 -4.26,10.25l0 67.95 0 127.42c0,8.01 6.5,14.51 14.51,14.51 8,0 14.5,-6.5 14.5,-14.5l0 -127.43 0 -53.45 239.14 0 0 314.31c0,8.03 6.5,14.51 14.5,14.51 8.01,-0.01 14.51,-6.48 14.51,-14.51z"/>
  <path class="fil0" d="M3257.42 1606.06l0 14.5 327.33 0c3.8,0 7.54,-1.55 10.24,-4.25 2.71,-2.69 4.26,-6.42 4.26,-10.25l0 -169.95c0,-3.83 -1.55,-7.56 -4.26,-10.25 -2.7,-2.71 -6.44,-4.25 -10.25,-4.25l-327.32 -0.01c-3.81,0 -7.54,1.55 -10.25,4.26 -2.71,2.69 -4.25,6.42 -4.25,10.25l0 169.95c0,3.83 1.54,7.56 4.25,10.25 2.71,2.7 6.44,4.25 10.25,4.25l0 -14.5 14.5 0 0 -155.45 298.32 0 0 140.94 -312.82 0 0 14.51 14.5 0 -14.5 0z"/>
  <path class="fil0" d="M3317.08 1436.11l0 14.5 215.28 0c3.81,0 7.56,-1.54 10.25,-4.25 2.7,-2.69 4.25,-6.44 4.25,-10.25l0 -287.02c0,-3.83 -1.55,-7.57 -4.25,-10.27 -2.69,-2.69 -6.44,-4.24 -10.25,-4.24l-215.28 0c-3.81,0 -7.56,1.55 -10.25,4.24 -2.71,2.7 -4.25,6.44 -4.25,10.27l0 287.02c0,3.81 1.54,7.56 4.25,10.25 2.69,2.7 6.44,4.25 10.25,4.25l0 -14.5 14.5 0 0 -272.52 186.27 0 0 258.01 -200.77 0 0 14.51 14.5 0 -14.5 0z"/>
  <path class="fil0" d="M3289.12 1149.09l0 14.5 268.13 0c3.82,0 7.56,-1.55 10.26,-4.25 2.69,-2.71 4.24,-6.44 4.24,-10.25l0 -107.02c0,-3.81 -1.55,-7.55 -4.24,-10.25 -2.7,-2.71 -6.44,-4.26 -10.27,-4.26l-268.12 0c-3.83,0 -7.57,1.55 -10.27,4.26 -2.69,2.7 -4.24,6.44 -4.24,10.25l0 107.02c0,3.8 1.55,7.54 4.24,10.25 2.7,2.7 6.44,4.25 10.27,4.25l0 -14.5 14.5 0 0 -92.52 239.12 0 0 78.01 -253.62 0 0 14.51 14.5 0 -14.5 0z"/>
  <path class="fil0" d="M3348.41 1042.07l0 14.5 154.84 0c3.83,0 7.56,-1.55 10.27,-4.23 2.69,-2.71 4.24,-6.44 4.24,-10.27l0 -154.85c0,-3.81 -1.55,-7.55 -4.24,-10.25 -2.71,-2.7 -6.44,-4.25 -10.27,-4.25l-154.84 0c-3.81,0 -7.54,1.55 -10.25,4.25 -2.71,2.7 -4.26,6.44 -4.26,10.26l0 154.84c0,3.82 1.55,7.56 4.26,10.27 2.71,2.68 6.44,4.23 10.25,4.23l0 -14.5 14.5 0 0 -140.34 125.84 0 0 125.83 -140.34 0 0 14.51 14.5 0 -14.5 0z"/>
  <path class="fil0" d="M3420.39 764.71l2.55 -6.28 -2.55 6.27 0 0.01 2.55 -6.28 -2.55 6.27c0.02,0.01 5.43,2.23 13.46,6.39 6.01,3.11 13.47,7.33 21.19,12.49 11.59,7.72 23.71,17.64 32.45,28.72 4.37,5.53 7.91,11.32 10.31,17.22 2.4,5.91 3.69,11.9 3.71,18.23 -0.02,4.63 -0.71,9.47 -2.34,14.71 -1.64,5.24 -4.23,10.88 -8.12,16.95 -4.33,6.74 -2.36,15.71 4.39,20.03 6.75,4.32 15.72,2.35 20.03,-4.39 5.13,-8 8.9,-15.99 11.38,-23.92 2.49,-7.93 3.67,-15.79 3.67,-23.38 0,-9.32 -1.78,-18.2 -4.76,-26.35 -2.63,-7.15 -6.15,-13.77 -10.25,-19.87 -7.17,-10.68 -16.03,-19.82 -25.22,-27.66 -13.76,-11.75 -28.33,-20.61 -39.54,-26.66 -11.22,-6.04 -19.11,-9.24 -19.48,-9.39 -7.42,-3.01 -15.87,0.58 -18.87,8 -3.02,7.43 0.58,15.89 8.01,18.89l-0.02 0z"/>
  <path class="fil0" d="M3360.63 879.4c-3.89,-6.07 -6.5,-11.7 -8.12,-16.94 -1.65,-5.24 -2.34,-10.08 -2.34,-14.71 0,-5.68 1.04,-11.07 3,-16.39 1.7,-4.64 4.09,-9.22 7.07,-13.67 5.23,-7.8 12.26,-15.19 19.96,-21.75 11.55,-9.86 24.5,-17.82 34.48,-23.19 4.99,-2.69 9.22,-4.74 12.18,-6.09 1.48,-0.68 2.61,-1.19 3.39,-1.51 0.37,-0.17 0.66,-0.28 0.83,-0.36l0.17 -0.08 0.04 -0.01 -0.54 -1.34 0.54 1.34 -0.54 -1.34 0.54 1.34 -3.63 -8.95 3.61 8.96 0.02 -0.01 -3.63 -8.95 3.61 8.96c5.48,-2.22 9.07,-7.54 9.07,-13.45l0 -52.87c0,-8.01 -6.49,-14.5 -14.5,-14.5 -8.01,0 -14.5,6.49 -14.5,14.5l0 52.87 14.5 0 -5.45 -13.44c-0.31,0.13 -6.33,2.58 -15.28,7.19 -6.73,3.47 -15.11,8.15 -23.96,14.04 -13.31,8.84 -27.79,20.32 -39.43,34.91 -5.82,7.3 -10.93,15.41 -14.62,24.41 -3.7,8.98 -5.94,18.89 -5.94,29.38 0,7.59 1.18,15.46 3.65,23.38 2.5,7.93 6.27,15.93 11.39,23.92 4.32,6.74 13.29,8.71 20.04,4.39 6.75,-4.32 8.7,-13.29 4.39,-20.04z"/>
  <path class="fil0" d="M3411.34 847.57l0 39.65c0,8.02 6.49,14.51 14.5,14.51 8.01,0 14.5,-6.49 14.5,-14.5l0 -39.66c0,-8.01 -6.49,-14.5 -14.5,-14.5 -8.01,0 -14.5,6.49 -14.5,14.5z"/>
  <path class="fil0" d="M3451.91 847.57l0 39.65c0,8.02 6.48,14.51 14.5,14.51 8.01,0 14.51,-6.49 14.51,-14.5l0 -39.66c0,-8.01 -6.5,-14.5 -14.51,-14.5 -8.02,0 -14.5,6.49 -14.5,14.5z"/>
  <path class="fil0" d="M3370.84 847.57l0 39.65c0,8.02 6.5,14.51 14.5,14.51 8.01,0 14.51,-6.49 14.51,-14.5l0 -39.66c0,-8.01 -6.5,-14.5 -14.51,-14.5 -8,0 -14.5,6.49 -14.5,14.5z"/>
  <path class="fil0" d="M3423.48 968.25l0.99 -5.99 -1.05 5.99 0.06 0 0.99 -5.99 -1.05 5.99c0.04,0 1.68,0.31 3.99,0.97 1.7,0.48 3.77,1.2 5.78,2.07 1.49,0.67 2.96,1.43 4.18,2.22 1.87,1.2 3.15,2.44 3.73,3.31 0.29,0.42 0.44,0.77 0.56,1.08 0.1,0.33 0.15,0.66 0.17,1.22 0,20.15 0,62.95 0,62.95 0,8 6.5,14.5 14.51,14.5 8,0 14.5,-6.5 14.5,-14.5 0,0 0,-42.8 0,-62.95 0,-4.35 -0.85,-8.57 -2.38,-12.28 -1.31,-3.27 -3.09,-6.15 -5.07,-8.61 -3.48,-4.31 -7.48,-7.38 -11.39,-9.78 -5.84,-3.54 -11.54,-5.59 -15.93,-6.92 -4.37,-1.3 -7.43,-1.82 -7.87,-1.9 -7.91,-1.3 -15.38,4.06 -16.67,11.95 -1.32,7.91 4.04,15.38 11.95,16.67l0 0z"/>
  <path class="fil0" d="M3423.48 939.63c-0.39,0.08 -2.77,0.48 -6.27,1.43 -2.6,0.74 -5.86,1.76 -9.41,3.27 -2.67,1.12 -5.52,2.51 -8.38,4.27 -4.27,2.67 -8.74,6.19 -12.37,11.28 -1.82,2.53 -3.41,5.47 -4.51,8.74 -1.1,3.25 -1.7,6.84 -1.7,10.5 0,20.15 0,62.95 0,62.95 0,8 6.5,14.5 14.5,14.5 8.01,0 14.51,-6.5 14.51,-14.5 0,0 0,-42.8 0,-62.95 0.02,-0.68 0.09,-1.03 0.25,-1.43 0.15,-0.35 0.37,-0.76 0.79,-1.28 0.72,-0.91 2.07,-2.09 3.89,-3.19 2.71,-1.68 6.32,-3.07 9.11,-3.89 1.39,-0.42 2.59,-0.71 3.36,-0.89 0.41,-0.07 0.7,-0.13 0.85,-0.17l0.16 -0.02 -1.59 -9.18 1.53 9.18 0.06 0 -1.59 -9.18 1.53 9.18c7.91,-1.3 13.25,-8.76 11.95,-16.67 -1.31,-7.89 -8.78,-13.25 -16.67,-11.95l0 0z"/>
  <path class="fil0" d="M3417.93 1496.18l1.88 -8.03 -1.98 8.01 0.1 0.02 1.88 -8.03 -1.98 8.01c0.1,0.02 1.67,0.44 3.81,1.33 1.61,0.68 3.52,1.61 5.4,2.8 2.82,1.78 5.45,4.09 7.19,6.75 0.91,1.34 1.61,2.77 2.13,4.45 0.52,1.66 0.85,3.6 0.85,6 0,28.35 0,88.57 0,88.57 0,8 6.5,14.5 14.5,14.5 8.01,0 14.51,-6.5 14.51,-14.5 0,0 0,-60.22 0,-88.57 0,-4.84 -0.66,-9.44 -1.88,-13.66 -2.1,-7.4 -5.9,-13.55 -10.13,-18.27 -3.19,-3.56 -6.61,-6.38 -9.92,-8.65 -4.97,-3.38 -9.67,-5.51 -13.23,-6.9 -3.58,-1.37 -6.05,-1.95 -6.56,-2.09 -7.81,-1.8 -15.6,3.06 -17.4,10.85 -1.82,7.81 3.04,15.61 10.85,17.43l-0.02 -0.02z"/>
  <path class="fil0" d="M3417.93 1467.92c-0.5,0.14 -3.04,0.74 -6.71,2.17 -2.75,1.06 -6.15,2.59 -9.81,4.76 -5.47,3.24 -11.64,8 -16.67,15.1 -2.49,3.54 -4.66,7.68 -6.16,12.32 -1.51,4.64 -2.36,9.76 -2.36,15.22 0,28.35 0,88.57 0,88.57 0,8 6.49,14.5 14.5,14.5 8.03,0 14.5,-6.5 14.5,-14.5 0.01,0 0,-60.22 0,-88.57 0.03,-2.25 0.31,-4.06 0.76,-5.67 0.81,-2.77 2.13,-4.93 3.9,-6.94 1.34,-1.49 2.92,-2.84 4.63,-4.01 2.55,-1.74 5.28,-3.01 7.29,-3.77 0.99,-0.38 1.8,-0.65 2.28,-0.79 0.25,-0.08 0.42,-0.11 0.5,-0.13l0.04 -0.02 -1.82 -7.29 1.71 7.31 0.11 -0.02 -1.82 -7.29 1.71 7.31c7.79,-1.8 12.64,-9.6 10.84,-17.41 -1.81,-7.79 -9.61,-12.65 -17.4,-10.85l-0.02 0z"/>
  <path class="fil0" d="M3511.24 1496.18l1.86 -7.97 -1.98 7.95 0.12 0.02 1.86 -7.97 -1.98 7.95c0.12,0.02 1.69,0.44 3.83,1.33 1.61,0.68 3.52,1.61 5.4,2.8 2.82,1.78 5.43,4.09 7.19,6.75 0.89,1.34 1.61,2.77 2.11,4.45 0.52,1.66 0.85,3.6 0.87,6 -0.02,28.35 -0.02,88.57 0,88.57 0,8 6.48,14.5 14.5,14.5 8.01,0 14.51,-6.5 14.51,-14.5 -0.02,0 -0.02,-60.22 -0.02,-88.57 0.02,-4.84 -0.66,-9.44 -1.86,-13.66 -2.13,-7.4 -5.92,-13.55 -10.15,-18.27 -3.19,-3.56 -6.62,-6.38 -9.9,-8.65 -4.97,-3.38 -9.67,-5.51 -13.25,-6.9 -3.58,-1.37 -6.03,-1.95 -6.56,-2.09 -7.79,-1.8 -15.58,3.06 -17.4,10.85 -1.82,7.81 3.05,15.61 10.85,17.43l0 -0.02z"/>
  <path class="fil0" d="M3511.24 1467.92c-0.52,0.14 -3.06,0.74 -6.73,2.17 -2.75,1.06 -6.13,2.59 -9.81,4.76 -5.45,3.24 -11.64,8 -16.65,15.1 -2.49,3.54 -4.66,7.68 -6.18,12.32 -1.51,4.64 -2.34,9.76 -2.34,15.22 0,28.35 0,88.57 0,88.57 0,8 6.49,14.5 14.5,14.5 8.01,0 14.5,-6.5 14.5,-14.5 0,0 0,-60.22 0,-88.57 0,-2.25 0.29,-4.06 0.74,-5.67 0.81,-2.77 2.13,-4.93 3.9,-6.94 1.34,-1.49 2.94,-2.84 4.65,-4.01 2.53,-1.74 5.28,-3.01 7.27,-3.77 1,-0.38 1.8,-0.65 2.3,-0.79 0.25,-0.08 0.4,-0.11 0.48,-0.13l0.04 -0.02 -1.8 -7.29 1.69 7.31 0.11 -0.02 -1.8 -7.29 1.69 7.31c7.81,-1.8 12.66,-9.6 10.84,-17.41 -1.81,-7.79 -9.61,-12.65 -17.4,-10.85z"/>
  <path class="fil0" d="M3323.15 1496.18l1.88 -8.03 -1.99 8.01 0.11 0.02 1.88 -8.03 -1.99 8.01c0.11,0.02 1.68,0.44 3.82,1.33 1.61,0.68 3.52,1.61 5.4,2.8 2.82,1.78 5.43,4.09 7.19,6.75 0.89,1.34 1.61,2.77 2.13,4.45 0.5,1.66 0.85,3.6 0.85,6 0,28.35 0,88.57 0,88.57 0,8 6.5,14.5 14.51,14.5 8,0 14.5,-6.5 14.5,-14.5 0,0 0,-60.22 0,-88.57 0,-4.84 -0.66,-9.44 -1.88,-13.66 -2.1,-7.4 -5.91,-13.55 -10.15,-18.27 -3.17,-3.56 -6.59,-6.38 -9.9,-8.65 -4.97,-3.38 -9.67,-5.51 -13.25,-6.9 -3.57,-1.37 -6.03,-1.95 -6.53,-2.09 -7.82,-1.8 -15.61,3.06 -17.43,10.85 -1.79,7.81 3.06,15.61 10.85,17.43l0 -0.02z"/>
  <path class="fil0" d="M3323.15 1467.92c-0.52,0.14 -3.05,0.74 -6.71,2.17 -2.76,1.06 -6.15,2.59 -9.8,4.76 -5.48,3.24 -11.66,8 -16.67,15.1 -2.5,3.54 -4.66,7.68 -6.17,12.32 -1.53,4.64 -2.36,9.76 -2.36,15.22 0,28.35 0,88.57 0,88.57 0,8 6.5,14.5 14.5,14.5 8.01,0 14.51,-6.5 14.51,-14.5 0,0 0,-60.22 0,-88.57 0,-2.25 0.29,-4.06 0.75,-5.67 0.79,-2.77 2.11,-4.93 3.89,-6.94 1.33,-1.49 2.94,-2.84 4.64,-4.01 2.53,-1.74 5.28,-3.01 7.27,-3.77 1.01,-0.38 1.82,-0.65 2.3,-0.79 0.25,-0.08 0.43,-0.11 0.48,-0.13l0.04 -0.02 0.02 0 -1.81 -7.29 1.7 7.31 0.11 -0.02 -1.81 -7.29 1.7 7.31c7.79,-1.8 12.64,-9.6 10.83,-17.41 -1.8,-7.79 -9.6,-12.65 -17.41,-10.85z"/>
  <path class="fil0" d="M3411.34 1087.39l0 52.88c0,8 6.49,14.5 14.5,14.5 8.01,0 14.5,-6.5 14.5,-14.5l0 -52.88c0,-8 -6.49,-14.5 -14.5,-14.5 -8.01,0 -14.5,6.5 -14.5,14.5z"/>
  <path class="fil0" d="M3447.71 1087.39l0 52.88c0,8 6.48,14.5 14.51,14.5 8,0 14.5,-6.5 14.5,-14.5l0 -52.88c0,-8 -6.5,-14.5 -14.5,-14.5 -8.03,0 -14.51,6.5 -14.51,14.5z"/>
  <path class="fil0" d="M3484.07 1087.39l0 52.88c0,8 6.5,14.5 14.5,14.5 8.01,0 14.51,-6.5 14.51,-14.5l0 -52.88c0,-8 -6.5,-14.5 -14.51,-14.5 -8,0 -14.5,6.5 -14.5,14.5z"/>
  <path class="fil0" d="M3339.22 1087.39l0 52.88c0,8 6.5,14.5 14.51,14.5 8,0 14.5,-6.5 14.5,-14.5l0 -52.88c0,-8 -6.5,-14.5 -14.5,-14.5 -8.01,0 -14.51,6.5 -14.51,14.5z"/>
  <path class="fil0" d="M3375.6 1087.39l0 52.88c0,8 6.5,14.5 14.5,14.5 8.01,0 14.51,-6.5 14.51,-14.5l0 -52.88c0,-8 -6.5,-14.5 -14.51,-14.5 -8,0 -14.5,6.5 -14.5,14.5z"/>
  <path class="fil0" d="M3685.46 2087.2l-78.61 0 -58.54 0 -58.54 0 -58.53 0 -65.77 0c-8.03,0 -14.51,6.48 -14.51,14.51 0,8 6.48,14.5 14.5,14.5l65.78 0 58.53 0 58.54 0 58.54 0 78.61 0c8.01,0 14.5,-6.5 14.5,-14.5 0,-8.03 -6.49,-14.51 -14.5,-14.51z"/>
  <path class="fil0" d="M3592.35 2007.02l0 198.28c0,8.01 6.47,14.51 14.5,14.51 8.01,0 14.5,-6.5 14.5,-14.51l0 -198.28c0,-8 -6.5,-14.5 -14.5,-14.5 -8.03,0 -14.51,6.5 -14.5,14.5z"/>
  <path class="fil0" d="M3533.81 2007.02l0 198.28c0,8.01 6.47,14.51 14.5,14.51 8.01,0 14.5,-6.5 14.5,-14.51l0.01 -198.28c0,-8 -6.5,-14.5 -14.51,-14.5 -8.02,0 -14.5,6.5 -14.5,14.5z"/>
  <path class="fil0" d="M3475.25 2007.02l0 198.28c0,8.01 6.5,14.51 14.5,14.51 8.03,0 14.51,-6.5 14.51,-14.51l0 -198.28c0,-8 -6.48,-14.5 -14.51,-14.5 -8,0 -14.5,6.5 -14.5,14.5z"/>
  <path class="fil0" d="M3416.71 2007.02l0 198.28c0,8.01 6.5,14.51 14.51,14.51 8.02,0 14.5,-6.5 14.5,-14.51l0 -198.28c0,-8 -6.48,-14.5 -14.5,-14.5 -8.01,0 -14.51,6.5 -14.51,14.5z"/>
  <path class="fil0" d="M3560.17 2328.95l0 58.89c0,8.01 6.49,14.5 14.5,14.5 8.01,0 14.5,-6.49 14.5,-14.5l0 -58.89c0,-8 -6.49,-14.5 -14.5,-14.5 -8.01,0 -14.5,6.5 -14.5,14.5z"/>
  <path class="fil0" d="M3511.07 2328.95l0 58.89c0,8.01 6.49,14.5 14.5,14.5 8.01,0 14.5,-6.49 14.5,-14.5l0 -58.89c0,-8 -6.5,-14.5 -14.5,-14.5 -8.01,0 -14.51,6.5 -14.5,14.5z"/>
  <path class="fil0" d="M3461.97 2328.95l0 58.89c0,8.01 6.49,14.5 14.5,14.5 8.02,0 14.5,-6.49 14.5,-14.5l0 -58.89c0,-8 -6.48,-14.5 -14.5,-14.5 -8.01,0 -14.51,6.5 -14.5,14.5z"/>
  <path class="fil0" d="M3412.88 2328.95l0 58.89c0,8.01 6.48,14.5 14.51,14.5 8,0 14.5,-6.49 14.5,-14.5l0 -58.89c0,-8 -6.5,-14.5 -14.5,-14.5 -8.03,0 -14.51,6.5 -14.51,14.5z"/>
  <path class="fil0" d="M3363.78 2328.95l0 58.89c0,8.01 6.48,14.5 14.51,14.5 8,0 14.5,-6.49 14.5,-14.5l0 -58.89c0,-8 -6.5,-14.5 -14.5,-14.5 -8.03,0 -14.51,6.5 -14.51,14.5z"/>
  <path class="fil0" d="M3314.68 2328.95l0 58.89c0,8.01 6.5,14.5 14.5,14.5 8.01,0 14.51,-6.49 14.51,-14.5l0 -58.89c0,-8 -6.5,-14.5 -14.51,-14.5 -8,0 -14.5,6.5 -14.5,14.5z"/>
  <path class="fil0" d="M3560.17 3028.9l0 58.88c0,8.03 6.49,14.5 14.5,14.5 8.01,0 14.5,-6.47 14.5,-14.5l0 -58.88c0,-8.01 -6.49,-14.51 -14.5,-14.51 -8.01,0 -14.5,6.5 -14.5,14.51z"/>
  <path class="fil0" d="M3511.07 3028.9l0 58.88c0,8.03 6.49,14.5 14.5,14.5 8.01,0 14.5,-6.47 14.5,-14.5l0 -58.88c0,-8.01 -6.5,-14.51 -14.5,-14.51 -8.01,0 -14.51,6.5 -14.5,14.51z"/>
  <path class="fil0" d="M3461.97 3028.9l0 58.88c0,8.03 6.49,14.5 14.5,14.5 8.02,0 14.5,-6.47 14.5,-14.5l0 -58.88c0,-8.01 -6.48,-14.51 -14.5,-14.51 -8.01,0 -14.51,6.5 -14.5,14.51z"/>
  <path class="fil0" d="M3412.88 3028.9l0 58.88c0,8.03 6.48,14.5 14.51,14.5 8,0 14.5,-6.47 14.5,-14.5l0 -58.88c0,-8.01 -6.5,-14.51 -14.5,-14.51 -8.03,0 -14.51,6.5 -14.51,14.51z"/>
  <path class="fil0" d="M3363.78 3028.9l0 58.88c0,8.03 6.48,14.5 14.51,14.5 8,0 14.5,-6.47 14.5,-14.5l0 -58.88c0,-8.01 -6.5,-14.51 -14.5,-14.51 -8.03,0 -14.51,6.5 -14.51,14.51z"/>
  <path class="fil0" d="M3314.68 3028.91l0 47.67c0,8.01 6.48,14.51 14.5,14.51 8.01,0 14.51,-6.5 14.51,-14.51l0 -47.67c0,-8.02 -6.5,-14.5 -14.51,-14.5 -8.02,0 -14.5,6.48 -14.5,14.5z"/>
  <path class="fil1" d="M2091.01 1666.06l0 104.41c0,8.01 6.5,14.51 14.51,14.51 8.02,0 14.5,-6.5 14.5,-14.51l0 -104.41c0,-8.02 -6.48,-14.5 -14.5,-14.5 -8.01,0 -14.51,6.48 -14.51,14.5z"/>
  <path class="fil1" d="M2157 1666.06l0 104.41c0,8.01 6.47,14.51 14.5,14.51 8.01,0 14.5,-6.5 14.5,-14.51l0.01 -104.41c0,-8.02 -6.5,-14.5 -14.51,-14.5 -8.03,0 -14.5,6.48 -14.5,14.5z"/>
  <path class="fil1" d="M2222.96 1666.06l0 104.41c0,8.01 6.5,14.51 14.5,14.51 8.01,0 14.51,-6.5 14.51,-14.51l0 -104.41c0,-8.02 -6.5,-14.5 -14.51,-14.5 -8,0 -14.5,6.48 -14.5,14.5z"/>
  <path class="fil1" d="M2288.92 1666.06l0 104.41c0,8.01 6.5,14.51 14.51,14.51 8,0 14.5,-6.5 14.5,-14.51l0 -104.41c0,-8.02 -6.5,-14.5 -14.5,-14.5 -8.01,0 -14.51,6.48 -14.51,14.5z"/>
  <path class="fil1" d="M2354.91 1666.06l0 104.41c0,8.01 6.48,14.51 14.5,14.51 8.01,0 14.5,-6.5 14.5,-14.51l0.01 -104.41c0,-8.02 -6.5,-14.5 -14.51,-14.5 -8.02,0 -14.5,6.48 -14.5,14.5z"/>
  <path class="fil1" d="M2420.87 1666.06l0 104.41c0,8.01 6.5,14.51 14.5,14.51 8.01,0 14.51,-6.5 14.51,-14.51l0 -104.41c0,-8.02 -6.5,-14.5 -14.51,-14.5 -8,0 -14.5,6.48 -14.5,14.5z"/>
  <path class="fil1" d="M2486.83 1666.06l0 104.41c0,8.01 6.5,14.51 14.51,14.51 8.01,0 14.5,-6.5 14.5,-14.51l0 -104.41c0,-8.02 -6.5,-14.5 -14.5,-14.5 -8.01,0 -14.51,6.48 -14.51,14.5z"/>
  <path class="fil1" d="M2552.8 1666.06l0 104.41c0,8.01 6.5,14.51 14.5,14.51 8.03,0 14.51,-6.5 14.51,-14.51l0 -104.41c0,-8.02 -6.48,-14.5 -14.51,-14.5 -8,0 -14.5,6.48 -14.5,14.5z"/>
  <path class="fil1" d="M2618.78 1666.06l0 104.41c0,8.01 6.5,14.51 14.51,14.51 8,0 14.5,-6.5 14.5,-14.51l0 -104.41c0,-8.02 -6.5,-14.5 -14.5,-14.5 -8.01,0 -14.51,6.48 -14.51,14.5z"/>
  <path class="fil1" d="M2684.75 1666.06l0 104.41c0,8.01 6.49,14.51 14.5,14.51 8.01,0 14.5,-6.5 14.5,-14.51l0 -104.41c0,-8.02 -6.49,-14.5 -14.5,-14.5 -8.01,0 -14.5,6.48 -14.5,14.5z"/>
  <path class="fil1" d="M2750.71 1666.06l0 104.41c0,8.01 6.5,14.51 14.5,14.51 8.03,0 14.51,-6.5 14.51,-14.51l0 -104.41c0,-8.02 -6.48,-14.5 -14.51,-14.5 -8,0 -14.5,6.48 -14.5,14.5z"/>
  <path class="fil1" d="M2816.69 1666.06l0 104.41c0,8.01 6.48,14.51 14.51,14.51 8,0 14.5,-6.5 14.5,-14.51l0 -104.41c0,-8.02 -6.5,-14.5 -14.5,-14.5 -8.03,0 -14.51,6.48 -14.51,14.5z"/>
  <path class="fil1" d="M2882.66 1666.06l0 104.41c0,8.01 6.49,14.51 14.5,14.51 8.01,0 14.5,-6.5 14.5,-14.51l0 -104.41c0,-8.02 -6.49,-14.5 -14.5,-14.5 -8,0 -14.5,6.48 -14.5,14.5z"/>
  <path class="fil0" d="M2099.42 1830.67l0 0c0.16,0.1 5.38,2.87 13.08,7.45 5.74,3.42 12.9,7.85 20.3,12.88 5.55,3.77 11.26,7.89 16.61,12.15 8.03,6.36 15.3,13.13 20.04,19.08 2.38,2.96 4.12,5.71 5.1,7.85 0.51,1.09 0.82,2.01 1.01,2.73 0.18,0.73 0.23,1.24 0.23,1.61 0,32.06 0,169.87 0,169.87 0,8 6.48,14.5 14.51,14.5 8,0 14.5,-6.5 14.5,-14.5 0,0 0,-137.81 0,-169.87 0,-3.6 -0.6,-7.04 -1.55,-10.25 -1.79,-6.06 -4.77,-11.36 -8.33,-16.35 -6.25,-8.7 -14.37,-16.53 -23.11,-23.84 -13.11,-10.91 -27.66,-20.52 -39.05,-27.5 -11.39,-7 -19.59,-11.33 -19.78,-11.43 -7.08,-3.75 -15.86,-1.04 -19.59,6.04 -3.75,7.07 -1.04,15.85 6.03,19.58z"/>
  <path class="fil0" d="M2296.06 1844.37c-0.23,0.13 -3.75,2.2 -8.95,5.8 -7.84,5.41 -19.5,14.13 -29.81,25.25 -5.14,5.59 -9.97,11.8 -13.75,18.82 -1.87,3.52 -3.48,7.25 -4.64,11.24 -1.16,3.98 -1.85,8.22 -1.85,12.64 0,30.64 0,146.17 0,146.17 0,8 6.48,14.5 14.5,14.5 8.01,0 14.51,-6.5 14.51,-14.5 0,0 0,-115.53 0,-146.17 0,-1.78 0.36,-3.86 1.29,-6.32 1.59,-4.29 4.93,-9.49 9.32,-14.52 6.58,-7.62 15.28,-14.84 22.24,-19.92 3.48,-2.57 6.54,-4.62 8.66,-6 1.09,-0.69 1.92,-1.21 2.48,-1.56 0.27,-0.18 0.48,-0.29 0.6,-0.37l0.14 -0.08 0.02 -0.02 -3.23 -5.45 3.23 5.45 -3.23 -5.45 3.23 5.45c6.88,-4.06 9.18,-12.95 5.1,-19.86 -4.06,-6.88 -12.96,-9.18 -19.86,-5.1z"/>
  <path class="fil0" d="M2296.06 1869.33l3.69 -6.24 -3.71 6.24 0.02 0 3.69 -6.24 -3.71 6.24c0,0 0.19,0.1 0.54,0.33 1.34,0.81 5.03,3.13 9.75,6.52 7.08,5.06 16.49,12.67 23.53,20.73 3.54,4.02 6.46,8.14 8.3,11.85 0.95,1.86 1.6,3.6 2.03,5.17 0.43,1.56 0.62,2.94 0.62,4.19 0,30.64 0,146.17 0,146.17 0,8 6.5,14.5 14.5,14.5 8.01,0 14.51,-6.5 14.51,-14.5 0,0 0,-115.53 0,-146.17 0,-5.89 -1.24,-11.46 -3.16,-16.55 -3.38,-8.9 -8.72,-16.51 -14.56,-23.3 -8.8,-10.12 -18.95,-18.37 -26.99,-24.29 -8.05,-5.92 -14.01,-9.44 -14.3,-9.61 -6.9,-4.08 -15.8,-1.78 -19.88,5.1 -4.06,6.91 -1.77,15.8 5.13,19.86z"/>
  <path class="fil0" d="M2454.69 1844.37c-0.23,0.13 -3.75,2.2 -8.97,5.8 -7.83,5.41 -19.47,14.13 -29.78,25.25 -5.14,5.59 -10,11.8 -13.77,18.82 -1.88,3.52 -3.48,7.25 -4.64,11.24 -1.14,3.98 -1.86,8.22 -1.86,12.64 0,30.64 0,146.17 0,146.17 0,8 6.5,14.5 14.51,14.5 8,0 14.5,-6.5 14.5,-14.5 0,0 0,-115.53 0,-146.17 0,-1.78 0.39,-3.86 1.3,-6.32 1.58,-4.29 4.95,-9.49 9.34,-14.52 6.57,-7.62 15.27,-14.84 22.24,-19.92 3.48,-2.57 6.51,-4.62 8.66,-6 1.06,-0.69 1.91,-1.21 2.46,-1.56 0.29,-0.18 0.48,-0.29 0.61,-0.37l0.14 -0.08 0.02 -0.02 -3.25 -5.45 3.23 5.45 0.02 0 -3.25 -5.45 3.23 5.45c6.91,-4.06 9.19,-12.95 5.12,-19.86 -4.08,-6.88 -12.97,-9.18 -19.86,-5.1z"/>
  <path class="fil0" d="M2454.69 1869.33l3.97 -6.71 -3.99 6.71 0.02 0 3.97 -6.71 -3.99 6.71c0,0 0.18,0.1 0.55,0.33 1.31,0.81 5,3.13 9.74,6.52 7.08,5.06 16.48,12.67 23.54,20.73 3.52,4.02 6.44,8.14 8.29,11.85 0.93,1.86 1.61,3.6 2.03,5.17 0.43,1.56 0.6,2.94 0.62,4.19 -0.01,30.64 -0.02,146.17 0,146.17 0,8 6.48,14.5 14.51,14.5 8.01,0 14.5,-6.5 14.5,-14.5 -0.02,0 -0.02,-115.53 -0.02,-146.17 0,-5.89 -1.24,-11.46 -3.15,-16.55 -3.38,-8.9 -8.72,-16.51 -14.56,-23.3 -8.78,-10.12 -18.93,-18.37 -26.98,-24.29 -8.04,-5.92 -14,-9.44 -14.31,-9.61 -6.9,-4.08 -15.78,-1.78 -19.86,5.1 -4.08,6.91 -1.78,15.8 5.12,19.86z"/>
  <path class="fil0" d="M2613.31 1844.37c-0.23,0.13 -3.73,2.2 -8.95,5.8 -7.84,5.41 -19.48,14.13 -29.79,25.25 -5.14,5.59 -9.99,11.8 -13.77,18.82 -1.87,3.52 -3.48,7.25 -4.64,11.24 -1.16,3.98 -1.85,8.22 -1.85,12.64 0,30.64 0,146.17 0,146.17 0,8 6.49,14.5 14.5,14.5 8.01,0 14.5,-6.5 14.5,-14.5 0.01,0 0,-115.53 0,-146.17 0.01,-1.78 0.37,-3.86 1.3,-6.32 1.59,-4.29 4.93,-9.49 9.34,-14.52 6.56,-7.62 15.28,-14.84 22.24,-19.92 3.48,-2.57 6.52,-4.62 8.66,-6 1.07,-0.69 1.9,-1.21 2.46,-1.56 0.27,-0.18 0.48,-0.29 0.62,-0.37l0.12 -0.08 0.02 -0.02 -3.04 -5.14 3.04 5.14 -3.04 -5.14 3.04 5.14c6.88,-4.06 9.18,-12.95 5.1,-19.86 -4.06,-6.88 -12.96,-9.18 -19.86,-5.1z"/>
  <path class="fil0" d="M2613.31 1869.33l3.4 -5.76 -3.4 5.76 3.4 -5.76 -3.4 5.76c0,0 0.17,0.1 0.52,0.33 1.34,0.81 5.03,3.13 9.75,6.52 7.1,5.06 16.49,12.67 23.53,20.73 3.54,4.02 6.46,8.14 8.32,11.85 0.93,1.86 1.6,3.6 2.03,5.17 0.42,1.56 0.6,2.94 0.6,4.19 0,30.64 0,146.17 0,146.17 0,8 6.5,14.5 14.5,14.5 8.01,0 14.51,-6.5 14.51,-14.5 0,0 0,-115.53 0,-146.17 0,-5.89 -1.24,-11.46 -3.16,-16.55 -3.38,-8.9 -8.72,-16.51 -14.56,-23.3 -8.8,-10.12 -18.93,-18.37 -26.99,-24.29 -8.05,-5.92 -14.01,-9.44 -14.3,-9.61 -6.9,-4.08 -15.8,-1.78 -19.86,5.1 -4.08,6.91 -1.78,15.8 5.11,19.86z"/>
  <path class="fil0" d="M2771.94 1844.37c-0.23,0.13 -3.75,2.2 -8.95,5.8 -7.83,5.41 -19.49,14.13 -29.8,25.25 -5.14,5.59 -9.98,11.8 -13.75,18.82 -1.88,3.52 -3.48,7.25 -4.64,11.24 -1.16,3.98 -1.86,8.22 -1.86,12.64 0,30.64 0,146.17 0,146.17 0,8 6.48,14.5 14.51,14.5 8,0 14.5,-6.5 14.5,-14.5 0,0 0,-115.53 0,-146.17 0,-1.78 0.37,-3.86 1.29,-6.32 1.59,-4.29 4.94,-9.49 9.33,-14.54 6.57,-7.6 15.27,-14.82 22.24,-19.9 3.48,-2.57 6.53,-4.62 8.66,-6 1.06,-0.69 1.91,-1.21 2.47,-1.56 0.28,-0.18 0.49,-0.29 0.6,-0.37l0.14 -0.08 0.02 -0.02 -3.23 -5.45 3.21 5.45 0.02 0 -3.23 -5.45 3.21 5.45c6.9,-4.06 9.2,-12.95 5.12,-19.86 -4.08,-6.88 -12.95,-9.18 -19.86,-5.1z"/>
  <path class="fil0" d="M2771.94 1869.33l3.97 -6.71 -3.99 6.71 0.02 0 3.97 -6.71 -3.99 6.71c0,0 0.18,0.1 0.55,0.33 1.31,0.81 5.02,3.13 9.74,6.52 7.08,5.06 16.5,12.67 23.54,20.73 3.54,4.02 6.44,8.14 8.29,11.85 0.95,1.86 1.61,3.6 2.03,5.17 0.43,1.56 0.62,2.94 0.62,4.19 0,30.64 0,146.17 0,146.17 0,8 6.5,14.5 14.51,14.5 8,0 14.5,-6.5 14.5,-14.5 0,0 0,-115.53 0,-146.17 0,-5.89 -1.26,-11.46 -3.17,-16.55 -3.36,-8.9 -8.7,-16.51 -14.56,-23.3 -8.78,-10.12 -18.94,-18.37 -26.98,-24.29 -8.04,-5.92 -14,-9.44 -14.31,-9.61 -6.88,-4.08 -15.78,-1.78 -19.86,5.1 -4.06,6.91 -1.78,15.8 5.12,19.86z"/>
  <path class="fil1" d="M2101.86 1895.05l2.01 -6.38 -2.1 6.34 0.09 0.04 2.01 -6.38 -2.1 6.34c0.02,0.02 2.24,0.76 5.43,2.44 2.4,1.24 5.32,3.02 8.29,5.32 4.49,3.48 9.04,8.16 12.42,14.25 3.38,6.13 5.8,13.71 5.84,24.06 0,4.74 -0.54,8.68 -1.37,11.97 -1.47,5.78 -3.79,9.67 -6.5,12.76 -2.03,2.3 -4.33,4.12 -6.73,5.59 -3.56,2.21 -7.37,3.54 -10.15,4.24 -1.39,0.36 -2.54,0.56 -3.23,0.67 -0.35,0.06 -0.58,0.08 -0.7,0.1l-0.08 0 0.72 7.85 -0.58 -7.85 -0.14 0 0.72 7.85 -0.58 -7.85c-7.99,0.58 -13.98,7.54 -13.38,15.53 0.58,7.99 7.54,13.98 15.53,13.38 0.67,-0.04 4.11,-0.33 9.14,-1.64 3.76,-0.97 8.42,-2.52 13.44,-5.05 3.76,-1.91 7.7,-4.37 11.55,-7.58 5.76,-4.8 11.27,-11.35 15.16,-19.76 3.93,-8.42 6.19,-18.55 6.19,-30.21 0.02,-13.85 -3.19,-25.86 -8.14,-35.58 -3.7,-7.33 -8.32,-13.37 -13.08,-18.28 -7.17,-7.35 -14.66,-12.16 -20.44,-15.24 -5.78,-3.05 -9.9,-4.39 -10.56,-4.6 -7.63,-2.4 -15.78,1.86 -18.17,9.5 -2.4,7.63 1.85,15.78 9.49,18.17z"/>
  <path class="fil0" d="M2892.06 2119.44l-786.54 0c-8.01,0 -14.51,6.48 -14.51,14.5 0,8.01 6.5,14.51 14.51,14.51l786.54 0c8,0 14.5,-6.5 14.5,-14.51 0,-8.02 -6.5,-14.5 -14.5,-14.5z"/>
  <path class="fil0" d="M2727.45 3193.54l0 14.51 164.61 0c3.81,0 7.54,-1.57 10.25,-4.26 2.7,-2.7 4.25,-6.44 4.25,-10.25l0 -989.67c0,-3.83 -1.55,-7.56 -4.25,-10.27 -2.71,-2.69 -6.44,-4.23 -10.25,-4.23l-164.61 0c-3.83,0 -7.57,1.54 -10.27,4.23 -2.69,2.71 -4.24,6.44 -4.24,10.27l0 989.67c0,3.81 1.55,7.55 4.24,10.25 2.7,2.71 6.44,4.26 10.27,4.26l0 -14.51 14.5 0 0 -975.17 135.6 0 0 960.67 -150.1 0 0 14.5 14.5 0 -14.5 0z"/>
  <path class="fil0" d="M2892.06 2441.08l-164.61 0c-8.03,0 -14.51,6.48 -14.51,14.5 0,8.01 6.48,14.51 14.51,14.51l164.61 0c8,0 14.5,-6.5 14.5,-14.51 0,-8.02 -6.5,-14.5 -14.5,-14.5z"/>
  <path class="fil0" d="M2892.06 2744.62l-164.61 0c-8.03,0 -14.51,6.48 -14.51,14.5 0,8.01 6.48,14.51 14.51,14.51l164.61 -0.01c8,0 14.5,-6.49 14.5,-14.5 0,-8.02 -6.5,-14.5 -14.5,-14.5z"/>
  <path class="fil0" d="M2653.4 2205.3l0 988.24c0,8.01 6.5,14.51 14.5,14.51 8.01,0 14.51,-6.5 14.51,-14.51l0 -988.24c0,-8.02 -6.5,-14.5 -14.51,-14.5 -8,0 -14.5,6.48 -14.5,14.5z"/>
  <path class="fil0" d="M2087.72 2215.13l5.94 -5.46 -5.94 5.46 5.94 -5.46 -5.94 5.46 0.08 0.07c0.76,0.82 7.58,8.44 13.87,17.74 3.15,4.62 6.15,9.69 8.18,14.23 1.02,2.26 1.8,4.39 2.28,6.21 0.48,1.8 0.66,3.25 0.66,4.16 0,0.17 0,0.38 -0.04,0.69l0.02 -0.15c-0.14,1.7 -0.52,4.23 -1.14,7.15 -1.09,5.13 -2.87,11.49 -4.92,17.99 -3.07,9.76 -6.74,19.9 -9.65,27.54 -1.44,3.81 -2.68,7 -3.57,9.24 -0.45,1.1 -0.8,1.99 -1.03,2.57 -0.11,0.29 -0.21,0.52 -0.27,0.66l-0.08 0.17 -0.01 0.04c-2.79,6.81 -0.02,14.66 6.42,18.22 0.13,0.06 44.46,24.5 102.01,52.66 28.77,14.09 60.85,29.1 92.45,42.49 31.6,13.38 62.64,25.14 89.72,32.74 24.61,6.88 49.15,18.04 72.09,32.45 34.42,21.58 65.23,50.47 87.59,82.57 11.17,16.05 20.26,32.88 26.72,49.95 6.48,17.1 10.33,34.41 11.16,51.5 0.79,16.34 1.35,41.52 1.68,71.92 0.35,30.4 0.48,66.08 0.48,103.7 0.01,75.22 -0.54,158.17 -1.1,222.29 -0.27,32.07 -0.54,59.43 -0.73,78.77 -0.1,9.67 -0.2,17.34 -0.25,22.59 -0.06,5.24 -0.1,8.06 -0.1,8.08 -0.1,8.01 6.32,14.58 14.33,14.68 8.01,0.07 14.58,-6.33 14.68,-14.33 0,-0.04 2.18,-181.38 2.18,-332.08 0,-37.7 -0.13,-73.45 -0.48,-104.03 -0.35,-30.59 -0.89,-55.92 -1.72,-73 -1.33,-27.33 -9.03,-54.26 -21.33,-79.69 -18.47,-38.14 -47.25,-73.03 -81.59,-101.42 -34.38,-28.37 -74.38,-50.28 -115.78,-61.9 -25.14,-7.02 -55.35,-18.41 -86.23,-31.5 -46.38,-19.65 -94.41,-43.15 -130.79,-61.71 -18.18,-9.28 -33.46,-17.33 -44.17,-23.05 -5.35,-2.87 -9.57,-5.15 -12.43,-6.71 -1.45,-0.78 -2.54,-1.38 -3.29,-1.78 -0.37,-0.2 -0.64,-0.35 -0.83,-0.45 -0.18,-0.11 -0.27,-0.15 -0.27,-0.15l-7 12.7 13.42 5.49c0.06,-0.13 5.14,-12.51 10.48,-27.69 2.69,-7.62 5.43,-15.91 7.68,-23.88 1.1,-3.98 2.1,-7.87 2.9,-11.62 0.79,-3.75 1.39,-7.31 1.68,-10.83l0.02 -0.16c0.06,-0.81 0.1,-1.74 0.1,-2.72 0,-4.28 -0.72,-8.3 -1.76,-12.11 -1.86,-6.67 -4.78,-12.82 -8.01,-18.58 -4.85,-8.59 -10.5,-16.27 -14.99,-21.93 -4.48,-5.65 -7.81,-9.27 -7.99,-9.46 -5.43,-5.88 -14.62,-6.25 -20.49,-0.81 -5.88,5.41 -6.27,14.6 -0.84,20.48z"/>
  <path class="fil1" d="M2424.64 2302.42l-14.5 0c0,10.7 2.18,20.98 6.13,30.3 5.92,13.99 15.78,25.86 28.19,34.23 12.4,8.4 27.46,13.33 43.53,13.33 10.72,0 20.99,-2.19 30.31,-6.13 14,-5.92 25.85,-15.78 34.25,-28.2 8.39,-12.41 13.3,-27.46 13.3,-43.53 0,-10.71 -2.18,-21 -6.13,-30.32 -5.92,-13.98 -15.76,-25.84 -28.17,-34.23 -12.42,-8.39 -27.49,-13.33 -43.56,-13.31 -10.71,-0.02 -20.98,2.17 -30.3,6.11 -14,5.92 -25.85,15.78 -34.25,28.2 -8.39,12.42 -13.3,27.46 -13.3,43.55l14.5 0 14.51 0c0,-6.79 1.37,-13.19 3.82,-19.01 3.7,-8.76 9.93,-16.24 17.72,-21.52 7.81,-5.26 17.13,-8.32 27.3,-8.32 6.79,0 13.17,1.36 19.01,3.83 8.75,3.69 16.25,9.9 21.51,17.71 5.28,7.82 8.33,17.14 8.33,27.31 0.01,6.77 -1.37,13.17 -3.83,19.01 -3.69,8.74 -9.92,16.23 -17.71,21.51 -7.81,5.25 -17.13,8.31 -27.31,8.33 -6.78,-0.02 -13.16,-1.37 -19.01,-3.85 -8.74,-3.69 -16.22,-9.9 -21.5,-17.71 -5.26,-7.82 -8.32,-17.14 -8.33,-27.29l-14.51 0z"/>
  <path class="fil1" d="M2473.49 2365.77l0 41.77c0,8.01 6.5,14.51 14.5,14.51 8.01,0 14.51,-6.5 14.51,-14.5l0 -41.78c0,-8.02 -6.5,-14.5 -14.51,-14.5 -8,0 -14.5,6.48 -14.5,14.5z"/>
  <path class="fil0" d="M2099.64 2401.09c0,0 0.89,0.4 2.57,1.14 12.63,5.62 70.14,31.27 133.42,60.35 31.64,14.57 64.7,29.98 94.31,44.17 29.59,14.2 55.77,27.19 73.29,36.75 19.01,10.34 36.3,20.28 51.37,31 11.29,8.04 21.35,16.49 30.07,25.91 13.09,14.12 23.36,30.32 30.61,51.25 7.23,20.94 11.39,46.74 11.39,79.61 0,121.14 0,462.27 0,462.27 0,8.01 6.48,14.51 14.51,14.51 8,0 14.5,-6.5 14.5,-14.51 0,0 0,-341.13 0,-462.27 0,-31.36 -3.52,-57.84 -10.29,-80.7 -5.06,-17.11 -12.01,-32.16 -20.52,-45.48 -12.74,-20 -28.99,-35.95 -47.28,-49.7 -18.31,-13.79 -38.72,-25.51 -60.47,-37.36 -19.63,-10.7 -48.37,-24.89 -80.64,-40.3 -96.75,-46.22 -225.01,-103.12 -225.09,-103.16 -7.31,-3.25 -15.87,0.06 -19.12,7.39 -3.25,7.31 0.06,15.88 7.37,19.13z"/>
  <path class="fil0" d="M2092.29 2560.63c0,0 0.25,0.12 0.75,0.35 7.84,3.65 75.6,35.33 149.32,74.08 36.86,19.38 75.22,40.52 108.21,60.69 16.5,10.09 31.64,19.94 44.54,29.14 12.88,9.19 23.52,17.79 30.81,25.03 17.07,16.92 32.06,30.76 44.67,43.74 9.46,9.73 17.58,18.93 24.44,28.62 5.15,7.27 9.62,14.81 13.48,23.15 5.8,12.51 10.31,26.9 13.42,44.96 3.1,18.02 4.74,39.72 4.74,66.45 0,8.01 6.48,14.5 14.51,14.5 8,0 14.5,-6.49 14.5,-14.5 -0.02,-33.07 -2.4,-59.66 -7.27,-82.25 -3.64,-16.9 -8.72,-31.56 -15.16,-44.69 -4.82,-9.84 -10.41,-18.8 -16.6,-27.21 -9.3,-12.65 -19.93,-24.04 -31.67,-35.74 -11.74,-11.7 -24.6,-23.71 -38.66,-37.63 -9.34,-9.24 -21.45,-18.85 -35.68,-28.97 -24.91,-17.67 -56.33,-36.72 -89.63,-55.54 -49.92,-28.21 -103.97,-55.79 -145.6,-76.37 -41.64,-20.55 -70.84,-34.09 -70.92,-34.13 -7.27,-3.37 -15.9,-0.21 -19.26,7.06 -3.36,7.27 -0.21,15.9 7.06,19.26z"/>
  <path class="fil1" d="M2098.4 1574.75l7.81 0c8.01,0 14.51,-6.5 14.51,-14.51 0,-8.02 -6.5,-14.5 -14.51,-14.5l-7.81 0c-8.03,0 -14.5,6.48 -14.5,14.5 0,8.01 6.47,14.51 14.5,14.51z"/>
  <path class="fil1" d="M2167.59 1574.75l7.82 0c8,0 14.5,-6.5 14.5,-14.51 0,-8.02 -6.5,-14.5 -14.5,-14.5l-7.82 0c-8.02,0 -14.5,6.48 -14.5,14.5 0,8.01 6.48,14.51 14.5,14.51z"/>
  <path class="fil1" d="M2236.79 1574.75l7.81 0c8.01,0 14.5,-6.5 14.5,-14.51 0,-8.02 -6.49,-14.5 -14.5,-14.5l-7.81 0c-8.03,0 -14.51,6.48 -14.51,14.5 0,8.01 6.48,14.51 14.51,14.51z"/>
  <path class="fil1" d="M2305.98 1574.75l7.81 0c8.01,0 14.51,-6.5 14.51,-14.51 0,-8.02 -6.5,-14.5 -14.51,-14.5l-7.81 0c-8.03,0 -14.5,6.48 -14.5,14.5 0,8.01 6.47,14.51 14.5,14.51z"/>
  <path class="fil1" d="M2375.17 1574.75l7.82 0c8,0 14.5,-6.5 14.5,-14.51 0,-8.02 -6.5,-14.5 -14.5,-14.5l-7.82 0c-8.02,0 -14.5,6.48 -14.5,14.5 0,8.01 6.48,14.51 14.5,14.51z"/>
  <path class="fil1" d="M2444.37 1574.75l7.81 0c8.01,0 14.5,-6.5 14.5,-14.51 0,-8.02 -6.49,-14.5 -14.5,-14.5l-7.81 0c-8.03,0 -14.51,6.48 -14.51,14.5 0,8.01 6.48,14.51 14.51,14.51z"/>
  <path class="fil1" d="M2513.56 1574.75l7.81 0c8.01,0 14.51,-6.5 14.51,-14.51 0,-8.02 -6.5,-14.5 -14.51,-14.5l-7.81 0c-8.02,0 -14.5,6.48 -14.5,14.5 0,8.01 6.47,14.51 14.5,14.51z"/>
  <path class="fil1" d="M2582.75 1574.75l7.82 0c8,0 14.5,-6.5 14.5,-14.51 0,-8.02 -6.5,-14.5 -14.5,-14.5l-7.82 0c-8.02,0 -14.5,6.48 -14.5,14.5 0,8.01 6.48,14.51 14.5,14.51z"/>
  <path class="fil1" d="M2651.95 1574.75l7.81 0c8.01,0 14.5,-6.5 14.5,-14.51 0,-8.02 -6.49,-14.5 -14.5,-14.5l-7.81 0c-8.03,0 -14.51,6.48 -14.51,14.5 0,8.01 6.48,14.51 14.51,14.51z"/>
  <path class="fil1" d="M2721.14 1574.75l7.81 0c8.01,0 14.51,-6.5 14.51,-14.51 0,-8.02 -6.5,-14.5 -14.51,-14.5l-7.81 0c-8.02,0 -14.5,6.48 -14.5,14.5 0,8.01 6.48,14.51 14.5,14.51z"/>
  <path class="fil1" d="M2790.33 1574.75l7.82 0c8.01,0 14.5,-6.5 14.5,-14.51 0,-8.02 -6.5,-14.5 -14.5,-14.5l-7.82 0c-8.02,0 -14.5,6.48 -14.5,14.5 0,8.01 6.48,14.51 14.5,14.51z"/>
  <path class="fil1" d="M2859.53 1574.75l7.81 0c8.01,0 14.5,-6.5 14.5,-14.51 0.01,-8.02 -6.49,-14.5 -14.5,-14.5l-7.81 0c-8.03,0 -14.51,6.48 -14.51,14.5 0,8.01 6.48,14.51 14.51,14.51z"/>
  <path class="fil1" d="M2928.72 1574.75l7.82 0c8,0 14.5,-6.5 14.5,-14.51 0,-8.02 -6.5,-14.5 -14.51,-14.5l-7.81 0c-8.02,0 -14.5,6.48 -14.5,14.5 0,8.01 6.48,14.51 14.5,14.51z"/>
  <path class="fil0" d="M2912.59 845.43l0 -31.47c0,-0.08 0,-0.15 0,-0.23 5.98,-7.05 15.2,-13.38 29.32,-14.28l14.41 0c9.69,0.45 16.78,1.78 21.87,3.23l0 4.85c-16.82,0.53 -48.35,4.52 -62.41,25.98l23.79 5.18 -26.98 6.74z"/>
  <path class="fil0" d="M2989.23 807.65c0,0 -2.51,-0.2 -6.65,-0.2 -1.32,0 -2.79,0.02 -4.39,0.08l0 -4.85c8.1,2.31 11.04,4.97 11.04,4.97z"/>
  <path class="fil0" d="M2967.77 599.26l1.02 -14.49c0,0 -1.1,-0.63 -3.17,-1.44 0.77,-3.93 1.82,-7.75 3.11,-11.45 16.23,4.69 15.59,9.79 15.59,9.79 0,0 5.49,-30.2 35.41,-34.66 -5.78,5.61 -11.02,11.63 -15.24,17.92 -3.36,5.01 -6.07,10.18 -8.01,15.45 -1.48,4.08 -2.51,8.21 -3.01,12.45l-25.7 6.43z"/>
  <path class="fil0" d="M3363.96 988.15c0,0 7.23,-9.63 17.73,-16.53 -0.43,1.87 -0.72,3.81 -0.81,5.8 -5.22,2.4 -10.89,5.86 -16.92,10.73zm52.23 -3.31l0.66 -9.26c0,0 -1.2,-0.7 -3.46,-1.43 0.42,-0.31 0.88,-0.64 1.39,-0.93 2.4,-1.49 5.47,-2.74 8.08,-3.58 4.14,2.15 3.91,3.95 3.91,3.95 0,0 0.31,-1.7 1.25,-4.18 1.59,0.47 3.41,1.1 5.17,1.88 0.85,0.38 1.68,0.79 2.47,1.22 -0.09,0.13 -0.19,0.29 -0.29,0.42l1.67 0.37c0.11,0.08 0.21,0.13 0.33,0.21 1.87,1.2 3.15,2.44 3.73,3.31 0.29,0.42 0.44,0.77 0.56,1.08 0.04,0.18 0.1,0.35 0.11,0.54l-25.58 6.4zm46.68 -27.25c-2.18,-2.59 -4.56,-4.71 -6.98,-6.53 0.25,0 0.5,0 0.76,0 19.74,0 25.66,5.34 25.66,5.34 0,0 -1.61,-0.12 -4.26,-0.12 -3.59,0 -9.14,0.23 -15.18,1.31z"/>
  <path class="fil0" d="M3441.78 978.44c-0.02,-0.19 -0.08,-0.36 -0.12,-0.54 -0.12,-0.31 -0.27,-0.66 -0.56,-1.08 -0.58,-0.87 -1.86,-2.11 -3.73,-3.31 -0.12,-0.08 -0.22,-0.13 -0.33,-0.21l13.53 2.94 -8.79 2.2zm-6.11 -5.93c-0.8,-0.43 -1.63,-0.84 -2.48,-1.22 -1.76,-0.78 -3.58,-1.41 -5.17,-1.88 0.16,-0.39 0.31,-0.79 0.49,-1.2 6.77,-1.27 11.58,-7.08 11.81,-13.73 3.43,-1.91 7.66,-3.21 12.9,-3.36 0.91,-0.02 1.8,-0.04 2.67,-0.06 2.42,1.82 4.8,3.94 6.98,6.54 -9.84,1.77 -21,5.84 -27.2,14.91z"/>
  <path class="fil0" d="M3380.88 977.42c0.09,-1.99 0.38,-3.93 0.81,-5.8 5.9,-3.89 12.82,-6.91 20.09,-6.91 1.28,0 2.55,0.1 3.83,0.29 9.11,1.38 14.29,3.1 17.25,4.64 -2.61,0.83 -5.68,2.09 -8.08,3.58 -0.5,0.29 -0.97,0.62 -1.39,0.93 -2.54,-0.83 -6.41,-1.7 -11.34,-1.7 -5.7,0 -12.9,1.18 -21.17,4.97zm47.63 -9.21c1.82,-4.27 5.34,-10.09 11.81,-13.73 -0.23,6.65 -5.04,12.46 -11.81,13.73z"/>
  <path class="fil0" d="M3492.23 1017.14c0,0 10.94,-14.6 25.53,-20.75l0 6.84c-7.41,2.07 -16.04,6.23 -25.53,13.91z"/>
  <path class="fil0" d="M693.73 965.33c0,0 8.94,-11.91 21.43,-18.76l0 6.19c-6.43,2.36 -13.64,6.29 -21.43,12.57z"/>
  <path class="fil0" d="M745.96 962.02l0.66 -9.24c0,0 -0.15,-0.1 -0.46,-0.25 1.82,-1.49 3.67,-2.79 5.5,-3.93 0.67,-0.4 1.34,-0.81 2,-1.18 3.07,1.9 2.88,3.37 2.88,3.37 0,0 0.45,-2.48 1.91,-5.78 0.53,-0.24 1.06,-0.47 1.59,-0.68 3.55,-1.51 6.8,-2.53 9.42,-3.27 2.73,-0.75 4.77,-1.16 5.72,-1.33 -5.72,1.18 -10.41,5.74 -11.41,11.85 -0.34,2.05 -0.23,4.06 0.25,5.94l-18.06 4.5z"/>
  <path class="fil0" d="M764.02 957.52c-0.48,-1.88 -0.59,-3.89 -0.25,-5.94 1.01,-6.11 5.69,-10.67 11.41,-11.85 0.86,-0.18 1.73,-0.27 2.62,-0.29 -5,2.45 -9.52,5.89 -12.66,10.69l15.2 3.31 -16.32 4.08z"/>
  <path class="fil0" d="M822.01 794.51c-3.91,-3.25 -7.97,-6.28 -11.99,-9.07 2.2,-6.05 8.35,-17.44 23.7,-18.65 2.89,2.18 5.78,4.5 8.64,6.93 -9.29,2.04 -19.23,6.25 -24.83,14.8l15.21 3.31 -10.73 2.68z"/>
  <path class="fil0" d="M2877.55 1253.34l0 -3.56c0,-1.18 0.14,-2.34 0.43,-3.46l14.77 3.21 -15.2 3.81zm0.78 -8.22c0.71,-2.11 1.89,-4.02 3.46,-5.61 2.38,-2.36 5.53,-3.84 8.85,-4.17 -4.77,2.28 -9.12,5.43 -12.31,9.78z"/>
 </g>
</svg>
