<?xml version="1.0" encoding="UTF-8"?>
<!DOCTYPE svg PUBLIC "-//W3C//DTD SVG 1.1//EN" "http://www.w3.org/Graphics/SVG/1.1/DTD/svg11.dtd">
<!-- Creator: CorelDRAW -->
<svg xmlns="http://www.w3.org/2000/svg" xml:space="preserve" width="42.3332mm" height="33.8666mm" version="1.1" style="shape-rendering:geometricPrecision; text-rendering:geometricPrecision; image-rendering:optimizeQuality; fill-rule:evenodd; clip-rule:evenodd"
viewBox="0 0 4233.32 3386.66"
 xmlns:xlink="http://www.w3.org/1999/xlink"
 xmlns:xodm="http://www.corel.com/coreldraw/odm/2003">
 <defs>
  <style type="text/css">
   <![CDATA[
    .str0 {stroke:black;stroke-width:10;stroke-miterlimit:22.9256}
    .str1 {stroke:#FD5631;stroke-width:10;stroke-miterlimit:22.9256}
    .fil0 {fill:#2B2B2A}
    .fil1 {fill:#FD5631}
   ]]>
  </style>
 </defs>
 <g id="Layer_x0020_1">
  <metadata id="CorelCorpID_0Corel-Layer"/>
  <path class="fil0 str0" d="M3025.11 3112.11c0,-24.21 12.24,-45.48 24.66,-57.78 3.99,-3.95 5.8,-6.27 10.54,-9.46 36.33,-24.49 81.52,-22.79 113.15,8.84 13.59,13.59 25.3,33.54 25.3,54.66l0 124.92 -173.65 0 0 -121.18zm-266.1 -44.97c0,-30.29 11.94,-54.33 29.6,-75.34 17.28,-20.58 39.83,-32.53 66.67,-38.27 24.25,-5.19 53.19,-0.37 74.47,10.33 44.34,22.32 66.62,62.35 66.62,113.27l0 156.16 -237.36 0 0 -166.15zm-387.27 3.75c0,-17.83 4.56,-37.12 10.39,-49.57 3.11,-6.64 7.02,-13.73 10.83,-19.15 16.27,-23.14 43.03,-41.75 71.96,-47.97 5.1,-1.1 21.83,-3.34 26.56,-3.07 26.73,1.55 47.44,8.02 67.64,22.32 6.71,4.74 10.07,8.2 15.94,14.05 19.46,19.4 34.04,47.38 34.04,85.89l0 159.9 -237.36 0 0 -162.4zm-387.28 3.74c0,-53.49 25.91,-90.23 67.46,-111.19 6.77,-3.41 13.04,-6.09 21.72,-8.26 24.44,-6.1 52.33,-4.59 75.76,5.73 13.6,5.99 21.58,10.94 32.16,20.32l11.22 11.27c17.37,18.23 29.04,49.38 29.04,75.89l0 164.9 -237.36 0 0 -158.66zm-387.27 6.25c0,-29.56 4.28,-49.52 17.53,-72.42 13.64,-23.58 42.07,-45.27 67.65,-52.27 24.91,-6.83 53.68,-5.87 77.24,3.5 43.84,17.42 74.94,60.15 74.94,107.45l0 166.15 -237.36 0 0 -152.41zm-386.03 -18.74c0,-54.19 52.55,-107.2 104.97,-109.9 18.29,-0.94 17.71,-2.14 39.03,2.13 49.16,9.83 92.11,58.26 92.11,109.02l0 169.9 -236.11 0 0 -171.15zm-203.63 49.97c0,-43.44 39.26,-83.7 82.45,-83.7 28.07,0 45.64,5.04 65.9,25.3 6.98,6.98 12.38,13.51 17,22.97 3.92,8.02 8.3,20.43 8.3,31.69l0 124.92 -173.65 0 0 -121.18zm-133.67 -1283l0 1404.18 -166.16 0c-14.86,0 -22.33,19.18 -9.59,27.09 5.69,3.53 49.92,1.65 58.31,1.65 17.43,0 220.74,-1.86 227.57,1.05 4.9,2.09 5.89,2.69 12.29,2.69 4.09,0 3.29,-3.74 10,-3.74l178.64 0c2.7,0 5.87,3.74 12.5,3.74 6.7,0 5.9,-3.74 9.99,-3.74l242.36 0c6.05,0 8.53,1.11 12.49,1.11 3.97,0 6.45,-1.11 12.5,-1.11l96.19 0c6.05,0 8.53,1.11 12.49,1.11 3.97,0 6.45,-1.11 12.5,-1.11l242.36 0c5.27,0 6.94,0.9 10.11,1 3.81,0.11 5.44,-1 11.12,-1l98.7 0c6.05,0 8.52,1.11 12.49,1.11 3.97,0 6.44,-1.11 12.49,-1.11l242.36 0c5.28,0 6.95,0.9 10.11,1 3.82,0.11 5.44,-1 11.13,-1l99.94 0c5.28,0 6.95,0.9 10.11,1 3.82,0.11 5.44,-1 11.13,-1l244.86 0c5.27,0 6.94,0.9 10.11,1 3.81,0.11 5.44,-1 11.12,-1l99.95 0c5.27,0 6.94,0.9 10.11,1 3.81,0.11 5.44,-1 11.12,-1l243.61 0c2.69,0 5.87,3.74 12.49,3.74 6.01,0 6.49,-3.74 12.5,-3.74l176.14 0c5.89,0 8.41,3.74 15,3.74 7.53,0 3.53,-3.78 14.9,-3.83 35.57,-0.15 269.84,1.92 276.62,-0.72 14.58,-5.69 9.34,-27.93 -7.94,-27.93l-164.9 0 0 -1397.94c0,-6.01 -1.15,-10.52 -3.67,-13.82 -10.11,-13.28 -26.32,-3.02 -26.32,13.82l0 1397.94 -74.95 0 0 -106.19c0,-33.84 -6.11,-53.12 -19.12,-74.58 -8.8,-14.54 -21.55,-26.89 -35.76,-35.44 -26.89,-16.16 -61.58,-24.01 -94.59,-13.21 -15.12,4.94 -27.41,10.17 -38.82,19.9l-12.47 11.26c-3.14,3.93 -1.45,4.49 -6.62,5.87 -0.29,-13.07 -12.33,-37.76 -17.88,-47.08 -6.04,-10.14 -13.05,-19.34 -21.13,-27.6 -71.91,-73.51 -196.49,-49.56 -237.92,40.11 -6.91,14.95 -14.15,37.16 -14.15,58.31l0 168.65 -92.45 0 0 -164.9c0,-61.94 -37.18,-108.7 -87.01,-132.86 -69.63,-33.76 -151.08,-0.5 -187.29,59.69 -12.66,21.05 -20.53,43.29 -20.53,71.92l0 166.15 -92.44 0 0 -168.65c0,-30.36 -11.1,-58.38 -27.83,-80.86 -5.83,-7.84 -10.08,-12.57 -16.83,-19.4 -51.11,-51.69 -142.06,-56.37 -196.78,-7.5 -9.83,8.78 -18.86,17.6 -26.42,28.55 -5.73,8.3 -9.1,14.34 -13.66,23.81 -7.6,15.76 -13.31,38.78 -13.31,61.65l0 162.4 -92.45 0 0 -169.9c0,-19.92 -7.32,-43.34 -14.14,-57.07 -15.91,-32.03 -40.86,-55.37 -72.88,-70.79 -37.58,-18.1 -82.51,-15.89 -119.84,-0.3 -53.49,22.35 -87.97,79.3 -87.97,136.91l0 161.15 -92.44 0 0 -171.15c0,-20.99 -7.32,-42.15 -14.58,-56.63 -4.22,-8.42 -7.76,-14.87 -13.08,-21.9l-17.01 -19.22c-12.3,-12.33 -25.72,-22.12 -42.24,-28.96 -38,-15.74 -75.64,-17.57 -114.6,-2.34 -23.63,9.24 -40.93,24.18 -57.43,41.27 -13.57,14.05 -31.69,47.52 -32.15,67.79 -2.32,-1.7 -12.85,-13.69 -23.36,-21.6 -29.69,-22.36 -71.24,-26.11 -105.48,-14.79 -22.01,7.27 -39.27,21.3 -52.49,37.46 -11.35,13.88 -24.8,40.33 -24.8,65.15l0 124.92 -76.2 0 0 -1400.43c0,-23.69 -28.73,-19.62 -28.73,-3.75z"/>
  <path class="fil0 str0" d="M1307.35 2301.33c0,-14.33 13.04,-37.71 21.24,-43.72 9.3,6.23 22.49,29.18 22.49,44.97l0 256.1 -43.73 0 0 -257.35zm-29.98 11.25l0 246.1 -66.21 0 0 -261.09c0,-38.14 22.42,-76.15 39.78,-97.64 9.26,-11.47 23.66,-24.62 35.35,-33.37 6.91,-5.16 12.92,-9.7 20.66,-14.31 25.18,-15.01 19.54,-14.8 44.36,0.16 21.07,12.7 40.82,29.29 56.38,48.57 11.2,13.88 18.51,25 26.27,42.44 6.64,14.93 13.31,35.76 13.31,56.64l0 258.6 -67.46 0 0 -258.6c0,-17.92 -10.23,-36.5 -17.48,-47.47 -4.9,-7.42 -15.95,-20.08 -22.86,-25.86l-9.63 -7.87c-9.36,2.5 -31.73,29.79 -35.99,36.47 -9.68,15.16 -16.48,32.77 -16.48,57.23zm29.98 -510.96c0,-14.48 14.02,-38.05 22.49,-43.72 9.15,13.66 21.24,25.36 21.24,47.47l0 253.6 -43.73 0 0 -257.35zm-29.98 12.5l0 244.85 -66.21 0 0 -259.84c0,-36.87 22.23,-77.75 39.7,-97.73 11.66,-13.33 20.76,-22.94 35.07,-33.63 6.23,-4.65 36.79,-26.1 43.74,-25.66 10.86,0.69 56.98,34.65 69.76,49.95l8.05 9.44c17.71,21.79 39.79,60.05 39.79,98.88l0 258.59 -67.46 0 0 -257.35c0,-31.31 -28.2,-67.03 -51.22,-82.45 -7.69,10.51 -51.22,32.8 -51.22,94.95zm-66.21 -107.44l0 -117.43 236.11 0 0 117.43c-0.19,-0.22 -0.49,-0.87 -0.57,-0.68 0,0 -16.8,-23.63 -22.83,-29.63 -20.94,-20.83 -32.67,-32.73 -58.98,-48.47 -5.12,-3.07 -29.69,-17.33 -35.32,-17.86 -9.95,-0.93 -55.77,30.34 -66.9,39.46l-21.23 18.75c-14.84,16.18 -25.18,32.56 -30.28,38.43zm96.19 -403.52c0,-8.13 3.95,-18.55 7.09,-24.14 2,-3.56 3.93,-6.8 6.27,-9.97 2.52,-3.4 5.57,-5.63 6.63,-9.61 9.78,2.61 23.74,31.86 23.74,44.97l0 256.1 -43.73 0 0 -257.35zm-29.98 13.75l0 243.6 -66.21 0c2.15,-25.81 0,-17.95 0,-42.47l0 -219.87c0,-18.5 7.92,-41.93 13.76,-54.96 17.58,-39.25 56.02,-76.7 94.08,-95.81 10.45,-5.24 8.45,-8.53 33.1,7.33 26.3,16.93 35.9,26.2 55.52,48.17 17.89,20.03 39.65,61.58 39.65,99.01l0 258.6 -67.46 0 0 -257.35c0,-30.17 -27.49,-67.39 -49.97,-82.45 -6.02,1.61 -24.43,20.83 -28.56,26.41 -15.19,20.48 -23.91,36.87 -23.91,69.79zm-96.19 154.91c-7.55,-5.06 -13.47,-14.05 -33.29,-24.18 -30.78,-15.75 -70.8,-16.25 -102.07,-1.24 -10.58,5.08 -16.64,9.29 -24.94,16.28 -20.93,17.65 -42.09,47.53 -42.09,82.84l0 1424.18c0,14.08 24.28,18.8 28.29,0.8 1.8,-8.07 0.45,-1282.28 0.45,-1390 0,-32.59 -2.03,-56.79 18.53,-82.66 32.01,-40.29 93.56,-44.6 127.97,-11.37 14.21,13.72 27.32,30.83 27.16,52.79 -1.1,157.86 -0.01,319.11 -0.01,477.24l-0.01 597.16c-0.05,13.55 -0.5,26.23 16.25,26.23 9.64,0 13.74,-9.04 13.74,-18.74l0 -33.73 236.11 0 0 117.43 -31.58 -39.62c-5.64,-6.24 -32.78,-27.45 -39.38,-31.84 -7.65,-5.09 -38.89,-24.19 -45.75,-25.46 -5.88,-1.09 -40.11,19.47 -46.45,23.7 -7.47,5 -13.44,9.25 -20.2,14.79 -4,3.28 -5.58,4.65 -9.33,8.16 -6.12,5.73 -12.29,9.74 -18.44,17.79 -8.04,10.53 -12.28,12.76 -23.49,30.22 -18.85,29.36 -31.47,64.33 -31.47,112.2l0 129.92c0,24.53 21.5,22.43 27.31,12.33 5.58,-9.71 2.67,-38.89 2.67,-53.56 0,-36.13 -1.78,-76.88 -0.01,-112.44 2.38,-47.79 36.32,-94.41 72.63,-123.51 5.4,-4.32 10.55,-8.16 16.56,-12.17l26.15 -15.19c4.16,-1.72 4.32,-0.78 8.57,1.92 5.88,3.74 11.55,6.31 17.51,10.05 5.91,3.7 11.62,7.55 17.07,11.66 49.64,37.48 77.63,83.94 77.63,147.24 0,13.95 -1.65,43.89 0.26,55.95 3.18,19.98 28.48,15.86 28.48,0.27l0 -570.92c0,-47.71 -34.2,-109.14 -69.08,-138.3 -18.13,-15.16 -27.77,-23.24 -48.74,-34.97 -31.61,-17.68 -24.33,-19.68 -64.53,3.41 -24.41,14.03 -54.01,40.09 -70.9,62.77l-11.6 15.89 0 -117.43 236.11 0c0,15.8 -2.81,51.82 4.01,59.7 8.61,9.94 24.73,3.99 24.73,-8.48l0 -840.76c0,-43.11 -27.41,-96.93 -57.14,-126.51l-20.13 -18.6c-17.66,-14.34 -44,-32.03 -64.6,-40.43 -4.35,-1.77 -5.45,-2.07 -10.04,-0.2 -47.68,19.49 -100.35,66.01 -123.37,114.09 -23.09,48.26 -19.55,86.61 -19.55,139.11 0,35.39 0,70.79 0,106.19z"/>
  <path class="fil0 str0" d="M2855.21 2305.08c0,-11.6 3.61,-19.78 7.48,-27.5 3.35,-6.69 9.15,-16.05 15,-19.97 14.4,9.64 22.49,38.26 22.49,54.97l0 246.1 -44.97 0 0 -253.6zm-28.74 -1.25l0 254.85 -67.46 0 0 -254.85c0,-43.16 20.53,-79.3 40.26,-103.4 17.97,-21.95 43.67,-42.52 69.24,-55.69 11.77,-6.06 8.52,-5.2 23.79,3.32 60.06,33.49 104.07,90.02 104.07,165.77l0 244.85 -67.46 0 0 -249.85c0,-31.39 -13.51,-54.13 -32.79,-73.4 -5.41,-5.4 -11.96,-14.49 -19.68,-16.55 -3.6,2.42 -5.14,4.95 -8.56,7.68 -21.72,17.39 -41.41,47.13 -41.41,77.27zm28.74 -497.21c0,-11.01 3.32,-20.12 7.3,-27.67 6.73,-12.77 10.34,-14.26 13.93,-21.05 14.28,9.56 23.74,34.44 23.74,54.97l0 246.1 -44.97 0 0 -252.35zm-28.74 -3.75l0 256.1 -67.46 0 0 -253.6c0,-39.17 16.74,-74.27 38.89,-102.28 10.47,-13.24 21.85,-24.05 35.34,-34.61 5.68,-4.44 38.53,-26.76 44.45,-26.76 5.37,0 38.89,22.78 45,27.46 43.73,33.51 73.68,82.87 73.68,146.19l0 243.6 -67.46 0 0 -251.1c0,-21.28 -8.7,-39.33 -17.07,-52.88 -4.08,-6.59 -10.36,-13.94 -15.72,-19.27l-18.43 -16.55c-23.31,15.61 -51.22,52.82 -51.22,83.7zm-67.46 -96.19l0 -117.43 237.36 0 0 118.68 -2.75 -3.49c-0.92,-1.28 -1.61,-2.4 -2.5,-3.75 -2.04,-3.12 -3.37,-5.11 -5.62,-8.12 -4.39,-5.86 -7.89,-9.56 -12.49,-15 -2.5,-2.95 -2.76,-3.91 -5.66,-6.83l-14.33 -13.15c-14.6,-12.27 -19.67,-17.6 -38.56,-28.91 -37.82,-22.64 -34.12,-21.49 -53.86,-11.55 -71.19,35.86 -97.14,86.29 -101.59,89.55zm96.2 -398.52c0,-17.63 12.11,-41.77 22.48,-48.72 14.04,10.28 22.49,37.97 22.49,54.97l0 246.1 -44.97 0 0 -252.35zm-28.74 -3.75l0 256.1 -67.46 0 0 -254.85c0,-22.07 6.16,-42.63 12.65,-58.55 10.6,-25.99 25.55,-43.82 43.88,-62.32 16.08,-16.23 32.9,-26.44 52.21,-37.73 11.78,-6.89 8.85,-5.25 23.7,2.43 10.95,5.66 22.31,14.31 32.11,21.6 26.65,19.82 49.78,50.62 61.95,81.73 6.71,17.16 10.86,38.25 10.86,61.59l0 207.38c0,16.77 -5.99,27.4 0,38.72l-67.46 0 0 -249.85c0,-36.49 -17.84,-59.34 -40.89,-81.54 -2.45,-2.36 -7.78,-6.71 -10.33,-8.41 -9.85,5.22 -26.62,23.68 -33.48,33.98 -9.13,13.69 -17.74,31.63 -17.74,49.72zm-96.19 -2.5l0 837.02c0,16.31 28.73,20.25 28.73,-2.5l0 -48.72 237.36 0 0 118.68c-3.4,-2.49 -8.03,-11.09 -11.04,-15.19 -2.13,-2.89 -3.69,-4.9 -6.12,-7.62 -2.75,-3.07 -3.36,-4.52 -6.24,-7.51l-19.98 -19.99c-2.99,-2.87 -4.44,-3.49 -7.51,-6.23 -4.91,-4.38 -9.38,-7.38 -14.78,-11.46 -8.95,-6.75 -47.48,-29.44 -51.76,-29.44 -11.93,0 -54.52,28.65 -67.17,39.01 -27.32,22.37 -51.45,50.26 -65.62,83.05 -7.47,17.3 -15.87,45.07 -15.87,69.07l0 567.18c0,13.6 20.99,18.87 27.37,4.88 9.62,-21.1 -15.67,-81.59 25.61,-150.54 9.23,-15.41 13.21,-17.91 21.45,-28.52 10.05,-12.94 12.02,-11.61 18.96,-18.52 2.49,-2.48 3.94,-3.71 6.72,-5.77 8.49,-6.29 39.68,-28.9 47.3,-28.9 6.28,0 39.35,22.82 47.09,29.12 98.43,80.11 66.49,164.88 71.52,280.77 0.84,19.3 28.81,19.76 28.81,-2.57l0 -139.92c0,-49.55 -17.43,-86.01 -39.97,-117.44 -1.92,-2.67 -5.4,-7.07 -7.82,-9.67 -24.58,-26.4 -33.99,-36.07 -67.37,-56.31 -3.94,-2.39 -7.34,-3.84 -11.26,-6.23 -21.91,-13.33 -23.26,-11.84 -46.99,2.5 -3.93,2.37 -7.04,3.98 -11.1,6.39 -18.58,11.06 -34.31,24.17 -49.42,39.28 -6.48,6.48 -10.8,11.13 -16.8,18.18l-15.37 20.86 0 -117.43 237.36 0 0 39.97c0,13.26 21.96,18.57 27.43,3.7 3.13,-8.48 1.31,-285.47 1.31,-297.27l0 -634.64c0,-52.85 0.35,-105.83 -0.02,-158.67 -0.16,-22.33 12.29,-39.3 26.54,-53.42 30.1,-29.81 81.04,-30.46 116.29,-1.93 33.68,27.25 30.84,59.26 30.84,95.34l0 1360.46c0,8.74 -4.18,36.23 14.99,36.23 9.6,0 14.99,-9.15 14.99,-19.99l0 -1392.94c0,-49.59 -19.06,-93.09 -64.11,-115.78 -39.87,-20.08 -87.37,-17.01 -123.12,9.76 -5.75,4.31 -10.61,9.7 -16.4,13.58 0,-29.11 1.72,-165.3 -1.93,-187.97 -5.67,-35.19 -16.83,-62.46 -37.51,-89.91 -15.77,-20.92 -27.14,-31.5 -47.15,-47.8 -10.63,-8.65 -53.57,-35.36 -60.83,-35.36 -7.64,0 -45.45,24.13 -53.73,29.97l-34.67 29.04c-16.71,18.22 -33.55,40.29 -42.95,63.23 -7.73,18.85 -16.06,42.25 -16.06,68.89z"/>
  <path class="fil0 str0" d="M2080.65 2070.22c0,-18.44 11.72,-45.26 22.49,-52.47 10.52,7.04 22.49,31.5 22.49,48.72l0 252.35 -44.98 0 0 -248.6zm-28.73 -3.75l0 252.35 -67.46 0 0 -247.35c0,-24.9 4.25,-41.61 10.75,-60.46 13.6,-39.41 48.23,-73.82 82.43,-96.22 3.65,-2.39 7.09,-4.52 10.93,-6.56 15.75,-8.38 11.55,-11.5 34.82,3.08 7.74,4.85 14.19,9.19 21.51,14.7 14.64,11.03 25.75,21.38 37.12,35.34 19.62,24.09 39.8,60.58 39.8,103.87l0 253.6 -67.46 0 0 -256.1c0,-24.81 -16.69,-51.25 -32.75,-68.44l-18.47 -15.26c-25.53,17.1 -51.22,52.47 -51.22,87.45zm28.73 -495.96c0,-18.43 10.44,-43.15 22.49,-51.22 6.67,4.46 11.48,12.93 15.42,20.8 4.36,8.7 7.07,16.61 7.07,29.17l0 249.85 -44.98 0 0 -248.6zm-28.73 -1.25l0 249.85 -67.46 0 0 -246.1c0,-73.19 39.98,-121.76 93.68,-157.42 26.69,-17.73 23.98,-15.94 46.31,-2.56 52.34,31.35 97.37,87.33 97.37,154.98l0 251.1 -67.46 0 0 -253.6c0,-29.26 -21.15,-62.24 -41.75,-78.18 -3.99,-3.08 -5.97,-5.68 -9.47,-8.02 -13.7,11.91 -23.44,20.26 -33.98,35.98 -9.31,13.87 -17.24,31.28 -17.24,53.97zm-67.46 -101.19l0 -118.68 237.36 0 0 117.43 -43.91 -49.79c-14.68,-11.82 -19.88,-17.31 -38.77,-28.68 -5.46,-3.28 -31.71,-18.29 -35.81,-18.22 -3.86,0.06 -31.2,15.08 -35.42,17.73 -3.05,1.91 -5.48,3.43 -8.43,5.31 -11.02,7.02 -27.59,20.59 -37.84,29.62l-37.18 45.28zm96.19 -396.02c0,-18.52 11.52,-44.44 22.49,-52.47 9.87,6.61 22.49,31.18 22.49,48.72l0 252.35 -44.98 0 0 -248.6zm-28.73 -3.75l0 252.35 -67.46 0 0 -247.35c0,-66.9 39.57,-124.6 94.87,-157.48 3.53,-2.1 19.97,-12.42 23.81,-12.42 10.48,0 59.22,35.78 71.4,51.03 15.94,19.97 22.94,27.18 34.76,53.94 6.58,14.9 12.52,37.31 12.52,58.68l0 253.6 -67.46 0 0 -253.6c0,-34.37 -26.05,-69.35 -51.22,-86.2 -24.91,16.68 -51.22,53.41 -51.22,87.45zm-94.94 -13.74l-77.46 0c-21.14,0 -18.82,28.73 -1.25,28.73l77.46 0 0 813.28c0,21.71 28.73,20.3 28.73,2.5l0 -49.97 237.36 0 0 117.43 -5.23 -7.26c-18.56,-27.62 -49,-54.81 -76.98,-71.68 -4.85,-2.93 -32.18,-18.51 -36.47,-18.51 -2.57,0 -24.44,11.51 -27.72,13.5l-25.99 16.49c-33.3,23.51 -60.8,55.36 -77.45,92.46 -7.11,15.85 -16.25,46.07 -16.25,68.69l0 805.79c0,17.64 28.43,21.06 28.81,-1.17l-0.08 -100.03c0,-53.71 0,-107.43 0,-161.15 0,-56.21 -0.43,-84.2 30.48,-130.68 14.61,-21.99 39.65,-44.2 61.45,-58.48 3.65,-2.39 23.65,-14.47 26.75,-14.47 7.13,0 40.01,23.19 49.11,30.84l39.25 41.96c9.87,13.11 20.8,36.48 25.33,54.62 6.02,24.13 4.99,46.26 4.99,76.21l0 241.11c0,14.52 -2.65,27.26 6.72,33.27 10.21,6.55 22.02,-0.85 22.02,-13.28l0 -304.83c0,-40.45 -18.63,-78.99 -35.22,-103.45 -10.11,-14.91 -20.16,-24.89 -32.55,-37.41 -20.56,-20.8 -47.02,-35.56 -72.99,-48.22 -6.39,-3.12 -5.45,-4.11 -11.66,-0.91 -49.01,25.26 -78.69,45.01 -109.91,91.32l-3.77 4.98 0 -118.68 237.36 0 0 37.48c0,20.85 28.74,20.85 28.74,0l0 -1301.75 76.2 0c15.95,0 20.55,-17.07 9.75,-25.99 -5.05,-4.17 -13.51,-2.74 -22.24,-2.74l-49.98 0c-26.48,0.16 -4.67,5.29 -25.16,-49.8 -17.57,-47.26 -51.11,-82.98 -90.51,-109.36 -7.82,-5.24 -39.78,-26.56 -49.06,-23.2 -23.08,8.35 -49.6,28.5 -68.69,43.87 -37.96,30.56 -73.89,88.7 -73.89,138.49z"/>
  <path class="fil0 str0" d="M1693.38 2187.65c0,-20.77 8.95,-46.32 23.74,-56.22 5.91,8.84 6.79,7.89 13.7,20.03 3.07,5.38 7.53,17.85 7.53,26.2l0 254.85 -44.97 0 0 -244.86zm-28.73 -3.75l0 248.61 -67.46 0 0 -238.61c0,-76.24 36.12,-129.77 94.41,-165.44 27.56,-16.86 21.15,-16.91 47.3,-1.26 11.24,6.73 30.1,20.89 39.77,30.19 28.92,27.79 55.88,73.24 55.88,120.27l0 254.85 -67.46 0 0 -256.1c0,-30.58 -21.25,-57.13 -41.53,-75.91 -2.3,-2.13 -7.37,-6.24 -9.69,-7.79 -6.27,5.44 -12.36,10.5 -18.44,16.54 -18.48,18.33 -32.78,45.66 -32.78,74.65zm28.73 -493.46c0,-19.89 3.73,-31.98 13.47,-46.5 1.95,-2.91 6.68,-9.25 9.02,-10.97 10.55,7.07 22.48,30.97 22.48,47.47l0 253.61 -44.97 0 0 -243.61zm-28.73 -5l0 248.61 -67.46 0 0 -241.11c0,-57 16.65,-89.77 46.52,-123.38 2.08,-2.34 1.88,-2.6 3.81,-4.93 2.99,-3.58 5.32,-5.47 9.1,-8.39 17.02,-13.16 17.98,-16.76 41.51,-30.96 17.45,-10.52 16.99,-10.33 23.57,-6.89 57.68,30.09 112.85,88.75 112.85,158.31l0 257.35 -67.46 0 0 -257.35c0,-17.55 -10.16,-38.32 -17.48,-48.73l-33.74 -33.73c-11.49,7.7 -27.67,25.41 -34.74,36.47 -9.26,14.49 -16.48,31.54 -16.48,54.73zm-67.46 -103.69l0 -117.43 237.36 0 0 117.43 -23.44 -30.28c-2.67,-2.86 -2.94,-4.02 -5.59,-6.9 -2.13,-2.3 -4.57,-4.79 -6.9,-6.85 -14.41,-12.68 -29.32,-25.07 -46.12,-35.08 -5.53,-3.29 -31.84,-18.33 -36.63,-18.33 -4.56,0 -30.39,15.12 -35.52,18.2 -22.17,13.27 -41.59,29.35 -59.13,48.31l-24.03 30.93zm96.19 -389.77c0,-21.55 8.25,-48.35 23.74,-58.72 2.53,4.79 4.14,5.92 7.34,10.15 7.44,9.84 13.89,24.53 13.89,38.57l0 252.36 -44.97 0 0 -242.36zm-28.73 -6.25l0 248.61 -67.46 0 0 -239.86c0,-81.25 43.07,-138.46 113.66,-174.99 5.78,-2.99 6.08,-2.73 12.13,0.44 4.37,2.29 6.86,3.89 11.08,6.44 7.43,4.46 15.54,9.21 21.97,14.26l28.55 25.17c3.02,3.99 5.85,5.99 8.93,9.81 19.57,24.27 41.04,60.55 41.04,103.88l0 254.85 -67.46 0 0 -256.1c0,-28.53 -20.96,-57.71 -40.93,-75.26 -4.19,-3.69 -5.76,-3.54 -9.04,-8.45 -11.4,7.63 -18.5,15.64 -27.17,25.31 -3.08,3.44 -5.47,6.79 -8.08,10.66 -9.14,13.53 -17.22,32.93 -17.22,55.23zm-94.95 -17.49l-86.2 0c-22.09,0 -19.44,28.74 -3.75,28.74l88.7 0 0 1301.74c0,22.09 28.74,19.44 28.74,3.75l0 -41.23 237.36 0 0 117.43 -23.74 -29.98c-3.81,-4.98 -8.15,-8.87 -12.78,-13.45 -11.45,-11.33 -32.66,-26.35 -46.17,-35.04 -4.67,-3.01 -31.15,-17.72 -35.99,-17.72 -7.28,0 -46.34,24.55 -55.17,31.04 -24.8,18.22 -46.83,40.56 -62.99,66.93 -5.52,9.01 -10.69,18.6 -14.82,28.91 -8.3,20.76 -14.44,44.65 -14.44,73l0 181.15c0,4.84 1.65,9.5 4.01,12.23 7.06,8.15 24.73,7.68 24.79,-12.16l-0.06 -96.27c0,-72.01 -8.41,-132.97 36.61,-188.25 24.02,-29.49 37.53,-39.35 69.81,-58.86 13.38,-8.09 11.48,-6.92 21.42,-1.92 13.47,6.77 27.3,16.31 38.48,25.24 39.61,31.63 64,71.5 70.7,122.94 1.42,10.89 0.5,167.86 0.32,192.07 -0.09,12.35 1.33,18.65 11.05,21.53 7.75,2.3 17.7,-3.86 17.7,-12.8l0 -693.35c0,-48.25 -24.68,-91.41 -50.34,-122.06 -14.18,-16.94 -47.44,-44.04 -67.08,-54.1l-23.03 -11.99c-6.1,-2.67 -6.64,-3.33 -11.96,-0.6 -24.84,12.79 -43.42,22.55 -64.59,40.45 -13.86,11.73 -14.76,13.19 -26.32,26.16 -12.67,14.23 -16.76,22.77 -22.77,29.69l0 -118.68 237.36 0 0 49.97c0,18.14 28.73,18.03 28.73,1.25l0 -838.26c0,-41.94 -21.3,-88.1 -47.75,-118.41l-20.01 -21.21c-12.21,-12.35 -33.54,-26.7 -48.17,-35.53l-28.12 -14.44c-10.62,-4.47 -66.58,34.76 -76.78,44.97 -4.21,4.21 -7.24,6.04 -11.26,9.97 -15.7,15.37 -34.42,40.73 -43.66,61.28 -8.27,18.42 -17.83,44.63 -17.83,65.87z"/>
  <path class="fil0 str0" d="M2467.93 2182.65c0,-21 16.07,-49.17 23.74,-51.22 1.24,4.64 4.69,6.41 7.27,10.22 8.44,12.42 13.96,25.22 13.96,42.25l0 248.61 -44.97 0 0 -249.86zm-28.73 -4.99l0 254.85 -67.46 0 0 -251.11c0,-42.85 18.92,-80.24 38.43,-103.98l25.58 -26.89c8.74,-8.11 47.11,-35.28 54.67,-35.28 6.33,0 37.97,22.19 44.27,26.94 40.79,30.76 74.41,81.34 74.41,140.46l0 249.86 -67.46 0 0 -252.36c0,-28.17 -15.27,-53.42 -32.8,-70.89l-18.42 -16.55c-9.72,6.5 -26.88,24.58 -33.24,34.22 -5.44,8.22 -7.96,12.44 -11.75,21.98 -2.79,7.01 -6.23,19.01 -6.23,28.75zm28.73 -493.47c0,-11.3 2.7,-21.73 6.65,-29.58 3.08,-6.12 10.94,-18.36 15.84,-21.64 4.28,2.87 12.67,15.36 15.34,20.89 4.05,8.38 7.14,18.38 7.14,30.33l0 249.86 -44.97 0 0 -249.86zm-28.73 -3.75l0 253.61 -67.46 0 0 -251.11c0,-45.98 18.48,-79.02 38.72,-104.94 8.52,-10.93 15.6,-17.92 25.86,-26.6l20.35 -15.88c2.12,-1.51 2.92,-2.3 5.08,-3.68 2.24,-1.43 3.98,-2.35 6.18,-3.81 24.64,-16.35 21.9,-14.05 45.7,0.53 11.62,7.12 31.08,21.8 40.82,31.64 18.18,18.36 33.16,39.79 43.24,64.19 6.84,16.54 11.41,37.91 11.41,61.05l0 248.61 -67.46 0 0 -251.11c0,-36.61 -24.61,-70.87 -51.22,-88.7 -26.54,17.77 -51.22,53.24 -51.22,86.2zm-67.46 -98.69l0 -117.43 237.36 0 0 117.43c-3.28,-2.4 -2.87,-3.56 -5.23,-7.26l-38.16 -43.05c-9.08,-8.74 -28.04,-21.83 -38.82,-28.64 -4.55,-2.87 -32.43,-18.49 -36.47,-18.49 -4.12,0 -30.8,15.09 -35.69,18.03 -26.08,15.69 -53.22,39.19 -71.4,63.52l-9.89 13.84c-1.77,2.31 -0.65,0.84 -1.7,2.05zm96.19 -398.52c0,-17.12 11.32,-41.24 22.49,-48.72 12.2,8.17 22.48,32.63 22.48,51.22l0 248.61 -44.97 0 0 -251.11zm-28.73 -1.25l0 252.36 -67.46 0 0 -252.36c0,-63.65 44.03,-121.68 95,-152.35 26.87,-16.18 20.67,-15.8 46.4,-0.29 53.05,31.97 95.96,88.32 95.96,155.14l0 249.86 -67.46 0 0 -252.36c0,-19.26 -8.91,-39.87 -16.97,-51.74 -6.72,-9.91 -24.88,-29.43 -34.25,-35.71 -9.93,6.65 -26.79,25.09 -33.74,34.97 -8.51,12.11 -17.48,31.92 -17.48,52.48zm-96.2 -3.74l0 834.51c0,17.31 28.74,20.16 28.74,-1.25l0 -48.72 237.36 0 0 118.68c-6.03,-6.93 -11.49,-19.67 -30.3,-38.41 -32.68,-32.58 -46.59,-38.54 -81.74,-56.97 -6.61,-3.47 -7.09,-4.39 -23.74,4.58 -14.41,7.77 -29.11,16.63 -42.17,26.54 -19.34,14.67 -38.03,33.38 -51.92,53.02 -19.01,26.89 -36.23,68.23 -36.23,103.69l0 690.85c0,14.92 16.2,21.61 25.99,9.74 3.66,-4.42 2.83,-7.29 2.76,-14.72 -0.43,-49.71 -1.97,-158.3 1.27,-197.37 1.48,-17.96 8.49,-38.11 14.94,-51.28 8.77,-17.9 14.51,-25.02 26.43,-39.78 10.03,-12.43 21.3,-22.13 34.08,-32.13 5.78,-4.52 36.45,-24.94 41.95,-24.94 5.92,0 35.28,20.14 41.23,24.41 2.61,1.87 6.37,4.91 9.02,7.22 33,28.85 63.54,69.99 67.08,115.32 3.29,42.18 1.68,145.53 1.34,197.29 -0.05,7.14 -1.27,19.5 11.92,21.89 9.4,1.7 16.82,-6.11 16.82,-15.65l0 -188.64c0,-36.14 -13.46,-69.82 -30.04,-97.39 -15.02,-24.98 -39.06,-48.07 -62.04,-65.38 -7.56,-5.7 -17.21,-12.17 -25.77,-16.71 -32.45,-17.26 -25.36,-20.13 -65.4,3.72 -13.8,8.21 -41.2,28.8 -52.57,41.13 -15.83,17.17 -23.17,30.26 -30.27,38.43l0 -118.68 237.36 0 0 39.98c0,18.09 28.73,18.94 28.73,-2.5l0 -1301.74 88.7 0c15.98,0 18.41,-28.74 -3.75,-28.74l-86.2 0c0,-28.75 -16.2,-69.35 -32.47,-92.45 -7.9,-11.22 -12.08,-14.98 -18.93,-23.55 -3.66,-4.57 -5.35,-6.32 -9.5,-10.49 -1.87,-1.88 -3.06,-3.27 -5.01,-4.98 -16.03,-14.13 -36.45,-29.93 -55.25,-39.7 -4.71,-2.44 -9.06,-4.49 -14.18,-7.06 -5.63,-2.83 -8.82,-6.23 -14.15,-3.89 -24.05,10.53 -43.99,24.08 -64.14,39.69 -25.47,19.73 -51.96,53.11 -64.44,82.98 -7.57,18.13 -15.51,44.59 -15.51,69.45z"/>
  <path class="fil0 str0" d="M1758.34 3346.98c0,7.72 7.04,14.99 17.49,14.99l1555.35 0c20.62,0 23.39,-18.24 12.88,-26.62 -3.35,-2.68 -7.33,-3.36 -12.88,-3.36l-1552.85 0c-10.77,0 -19.99,4.85 -19.99,14.99z"/>
  <path class="fil0 str0" d="M856.37 3348.23c0,8.24 8.94,13.74 17.49,13.74l749.56 0c18.07,0 21.96,-18.92 11.55,-26.54 -3.14,-2.29 -8.85,-3.44 -14.05,-3.44l-747.06 0c-10.47,0 -17.49,5.64 -17.49,16.24z"/>
  <path class="fil1 str1" d="M2051.92 2567.43l0 298.58c0,16.3 23.74,19.89 28.25,4.51 3.66,-12.49 -3.96,-295.72 2.94,-320.62 3.08,-11.12 13.02,-28.16 21.28,-33.69 4.4,8.3 14.01,15.57 19.2,34.52 4.35,15.87 2.04,136.98 2.04,159.12 0,13.58 -1.18,154.08 0.68,160.47 4.32,14.82 28.05,13.5 28.05,-5.56l0 -301.08c0,-35.99 -22.37,-61.15 -46.5,-82.17 -2.29,-2 -2.19,-2.33 -4.72,-4.03 -3.5,2.34 -5.48,4.94 -9.47,8.02 -3.72,2.89 -5.72,5.32 -8.96,8.53 -18.42,18.27 -32.79,43.77 -32.79,73.4z"/>
  <path class="fil1 str1" d="M2439.2 2678.62l0 186.14c0,11.28 10.13,19.35 20.39,14.21 11.29,-5.67 8.34,-15.99 8.34,-31.7l0 -158.66c-0.02,-16.08 0.88,-22.52 5.87,-34.1 2.88,-6.69 11.49,-19.94 16.62,-23.37 4.93,3.31 13.58,16.46 16.25,22.48 4.41,9.95 6.29,19.17 6.24,33.74l-0.01 158.66c0,15.29 -2.79,26.63 7.33,32.69 8.09,4.84 21.41,-0.05 21.41,-13.95l0 -186.14c0,-20.16 -8.88,-39.13 -17.23,-51.49 -9.53,-14.11 -12.77,-16.66 -24.3,-26.92 -4.64,-4.13 -3.76,-4.66 -9.69,-7.79l-18.44 15.29c-16.98,16.93 -32.78,44.78 -32.78,70.91z"/>
  <path class="fil1 str1" d="M1664.65 2682.36l0 181.15c0,17.67 18.51,22.32 26.27,11.28 2.69,-3.82 2.53,-8.31 2.48,-15.01l-0.02 -107.46c0,-21.73 -1.61,-50.24 0.06,-71.14 1.46,-18.13 11.28,-42.58 22.43,-50.04 6.64,4.45 12.49,14.84 16.26,22.47 5.38,10.89 6.24,17.56 6.22,33.75l0 157.41c0,13.88 -2.47,26.66 5.97,32.76 9.69,6.99 22.77,0.06 22.77,-10.27l0 -192.39c0,-24.23 -16.74,-51.26 -32.17,-66.53l-17.8 -15.92c-8.9,2.37 -30.11,27.15 -35.68,35.53 -9.05,13.59 -16.79,32.37 -16.79,54.41z"/>
  <path class="fil1 str1" d="M3096.32 2641.14l0 298.57c0,22.16 28.73,19.73 28.73,3.75l0 -306.07c0,-15.66 -28.73,-19.13 -28.73,3.75z"/>
  <path class="fil1 str1" d="M1081.23 2638.64l0 303.57c0,18.19 28.74,18.19 28.74,0l0 -303.57c0,-17.84 -28.74,-18.15 -28.74,0z"/>
  <path class="fil1 str1" d="M2826.47 2801.04l0 66.22c0,12.53 18.46,18.82 26.48,6.48 7.63,-11.75 -3.18,-64.29 5.98,-88.96 3.34,-8.99 7.7,-15.7 13.35,-22.88 2.57,-3.27 2.27,-4.66 6.66,-5.83 1.14,4.25 1.62,3.25 4.46,6.79 32.25,40.24 7.33,94.9 19.24,111.93 7.66,10.98 26.27,4.9 26.27,-8.78 0,-67.17 7.48,-99.27 -45.83,-144.06 -2.53,-2.12 -2.71,-2.82 -5.39,-4.61 -23.85,15.98 -51.22,51.91 -51.22,83.7z"/>
  <path class="fil1 str1" d="M1277.37 2812.29c0,17.18 -2.63,33.73 16.24,33.73 19.57,0 12.43,-30.71 13.78,-48.69 1.02,-13.58 13.9,-35.54 22.45,-41.26 3.97,5.93 8.72,11.1 12.45,17.53 21.75,37.47 -6.32,72.42 25.03,72.42 17.1,0 12.49,-26.53 12.49,-46.23 0,-20.12 -13.7,-46.36 -24.67,-57.78 -3.48,-3.62 -4.65,-5.99 -8.07,-9.41l-18.48 -15.26c-29.65,25.77 -51.22,48.74 -51.22,94.95z"/>
  <path class="fil1 str1" d="M3096.32 1929.05l0 187.39c0,18.97 28.73,18.2 28.73,1.25l0 -192.39c0,-15.66 -28.73,-19.13 -28.73,3.75z"/>
  <path class="fil1 str1" d="M3096.32 1573.01l0 187.39c0,18.97 28.73,18.2 28.73,1.25l0 -192.39c0,-15.66 -28.73,-19.13 -28.73,3.75z"/>
  <path class="fil1 str1" d="M3096.32 2285.09l0 187.39c0,7.45 6.37,13.97 14.07,14.44 6.53,0.4 14.66,-5.78 14.66,-13.19l0 -192.38c0,-15.66 -28.73,-19.13 -28.73,3.74z"/>
  <path class="fil1 str1" d="M1081.23 1570.51l0 188.64c0,20.66 28.74,20.66 28.74,0l0 -188.64c0,-18.09 -28.74,-18.6 -28.74,0z"/>
  <path class="fil1 str1" d="M1081.23 1926.55l0 188.64c0,20.66 28.74,20.66 28.74,0l0 -188.64c0,-3.52 -2.21,-7.74 -4.01,-9.73 -7,-7.76 -24.73,-4.52 -24.73,9.73z"/>
  <path class="fil1 str1" d="M1081.23 2282.59l0 188.65c0,20.66 28.74,20.66 28.74,0l0 -188.65c0,-17.84 -28.74,-18.14 -28.74,0z"/>
 </g>
</svg>
