<?xml version="1.0" encoding="UTF-8"?>
<!DOCTYPE svg PUBLIC "-//W3C//DTD SVG 1.1//EN" "http://www.w3.org/Graphics/SVG/1.1/DTD/svg11.dtd">
<!-- Creator: CorelDRAW -->
<svg xmlns="http://www.w3.org/2000/svg" xml:space="preserve" width="42.3332mm" height="33.8666mm" version="1.1" style="shape-rendering:geometricPrecision; text-rendering:geometricPrecision; image-rendering:optimizeQuality; fill-rule:evenodd; clip-rule:evenodd"
viewBox="0 0 4233.32 3386.66"
 xmlns:xlink="http://www.w3.org/1999/xlink"
 xmlns:xodm="http://www.corel.com/coreldraw/odm/2003">
 <defs>
  <style type="text/css">
   <![CDATA[
    .str0 {stroke:#FD5631;stroke-width:7.62;stroke-miterlimit:22.9256}
    .fil0 {fill:#2B2B2A}
    .fil1 {fill:#FD5631}
   ]]>
  </style>
 </defs>
 <g id="Layer_x0020_1">
  <metadata id="CorelCorpID_0Corel-Layer"/>
  <path class="fil0" d="M251.07 3083.12l3762.06 0c8.03,0 14.51,-6.5 14.51,-14.51 0,-8.02 -6.48,-14.52 -14.51,-14.52l-3762.06 0c-8.01,0 -14.51,6.5 -14.51,14.52 0,8.01 6.5,14.51 14.51,14.51z"/>
  <path class="fil0" d="M251.07 2997.97l3762.06 0c8.03,0 14.51,-6.5 14.51,-14.51 0,-8.01 -6.48,-14.51 -14.51,-14.51l-3762.06 0c-8.01,0 -14.51,6.5 -14.51,14.51 0,8.01 6.5,14.51 14.51,14.51z"/>
  <path class="fil0" d="M2132.45 1830.96l612.17 0 0 1150.56c0,8.02 6.5,14.52 14.51,14.52 8.03,0 14.51,-6.5 14.51,-14.52l0 -1165.07c0,-3.83 -1.55,-7.57 -4.24,-10.26 -2.7,-2.71 -6.44,-4.25 -10.27,-4.25l-626.68 -0.01c-8.03,0 -14.51,6.51 -14.51,14.52 0,8.01 6.48,14.51 14.51,14.51z"/>
  <path class="fil0" d="M2759.13 2017.08l512.74 0 55.73 0c8.01,0 14.51,-6.5 14.51,-14.51 0,-8.01 -6.5,-14.51 -14.51,-14.51l-55.73 0 -512.74 0c-8.01,0 -14.51,6.5 -14.51,14.51 0,8.01 6.5,14.51 14.51,14.51z"/>
  <path class="fil0" d="M3342.11 2981.52l0 -1332.27 478.14 0 0 1332.27c0,8.02 6.5,14.52 14.51,14.52 8.03,0 14.52,-6.5 14.52,-14.52l0 -1346.78c0,-3.83 -1.55,-7.57 -4.24,-10.26 -2.71,-2.71 -6.45,-4.26 -10.28,-4.26l-507.16 0c-3.81,0 -7.55,1.55 -10.26,4.26 -2.71,2.69 -4.25,6.43 -4.25,10.26l0 1346.78c0,8.02 6.5,14.52 14.51,14.52 8.03,0 14.51,-6.5 14.51,-14.52z"/>
  <path class="fil0" d="M2416.96 1816.45l0 -237.45c0,-3.83 -1.55,-7.56 -4.24,-10.25 -2.71,-2.71 -6.45,-4.26 -10.28,-4.26l-270.68 0c-8.02,0 -14.52,6.5 -14.52,14.52 0,8.01 6.5,14.51 14.51,14.51l256.18 0 0 222.93c0,8.01 6.5,14.51 14.51,14.51 8.03,0 14.52,-6.5 14.52,-14.51z"/>
  <path class="fil0" d="M3440.5 1634.74l0 -253 283.07 0 0 253c0,8.01 6.5,14.51 14.51,14.51 8.03,0 14.52,-6.5 14.52,-14.51l0 -267.52c0,-3.83 -1.55,-7.56 -4.24,-10.25 -2.71,-2.71 -6.45,-4.26 -10.28,-4.26l-312.1 0c-3.81,0 -7.55,1.55 -10.25,4.26 -2.71,2.69 -4.26,6.42 -4.26,10.25l0 267.52c0,8.01 6.5,14.51 14.51,14.51 8.03,0 14.52,-6.5 14.52,-14.51z"/>
  <path class="fil0" d="M3313.09 1519.09l0 115.65c0,8.01 6.5,14.51 14.51,14.51 8.03,0 14.51,-6.5 14.51,-14.51l0 -115.65c0,-8.01 -6.48,-14.51 -14.51,-14.51 -8.01,0 -14.51,6.5 -14.51,14.51z"/>
  <path class="fil0" d="M3820.25 1519.09l0 115.65c0,8.01 6.5,14.51 14.51,14.51 8.03,0 14.52,-6.5 14.52,-14.51l0 -115.65c0,-8.01 -6.49,-14.51 -14.52,-14.51 -8.01,0 -14.51,6.5 -14.51,14.51z"/>
  <path class="fil0" d="M2132.45 1546.15l33.6 0 26.37 40.73c4.36,6.74 13.33,8.67 20.07,4.32 6.73,-4.36 8.65,-13.36 4.29,-20.07l-30.65 -47.39c-2.67,-4.11 -7.27,-6.62 -12.19,-6.62l-41.49 0c-8.03,0 -14.51,6.5 -14.51,14.51 0,8.01 6.48,14.52 14.51,14.52z"/>
  <path class="fil0" d="M2341.72 1579l0 -63.51 46.21 0 0 83.02c0,8.01 6.5,14.52 14.51,14.52 8.03,0 14.52,-6.51 14.52,-14.52l0 -97.53c0,-3.83 -1.55,-7.57 -4.24,-10.26 -2.71,-2.71 -6.45,-4.25 -10.28,-4.25l-75.24 0c-3.81,0 -7.54,1.55 -10.25,4.25 -2.71,2.69 -4.26,6.43 -4.26,10.26l0 78.02c0,8.02 6.5,14.52 14.51,14.52 8.04,0 14.52,-6.5 14.52,-14.52z"/>
  <path class="fil0" d="M2188.45 1531.63l0 -79.42c0,-3.83 -1.54,-7.56 -4.23,-10.25 -2.71,-2.71 -6.45,-4.26 -10.28,-4.26l-41.49 0c-8.03,0 -14.51,6.5 -14.51,14.51 0,8.02 6.48,14.52 14.51,14.52l26.98 0 0 64.9c0,8.01 6.5,14.52 14.51,14.52 8.03,0 14.51,-6.5 14.51,-14.52z"/>
  <path class="fil0" d="M2759.13 2118.8l568.47 0c8.03,0 14.51,-6.51 14.51,-14.52 0,-8.01 -6.48,-14.51 -14.51,-14.51l-568.47 0c-8.01,0 -14.51,6.5 -14.51,14.51 0,8.01 6.5,14.52 14.51,14.52z"/>
  <path class="fil0" d="M2131.17 2081.81l1.18 -13.42 -1.2 13.42 0.02 0 1.18 -13.42 -1.2 13.42 0.1 0c1.34,0.14 16.06,1.67 37.16,7.46 15.85,4.33 35.25,11.08 55.34,21.36 15.08,7.7 30.52,17.38 45.17,29.49 21.96,18.21 42.16,41.8 57.01,72.82 14.82,31.02 24.38,69.59 24.38,118.14 0,243.44 0,649.75 0,649.75 0,8.01 6.5,14.51 14.51,14.51 8.03,0 14.52,-6.5 14.52,-14.51 0,0 0,-406.31 0,-649.75 0,-31.58 -3.78,-59.81 -10.47,-84.97 -11.71,-44.03 -32.45,-78.53 -56.86,-105.04 -18.3,-19.89 -38.6,-35.32 -58.67,-47.26 -30.13,-17.92 -59.76,-28.06 -81.97,-33.8 -22.22,-5.73 -37.04,-7.05 -37.66,-7.11 -7.99,-0.69 -15.04,5.21 -15.71,13.2 -0.72,7.97 5.2,15.02 13.17,15.71z"/>
  <path class="fil0" d="M2661.02 1816.45l0 1164.38c0,8.01 6.5,14.51 14.51,14.51 8.03,0 14.51,-6.5 14.51,-14.51l0.01 -1164.38c0,-8.01 -6.49,-14.51 -14.52,-14.51 -8.01,-0.01 -14.51,6.5 -14.51,14.51z"/>
  <path class="fil0" d="M2431.28 1816.45l0 1164.38c0,8.01 6.5,14.51 14.51,14.51 8.01,0 14.51,-6.5 14.51,-14.51l0 -1164.38c0,-8.01 -6.5,-14.51 -14.51,-14.51 -8.01,-0.01 -14.51,6.5 -14.51,14.51z"/>
  <path class="fil0" d="M2350.31 1816.45l0 186.12c0,8.01 6.5,14.51 14.51,14.51 8.03,0 14.52,-6.5 14.52,-14.51l0 -186.12c0,-8.01 -6.49,-14.51 -14.52,-14.51 -8.01,-0.01 -14.51,6.5 -14.51,14.51z"/>
  <path class="fil0" d="M2128.25 2136.99l3 -9.93 -3.02 9.93 0.02 0 3 -9.93 -3.02 9.93 0.02 0c0.39,0.11 10.9,3.38 26.26,10.89 23.07,11.26 56.99,32.13 84.72,65.85 13.9,16.86 26.3,36.93 35.26,60.81 8.96,23.88 14.51,51.61 14.51,84.02 0.01,183.92 0,622.27 0,622.27 0.01,8.01 6.51,14.51 14.52,14.51 8.03,0 14.51,-6.5 14.51,-14.51 0,0 0,-438.35 0,-622.27 0.02,-48.22 -11.28,-88.44 -28.37,-121.1 -12.81,-24.52 -28.79,-44.78 -45.49,-61.34 -25.06,-24.87 -51.69,-41.46 -72.13,-51.92 -20.45,-10.45 -34.77,-14.81 -35.41,-15 -7.68,-2.32 -15.77,2.03 -18.07,9.71 -2.32,7.66 2.03,15.77 9.69,18.08z"/>
  <path class="fil0" d="M2402.44 1763.5l289.23 0 0 41.22c0,8.01 6.5,14.52 14.51,14.52 8.04,0 14.52,-6.51 14.52,-14.52l0 -55.73c0,-3.83 -1.55,-7.57 -4.24,-10.26 -2.71,-2.71 -6.44,-4.25 -10.28,-4.25l-303.74 0c-8.01,0 -14.51,6.5 -14.51,14.51 0,8.01 6.5,14.51 14.51,14.51z"/>
  <path class="fil0" d="M2608.07 1748.99l0 55.73c0,8.01 6.5,14.52 14.52,14.52 8.03,0 14.51,-6.51 14.51,-14.52l0 -55.73c0,-8.01 -6.48,-14.51 -14.51,-14.51 -8.02,0 -14.52,6.5 -14.52,14.51z"/>
  <path class="fil0" d="M2445.79 1673.17l-314.03 0c-3.82,0 -7.55,1.55 -10.26,4.26 -2.71,2.69 -4.26,6.42 -4.26,10.25l0 27.87c0,8.01 6.5,14.51 14.51,14.51 8.04,0 14.52,-6.5 14.52,-14.51l0 -13.35 299.52 0c8.01,0 14.51,-6.5 14.51,-14.52 0,-8.01 -6.5,-14.51 -14.51,-14.51z"/>
  <path class="fil0" d="M2159.43 1687.68l0 27.87c0,8.01 6.5,14.51 14.51,14.51 8.03,0 14.51,-6.5 14.51,-14.51l0 -27.87c0,-8.01 -6.48,-14.51 -14.51,-14.51 -8.01,0 -14.51,6.5 -14.51,14.51z"/>
  <path class="fil0" d="M2203.47 1687.68l0 27.87c0,8.01 6.5,14.51 14.51,14.51 8.02,0 14.52,-6.5 14.52,-14.51l0 -27.87c0,-8.01 -6.5,-14.51 -14.52,-14.51 -8.01,0 -14.51,6.5 -14.51,14.51z"/>
  <path class="fil0" d="M2247.52 1687.68l0 27.87c0,8.01 6.48,14.51 14.51,14.51 8.01,0 14.51,-6.5 14.51,-14.51l0 -27.87c0,-8.01 -6.5,-14.51 -14.51,-14.51 -8.03,0 -14.52,6.5 -14.51,14.51z"/>
  <path class="fil0" d="M2291.54 1687.68l0 27.87c0,8.01 6.5,14.51 14.51,14.51 8.02,0 14.52,-6.5 14.52,-14.51l0 -27.87c0,-8.01 -6.51,-14.51 -14.52,-14.51 -8.01,0 -14.51,6.5 -14.51,14.51z"/>
  <path class="fil0" d="M2335.58 1687.68l0 27.87c0,8.01 6.51,14.51 14.52,14.51 8.01,0 14.51,-6.5 14.51,-14.51l0 -27.87c0,-8.01 -6.5,-14.51 -14.51,-14.51 -8.01,0 -14.52,6.5 -14.52,14.51z"/>
  <path class="fil0" d="M2131.76 1771.86l92.18 0 10.63 42c1.95,7.75 9.85,12.48 17.63,10.5 7.76,-1.95 12.48,-9.85 10.51,-17.63l-13.39 -52.94c-1.63,-6.46 -7.4,-10.95 -14.07,-10.95l-103.49 0c-8.02,0 -14.52,6.5 -14.52,14.51 0,8.01 6.5,14.51 14.52,14.51z"/>
  <path class="fil0" d="M2203.47 1626.38l0 56.66c0,8.01 6.5,14.51 14.51,14.51 8.02,0 14.52,-6.5 14.52,-14.51l0 -56.66c0,-8.01 -6.5,-14.52 -14.52,-14.52 -8.01,0 -14.51,6.51 -14.51,14.52z"/>
  <path class="fil0" d="M2312.69 1621.73l0 61.31c0,8.01 6.5,14.51 14.51,14.51 8.04,0 14.52,-6.5 14.52,-14.51l0 -61.31c0,-8.01 -6.49,-14.51 -14.52,-14.51 -8.01,0 -14.51,6.5 -14.51,14.51z"/>
  <path class="fil0" d="M2675.53 1924.02l83.6 0c8.03,0 14.51,-6.5 14.51,-14.51 0,-8.01 -6.48,-14.51 -14.51,-14.51l-83.6 0c-8.01,0 -14.51,6.5 -14.51,14.51 0,8.01 6.5,14.51 14.51,14.51z"/>
  <path class="fil0" d="M2485.34 1874.27l150.48 0c8.03,0 14.52,-6.5 14.52,-14.51 0,-8.02 -6.49,-14.52 -14.52,-14.52l-150.48 0c-8.01,0 -14.51,6.51 -14.51,14.52 0,8.01 6.5,14.51 14.51,14.51z"/>
  <path class="fil0" d="M2478.5 1859.76l0 41.1c0,8.01 6.5,14.51 14.51,14.51 8.03,0 14.51,-6.5 14.51,-14.51l0 -41.1c0,-8.02 -6.48,-14.52 -14.51,-14.52 -8.01,0 -14.52,6.51 -14.51,14.52z"/>
  <path class="fil0" d="M2523.78 1859.76l0 41.1c0,8.01 6.5,14.51 14.51,14.51 8.03,0 14.51,-6.5 14.51,-14.51l0 -41.1c0,-8.02 -6.48,-14.52 -14.51,-14.52 -8.01,0 -14.51,6.51 -14.51,14.52z"/>
  <path class="fil0" d="M2569.06 1859.76l0 41.1c0,8.01 6.5,14.51 14.51,14.51 8.03,0 14.52,-6.5 14.52,-14.51l0 -41.1c0,-8.02 -6.49,-14.52 -14.52,-14.52 -8.01,0 -14.51,6.51 -14.51,14.52z"/>
  <path class="fil0" d="M2614.34 1859.76l0 41.1c0,8.01 6.5,14.51 14.52,14.51 8.03,0 14.51,-6.5 14.51,-14.51l0 -41.1c0,-8.02 -6.48,-14.52 -14.51,-14.52 -8.02,0 -14.52,6.51 -14.52,14.52z"/>
  <path class="fil0" d="M2476.56 2295.32l0 41.1c0,8.01 6.5,14.52 14.51,14.52 8.03,0 14.52,-6.51 14.52,-14.52l0 -41.1c0,-8.01 -6.49,-14.51 -14.52,-14.51 -8.01,0 -14.51,6.5 -14.51,14.51z"/>
  <path class="fil0" d="M2521.84 2295.32l0 41.1c0,8.01 6.5,14.52 14.52,14.52 8.03,0 14.51,-6.51 14.51,-14.52l0 -41.1c0,-8.01 -6.48,-14.51 -14.51,-14.51 -8.02,0 -14.52,6.5 -14.52,14.51z"/>
  <path class="fil0" d="M2567.13 2295.32l0 41.1c0,8.01 6.5,14.52 14.51,14.52 8.03,0 14.51,-6.51 14.51,-14.52l0 -41.1c0,-8.01 -6.48,-14.51 -14.51,-14.51 -8.01,0 -14.52,6.5 -14.51,14.51z"/>
  <path class="fil0" d="M2790.6 2655.3l0 41.1c0,8.01 6.5,14.51 14.51,14.51 8.03,0 14.51,-6.5 14.51,-14.51l0 -41.1c0,-8.01 -6.48,-14.52 -14.51,-14.52 -8.01,0 -14.51,6.51 -14.51,14.52z"/>
  <path class="fil0" d="M2849.12 2655.3l0 41.1c0,8.01 6.5,14.51 14.51,14.51 8.03,0 14.51,-6.5 14.51,-14.51l0 -41.1c0,-8.01 -6.48,-14.52 -14.51,-14.52 -8.01,0 -14.52,6.51 -14.51,14.52z"/>
  <path class="fil0" d="M2907.63 2655.3l0 41.1c0,8.01 6.5,14.51 14.52,14.51 8.03,0 14.51,-6.5 14.51,-14.51l0 -41.1c0,-8.01 -6.48,-14.52 -14.51,-14.52 -8.02,0 -14.52,6.51 -14.52,14.52z"/>
  <path class="fil0" d="M2966.15 2655.3l0 41.1c0,8.01 6.5,14.51 14.52,14.51 8.03,0 14.51,-6.5 14.51,-14.51l0 -41.1c0,-8.01 -6.48,-14.52 -14.51,-14.52 -8.02,0 -14.52,6.51 -14.52,14.52z"/>
  <path class="fil0" d="M3024.67 2655.3l0 41.1c0,8.01 6.5,14.51 14.51,14.51 8.04,0 14.52,-6.5 14.52,-14.51l0 -41.1c0,-8.01 -6.48,-14.52 -14.52,-14.52 -8.01,0 -14.51,6.51 -14.51,14.52z"/>
  <path class="fil0" d="M3083.19 2655.3l0 41.1c0,8.01 6.5,14.51 14.51,14.51 8.03,0 14.52,-6.5 14.52,-14.51l0 -41.1c0,-8.01 -6.49,-14.52 -14.52,-14.52 -8.01,0 -14.51,6.51 -14.51,14.52z"/>
  <path class="fil0" d="M3141.71 2655.3l0 41.1c0,8.01 6.5,14.51 14.51,14.51 8.03,0 14.52,-6.5 14.52,-14.51l0 -41.1c0,-8.01 -6.49,-14.52 -14.52,-14.52 -8.01,0 -14.51,6.51 -14.51,14.52z"/>
  <path class="fil0" d="M3200.23 2655.3l0 41.1c0,8.01 6.5,14.51 14.51,14.51 8.03,0 14.51,-6.5 14.51,-14.51l0.01 -41.1c0,-8.01 -6.49,-14.52 -14.52,-14.52 -8.01,0 -14.51,6.51 -14.51,14.52z"/>
  <path class="fil0" d="M3258.75 2655.3l0 41.1c0,8.01 6.5,14.51 14.51,14.51 8.03,0 14.51,-6.5 14.51,-14.51l0 -41.1c0,-8.01 -6.48,-14.52 -14.51,-14.52 -8.01,0 -14.51,6.51 -14.51,14.52z"/>
  <path class="fil0" d="M2612.41 2295.32l0 41.1c0,8.01 6.5,14.52 14.51,14.52 8.03,0 14.51,-6.51 14.51,-14.52l0 -41.1c0,-8.01 -6.48,-14.51 -14.51,-14.51 -8.01,0 -14.51,6.5 -14.51,14.51z"/>
  <path class="fil1" d="M2493.01 2064.46l53.06 0 0 85.92 -53.06 0 0 14.51 14.51 0c0,0 0,-54.34 0,-114.95 0,-6.23 0.87,-11.61 2.3,-16.37 2.5,-8.3 6.8,-14.9 12.14,-20.49 3.98,-4.16 8.59,-7.68 13.29,-10.61 7.03,-4.37 14.28,-7.31 19.64,-9.09 2.7,-0.89 4.9,-1.49 6.39,-1.86 0.74,-0.19 1.28,-0.31 1.63,-0.39l0.34 -0.07 0.04 0 -0.73 -3.8 0.71 3.8 0.02 0 -0.73 -3.8 0.71 3.8 -1.8 -9.5 1.78 9.5 0.02 0 -1.8 -9.5 1.78 9.5 -2.55 -13.72 2.53 13.72 0.02 0 -2.55 -13.72 2.53 13.72c7.88,-1.46 13.09,-9.04 11.63,-16.92 -1.46,-7.87 -9.03,-13.08 -16.91,-11.61 -0.52,0.1 -5.38,1.01 -12.54,3.41 -5.36,1.8 -12.04,4.43 -19.14,8.22 -5.34,2.87 -10.93,6.37 -16.39,10.74 -8.16,6.52 -16.06,15.02 -21.9,25.91 -5.85,10.86 -9.51,24.08 -9.49,39.13 0.01,60.61 0,114.95 0,114.95 0.01,3.81 1.55,7.57 4.26,10.26 2.71,2.71 6.45,4.26 10.26,4.26l67.57 0c3.83,0 7.57,-1.55 10.28,-4.26 2.69,-2.69 4.24,-6.45 4.24,-10.26l0 -114.95c0,-3.83 -1.55,-7.56 -4.24,-10.25 -2.71,-2.71 -6.45,-4.26 -10.28,-4.26l-67.57 0c-8.01,0 -14.52,6.5 -14.52,14.51 0.01,8.01 6.51,14.52 14.52,14.52z"/>
  <path class="fil1" d="M2519.48 2118.8l34.83 0c8.03,0 14.52,-6.51 14.52,-14.52 0,-8.01 -6.49,-14.51 -14.52,-14.51l-34.83 0c-8.01,0 -14.51,6.5 -14.51,14.51 0,8.01 6.5,14.52 14.51,14.52z"/>
  <path class="fil1" d="M2628.24 2035.43l-67.58 0c-3.81,0 -7.57,1.55 -10.26,4.26 -2.7,2.69 -4.25,6.42 -4.25,10.25l0 114.95c0,3.81 1.55,7.57 4.25,10.26 2.71,2.71 6.45,4.26 10.26,4.26l67.58 0c3.83,0 7.56,-1.55 10.25,-4.26 2.71,-2.69 4.26,-6.45 4.26,-10.26 0,0 0,-54.34 0,-114.95 0,-8.92 -1.26,-17.2 -3.52,-24.73 -3.95,-13.18 -10.99,-23.92 -18.99,-32.22 -5.99,-6.25 -12.54,-11.22 -18.92,-15.19 -9.6,-5.92 -18.85,-9.65 -25.82,-11.98 -6.98,-2.3 -11.69,-3.21 -12.19,-3.31 -7.87,-1.45 -15.46,3.76 -16.91,11.63 -1.47,7.88 3.73,15.47 11.61,16.92l0.08 -0.35 -0.08 0.35 0.08 -0.35 -0.08 0.35c0.46,0.09 4.53,0.95 10.2,2.96 4.26,1.51 9.4,3.66 14.61,6.58 3.91,2.18 7.84,4.8 11.49,7.83 5.48,4.59 10.28,10.09 13.72,16.74 3.45,6.7 5.67,14.6 5.69,24.77 0,60.61 0,114.95 0,114.95l14.52 0 0 -14.51 -53.06 0 0 -85.92 53.06 0c8.01,0 14.51,-6.5 14.51,-14.52 0,-8.01 -6.5,-14.51 -14.51,-14.51z"/>
  <path class="fil1" d="M2601.76 2089.77l-34.83 0c-8.01,0 -14.51,6.5 -14.51,14.51 0,8.01 6.5,14.52 14.51,14.52l34.83 0c8.02,0 14.52,-6.51 14.52,-14.52 0,-8.01 -6.51,-14.51 -14.52,-14.51z"/>
  <path class="fil0" d="M2675.53 2267.18l83.6 0c8.03,0 14.51,-6.5 14.51,-14.51 0,-8.01 -6.48,-14.51 -14.51,-14.51l-83.6 0c-8.01,0 -14.51,6.5 -14.51,14.51 0,8.01 6.5,14.51 14.51,14.51z"/>
  <path class="fil0" d="M2445.79 2304.8l229.74 0c8.03,0 14.51,-6.5 14.51,-14.51 0.01,-8.01 -6.48,-14.51 -14.51,-14.51l-229.74 0c-8.01,0 -14.51,6.5 -14.51,14.51 0,8.01 6.5,14.51 14.51,14.51z"/>
  <path class="fil0" d="M2364.82 2267.18l80.97 0c8.01,0 14.51,-6.5 14.51,-14.51 0,-8.01 -6.5,-14.51 -14.51,-14.51l-80.97 0c-8.01,0 -14.51,6.5 -14.51,14.51 0,8.01 6.5,14.51 14.51,14.51z"/>
  <path class="fil1" d="M2614.34 2398.99l0 581.84c0,8.01 6.5,14.51 14.52,14.51 8.03,0 14.51,-6.5 14.51,-14.51l0 -581.84c0,-8.02 -6.48,-14.52 -14.51,-14.52 -8.02,0 -14.52,6.51 -14.52,14.52z"/>
  <path class="fil1" d="M2478.5 2398.99l0 581.84c0,8.01 6.5,14.51 14.51,14.51 8.03,0 14.51,-6.5 14.51,-14.51l0 -581.84c0,-8.02 -6.48,-14.52 -14.51,-14.52 -8.01,0 -14.52,6.51 -14.51,14.52z"/>
  <path class="fil1" d="M2493.01 2676.82l119.4 0 0 46.21 -119.4 0c-3.81,0 -7.55,1.55 -10.26,4.25 -2.71,2.69 -4.26,6.43 -4.26,10.26l0.01 108.14c0,3.81 1.54,7.56 4.25,10.25 2.71,2.71 6.45,4.26 10.26,4.26l135.85 0c8.01,0 14.51,-6.5 14.51,-14.51 0,-8.01 -6.5,-14.52 -14.51,-14.52l-121.34 0 0 -79.11 119.4 0c3.83,0 7.57,-1.54 10.28,-4.25 2.69,-2.69 4.23,-6.45 4.23,-10.26l0 -75.24c0,-3.83 -1.54,-7.56 -4.23,-10.25 -2.71,-2.71 -6.45,-4.26 -10.28,-4.26l-133.91 0c-8.01,0 -14.52,6.5 -14.52,14.51 0.01,8.01 6.51,14.52 14.52,14.52z"/>
  <path class="fil1" d="M2575.45 2845.68l0 -170.84c0,-8.01 -6.49,-14.51 -14.52,-14.51 -8.01,0 -14.51,6.5 -14.51,14.51l0 170.84c0,8.01 6.5,14.51 14.51,14.51 8.03,0 14.51,-6.5 14.52,-14.51z"/>
  <path class="fil0" d="M2911.81 2002.57l0 101.71c0,8.01 6.5,14.52 14.52,14.52 8.03,0 14.51,-6.51 14.51,-14.52l0 -101.71c0,-8.01 -6.48,-14.51 -14.51,-14.51 -8.02,0 -14.52,6.5 -14.52,14.51z"/>
  <path class="fil0" d="M3112.45 2002.57l0 101.71c0,8.01 6.5,14.52 14.51,14.52 8.03,0 14.52,-6.51 14.52,-14.52l0 -101.71c0,-8.01 -6.49,-14.51 -14.52,-14.51 -8.01,0 -14.51,6.5 -14.51,14.51z"/>
  <path class="fil0" d="M2934.69 2551.53l0 -14.51 -64.91 0 0 -309.55 50.39 0 0 324.06 14.52 0 0 -14.51 0 14.51 14.51 0 0 -338.57c0,-3.83 -1.55,-7.57 -4.24,-10.26 -2.71,-2.71 -6.44,-4.25 -10.27,-4.25l-79.42 0c-3.81,0 -7.55,1.55 -10.26,4.25 -2.71,2.69 -4.26,6.43 -4.26,10.26l0.01 338.57c0,3.82 1.54,7.57 4.25,10.26 2.71,2.71 6.45,4.26 10.26,4.26l79.42 0c3.83,0 7.56,-1.55 10.27,-4.26 2.69,-2.69 4.24,-6.44 4.24,-10.26l-14.51 0z"/>
  <path class="fil0" d="M2855.27 2330.39l71.06 0c8.03,0 14.51,-6.51 14.51,-14.52 0,-8.01 -6.48,-14.51 -14.51,-14.51l-71.06 0c-8.01,0 -14.52,6.5 -14.52,14.51 0.01,8.01 6.51,14.52 14.52,14.52z"/>
  <path class="fil0" d="M3083.07 2551.53l0 -14.51 -64.9 0 0 -309.55 50.39 0 0 324.06 14.51 0 0 -14.51 0 14.51 14.52 0 0 -338.57c0,-3.83 -1.55,-7.57 -4.24,-10.26 -2.71,-2.71 -6.44,-4.25 -10.28,-4.25l-79.42 0c-3.81,0 -7.54,1.55 -10.25,4.25 -2.71,2.69 -4.26,6.43 -4.26,10.26l0 338.57c0,3.82 1.55,7.57 4.26,10.26 2.71,2.71 6.44,4.26 10.25,4.26l79.42 0c3.84,0 7.57,-1.55 10.28,-4.26 2.69,-2.69 4.24,-6.44 4.24,-10.26l-14.52 0z"/>
  <path class="fil0" d="M3003.65 2330.39l71.06 0c8.03,0 14.52,-6.51 14.52,-14.52 0,-8.01 -6.49,-14.51 -14.52,-14.51l-71.06 0c-8.01,0 -14.51,6.5 -14.51,14.51 0,8.01 6.5,14.52 14.51,14.52z"/>
  <path class="fil0" d="M3231.46 2551.53l0 -14.51 -64.9 0 0 -309.55 50.39 0 0 324.06 14.51 0 0 -14.51 0 14.51 14.52 0 0 -338.57c0,-3.83 -1.55,-7.57 -4.24,-10.26 -2.71,-2.71 -6.45,-4.25 -10.28,-4.25l-79.42 0c-3.81,0 -7.54,1.55 -10.25,4.25 -2.71,2.69 -4.26,6.43 -4.26,10.26l0 338.57c0,3.82 1.55,7.57 4.26,10.26 2.71,2.71 6.44,4.26 10.25,4.26l79.42 0c3.83,0 7.57,-1.55 10.28,-4.26 2.69,-2.69 4.23,-6.44 4.23,-10.26l-14.51 0z"/>
  <path class="fil0" d="M3152.04 2330.39l71.06 0c8.03,0 14.51,-6.51 14.51,-14.52 0.01,-8.01 -6.48,-14.51 -14.51,-14.51l-71.06 0c-8.01,0 -14.51,6.5 -14.51,14.51 0,8.01 6.5,14.52 14.51,14.52z"/>
  <path class="fil0" d="M2759.13 2658.01l568.47 0c8.03,0 14.51,-6.51 14.51,-14.52 0,-8.01 -6.48,-14.51 -14.51,-14.51l-568.47 0c-8.01,0 -14.51,6.5 -14.51,14.51 0,8.01 6.5,14.52 14.51,14.52z"/>
  <path class="fil0" d="M2805.11 2948.51l468.15 0c8.03,0 14.51,-6.5 14.51,-14.51 0,-8.01 -6.48,-14.52 -14.51,-14.52l-468.15 0c-8.01,0 -14.51,6.51 -14.51,14.52 0,8.01 6.5,14.51 14.51,14.51z"/>
  <path class="fil0" d="M3327.6 1702.2l507.16 0c8.03,0 14.52,-6.5 14.52,-14.52 0,-8.01 -6.49,-14.51 -14.52,-14.51l-507.16 0c-8.01,0 -14.51,6.5 -14.51,14.51 0,8.01 6.5,14.52 14.51,14.52z"/>
  <path class="fil0" d="M3327.6 2095.11l507.16 0c8.03,0 14.52,-6.5 14.52,-14.51 0,-8.02 -6.49,-14.52 -14.52,-14.52l-507.16 0c-8.01,0 -14.51,6.51 -14.51,14.52 0,8.01 6.5,14.51 14.51,14.51z"/>
  <path class="fil0" d="M3327.6 2152.24l507.16 0c8.03,0 14.52,-6.51 14.52,-14.52 0,-8.01 -6.49,-14.51 -14.52,-14.51l-507.16 0c-8.01,0 -14.51,6.5 -14.51,14.51 0,8.01 6.5,14.52 14.51,14.52z"/>
  <path class="fil0" d="M3327.6 2566.05l507.16 0c8.03,0 14.52,-6.5 14.52,-14.52 0,-8.01 -6.49,-14.51 -14.52,-14.51l-507.16 0c-8.01,0 -14.51,6.5 -14.51,14.51 0,8.02 6.5,14.52 14.51,14.52z"/>
  <path class="fil0" d="M3327.6 2623.17l507.16 0c8.03,0 14.52,-6.5 14.52,-14.51 0,-8.01 -6.49,-14.51 -14.52,-14.51l-507.16 0c-8.01,0 -14.51,6.5 -14.51,14.51 0,8.01 6.5,14.51 14.51,14.51z"/>
  <path class="fil0" d="M3327.6 1863.82l507.16 0c8.03,0 14.52,-6.5 14.52,-14.51 0,-8.02 -6.49,-14.52 -14.52,-14.52l-507.16 0c-8.01,0 -14.51,6.51 -14.51,14.52 0,8.01 6.5,14.51 14.51,14.51z"/>
  <path class="fil0" d="M3438.58 1856.54l-0.15 -0.09 0.15 0.09 -0.15 -0.09 0.15 0.09c0.41,-0.75 14.59,-24.77 39.57,-47.93 12.47,-11.61 27.6,-22.97 44.86,-31.33 17.3,-8.36 36.65,-13.78 58.17,-13.78 21.89,0.02 40.48,5.56 56.6,14.01 12.08,6.33 22.68,14.36 31.8,22.88 13.68,12.79 23.96,26.7 30.71,37.35 3.37,5.32 5.86,9.81 7.49,12.9 0.81,1.55 1.41,2.75 1.78,3.54 0.19,0.39 0.33,0.68 0.41,0.86l0.07 0.17 0.51 -0.23 -0.51 0.23 0.51 -0.23 -0.51 0.23c3.26,7.31 11.83,10.62 19.16,7.35 7.32,-3.25 10.62,-11.82 7.37,-19.15 -0.21,-0.45 -3.25,-7.24 -9.34,-17.3 -9.17,-15.08 -25.16,-37.55 -49.18,-56.72 -11.99,-9.58 -26.06,-18.31 -42.24,-24.66 -16.16,-6.35 -34.47,-10.25 -54.63,-10.25 -26.88,-0.02 -51.05,6.94 -71.79,17.16 -31.16,15.35 -54.85,37.83 -70.98,56.41 -16.12,18.62 -24.68,33.44 -25.01,34.02 -3.98,6.95 -1.6,15.83 5.34,19.82 6.97,4 15.83,1.6 19.84,-5.35z"/>
  <path class="fil1" d="M3624.37 1959.38l-14.51 0c0,4 -0.79,7.74 -2.25,11.15 -2.16,5.14 -5.82,9.54 -10.41,12.63 -4.58,3.1 -10.02,4.9 -16.02,4.9 -3.99,0 -7.72,-0.81 -11.15,-2.25 -5.12,-2.16 -9.54,-5.82 -12.63,-10.41 -3.1,-4.59 -4.88,-10.04 -4.9,-16.02 0,-4.01 0.81,-7.74 2.27,-11.17 2.15,-5.13 5.8,-9.54 10.39,-12.61 4.6,-3.1 10.04,-4.9 16.02,-4.9 4.01,0 7.74,0.79 11.17,2.24 5.13,2.17 9.54,5.83 12.63,10.42 3.1,4.58 4.88,10.02 4.88,16.02l14.51 0 14.52 0c0,-7.94 -1.61,-15.56 -4.53,-22.47 -4.39,-10.37 -11.69,-19.16 -20.9,-25.37 -9.19,-6.23 -20.38,-9.87 -32.28,-9.87 -7.91,0 -15.54,1.61 -22.47,4.55 -10.37,4.39 -19.15,11.69 -25.37,20.88 -6.21,9.19 -9.87,20.38 -9.87,32.28 0.01,7.91 1.63,15.56 4.55,22.47 4.4,10.37 11.69,19.15 20.9,25.37 9.2,6.23 20.36,9.86 32.26,9.86 7.94,0 15.56,-1.62 22.47,-4.54 10.37,-4.4 19.16,-11.69 25.39,-20.88 6.21,-9.2 9.87,-20.38 9.85,-32.28l-14.52 0z"/>
  <path class="fil0" d="M3675.23 2290.29l0 -14.51 -173.58 0 0 -37.86 159.07 0 0 52.37 14.51 0 0 -14.51 0 14.51 14.51 0 0 -66.88c0,-3.83 -1.54,-7.57 -4.24,-10.26 -2.7,-2.71 -6.44,-4.25 -10.27,-4.25l-188.1 0c-3.81,0 -7.54,1.55 -10.25,4.25 -2.71,2.69 -4.26,6.43 -4.26,10.26l0 66.88c0,3.81 1.55,7.57 4.26,10.26 2.71,2.7 6.44,4.25 10.25,4.25l188.1 0c3.83,0 7.57,-1.55 10.27,-4.25 2.7,-2.69 4.24,-6.45 4.24,-10.26l-14.51 0z"/>
  <path class="fil0" d="M3644.92 2463.83l0 -14.51 -112.97 0 0 -144.52 98.46 0 0 159.03 14.51 0 0 -14.51 0 14.51 14.52 0 0 -173.54c0,-3.83 -1.55,-7.57 -4.24,-10.26 -2.71,-2.71 -6.44,-4.25 -10.28,-4.25l-127.48 0c-3.81,0 -7.55,1.54 -10.26,4.25 -2.71,2.69 -4.26,6.43 -4.26,10.26l0.01 173.54c0,3.82 1.54,7.57 4.25,10.26 2.71,2.71 6.44,4.26 10.26,4.26l127.48 0c3.84,0 7.57,-1.55 10.28,-4.26 2.69,-2.69 4.24,-6.44 4.24,-10.26l-14.52 0z"/>
  <path class="fil0" d="M3443.24 2478.35l275.88 0c8.03,0 14.51,-6.5 14.51,-14.52 0,-8.01 -6.48,-14.51 -14.51,-14.51l-275.88 0c-8.01,0 -14.51,6.5 -14.51,14.51 0,8.01 6.5,14.52 14.51,14.52z"/>
  <path class="fil0" d="M3675.23 2742.73l0 -14.52 -173.58 0 0 -37.85 159.07 0 0 52.37 14.51 0 0 -14.52 0 14.52 14.51 0 0 -66.88c0,-3.83 -1.54,-7.57 -4.24,-10.26 -2.7,-2.71 -6.44,-4.26 -10.27,-4.26l-188.1 0c-3.81,0 -7.54,1.55 -10.25,4.26 -2.71,2.69 -4.26,6.43 -4.26,10.26l0 66.88c0,3.81 1.55,7.56 4.26,10.25 2.71,2.71 6.44,4.26 10.25,4.26l188.1 0c3.83,0 7.57,-1.55 10.27,-4.26 2.7,-2.69 4.24,-6.44 4.24,-10.25l-14.51 0z"/>
  <path class="fil0" d="M3644.92 2916.27l0 -14.51 -112.97 0 0 -144.52 98.46 0 0 159.03 14.51 0 0 -14.51 0 14.51 14.52 0 0 -173.54c0,-3.83 -1.55,-7.57 -4.24,-10.26 -2.71,-2.71 -6.44,-4.26 -10.28,-4.26l-127.48 0c-3.81,0 -7.55,1.55 -10.26,4.26 -2.71,2.69 -4.26,6.43 -4.26,10.26l0.01 173.54c0,3.81 1.54,7.57 4.25,10.26 2.71,2.71 6.44,4.26 10.26,4.26l127.48 -0.01c3.84,0 7.57,-1.54 10.28,-4.25 2.69,-2.69 4.24,-6.45 4.24,-10.26l-14.52 0z"/>
  <path class="fil0" d="M3443.24 2930.78l275.88 0c8.03,0 14.51,-6.5 14.51,-14.51 0,-8.01 -6.48,-14.51 -14.51,-14.51l-275.88 0c-8.01,0 -14.51,6.5 -14.51,14.51 0,8.01 6.5,14.52 14.51,14.51z"/>
  <path class="fil0" d="M3425.98 1422.84l312.1 0c8.03,0 14.52,-6.5 14.52,-14.51 0,-8.02 -6.49,-14.52 -14.52,-14.52l-312.1 0c-8.01,0 -14.51,6.5 -14.51,14.52 0,8.01 6.5,14.51 14.51,14.51z"/>
  <path class="fil0" d="M3486.32 1634.74l0 -103.11 -3.19 0 3.19 0.04 0 -0.04 -3.19 0 3.19 0.04c0,-0.04 0.08,-3.93 1.57,-9.44 1.12,-4.16 3.02,-9.23 6.23,-14.46 2.42,-3.93 5.57,-7.95 9.75,-11.86 6.27,-5.83 14.9,-11.46 27.35,-15.73 12.42,-4.28 28.71,-7.18 49.96,-7.18 8.01,0 14.51,-6.5 14.51,-14.52 0.01,-8.01 -6.5,-14.51 -14.51,-14.51 -28.74,0 -51.22,4.72 -68.75,12.39 -13.14,5.74 -23.44,13.16 -31.24,21.13 -5.84,5.98 -10.29,12.23 -13.64,18.25 -5.01,9.03 -7.55,17.47 -8.86,23.9 -1.3,6.42 -1.4,10.83 -1.4,11.99l0 103.11c0,8.01 6.5,14.51 14.52,14.51 8.03,0 14.51,-6.5 14.51,-14.51z"/>
  <path class="fil0" d="M3705.92 1634.74l0 -103.11c0,-1.37 -0.12,-7.33 -2.24,-15.77 -1.61,-6.33 -4.38,-14.05 -9.16,-22.14 -3.6,-6.05 -8.32,-12.3 -14.49,-18.21 -9.23,-8.86 -21.68,-16.87 -37.81,-22.52 -16.14,-5.67 -35.92,-9.02 -60.19,-9.02 -8.01,0 -14.51,6.5 -14.51,14.51 0,8.02 6.5,14.52 14.51,14.52 25.6,0 43.97,4.2 57.13,9.95 9.89,4.33 16.91,9.54 22.14,14.86 3.91,3.98 6.81,8.09 9.01,12.03 3.28,5.91 4.96,11.5 5.79,15.58 0.41,2.03 0.62,3.68 0.72,4.78 0.04,0.54 0.05,0.95 0.07,1.2l0 0.23 0 0.04 3.74 -0.04 -3.74 0 0 0.04 3.74 -0.04 -3.74 0 0 103.11c0,8.01 6.51,14.51 14.52,14.51 8.03,0 14.51,-6.5 14.51,-14.51z"/>
  <path class="fil0" d="M3503.97 1513.52l0 121.22c0,8.01 6.5,14.51 14.51,14.51 8.03,0 14.52,-6.5 14.52,-14.51l0 -121.22c0,-8.01 -6.49,-14.51 -14.52,-14.51 -8.01,0 -14.51,6.5 -14.51,14.51z"/>
  <path class="fil0" d="M3631.61 1513.52l0 121.22c0,8.01 6.5,14.51 14.51,14.51 8.04,0 14.52,-6.5 14.52,-14.51l0 -121.22c0,-8.01 -6.48,-14.51 -14.52,-14.51 -8.01,0 -14.51,6.5 -14.51,14.51z"/>
  <path class="fil0" d="M3570.98 1048.99c-0.06,0.05 -21.05,20.82 -46.91,47.76 -12.92,13.48 -27.05,28.5 -40.4,43.29 -13.37,14.8 -25.93,29.31 -35.84,41.99 -25.35,32.47 -37.91,68.16 -37.93,101.38 0,20.13 4.65,39.36 13.93,56.08 9.28,16.72 23.23,30.81 41.05,40.49 7.04,3.83 15.87,1.21 19.68,-5.83 3.83,-7.04 1.22,-15.85 -5.83,-19.68 -13.06,-7.14 -22.81,-17.03 -29.53,-29.08 -6.67,-12.04 -10.27,-26.3 -10.27,-41.98 -0.02,-25.85 9.89,-55.5 31.77,-83.5 9.2,-11.79 21.43,-25.93 34.51,-40.41 19.62,-21.73 41.22,-44.25 57.86,-61.28 8.32,-8.54 15.42,-15.7 20.41,-20.71 2.52,-2.52 4.49,-4.49 5.85,-5.84 0.68,-0.68 1.2,-1.18 1.55,-1.53 0.35,-0.35 0.52,-0.52 0.52,-0.52 5.69,-5.63 5.75,-14.83 0.11,-20.52 -5.65,-5.71 -14.82,-5.76 -20.53,-0.11l0 0z"/>
  <path class="fil0" d="M3568.68 1086.55l0 -84.34 24.09 -26.49c2.42,-2.67 3.78,-6.17 3.78,-9.77l0 -50.16c0,-8.01 -6.49,-14.51 -14.52,-14.51 -8.01,0 -14.51,6.5 -14.51,14.51l0 44.55 -24.09 26.49c-2.42,2.67 -3.78,6.17 -3.78,9.77l0 89.95c0,8.01 6.5,14.51 14.52,14.51 8.03,0 14.51,-6.5 14.51,-14.51l0 0z"/>
  <path class="fil0" d="M3587.07 1069.61l0.23 0.24c2.42,2.4 23.51,23.34 48.55,49.52 12.52,13.08 26.01,27.48 38.62,41.49 12.62,13.99 24.37,27.63 33.29,39.05 21.89,28 31.79,57.65 31.77,83.5 0,15.68 -3.6,29.94 -10.27,41.98 -6.71,12.05 -16.47,21.94 -29.55,29.08 -7.02,3.83 -9.64,12.64 -5.81,19.68 3.82,7.04 12.64,9.66 19.68,5.83 17.83,-9.68 31.78,-23.77 41.05,-40.49 9.29,-16.72 13.93,-35.95 13.93,-56.08 -0.02,-33.23 -12.58,-68.91 -37.93,-101.38 -9.9,-12.68 -22.46,-27.19 -35.84,-41.99 -20.02,-22.18 -41.81,-44.9 -58.63,-62.1 -16.82,-17.23 -28.64,-28.91 -28.68,-28.95 -5.71,-5.65 -14.9,-5.59 -20.53,0.11 -5.63,5.69 -5.58,14.89 0.12,20.51z"/>
  <path class="fil0" d="M3638.81 1086.55l0 -89.95c0,-3.6 -1.37,-7.1 -3.77,-9.77l-24.1 -26.49 0 -44.55c0,-8.01 -6.5,-14.51 -14.51,-14.51 -8.03,0 -14.51,6.5 -14.51,14.51l0 50.16c0,3.6 1.35,7.1 3.77,9.77l24.09 26.49 0 84.34c0,8.01 6.49,14.51 14.52,14.51 8.01,0 14.51,-6.5 14.51,-14.51l0 0z"/>
  <path class="fil0" d="M2506.73 1750.29l0 -171.01 187.42 0 0 171.01c0,8.01 6.5,14.51 14.51,14.51 8.01,0 14.51,-6.5 14.51,-14.51l0.01 -185.53c0,-3.83 -1.55,-7.56 -4.26,-10.27 -2.69,-2.69 -6.45,-4.24 -10.26,-4.24l-216.44 0c-3.84,0 -7.57,1.55 -10.28,4.24 -2.69,2.71 -4.24,6.44 -4.24,10.27l0 185.53c0,8.01 6.48,14.51 14.51,14.51 8.02,0 14.52,-6.5 14.52,-14.51l0 0z"/>
  <path class="fil0" d="M2552.8 1750.29l0 -71.51 -4.62 0 4.62 0.04 0 -0.04 -4.62 0 4.62 0.04 0 -0.08c0.02,-0.54 0.16,-3.36 1.09,-7.04 0.68,-2.77 1.78,-6 3.48,-9.19 1.28,-2.38 2.88,-4.74 4.94,-6.99 3.07,-3.33 7.1,-6.4 13,-8.82 5.92,-2.4 13.84,-4.12 24.6,-4.14 8.01,0 14.51,-6.51 14.51,-14.52 0,-8.01 -6.5,-14.51 -14.51,-14.51 -8.63,0 -16.45,0.87 -23.5,2.51 -12.34,2.83 -22.35,8.07 -29.91,14.5 -5.69,4.82 -9.99,10.22 -13.16,15.52 -4.78,7.99 -7.11,15.71 -8.31,21.61 -1.18,5.93 -1.25,10.07 -1.25,11.11l0 71.51c0,8.01 6.5,14.51 14.51,14.51 8.03,0 14.51,-6.5 14.51,-14.51z"/>
  <path class="fil0" d="M2676.5 1750.29l0 -71.51c0,-1.06 -0.08,-5.32 -1.32,-11.4 -0.94,-4.54 -2.55,-10.12 -5.4,-16.06 -2.14,-4.45 -5.01,-9.09 -8.8,-13.58 -5.67,-6.72 -13.53,-12.97 -23.67,-17.32 -10.12,-4.4 -22.39,-6.89 -36.94,-6.89 -8.01,0 -14.51,6.5 -14.51,14.51 0,8.03 6.5,14.52 14.51,14.52 6.68,0 12.29,0.67 16.97,1.76 8.21,1.91 13.64,4.97 17.69,8.38 3.02,2.55 5.26,5.38 7.02,8.3 2.62,4.33 4.03,8.94 4.72,12.42 0.37,1.72 0.53,3.18 0.62,4.14 0.04,0.49 0.06,0.84 0.06,1.05l0.02 0.21 4.84 -0.04 -4.84 0 0 0.04 4.84 -0.04 -4.84 0 0 71.51c0,8.01 6.48,14.51 14.51,14.51 8.02,0 14.52,-6.5 14.52,-14.51z"/>
  <path class="fil0" d="M2589.63 1340.89c-0.06,0.05 -14.65,14.47 -32.61,33.2 -8.98,9.39 -18.81,19.84 -28.12,30.13 -9.3,10.3 -18.07,20.44 -25.06,29.36 -18.11,23.2 -27.22,48.86 -27.24,73.05 0,14.63 3.38,28.74 10.22,41.05 6.83,12.3 17.14,22.73 30.24,29.84 7.05,3.81 15.85,1.21 19.68,-5.83 3.83,-7.04 1.22,-15.87 -5.82,-19.68 -8.34,-4.57 -14.46,-10.8 -18.72,-18.42 -4.23,-7.63 -6.58,-16.76 -6.58,-26.96 -0.01,-16.8 6.45,-36.44 21.12,-55.17 6.25,-8.03 14.69,-17.78 23.7,-27.79 13.55,-15 28.49,-30.57 40.02,-42.38 5.75,-5.9 10.66,-10.85 14.13,-14.32 1.74,-1.74 3.09,-3.11 4.04,-4.04 0.47,-0.47 0.82,-0.82 1.07,-1.05 0.23,-0.25 0.35,-0.37 0.35,-0.37 5.71,-5.63 5.74,-14.82 0.11,-20.51 -5.63,-5.71 -14.82,-5.77 -20.51,-0.11l-0.02 0z"/>
  <path class="fil0" d="M2595.63 1370.11l0 -56.78 15.54 -17.11c2.42,-2.67 3.77,-6.17 3.77,-9.77l0 -34.78c0,-8.01 -6.48,-14.51 -14.51,-14.51 -8.01,0 -14.52,6.5 -14.52,14.52l0.01 29.16 -15.54 17.1c-2.42,2.67 -3.78,6.18 -3.78,9.78l0 62.39c0,8.01 6.48,14.51 14.52,14.51 8.01,0 14.51,-6.5 14.51,-14.51z"/>
  <path class="fil0" d="M2600.8 1361.51l0.15 0.16c1.67,1.64 16.26,16.16 33.59,34.27 8.66,9.04 17.98,19 26.71,28.68 8.69,9.65 16.8,19.06 22.87,26.84 14.65,18.73 21.12,38.37 21.1,55.17 0,10.2 -2.35,19.33 -6.58,26.96 -4.26,7.62 -10.38,13.85 -18.72,18.42 -7.04,3.81 -9.65,12.64 -5.82,19.68 3.83,7.04 12.64,9.64 19.68,5.83 13.1,-7.11 23.41,-17.54 30.25,-29.84 6.83,-12.31 10.21,-26.42 10.21,-41.05 -0.02,-24.17 -9.13,-49.85 -27.24,-73.05 -6.99,-8.92 -15.76,-19.06 -25.06,-29.36 -13.95,-15.44 -29.11,-31.25 -40.8,-43.21 -11.66,-11.96 -19.89,-20.09 -19.93,-20.12 -5.71,-5.66 -14.9,-5.6 -20.53,0.11 -5.63,5.69 -5.59,14.88 0.12,20.51l0 0z"/>
  <path class="fil0" d="M2644.24 1370.11l0 -62.39c0,-3.6 -1.36,-7.11 -3.77,-9.78l-15.54 -17.1 0 -29.17c0,-8.01 -6.51,-14.51 -14.52,-14.51 -8.01,0 -14.51,6.5 -14.51,14.52l0 34.77c0,3.6 1.35,7.1 3.77,9.77l15.54 17.11 0 56.78c0,8.01 6.5,14.51 14.52,14.51 8.03,0 14.51,-6.5 14.51,-14.51z"/>
  <path class="fil0" d="M2130.03 906.52l0.41 -3.44 -0.41 3.44 0.41 -3.44 -0.41 3.44c0.27,0.02 24.29,2.96 59.99,12.12 26.76,6.87 60.11,17.24 94.9,32.43 26.09,11.4 52.99,25.5 78.57,42.82 38.39,25.99 73.75,59.14 99.45,101.27 12.86,21.05 23.33,44.37 30.63,70.34 7.29,25.95 11.4,54.54 11.4,86.18l14.51 -0.01 6.46 -13c-1.74,-0.85 -22.42,-10.74 -81.5,-20.53 -59.08,-9.75 -156.6,-19.39 -311.99,-19.39 -8.03,0 -14.51,6.5 -14.51,14.51 0,8.01 6.48,14.52 14.51,14.52 154.19,0 250.22,9.58 307.24,19 28.53,4.72 47.3,9.4 58.72,12.81 5.71,1.68 9.58,3.08 11.92,3.97 1.18,0.46 1.95,0.79 2.4,0.98 0.21,0.1 0.35,0.16 0.4,0.18l0.02 0 1.15 -2.42 -1.17 2.42 0.02 0 1.15 -2.42 -1.17 2.42 3.84 -7.92 -3.87 7.9 0.03 0.02 3.84 -7.92 -3.87 7.9 4.78 -9.78 -4.8 9.78 0.02 0 4.78 -9.78 -4.8 9.78 5.92 -12.04 -5.96 12.02 0.04 0.02 5.92 -12.04 -5.96 12.02c4.53,2.24 9.81,1.99 14.1,-0.68 4.28,-2.65 6.85,-7.29 6.85,-12.32 0.02,-40.64 -6.29,-77.26 -17.41,-110.02 -9.73,-28.66 -23.15,-54.38 -39.09,-77.31 -27.91,-40.15 -63.51,-71.79 -100.98,-96.68 -56.23,-37.33 -116.73,-59.66 -163.27,-72.84 -46.56,-13.14 -79.2,-17.06 -79.74,-17.14 -7.98,-0.95 -15.2,4.72 -16.14,12.69 -0.97,7.96 4.72,15.17 12.67,16.14z"/>
  <path class="fil0" d="M2519.48 1266.19l4.3 0 0 44.7 14.51 0 5.94 -13.26c-1.41,-0.61 -25.62,-11.2 -88.9,-21.67 -63.28,-10.45 -165.69,-20.78 -323.58,-20.78 -3.81,0 -7.54,1.55 -10.25,4.26 -2.71,2.68 -4.26,6.42 -4.26,10.25l0 125.4c0,8.01 6.5,14.51 14.51,14.51 8.04,0 14.52,-6.5 14.52,-14.51l0 -125.4 -14.51 0 0 14.51c156.63,0 257.49,10.26 318.85,20.4 30.67,5.07 51.45,10.1 64.42,13.8 6.46,1.86 10.97,3.37 13.78,4.37 1.41,0.51 2.38,0.89 2.96,1.13 0.29,0.11 0.48,0.19 0.58,0.23l0.08 0.04 1.16 -2.68 -1.18 2.66 0.02 0.02 1.16 -2.68 -1.18 2.66 3.79 -8.6 -3.81 8.6 0.02 0 3.79 -8.6 -3.81 8.6 0.02 0 5.55 -12.52 -5.59 12.5 0.04 0.02 5.55 -12.52 -5.59 12.5c4.47,2.01 9.71,1.6 13.82,-1.07 4.12,-2.67 6.61,-7.27 6.61,-12.17l0 -59.22c0,-3.83 -1.54,-7.56 -4.23,-10.27 -2.71,-2.69 -6.45,-4.24 -10.28,-4.24l-18.81 0c-8.01,0 -14.51,6.5 -14.51,14.52 0,8.01 6.5,14.51 14.51,14.51z"/>
  <path class="fil0" d="M2523.78 1310.89l0 84.2c0,8.01 6.5,14.51 14.51,14.51 8.03,0 14.51,-6.5 14.51,-14.51l0 -84.2c0,-8.03 -6.48,-14.51 -14.51,-14.51 -8.01,0 -14.51,6.48 -14.51,14.51z"/>
  <path class="fil0" d="M2431.28 1289.14l0 309.37c0,8.01 6.5,14.52 14.51,14.52 8.01,0 14.51,-6.51 14.51,-14.52l0 -309.37c0,-8.03 -6.5,-14.51 -14.51,-14.51 -8.01,-0.01 -14.51,6.48 -14.51,14.51z"/>
  <path class="fil0" d="M2320.51 1276.66l0 175.55c0,8.02 6.5,14.52 14.51,14.52 8.03,0 14.52,-6.5 14.52,-14.52l0 -175.55c0,-8.02 -6.49,-14.52 -14.52,-14.52 -8.01,0 -14.51,6.51 -14.51,14.52z"/>
  <path class="fil0" d="M2215.12 1271.14l0 247.95c0,8.01 6.5,14.52 14.51,14.52 8.02,0 14.52,-6.5 14.52,-14.52l0 -247.95c0,-8.01 -6.5,-14.51 -14.52,-14.51 -8.01,0 -14.51,6.5 -14.51,14.51z"/>
  <path class="fil0" d="M2159.43 1169.37l0 44.12c0,8.03 6.5,14.52 14.51,14.52 8.03,0 14.51,-6.48 14.51,-14.52l0 -44.12c0,-8.01 -6.48,-14.51 -14.51,-14.51 -8.01,0 -14.51,6.5 -14.51,14.51z"/>
  <path class="fil0" d="M2274.26 1169.37l0 43.89c0,8.01 6.5,14.52 14.51,14.52 8.01,0 14.52,-6.51 14.52,-14.52l0 -43.89c0,-8.01 -6.51,-14.51 -14.52,-14.51 -8.01,0 -14.51,6.5 -14.51,14.51z"/>
  <path class="fil0" d="M2387.93 1191.43l0 35.36c0,8.01 6.5,14.51 14.51,14.51 8.03,0 14.52,-6.5 14.52,-14.51l0 -35.36c0,-8.01 -6.49,-14.51 -14.52,-14.51 -8.01,0 -14.51,6.5 -14.51,14.51z"/>
  <path class="fil0" d="M2187.51 886.92l-19.8 -51.84 0 -19.03 6.23 0c3.83,0 7.57,-1.55 10.28,-4.25 2.69,-2.7 4.23,-6.44 4.23,-10.26l0 -41.8c0,-3.82 -1.54,-7.56 -4.23,-10.26 -2.71,-2.71 -6.45,-4.25 -10.28,-4.25l-27.67 -0.01 0 -80.23c0,-8.01 -6.48,-14.51 -14.52,-14.51 -8.01,0 -14.51,6.5 -14.51,14.51l0 94.75c0,3.82 1.55,7.56 4.26,10.26 2.71,2.7 6.44,4.25 10.25,4.25l27.68 0 0 12.77 -6.23 0.01c-3.83,0 -7.57,1.54 -10.26,4.25 -2.71,2.7 -4.26,6.44 -4.26,10.26l0 36.22c0,1.73 0.35,3.57 0.95,5.17l20.77 54.34c2.84,7.49 11.24,11.25 18.73,8.4 7.49,-2.86 11.24,-11.26 8.38,-18.75l0 0z"/>
  <path class="fil1" d="M2131.76 1881.93l195.44 0c8.04,0 14.52,-6.5 14.52,-14.51 0,-8.01 -6.49,-14.51 -14.52,-14.51l-195.44 0c-8.02,0 -14.52,6.5 -14.52,14.51 0,8.01 6.5,14.51 14.52,14.51z"/>
  <path class="fil0" d="M2131.76 1924.02l233.06 0 80.97 0c8.01,0 14.51,-6.5 14.51,-14.51 0,-8.01 -6.5,-14.51 -14.51,-14.51l-80.97 0 -233.06 0c-8.02,0 -14.52,6.5 -14.52,14.51 0,8.01 6.5,14.51 14.52,14.51z"/>
  <path class="fil0" d="M2131.76 1801.93l-626.69 0c-3.82,0 -7.56,1.55 -10.26,4.26 -2.71,2.69 -4.25,6.43 -4.25,10.26l0 1165.07c0,8.02 6.49,14.52 14.51,14.52 8.01,0 14.51,-6.5 14.51,-14.52l0 -1150.56 612.18 0c8.01,0 14.51,-6.5 14.51,-14.51 0,-8.01 -6.5,-14.51 -14.51,-14.52z"/>
  <path class="fil0" d="M1505.07 1988.06l-512.74 0 -55.73 0c-8.02,0 -14.52,6.5 -14.52,14.51 0.01,8.01 6.5,14.51 14.52,14.51l55.73 0 512.74 0c8.01,0 14.51,-6.5 14.51,-14.51 0,-8.01 -6.5,-14.51 -14.51,-14.51z"/>
  <path class="fil0" d="M951.11 2981.52l0 -1346.78c0,-3.83 -1.55,-7.57 -4.25,-10.26 -2.7,-2.71 -6.44,-4.26 -10.26,-4.26l-507.16 0c-3.83,0 -7.57,1.55 -10.27,4.26 -2.7,2.69 -4.25,6.43 -4.25,10.26l0 1346.78c0,8.02 6.5,14.52 14.52,14.52 8.01,0 14.51,-6.5 14.51,-14.52l0 -1332.27 478.14 0 0 1332.27c0,8.02 6.49,14.52 14.51,14.52 8.01,0 14.51,-6.5 14.51,-14.52z"/>
  <path class="fil0" d="M1876.28 1816.45l0 -222.93 256.17 0c8.01,0 14.51,-6.5 14.51,-14.51 0,-8.02 -6.5,-14.52 -14.51,-14.52l-270.69 0c-3.83,0 -7.56,1.55 -10.27,4.26 -2.69,2.69 -4.24,6.42 -4.24,10.26l0 237.44c0,8.01 6.48,14.51 14.51,14.51 8.01,0 14.52,-6.5 14.52,-14.51z"/>
  <path class="fil0" d="M852.73 1634.74l0 -267.52c0,-3.83 -1.55,-7.56 -4.25,-10.25 -2.7,-2.71 -6.44,-4.26 -10.27,-4.26l-312.09 0c-3.83,0 -7.57,1.55 -10.27,4.26 -2.7,2.69 -4.25,6.42 -4.25,10.25l0 267.52c0,8.01 6.5,14.51 14.52,14.51 8.01,0 14.51,-6.5 14.51,-14.51l0 -253 283.07 0 0 253c0,8.01 6.5,14.51 14.51,14.51 8.02,0 14.52,-6.5 14.52,-14.51z"/>
  <path class="fil0" d="M922.09 1519.09l0 115.65c0,8.01 6.49,14.51 14.51,14.51 8.01,0 14.51,-6.5 14.51,-14.51l0 -115.65c0,-8.01 -6.5,-14.51 -14.51,-14.51 -8.02,0 -14.52,6.5 -14.51,14.51z"/>
  <path class="fil0" d="M414.92 1519.09l0 115.65c0,8.01 6.5,14.51 14.52,14.51 8.01,0 14.51,-6.5 14.51,-14.51l0 -115.65c0,-8.01 -6.5,-14.51 -14.51,-14.51 -8.02,0 -14.52,6.5 -14.52,14.51z"/>
  <path class="fil0" d="M2131.76 1517.12l-41.49 0c-4.92,0 -9.53,2.52 -12.2,6.62l-30.65 47.37c-4.35,6.73 -2.44,15.73 4.3,20.09 6.73,4.35 15.71,2.42 20.06,-4.32l26.38 -40.73 33.6 0c8.01,0 14.51,-6.5 14.51,-14.52 0,-8.01 -6.5,-14.51 -14.51,-14.51z"/>
  <path class="fil0" d="M1951.52 1579l0 -78.02c0,-3.83 -1.55,-7.57 -4.26,-10.26 -2.71,-2.71 -6.45,-4.25 -10.26,-4.25l-75.24 0c-3.83,0 -7.56,1.55 -10.27,4.25 -2.69,2.69 -4.24,6.43 -4.24,10.26l0 97.53c0,8.01 6.48,14.52 14.51,14.52 8.01,0 14.52,-6.51 14.52,-14.52l0 -83.02 46.21 0 0 63.51c0,8.02 6.48,14.52 14.51,14.52 8.01,0 14.51,-6.5 14.52,-14.52z"/>
  <path class="fil0" d="M2104.78 1531.63l0 -64.9 26.98 0c8.01,0 14.51,-6.5 14.51,-14.52 0,-8.01 -6.5,-14.51 -14.52,-14.51l-41.48 0c-3.84,0 -7.57,1.55 -10.28,4.26 -2.69,2.69 -4.24,6.42 -4.24,10.25l0 79.42c0,8.01 6.48,14.52 14.51,14.52 8.02,0 14.52,-6.5 14.52,-14.52z"/>
  <path class="fil0" d="M1505.07 2089.77l-568.47 0c-8.02,0 -14.52,6.5 -14.52,14.51 0.01,8.01 6.5,14.52 14.52,14.52l568.47 0c8.01,0 14.51,-6.51 14.51,-14.52 0,-8.01 -6.5,-14.51 -14.51,-14.51z"/>
  <path class="fil0" d="M2130.5 2052.9c-0.62,0.06 -15.93,1.42 -38.73,7.4 -17.1,4.47 -38.43,11.55 -60.97,22.68 -16.9,8.36 -34.45,19.02 -51.34,32.6 -25.33,20.38 -49.14,47.47 -66.47,82.96 -17.34,35.48 -28.14,79.25 -28.12,132.54 0,243.44 0,649.75 0,649.75 0,8.01 6.48,14.51 14.51,14.51 8.01,0 14.51,-6.5 14.51,-14.51 0,0 0,-406.31 0,-649.75 0,-29.28 3.49,-54.94 9.49,-77.48 10.54,-39.46 28.71,-69.51 50.18,-92.87 16.1,-17.51 34.11,-31.23 52.15,-41.97 27.05,-16.1 54.16,-25.43 74.39,-30.64 10.12,-2.61 18.5,-4.21 24.28,-5.12 2.88,-0.47 5.13,-0.78 6.6,-0.95 0.74,-0.1 1.3,-0.16 1.63,-0.2l0.36 -0.04 0.06 0 0.02 0 -1.18 -13.29 1.16 13.29 0.02 0 -1.18 -13.29 1.16 13.29c7.97,-0.69 13.88,-7.74 13.18,-15.71 -0.7,-7.99 -7.72,-13.89 -15.71,-13.2z"/>
  <path class="fil0" d="M1574.15 1816.45l0 1164.38c0,8.01 6.5,14.51 14.52,14.51 8.01,0 14.51,-6.5 14.51,-14.51l0 -1164.38c0,-8.01 -6.5,-14.51 -14.51,-14.51 -8.02,-0.01 -14.52,6.5 -14.52,14.51z"/>
  <path class="fil0" d="M1803.9 1816.45l0 1164.38c0,8.01 6.5,14.51 14.51,14.51 8.02,0 14.52,-6.5 14.52,-14.51l0 -1164.38c0,-8.01 -6.5,-14.51 -14.52,-14.51 -8.01,-0.01 -14.51,6.5 -14.51,14.51z"/>
  <path class="fil0" d="M1884.87 1816.45l0 186.12c0,8.01 6.48,14.51 14.51,14.51 8.01,0 14.51,-6.5 14.51,-14.51l0 -186.12c0,-8.01 -6.5,-14.51 -14.51,-14.51 -8.03,-0.01 -14.51,6.5 -14.51,14.51z"/>
  <path class="fil0" d="M2127.58 2109.2c-0.59,0.17 -11.95,3.64 -28.84,11.74 -25.29,12.18 -63.12,34.8 -95.07,73 -15.95,19.08 -30.37,42.09 -40.78,69.43 -10.39,27.34 -16.74,59.02 -16.72,95.19 0,183.92 0,622.27 0,622.27 0,8.01 6.49,14.51 14.52,14.51 8.01,0 14.51,-6.5 14.51,-14.51 0,0 0,-438.35 0,-622.27 0.02,-43.73 10.08,-78.93 25.08,-107.67 11.24,-21.52 25.33,-39.42 40.21,-54.18 22.3,-22.14 46.43,-37.24 64.89,-46.66 9.23,-4.72 17.03,-8.05 22.45,-10.14 2.71,-1.07 4.81,-1.82 6.21,-2.28 0.69,-0.26 1.22,-0.43 1.53,-0.53l0.35 -0.09 0.05 -0.02 -0.27 -0.89 0.27 0.89 -0.27 -0.89 0.27 0.89 -1.74 -5.73 1.74 5.73 -1.74 -5.73 1.74 5.73 -3.85 -12.72 3.83 12.72 0.02 0 -3.85 -12.72 3.83 12.72c7.67,-2.31 12.02,-10.41 9.7,-18.08 -2.3,-7.68 -10.39,-12.03 -18.07,-9.71z"/>
  <path class="fil0" d="M1861.76 1734.48l-303.75 0c-3.82,0 -7.56,1.54 -10.26,4.25 -2.7,2.69 -4.25,6.43 -4.25,10.26l0 55.73c0,8.01 6.5,14.52 14.51,14.52 8.02,0 14.52,-6.51 14.52,-14.52l0 -41.22 289.23 0c8.01,0 14.52,-6.5 14.52,-14.51 0,-8.01 -6.51,-14.51 -14.52,-14.51z"/>
  <path class="fil0" d="M1627.1 1748.99l0 55.73c0,8.01 6.5,14.52 14.51,14.52 8.02,0 14.52,-6.51 14.52,-14.52l0 -55.73c0,-8.01 -6.5,-14.51 -14.52,-14.51 -8.01,0 -14.51,6.5 -14.51,14.51z"/>
  <path class="fil0" d="M1818.42 1702.2l299.52 0 0 13.35c0,8.01 6.48,14.51 14.51,14.51 8.01,0 14.51,-6.5 14.51,-14.51l0 -27.87c0,-3.83 -1.54,-7.56 -4.25,-10.25 -2.71,-2.71 -6.45,-4.26 -10.26,-4.26l-314.03 0c-8.02,0 -14.52,6.5 -14.52,14.51 0,8.01 6.5,14.52 14.52,14.52z"/>
  <path class="fil0" d="M2075.75 1687.68l0 27.87c0,8.01 6.48,14.51 14.51,14.51 8.02,0 14.52,-6.5 14.52,-14.51l0 -27.87c0,-8.01 -6.5,-14.51 -14.52,-14.51 -8.03,0 -14.51,6.5 -14.51,14.51z"/>
  <path class="fil0" d="M2031.71 1687.68l0 27.87c0,8.01 6.5,14.51 14.51,14.51 8.01,0 14.51,-6.5 14.51,-14.51l0 -27.87c0,-8.01 -6.5,-14.51 -14.51,-14.51 -8.01,0 -14.51,6.5 -14.51,14.51z"/>
  <path class="fil0" d="M1987.66 1687.68l0 27.87c0,8.01 6.5,14.51 14.52,14.51 8.03,0 14.51,-6.5 14.51,-14.51l0 -27.87c0,-8.01 -6.48,-14.51 -14.51,-14.51 -8.01,0 -14.52,6.5 -14.52,14.51z"/>
  <path class="fil0" d="M1943.64 1687.68l0 27.87c0,8.01 6.48,14.51 14.51,14.51 8.01,0 14.52,-6.5 14.52,-14.51l0 -27.87c0,-8.01 -6.51,-14.51 -14.52,-14.51 -8.03,0 -14.51,6.5 -14.51,14.51z"/>
  <path class="fil0" d="M1899.59 1687.68l0 27.87c0,8.01 6.51,14.51 14.52,14.51 8.01,0 14.51,-6.5 14.51,-14.51l0 -27.87c0,-8.01 -6.5,-14.51 -14.51,-14.51 -8.01,0 -14.52,6.5 -14.52,14.51z"/>
  <path class="fil0" d="M2132.45 1742.84l-103.49 0c-6.68,0 -12.44,4.49 -14.09,10.95l-13.37 52.94c-1.97,7.78 2.73,15.68 10.51,17.63 7.78,1.98 15.67,-2.74 17.63,-10.5l10.62 -42 92.19 0c8.01,0 14.51,-6.5 14.51,-14.51 0,-8.01 -6.5,-14.51 -14.51,-14.51z"/>
  <path class="fil0" d="M2031.71 1626.38l0 56.66c0,8.01 6.5,14.51 14.51,14.51 8.01,0 14.51,-6.5 14.51,-14.51l0 -56.66c0,-8.01 -6.5,-14.52 -14.51,-14.52 -8.01,0 -14.51,6.51 -14.51,14.52z"/>
  <path class="fil0" d="M1922.49 1621.73l0 61.31c0,8.01 6.48,14.51 14.51,14.51 8.01,0 14.51,-6.5 14.51,-14.51l0.01 -61.31c0,-8.01 -6.51,-14.51 -14.52,-14.51 -8.03,0 -14.51,6.5 -14.51,14.51z"/>
  <path class="fil0" d="M1588.67 1895l-83.6 0c-8.02,0 -14.51,6.5 -14.51,14.51 0,8.01 6.49,14.51 14.51,14.51l83.6 0c8.01,0 14.51,-6.5 14.51,-14.51 0,-8.01 -6.5,-14.51 -14.51,-14.51z"/>
  <path class="fil0" d="M1778.86 1845.24l-150.48 0c-8.02,0 -14.52,6.51 -14.52,14.52 0,8.01 6.5,14.51 14.52,14.51l150.48 0c8.01,0 14.51,-6.5 14.51,-14.51 0,-8.02 -6.5,-14.52 -14.51,-14.52z"/>
  <path class="fil0" d="M1756.68 1859.76l0 41.1c0,8.01 6.49,14.51 14.52,14.51 8.01,0 14.51,-6.5 14.51,-14.51l0 -41.1c0,-8.02 -6.5,-14.52 -14.51,-14.52 -8.03,0 -14.52,6.51 -14.52,14.52z"/>
  <path class="fil0" d="M1711.4 1859.76l0 41.1c0,8.01 6.48,14.51 14.51,14.51 8.02,0 14.52,-6.5 14.52,-14.51l0 -41.1c0,-8.02 -6.5,-14.52 -14.52,-14.52 -8.03,0 -14.51,6.51 -14.51,14.52z"/>
  <path class="fil0" d="M1666.12 1859.76l0 41.1c0,8.01 6.48,14.51 14.51,14.51 8.01,0 14.52,-6.5 14.52,-14.51l0 -41.1c0,-8.02 -6.51,-14.52 -14.52,-14.52 -8.03,0 -14.51,6.51 -14.51,14.52z"/>
  <path class="fil0" d="M1620.83 1859.76l0 41.1c0,8.01 6.5,14.51 14.51,14.51 8.02,0 14.52,-6.5 14.52,-14.51l0 -41.1c0,-8.02 -6.5,-14.52 -14.52,-14.52 -8.01,0 -14.51,6.51 -14.51,14.52z"/>
  <path class="fil0" d="M1758.62 2295.32l0 41.1c0,8.01 6.48,14.52 14.51,14.52 8.01,0 14.52,-6.51 14.52,-14.52l0 -41.1c0,-8.01 -6.51,-14.51 -14.52,-14.51 -8.03,0 -14.51,6.5 -14.51,14.51z"/>
  <path class="fil0" d="M1713.34 2295.32l0 41.1c0,8.01 6.48,14.52 14.51,14.52 8.01,0 14.51,-6.51 14.51,-14.52l0 -41.1c0,-8.01 -6.5,-14.51 -14.51,-14.51 -8.03,0 -14.51,6.5 -14.51,14.51z"/>
  <path class="fil0" d="M1668.05 2295.32l0 41.1c0,8.01 6.49,14.52 14.52,14.52 8.01,0 14.51,-6.51 14.51,-14.52l0 -41.1c0,-8.01 -6.5,-14.51 -14.51,-14.51 -8.03,0 -14.52,6.5 -14.52,14.51z"/>
  <path class="fil0" d="M1444.58 2655.3l0 41.1c0,8.01 6.49,14.51 14.51,14.51 8.01,0 14.51,-6.5 14.51,-14.51l0 -41.1c0,-8.01 -6.5,-14.52 -14.51,-14.52 -8.02,0 -14.52,6.51 -14.51,14.52z"/>
  <path class="fil0" d="M1386.06 2655.3l0 41.1c0,8.01 6.49,14.51 14.51,14.51 8.02,0 14.52,-6.5 14.52,-14.51l0 -41.1c0,-8.01 -6.5,-14.52 -14.52,-14.52 -8.02,0 -14.51,6.51 -14.51,14.52z"/>
  <path class="fil0" d="M1327.54 2655.3l0 41.1c0,8.01 6.5,14.51 14.51,14.51 8.02,0 14.51,-6.5 14.51,-14.51l0 -41.1c0,-8.01 -6.49,-14.52 -14.51,-14.52 -8.01,0 -14.51,6.51 -14.51,14.52z"/>
  <path class="fil0" d="M1269.02 2655.3l0 41.1c0,8.01 6.5,14.51 14.51,14.51 8.02,0 14.52,-6.5 14.52,-14.51l0 -41.1c0,-8.01 -6.5,-14.52 -14.52,-14.52 -8.01,0 -14.51,6.51 -14.51,14.52z"/>
  <path class="fil0" d="M1210.5 2655.3l0 41.1c0,8.01 6.5,14.51 14.51,14.51 8.02,0 14.52,-6.5 14.52,-14.51l0 -41.1c0,-8.01 -6.5,-14.52 -14.52,-14.52 -8.01,0 -14.51,6.51 -14.51,14.52z"/>
  <path class="fil0" d="M1151.98 2655.3l0 41.1c0,8.01 6.5,14.51 14.52,14.51 8.01,0 14.51,-6.5 14.51,-14.51l0 -41.1c0,-8.01 -6.5,-14.52 -14.51,-14.52 -8.02,0 -14.52,6.51 -14.52,14.52z"/>
  <path class="fil0" d="M1093.46 2655.3l0 41.1c0,8.01 6.5,14.51 14.52,14.51 8.01,0 14.51,-6.5 14.51,-14.51l0 -41.1c0,-8.01 -6.5,-14.52 -14.51,-14.52 -8.02,0 -14.52,6.51 -14.52,14.52z"/>
  <path class="fil0" d="M1034.94 2655.3l0 41.1c0,8.01 6.5,14.51 14.52,14.51 8.01,0 14.51,-6.5 14.51,-14.51l0 -41.1c0,-8.01 -6.5,-14.52 -14.51,-14.52 -8.02,0 -14.52,6.51 -14.52,14.52z"/>
  <path class="fil0" d="M976.42 2655.3l0 41.1c0,8.01 6.5,14.51 14.52,14.51 8.01,0 14.51,-6.5 14.51,-14.51l0 -41.1c0,-8.01 -6.5,-14.52 -14.51,-14.52 -8.02,0 -14.52,6.51 -14.52,14.52z"/>
  <path class="fil0" d="M1622.76 2295.32l0 41.1c0,8.01 6.5,14.52 14.52,14.52 8.01,0 14.52,-6.51 14.52,-14.52l0 -41.1c0,-8.01 -6.51,-14.51 -14.52,-14.51 -8.02,0 -14.52,6.5 -14.52,14.51z"/>
  <path class="fil1" d="M1771.2 2035.43l-67.58 0c-3.83,0 -7.56,1.55 -10.27,4.26 -2.69,2.69 -4.24,6.42 -4.24,10.25l0 114.95c0,3.81 1.55,7.57 4.24,10.26 2.71,2.71 6.44,4.26 10.27,4.26l67.58 0c3.81,0 7.54,-1.55 10.25,-4.26 2.71,-2.69 4.26,-6.45 4.26,-10.26 0,0 0,-54.34 0,-114.95 0,-8.92 -1.26,-17.2 -3.52,-24.73 -3.97,-13.18 -10.99,-23.92 -19,-32.22 -6,-6.25 -12.54,-11.22 -18.93,-15.19 -9.58,-5.92 -18.83,-9.65 -25.81,-11.98 -6.97,-2.3 -11.67,-3.21 -12.2,-3.31 -7.87,-1.45 -15.44,3.76 -16.91,11.63 -1.45,7.88 3.75,15.47 11.63,16.92l0.06 -0.35 -0.06 0.35 0.06 -0.35 -0.06 0.35c0.45,0.09 4.53,0.95 10.2,2.96 4.24,1.51 9.38,3.66 14.59,6.58 3.91,2.18 7.86,4.8 11.49,7.83 5.48,4.59 10.28,10.09 13.74,16.74 3.43,6.7 5.67,14.6 5.69,24.77 0,60.61 0,114.95 0,114.95l14.52 0 0 -14.51 -53.06 0 0 -85.92 53.06 0c8.01,0 14.51,-6.5 14.51,-14.52 0,-8.01 -6.5,-14.51 -14.51,-14.51z"/>
  <path class="fil1" d="M1744.72 2089.77l-34.83 0c-8.03,0 -14.51,6.5 -14.51,14.51 0,8.01 6.48,14.52 14.51,14.52l34.83 0c8.02,0 14.52,-6.51 14.52,-14.52 0,-8.01 -6.5,-14.51 -14.52,-14.51z"/>
  <path class="fil1 str0" d="M1635.97 2064.46l53.06 0 0 85.92 -53.06 0 0 14.51 14.51 0c0,0 0,-54.34 0,-114.95 0,-6.23 0.85,-11.61 2.29,-16.37 2.51,-8.3 6.79,-14.9 12.13,-20.49 4.01,-4.16 8.59,-7.68 13.29,-10.61 7.05,-4.37 14.29,-7.31 19.66,-9.09 2.68,-0.89 4.9,-1.49 6.37,-1.86 0.74,-0.19 1.3,-0.31 1.63,-0.39l0.35 -0.07 0.03 0 -0.71 -3.8 0.69 3.8 0.02 0 -0.71 -3.8 0.69 3.8 -1.74 -9.31 1.74 9.31 -1.74 -9.31 1.74 9.31 -2.57 -13.7 2.56 13.7 0.01 0 -2.57 -13.7 2.56 13.7c7.87,-1.46 13.08,-9.04 11.61,-16.92 -1.45,-7.87 -9.04,-13.08 -16.92,-11.61 -0.52,0.1 -5.36,1.01 -12.52,3.41 -5.36,1.8 -12.03,4.43 -19.16,8.22 -5.34,2.87 -10.93,6.37 -16.39,10.74 -8.16,6.52 -16.05,15.02 -21.89,25.91 -5.86,10.86 -9.5,24.08 -9.48,39.13 0,60.61 0,114.95 0,114.95 0,3.81 1.55,7.57 4.25,10.26 2.71,2.71 6.44,4.26 10.27,4.26l67.57 0c3.82,0 7.55,-1.55 10.26,-4.26 2.71,-2.69 4.26,-6.45 4.26,-10.26l0 -114.95c0,-3.83 -1.55,-7.56 -4.26,-10.25 -2.71,-2.71 -6.44,-4.26 -10.26,-4.26l-67.57 0c-8.02,0 -14.52,6.5 -14.52,14.51 0,8.01 6.5,14.52 14.52,14.52z"/>
  <path class="fil1" d="M1662.44 2118.8l34.83 0c8.02,0 14.52,-6.51 14.52,-14.52 0,-8.01 -6.5,-14.51 -14.52,-14.51l-34.83 0c-8.01,0 -14.52,6.5 -14.52,14.51 0,8.01 6.51,14.52 14.52,14.52z"/>
  <path class="fil0" d="M1588.67 2238.16l-83.6 0c-8.02,0 -14.51,6.5 -14.51,14.51 0,8.01 6.49,14.51 14.51,14.51l83.6 0c8.01,0 14.51,-6.5 14.51,-14.51 0,-8.01 -6.5,-14.51 -14.51,-14.51z"/>
  <path class="fil0" d="M1818.42 2275.78l-229.75 0c-8.02,0 -14.52,6.5 -14.52,14.51 0,8.01 6.5,14.51 14.52,14.51l229.75 0c8.01,0 14.51,-6.5 14.51,-14.51 0,-8.01 -6.5,-14.51 -14.51,-14.51z"/>
  <path class="fil0" d="M1899.38 2238.16l-80.96 0c-8.02,0 -14.52,6.5 -14.52,14.51 0,8.01 6.5,14.51 14.51,14.51l80.97 0c8.01,0 14.51,-6.5 14.51,-14.51 0,-8.01 -6.5,-14.51 -14.51,-14.51z"/>
  <path class="fil1" d="M1620.83 2398.99l0 581.84c0,8.01 6.5,14.51 14.51,14.51 8.02,0 14.52,-6.5 14.52,-14.51l0 -581.84c0,-8.02 -6.5,-14.52 -14.52,-14.52 -8.01,0 -14.51,6.51 -14.51,14.52z"/>
  <path class="fil1 str0" d="M1756.68 2398.99l0 581.84c0,8.01 6.49,14.51 14.52,14.51 8.01,0 14.51,-6.5 14.51,-14.51l0 -581.84c0,-8.02 -6.5,-14.52 -14.51,-14.52 -8.03,0 -14.52,6.51 -14.52,14.52z"/>
  <path class="fil1" d="M1771.2 2647.79l-133.92 0c-3.82,0 -7.56,1.55 -10.27,4.26 -2.7,2.69 -4.25,6.42 -4.25,10.25l0 75.24c0,3.81 1.55,7.57 4.25,10.26 2.71,2.71 6.44,4.25 10.27,4.25l119.4 0 0 79.11 -121.34 0c-8.01,0 -14.51,6.51 -14.51,14.52 0,8.01 6.5,14.51 14.51,14.51l135.86 0c3.81,0 7.54,-1.55 10.25,-4.26 2.71,-2.69 4.26,-6.44 4.26,-10.25l0 -108.14c0,-3.83 -1.55,-7.57 -4.26,-10.26 -2.7,-2.7 -6.44,-4.25 -10.25,-4.25l-119.4 0 0 -46.21 119.4 0c8.01,0 14.51,-6.51 14.51,-14.52 0,-8.01 -6.5,-14.51 -14.51,-14.51z"/>
  <path class="fil1" d="M1717.79 2845.68l0 -170.84c0,-8.01 -6.51,-14.51 -14.52,-14.51 -8.03,0 -14.51,6.5 -14.51,14.51l0 170.84c0,8.01 6.48,14.51 14.51,14.51 8.01,0 14.52,-6.5 14.52,-14.51z"/>
  <path class="fil0" d="M1323.36 2002.57l0 101.71c0,8.01 6.5,14.52 14.51,14.52 8.02,0 14.52,-6.51 14.52,-14.52l0 -101.71c0,-8.01 -6.5,-14.51 -14.52,-14.51 -8.01,0 -14.51,6.5 -14.51,14.51z"/>
  <path class="fil0" d="M1122.72 2002.57l0 101.71c0,8.01 6.5,14.52 14.51,14.52 8.02,0 14.52,-6.51 14.52,-14.52l0 -101.71c0,-8.01 -6.5,-14.51 -14.52,-14.51 -8.01,0 -14.51,6.5 -14.51,14.51z"/>
  <path class="fil0" d="M1329.51 2551.53l0 14.52 79.42 0c3.82,0 7.56,-1.55 10.26,-4.26 2.7,-2.69 4.25,-6.44 4.25,-10.26l0 -338.57c0,-3.83 -1.55,-7.57 -4.25,-10.26 -2.7,-2.71 -6.44,-4.25 -10.26,-4.25l-79.42 0c-3.82,0 -7.56,1.55 -10.26,4.25 -2.7,2.69 -4.25,6.43 -4.25,10.26l0 338.57c0,3.82 1.55,7.57 4.25,10.26 2.7,2.71 6.44,4.26 10.26,4.26l0 -14.52 14.51 0 0 -324.06 50.4 0 0 309.55 -64.91 0 0 14.51 14.51 0 -14.51 0z"/>
  <path class="fil0" d="M1408.93 2301.36l-71.06 0c-8.01,0 -14.51,6.5 -14.51,14.51 0,8.01 6.5,14.52 14.51,14.52l71.06 0c8.02,0 14.51,-6.51 14.51,-14.52 0,-8.01 -6.5,-14.51 -14.51,-14.51z"/>
  <path class="fil0" d="M1181.13 2551.53l0 14.52 79.41 0c3.82,0 7.56,-1.55 10.26,-4.26 2.71,-2.69 4.26,-6.44 4.26,-10.26l0 -338.57c0,-3.83 -1.55,-7.57 -4.25,-10.26 -2.71,-2.71 -6.45,-4.25 -10.27,-4.25l-79.41 0c-3.83,0 -7.57,1.55 -10.27,4.25 -2.7,2.69 -4.25,6.43 -4.25,10.26l0 338.57c0,3.82 1.55,7.57 4.25,10.26 2.71,2.71 6.44,4.26 10.27,4.26l0 -14.52 14.51 0 0 -324.06 50.39 0 0 309.55 -64.9 0 0 14.51 14.51 0 -14.51 0z"/>
  <path class="fil0" d="M1260.54 2301.36l-71.06 0c-8.01,0 -14.51,6.5 -14.51,14.51 0,8.01 6.5,14.52 14.51,14.52l71.06 0c8.02,0 14.52,-6.51 14.52,-14.52 0,-8.01 -6.5,-14.51 -14.52,-14.51z"/>
  <path class="fil0" d="M1032.74 2551.53l0 14.52 79.42 0c3.82,0 7.56,-1.55 10.26,-4.26 2.7,-2.69 4.25,-6.44 4.25,-10.26l0 -338.57c0,-3.83 -1.55,-7.57 -4.25,-10.26 -2.7,-2.71 -6.44,-4.25 -10.26,-4.25l-79.42 0c-3.83,0 -7.56,1.55 -10.27,4.25 -2.7,2.69 -4.25,6.43 -4.25,10.26l0 338.57c0,3.82 1.55,7.57 4.25,10.26 2.71,2.71 6.44,4.26 10.27,4.26l0 -14.52 14.51 0 0 -324.06 50.39 0 0 309.55 -64.9 0 0 14.51 14.51 0 -14.51 0z"/>
  <path class="fil0" d="M1112.16 2301.36l-71.06 0c-8.02,0 -14.52,6.5 -14.52,14.51 0,8.01 6.5,14.52 14.52,14.52l71.06 0c8.01,0 14.51,-6.51 14.51,-14.52 0,-8.01 -6.5,-14.51 -14.51,-14.51z"/>
  <path class="fil0" d="M1505.07 2628.98l-568.47 0c-8.02,0 -14.52,6.5 -14.52,14.51 0.01,8.01 6.5,14.52 14.52,14.52l568.47 0c8.01,0 14.51,-6.51 14.51,-14.52 0,-8.01 -6.5,-14.51 -14.51,-14.51z"/>
  <path class="fil0" d="M1459.09 2919.48l-468.15 0c-8.02,0 -14.52,6.51 -14.52,14.52 0,8.01 6.5,14.51 14.52,14.51l468.15 0c8.01,0 14.51,-6.5 14.51,-14.51 0,-8.01 -6.5,-14.52 -14.51,-14.52z"/>
  <path class="fil0" d="M936.6 1673.17l-507.16 0c-8.02,0 -14.52,6.5 -14.52,14.51 0,8.01 6.5,14.52 14.52,14.52l507.16 0c8.01,0 14.51,-6.5 14.51,-14.52 0,-8.01 -6.5,-14.51 -14.51,-14.51z"/>
  <path class="fil0" d="M936.6 2066.08l-507.16 0c-8.02,0 -14.52,6.51 -14.52,14.52 0,8.01 6.5,14.51 14.52,14.51l507.16 0c8.01,0 14.51,-6.5 14.51,-14.51 0,-8.02 -6.5,-14.52 -14.51,-14.52z"/>
  <path class="fil0" d="M936.6 2123.21l-507.16 0c-8.02,0 -14.52,6.5 -14.52,14.51 0,8.01 6.5,14.52 14.52,14.52l507.16 0c8.01,0 14.51,-6.51 14.51,-14.52 0,-8.01 -6.5,-14.51 -14.51,-14.51z"/>
  <path class="fil0" d="M936.6 2537.02l-507.16 0c-8.02,0 -14.52,6.5 -14.52,14.51 0,8.02 6.5,14.52 14.52,14.52l507.16 0c8.01,0 14.51,-6.5 14.51,-14.52 0,-8.01 -6.5,-14.51 -14.51,-14.51z"/>
  <path class="fil0" d="M936.6 2594.15l-507.16 0c-8.02,0 -14.52,6.5 -14.52,14.51 0,8.01 6.5,14.51 14.52,14.51l507.16 0c8.01,0 14.51,-6.5 14.51,-14.51 0,-8.01 -6.5,-14.51 -14.51,-14.51z"/>
  <path class="fil0" d="M936.6 1834.79l-507.16 0c-8.02,0 -14.52,6.51 -14.52,14.52 0,8.01 6.5,14.51 14.52,14.51l507.16 0c8.01,0 14.51,-6.5 14.51,-14.51 0,-8.02 -6.5,-14.52 -14.51,-14.52z"/>
  <path class="fil0" d="M850.8 1842.07c-0.46,-0.76 -15.47,-26.88 -43.66,-53.49 -14.1,-13.29 -31.55,-26.72 -52.32,-36.94 -20.74,-10.22 -44.91,-17.18 -71.8,-17.16 -26.89,-0.02 -50.43,6.98 -70.11,17.33 -14.77,7.76 -27.43,17.38 -38.12,27.39 -16.02,14.98 -27.65,30.8 -35.38,42.98 -7.72,12.19 -11.55,20.72 -11.77,21.23 -3.26,7.33 0.04,15.9 7.36,19.15 7.33,3.27 15.91,-0.04 19.16,-7.35l-9.22 -4.1 9.21 4.1 0.01 0 -9.22 -4.1 9.21 4.1 -2.3 -1.03 2.3 1.05 0 -0.02 -2.3 -1.03 2.3 1.05c0.06,-0.14 2.78,-6.15 8.22,-15 8.14,-13.29 22.45,-32.9 42.58,-48.71 10.06,-7.93 21.55,-14.94 34.49,-19.95 12.95,-5.01 27.35,-8.07 43.58,-8.07 21.87,0 41.49,5.6 58.99,14.19 26.21,12.87 47.42,32.7 61.85,49.38 7.22,8.32 12.75,15.83 16.43,21.19 1.84,2.69 3.22,4.82 4.11,6.25 0.45,0.72 0.78,1.26 0.98,1.61l0.22 0.37 0.04 0.05 0 0.02 7.86 -4.54 -7.87 4.52 0.01 0.02 7.86 -4.54 -7.87 4.52c4,6.95 12.87,9.35 19.82,5.35 6.95,-3.99 9.34,-12.87 5.35,-19.82z"/>
  <path class="fil1" d="M639.82 1959.38l-14.51 0c0,7.91 1.61,15.56 4.54,22.47 4.39,10.37 11.69,19.15 20.89,25.37 9.2,6.23 20.38,9.86 32.28,9.86 7.92,0 15.55,-1.62 22.46,-4.54 10.38,-4.4 19.16,-11.69 25.38,-20.88 6.22,-9.2 9.87,-20.38 9.86,-32.28 0.01,-7.94 -1.61,-15.56 -4.54,-22.47 -4.39,-10.37 -11.69,-19.16 -20.89,-25.37 -9.19,-6.23 -20.37,-9.87 -32.27,-9.87 -7.93,0 -15.56,1.61 -22.47,4.55 -10.37,4.39 -19.16,11.69 -25.37,20.88 -6.23,9.19 -9.88,20.38 -9.87,32.28l14.51 0 14.52 0c0,-4.01 0.8,-7.74 2.25,-11.17 2.16,-5.13 5.82,-9.54 10.4,-12.61 4.6,-3.1 10.04,-4.9 16.03,-4.9 4,0 7.73,0.79 11.16,2.24 5.12,2.17 9.53,5.83 12.63,10.42 3.09,4.58 4.88,10.02 4.89,16.02 -0.01,4 -0.81,7.74 -2.25,11.15 -2.17,5.14 -5.82,9.54 -10.41,12.63 -4.59,3.1 -10.03,4.9 -16.02,4.9 -4,0 -7.74,-0.81 -11.16,-2.25 -5.13,-2.16 -9.54,-5.82 -12.63,-10.41 -3.1,-4.59 -4.89,-10.04 -4.89,-16.02l-14.52 0z"/>
  <path class="fil0" d="M588.97 2290.29l0 14.51 188.09 0c3.83,0 7.57,-1.55 10.27,-4.25 2.7,-2.69 4.25,-6.45 4.25,-10.26l0 -66.88c0,-3.83 -1.55,-7.57 -4.25,-10.26 -2.7,-2.71 -6.44,-4.25 -10.27,-4.25l-188.09 0c-3.82,0 -7.56,1.55 -10.26,4.25 -2.71,2.69 -4.25,6.43 -4.25,10.26l0 66.88c0,3.81 1.54,7.57 4.25,10.26 2.7,2.7 6.44,4.25 10.26,4.25l0 -14.51 14.51 0 0 -52.37 159.07 0 0 37.86 -173.58 0 0 14.51 14.51 0 -14.51 0z"/>
  <path class="fil0" d="M619.27 2463.83l0 14.52 127.49 0c3.82,0 7.56,-1.55 10.26,-4.26 2.71,-2.69 4.25,-6.44 4.25,-10.26l0 -173.54c0,-3.83 -1.54,-7.57 -4.25,-10.26 -2.7,-2.71 -6.44,-4.25 -10.26,-4.25l-127.49 0c-3.82,0 -7.56,1.54 -10.26,4.25 -2.7,2.69 -4.25,6.43 -4.25,10.26l0 173.54c0,3.82 1.55,7.57 4.25,10.26 2.7,2.71 6.44,4.26 10.26,4.26l0 -14.52 14.52 0 0 -159.03 98.46 0 0 144.52 -112.98 0 0 14.51 14.52 0 -14.52 0z"/>
  <path class="fil0" d="M820.96 2449.32l-275.88 0c-8.02,0 -14.52,6.5 -14.52,14.51 0.01,8.01 6.5,14.52 14.52,14.52l275.88 0c8.01,0 14.51,-6.5 14.51,-14.52 0,-8.01 -6.5,-14.51 -14.51,-14.51z"/>
  <path class="fil0" d="M588.97 2742.73l0 14.51 188.09 0c3.83,0 7.57,-1.55 10.27,-4.26 2.7,-2.69 4.25,-6.44 4.25,-10.25l0 -66.88c0,-3.83 -1.55,-7.57 -4.25,-10.26 -2.7,-2.71 -6.44,-4.26 -10.27,-4.26l-188.09 0c-3.82,0 -7.56,1.55 -10.26,4.26 -2.71,2.69 -4.25,6.43 -4.25,10.26l0 66.88c0,3.81 1.54,7.56 4.25,10.25 2.7,2.71 6.44,4.26 10.26,4.26l0 -14.51 14.51 0 0 -52.37 159.07 0 0 37.85 -173.58 0 0 14.52 14.51 0 -14.51 0z"/>
  <path class="fil0" d="M619.27 2916.27l0 14.51 127.49 0c3.82,0 7.56,-1.54 10.26,-4.25 2.71,-2.69 4.25,-6.45 4.25,-10.26l0 -173.54c0,-3.83 -1.54,-7.57 -4.25,-10.26 -2.7,-2.71 -6.44,-4.26 -10.26,-4.26l-127.49 0c-3.82,0 -7.56,1.55 -10.26,4.26 -2.7,2.69 -4.25,6.43 -4.25,10.26l0 173.54c0,3.81 1.55,7.57 4.25,10.26 2.7,2.71 6.44,4.26 10.26,4.26l0 -14.52 14.52 0 0 -159.03 98.46 0 0 144.52 -112.98 0 0 14.51 14.52 0 -14.52 0z"/>
  <path class="fil0" d="M820.96 2901.76l-275.88 0c-8.02,0 -14.52,6.5 -14.52,14.51 0.01,8.01 6.5,14.52 14.52,14.52l275.88 -0.01c8.01,0 14.51,-6.5 14.51,-14.51 0,-8.01 -6.5,-14.51 -14.51,-14.51z"/>
  <path class="fil0" d="M838.22 1393.81l-312.1 0c-8.02,0 -14.52,6.5 -14.52,14.52 0,8.01 6.5,14.51 14.52,14.51l312.1 0c8.01,0 14.51,-6.5 14.51,-14.51 0,-8.02 -6.5,-14.52 -14.51,-14.52z"/>
  <path class="fil0" d="M806.9 1634.74l0 -103.11c0,-1.37 -0.11,-7.33 -2.25,-15.77 -1.6,-6.33 -4.36,-14.05 -9.15,-22.14 -3.59,-6.05 -8.33,-12.3 -14.49,-18.21 -9.24,-8.86 -21.69,-16.87 -37.82,-22.52 -16.14,-5.67 -35.91,-9.02 -60.17,-9.02 -8.02,0 -14.52,6.5 -14.52,14.51 0,8.02 6.5,14.52 14.52,14.52 25.6,0 43.96,4.2 57.12,9.95 9.89,4.33 16.91,9.54 22.13,14.86 3.92,3.98 6.82,8.09 9.01,12.03 3.29,5.91 4.96,11.5 5.79,15.58 0.41,2.03 0.62,3.68 0.72,4.78 0.04,0.54 0.07,0.95 0.08,1.2l0.01 0.23 0 0.04 3.72 -0.04 -3.72 0 0 0.04 3.72 -0.04 -3.72 0 0 103.11c0,8.01 6.5,14.51 14.51,14.51 8.02,0 14.51,-6.5 14.51,-14.51z"/>
  <path class="fil0" d="M587.3 1634.74l0 -103.11 -3.2 0 3.2 0.04 0 -0.04 -3.2 0 3.2 0.04c0,-0.04 0.07,-3.93 1.57,-9.44 1.12,-4.16 3.02,-9.23 6.24,-14.46 2.41,-3.93 5.55,-7.95 9.73,-11.86 6.28,-5.83 14.9,-11.44 27.35,-15.73 12.43,-4.28 28.71,-7.18 49.97,-7.18 8.02,0 14.52,-6.5 14.52,-14.52 0,-8.01 -6.5,-14.51 -14.52,-14.51 -28.74,0 -51.22,4.72 -68.76,12.39 -13.14,5.74 -23.44,13.16 -31.23,21.13 -5.85,5.98 -10.31,12.23 -13.65,18.25 -5.01,9.03 -7.55,17.47 -8.85,23.9 -1.31,6.42 -1.39,10.83 -1.39,11.99l0 103.11c0,8.01 6.49,14.51 14.51,14.51 8.02,0 14.51,-6.5 14.51,-14.51z"/>
  <path class="fil0" d="M731.2 1513.52l0 121.22c0,8.01 6.5,14.51 14.52,14.51 8.01,0 14.51,-6.5 14.51,-14.51l0 -121.22c0,-8.01 -6.5,-14.51 -14.51,-14.51 -8.02,0 -14.52,6.5 -14.52,14.51z"/>
  <path class="fil0" d="M603.56 1513.52l0 121.22c0,8.01 6.5,14.51 14.51,14.51 8.02,0 14.52,-6.5 14.52,-14.51l0 -121.22c0,-8.01 -6.5,-14.51 -14.52,-14.51 -8.01,0 -14.51,6.5 -14.51,14.51z"/>
  <path class="fil0" d="M672.81 1069.61l0.23 0.24c2.42,2.4 23.51,23.34 48.55,49.52 12.51,13.08 26.01,27.48 38.63,41.49 12.62,13.99 24.37,27.63 33.28,39.05 21.89,28 31.79,57.65 31.78,83.5 -0.01,15.68 -3.6,29.94 -10.28,41.98 -6.72,12.05 -16.46,21.94 -29.54,29.08 -7.04,3.83 -9.65,12.64 -5.82,19.68 3.83,7.04 12.64,9.66 19.68,5.83 17.83,-9.68 31.79,-23.77 41.05,-40.49 9.29,-16.72 13.94,-35.95 13.93,-56.08 -0.01,-33.23 -12.57,-68.91 -37.93,-101.38 -9.9,-12.68 -22.47,-27.19 -35.83,-41.99 -20.03,-22.18 -41.82,-44.9 -58.64,-62.1 -16.81,-17.23 -28.64,-28.91 -28.68,-28.95 -5.7,-5.65 -14.89,-5.59 -20.52,0.11 -5.64,5.69 -5.59,14.89 0.11,20.52l0 -0.01z"/>
  <path class="fil0" d="M724.54 1086.55l0 -89.95c0,-3.6 -1.35,-7.1 -3.77,-9.77l-24.09 -26.49 0 -44.55c0,-8.01 -6.5,-14.51 -14.52,-14.51 -8.01,0 -14.51,6.5 -14.51,14.51l0 50.16c0,3.6 1.36,7.1 3.78,9.75l24.09 26.51 0 84.34c0,8.01 6.49,14.51 14.51,14.51 8.01,0 14.51,-6.5 14.51,-14.51z"/>
  <path class="fil0" d="M656.73 1048.99c-0.06,0.05 -21.07,20.82 -46.91,47.76 -12.92,13.48 -27.06,28.5 -40.41,43.29 -13.36,14.8 -25.93,29.31 -35.83,41.99 -25.36,32.47 -37.92,68.16 -37.94,101.38 0,20.13 4.65,39.36 13.93,56.08 9.27,16.72 23.22,30.81 41.05,40.49 7.05,3.83 15.86,1.21 19.69,-5.83 3.82,-7.04 1.22,-15.85 -5.83,-19.68 -13.07,-7.12 -22.82,-17.03 -29.53,-29.07 -6.68,-12.05 -10.28,-26.31 -10.28,-41.99 -0.02,-25.85 9.89,-55.5 31.78,-83.5 9.2,-11.79 21.42,-25.93 34.5,-40.41 19.62,-21.73 41.21,-44.25 57.86,-61.28 8.32,-8.54 15.42,-15.7 20.42,-20.71 2.5,-2.52 4.49,-4.49 5.84,-5.84 0.67,-0.68 1.19,-1.18 1.54,-1.53 0.35,-0.35 0.53,-0.52 0.53,-0.52 5.69,-5.63 5.75,-14.83 0.11,-20.52 -5.64,-5.71 -14.82,-5.76 -20.52,-0.11l0 0z"/>
  <path class="fil0" d="M654.43 1086.55l0 -84.34 24.09 -26.51c2.42,-2.65 3.77,-6.15 3.77,-9.75l0 -50.16c0,-8.01 -6.49,-14.51 -14.51,-14.51 -8.01,0 -14.51,6.5 -14.51,14.51l0 44.55 -24.09 26.49c-2.42,2.67 -3.78,6.17 -3.78,9.77l0 89.95c0,8.01 6.5,14.51 14.52,14.51 8.01,0 14.51,-6.5 14.51,-14.51l0 0z"/>
  <path class="fil0" d="M1786.5 1750.29l0 -185.53c0,-3.83 -1.54,-7.56 -4.23,-10.27 -2.71,-2.69 -6.45,-4.24 -10.28,-4.24l-216.45 0c-3.82,0 -7.56,1.55 -10.26,4.24 -2.7,2.71 -4.25,6.44 -4.25,10.27l0 185.53c0,8.01 6.5,14.51 14.51,14.51 8.02,0 14.52,-6.5 14.52,-14.51l0 -171.03 187.42 0 0 171.03c0,8.01 6.5,14.51 14.51,14.51 8.03,0 14.51,-6.5 14.51,-14.51z"/>
  <path class="fil0" d="M1740.43 1750.29l0 -71.51c-0.02,-1.06 -0.08,-5.32 -1.32,-11.4 -0.95,-4.54 -2.55,-10.12 -5.4,-16.06 -2.14,-4.45 -5.01,-9.09 -8.8,-13.58 -5.67,-6.72 -13.53,-12.97 -23.67,-17.32 -10.12,-4.4 -22.39,-6.89 -36.94,-6.89 -8.01,0 -14.51,6.5 -14.51,14.51 0,8.03 6.5,14.52 14.51,14.52 6.68,0 12.27,0.67 16.97,1.76 8.21,1.91 13.62,4.97 17.69,8.38 3.02,2.55 5.26,5.38 7.02,8.3 2.62,4.33 4.03,8.94 4.72,12.42 0.35,1.74 0.53,3.18 0.62,4.14 0.04,0.49 0.06,0.84 0.06,1.05l0.02 0.21 4.84 -0.04 -4.84 0 0 0.04 4.84 -0.04 -4.84 0 0 71.51c0,8.01 6.48,14.51 14.51,14.51 8.02,0 14.52,-6.5 14.52,-14.51z"/>
  <path class="fil0" d="M1616.74 1750.29l0 -71.51 -4.77 0 4.77 0.04 0 -0.04 -4.77 0 4.77 0.04 0 -0.08c0.01,-0.54 0.16,-3.36 1.07,-7.04 0.67,-2.77 1.78,-6 3.48,-9.19 1.28,-2.38 2.89,-4.76 4.94,-6.99 3.08,-3.33 7.1,-6.4 13.01,-8.82 5.92,-2.4 13.84,-4.12 24.6,-4.14 8.01,0 14.49,-6.51 14.49,-14.52 0,-8.01 -6.48,-14.51 -14.49,-14.51 -8.64,0 -16.45,0.87 -23.5,2.5 -12.34,2.84 -22.35,8.08 -29.92,14.51 -5.68,4.82 -9.98,10.22 -13.16,15.52 -4.77,7.99 -7.1,15.71 -8.29,21.61 -1.19,5.93 -1.26,10.07 -1.26,11.11l0 71.51c0,8.01 6.5,14.51 14.51,14.51 8.02,0 14.52,-6.5 14.52,-14.51z"/>
  <path class="fil0" d="M1654.16 1361.51l0.15 0.16c1.65,1.64 16.26,16.16 33.58,34.27 8.67,9.04 18,19 26.7,28.68 8.71,9.65 16.82,19.06 22.88,26.84 14.65,18.73 21.11,38.37 21.11,55.17 0,10.2 -2.34,19.33 -6.58,26.96 -4.26,7.62 -10.37,13.85 -18.71,18.42 -7.05,3.81 -9.66,12.64 -5.83,19.68 3.83,7.04 12.64,9.64 19.68,5.83 13.1,-7.11 23.42,-17.54 30.23,-29.84 6.85,-12.31 10.24,-26.42 10.24,-41.05 -0.02,-24.17 -9.14,-49.85 -27.27,-73.05 -6.97,-8.92 -15.73,-19.06 -25.04,-29.36 -13.95,-15.44 -29.1,-31.25 -40.79,-43.21 -11.69,-11.96 -19.9,-20.09 -19.95,-20.12 -5.69,-5.66 -14.89,-5.6 -20.52,0.11 -5.63,5.69 -5.59,14.88 0.12,20.51z"/>
  <path class="fil0" d="M1697.6 1370.11l0 -62.39c0,-3.6 -1.35,-7.11 -3.77,-9.78l-15.54 -17.1 0 -29.17c0,-8.01 -6.5,-14.51 -14.51,-14.51 -8.03,0 -14.52,6.5 -14.52,14.52l0 34.77c0,3.6 1.36,7.1 3.78,9.77l15.54 17.11 0 56.78c0,8.01 6.5,14.51 14.51,14.51 8.03,0 14.51,-6.5 14.51,-14.51z"/>
  <path class="fil0" d="M1643 1340.89c-0.06,0.05 -14.65,14.47 -32.62,33.2 -8.98,9.39 -18.81,19.84 -28.11,30.13 -9.31,10.3 -18.08,20.44 -25.06,29.36 -18.12,23.2 -27.23,48.86 -27.25,73.05 0,14.63 3.38,28.74 10.22,41.05 6.82,12.3 17.14,22.73 30.24,29.84 7.04,3.81 15.85,1.21 19.68,-5.83 3.83,-7.04 1.22,-15.87 -5.82,-19.68 -8.35,-4.57 -14.46,-10.8 -18.72,-18.42 -4.24,-7.63 -6.57,-16.76 -6.57,-26.96 -0.02,-16.8 6.45,-36.44 21.1,-55.17 6.27,-8.03 14.69,-17.78 23.72,-27.79 13.55,-15 28.49,-30.57 40.01,-42.38 5.75,-5.9 10.67,-10.85 14.13,-14.32 1.72,-1.74 3.1,-3.11 4.03,-4.04 0.48,-0.47 0.83,-0.82 1.08,-1.05 0.23,-0.25 0.35,-0.37 0.35,-0.37 5.69,-5.63 5.75,-14.82 0.12,-20.51 -5.64,-5.71 -14.83,-5.77 -20.53,-0.11z"/>
  <path class="fil0" d="M1648.99 1370.11l0 -56.78 15.54 -17.11c2.42,-2.67 3.78,-6.17 3.78,-9.77l0 -34.78c0,-8.01 -6.51,-14.51 -14.52,-14.51 -8.01,0 -14.51,6.5 -14.51,14.52l0 29.16 -15.55 17.12c-2.42,2.65 -3.77,6.16 -3.77,9.76l0 62.39c0,8.01 6.49,14.51 14.51,14.51 8.02,0 14.52,-6.5 14.52,-14.51z"/>
  <path class="fil0" d="M2130.71 877.69c-0.47,0.06 -25.29,3.06 -62.43,12.5 -27.84,7.1 -62.64,17.8 -99.31,33.73 -27.52,11.94 -56.08,26.78 -83.56,45.28 -41.2,27.73 -80.02,63.73 -108.58,110.29 -14.28,23.26 -25.97,49.15 -34.06,77.81 -8.09,28.68 -12.58,60.08 -12.56,94.38 0,5.03 2.57,9.67 6.85,12.32 4.3,2.67 9.58,2.91 14.11,0.68l-4.18 -8.44 4.08 8.48 0.1 -0.04 -4.18 -8.44 4.08 8.48 -0.6 -1.22 0.58 1.22 0.02 0 -0.6 -1.22 0.58 1.22c0.16,-0.08 20.01,-9.39 77.5,-18.6 57.5,-9.21 152.61,-18.34 303.2,-18.34 8.02,0 14.52,-6.51 14.52,-14.52 0,-8.01 -6.5,-14.51 -14.52,-14.51 -155.39,0 -252.9,9.64 -311.98,19.39 -59.08,9.79 -79.77,19.68 -81.51,20.53l6.46 13 14.52 0c0,-37.63 5.8,-70.98 15.89,-100.68 8.82,-25.99 20.91,-49.21 35.41,-70.07 25.37,-36.5 58.11,-65.74 93.22,-89.08 52.63,-34.98 110.51,-56.48 155.1,-69.06 22.29,-6.31 41.25,-10.39 54.59,-12.89 6.66,-1.24 11.9,-2.09 15.46,-2.63 1.78,-0.27 3.11,-0.47 4.01,-0.58 0.44,-0.06 0.77,-0.1 0.98,-0.14l0.24 -0.02 0.03 0 -0.13 -1.12 0.13 1.12 -0.13 -1.12 0.13 1.12c7.96,-0.97 13.65,-8.18 12.68,-16.14 -0.95,-7.97 -8.17,-13.64 -16.14,-12.69z"/>
  <path class="fil0" d="M1744.72 1237.16l-18.81 0c-3.83,0 -7.56,1.55 -10.27,4.24 -2.69,2.71 -4.24,6.44 -4.24,10.28l0 59.21c0,4.9 2.5,9.5 6.62,12.17 4.1,2.67 9.35,3.08 13.82,1.07l-2.91 -6.49 2.85 6.53 0.06 -0.04 -2.91 -6.49 2.85 6.53c0.06,-0.04 23.1,-10.07 84.74,-20.03 61.59,-9.99 161.76,-19.93 315.93,-19.93l0 -14.52 -14.51 0 0 125.4c0,8.01 6.48,14.51 14.51,14.51 8.01,0 14.51,-6.5 14.51,-14.51l0 -125.4c0,-3.83 -1.54,-7.56 -4.25,-10.25 -2.71,-2.71 -6.45,-4.26 -10.26,-4.26 -157.89,0 -260.3,10.33 -323.58,20.78 -63.29,10.47 -87.48,21.06 -88.9,21.68l5.94 13.25 14.52 0 0 -44.7 4.29 0c8.02,0 14.52,-6.5 14.52,-14.51 0,-8.02 -6.5,-14.52 -14.52,-14.52z"/>
  <path class="fil0" d="M1711.4 1310.89l0 84.2c0,8.01 6.48,14.51 14.51,14.51 8.02,0 14.52,-6.5 14.52,-14.51l0 -84.2c0,-8.03 -6.5,-14.51 -14.52,-14.51 -8.03,0 -14.51,6.48 -14.51,14.51z"/>
  <path class="fil0" d="M1803.9 1289.14l0 309.37c0,8.01 6.5,14.52 14.51,14.52 8.02,0 14.52,-6.51 14.52,-14.52l0 -309.37c0,-8.03 -6.5,-14.51 -14.52,-14.51 -8.01,-0.01 -14.51,6.48 -14.51,14.51z"/>
  <path class="fil0" d="M1914.67 1276.66l0 175.55c0,8.02 6.48,14.52 14.51,14.52 8.01,0 14.52,-6.5 14.52,-14.52l0 -175.55c0,-8.02 -6.51,-14.52 -14.52,-14.52 -8.03,0 -14.51,6.51 -14.51,14.52z"/>
  <path class="fil0" d="M2020.06 1271.14l0 247.95c0,8.01 6.5,14.52 14.51,14.52 8.01,0 14.51,-6.5 14.51,-14.52l0 -247.95c0,-8.01 -6.5,-14.51 -14.51,-14.51 -8.01,0 -14.51,6.5 -14.51,14.51z"/>
  <path class="fil0" d="M2075.75 1169.37l0 44.12c0,8.03 6.48,14.52 14.51,14.52 8.02,0 14.52,-6.48 14.52,-14.52l0 -44.12c0,-8.01 -6.5,-14.51 -14.52,-14.51 -8.03,0 -14.51,6.5 -14.51,14.51z"/>
  <path class="fil0" d="M1960.92 1169.37l0 43.89c0,8.01 6.5,14.52 14.51,14.52 8.02,0 14.52,-6.51 14.52,-14.52l0 -43.89c0,-8.01 -6.51,-14.51 -14.52,-14.51 -8.01,0 -14.51,6.5 -14.51,14.51z"/>
  <path class="fil0" d="M1847.25 1191.43l0 35.36c0,8.01 6.48,14.51 14.51,14.51 8.01,0 14.52,-6.5 14.52,-14.51l0 -35.36c0,-8.01 -6.51,-14.51 -14.52,-14.51 -8.03,0 -14.51,6.5 -14.51,14.51z"/>
  <path class="fil0" d="M2103.81 897.27l20.77 -54.34c0.59,-1.6 0.94,-3.44 0.94,-5.16l0 -36.23c0,-3.82 -1.55,-7.56 -4.25,-10.26 -2.69,-2.71 -6.45,-4.25 -10.26,-4.25l-6.23 0 0 -12.78 27.67 0c3.81,0 7.55,-1.55 10.26,-4.25 2.71,-2.7 4.25,-6.44 4.25,-10.26l0 -94.75c0,-8.01 -6.5,-14.51 -14.51,-14.51 -8.03,0 -14.51,6.5 -14.51,14.51l0 80.23 -27.67 0c-3.84,0 -7.57,1.55 -10.28,4.26 -2.69,2.7 -4.24,6.44 -4.24,10.26l0 41.8c0,3.82 1.55,7.56 4.24,10.26 2.71,2.7 6.44,4.25 10.27,4.25l6.24 0 0 19.03 -19.8 51.84c-2.86,7.49 0.89,15.89 8.38,18.75 7.49,2.84 15.89,-0.91 18.73,-8.38l0 -0.02z"/>
  <path class="fil1" d="M2132.45 1852.91l-195.45 0c-8.03,0 -14.51,6.5 -14.51,14.51 0,8.01 6.48,14.51 14.51,14.51l195.45 0c8.01,0 14.51,-6.5 14.51,-14.51 0,-8.01 -6.5,-14.51 -14.51,-14.51z"/>
  <path class="fil0" d="M2132.45 1895l-233.07 0 -80.96 0c-8.02,0 -14.52,6.5 -14.52,14.51 0,8.01 6.5,14.51 14.51,14.51l80.97 0 233.07 0c8.01,0 14.51,-6.5 14.51,-14.51 0,-8.01 -6.5,-14.51 -14.51,-14.51z"/>
  <path class="fil0" d="M2117.94 703.63c-0.18,-0.01 -0.41,-0.02 -0.7,-0.04l0 -0.73c0.29,0.19 0.52,0.34 0.7,0.47l0 0.3z"/>
  <path class="fil0" d="M2118.35 703.66c0,0 -0.14,-0.01 -0.41,-0.03l0 -0.3c0.27,0.21 0.4,0.33 0.41,0.33z"/>
  <path class="fil0" d="M3481.44 1142.51c0.74,-0.81 1.47,-1.64 2.23,-2.47 0.23,-0.28 0.48,-0.55 0.73,-0.82 5.29,1.49 7.2,3.22 7.2,3.22 0,-0.01 -1.6,-0.12 -4.25,-0.12 -1.63,0 -3.64,0.04 -5.91,0.19z"/>
  <path class="fil0" d="M3606.22 1038.19l0.66 -9.27c0,0 -5.46,-3.14 -14.8,-3.14 -6.23,0 -14.19,1.4 -23.4,6.04l0 -4.76c6.48,-4.82 14.57,-9 23.13,-9 1.25,0 2.53,0.08 3.83,0.28 6.5,0.98 11.01,2.14 14.14,3.3l0 15.66 -3.56 0.89zm32.59 -8.15l0 -0.85 1.82 0.41 -1.82 0.44zm0 -14.8l0 -10.36c1.39,-0.23 2.88,-0.38 4.47,-0.44 1.18,-0.02 2.32,-0.04 3.41,-0.04 19.75,0 25.69,5.34 25.69,5.34 0.01,0 -1.6,-0.11 -4.25,-0.11 -6.39,0 -18.81,0.71 -29.32,5.61z"/>
  <path class="fil0" d="M3553.95 1041.5c0,0 5.87,-7.82 14.73,-14.44l0 4.76c-4.6,2.34 -9.54,5.48 -14.73,9.68z"/>
  <path class="fil0" d="M3609.78 1037.3l0 -15.66c7.36,2.69 7.03,5.31 7.03,5.31 0,0 3.42,-18.87 22,-22.06l0 10.35c-5.3,2.47 -10.1,6.02 -13.41,11.05l13.41 2.9 0 0.85 -29.03 7.26z"/>
  <path class="fil0" d="M572.81 1122.35c0,0 15.83,-21.09 34.77,-23.26 -2.88,3.02 -5.82,6.09 -8.78,9.23 -7.51,2.03 -16.3,6.21 -25.99,14.03zm56.97 -4.47c6.75,-7.05 13.19,-13.7 19.03,-19.66 0.46,-0.49 0.91,-0.95 1.36,-1.41 0.08,-0.08 0.16,-0.16 0.24,-0.24 4.03,-4.12 7.75,-7.89 11.05,-11.24 0.22,0 0.44,-0.02 0.67,-0.02 1.18,-0.04 2.32,-0.06 3.42,-0.06 19.76,0 25.69,5.34 25.69,5.34 0,0 -1.61,-0.11 -4.26,-0.11 -9.6,0 -32.86,1.62 -42.71,16.66l15.21 3.31 -29.7 7.43z"/>
  <path class="fil0" d="M625.08 1119.06l0.66 -9.27c0,0 -5.46,-3.14 -14.8,-3.14 -3.53,0 -7.6,0.45 -12.14,1.67 2.96,-3.14 5.9,-6.21 8.78,-9.23 1.02,-0.12 2.05,-0.18 3.08,-0.18 1.27,0 2.55,0.1 3.83,0.29 21.84,3.31 21.17,8.6 21.17,8.6 0.01,0 0.56,-3.02 2.41,-6.85 0.6,0.07 1.22,0.11 1.85,0.11 4,0 7.63,-1.62 10.25,-4.25 -0.45,0.46 -0.9,0.92 -1.36,1.41 -5.84,5.96 -12.28,12.61 -19.03,19.66l-4.7 1.18zm25.33 -22.49c2.49,-2.61 4.02,-6.13 4.02,-10.02l0 0 0 -0.06c2.11,-0.62 4.45,-1.02 7.03,-1.16 -3.3,3.35 -7.02,7.12 -11.05,11.24z"/>
  <path class="fil0" d="M639.92 1101.06c-0.63,0 -1.25,-0.04 -1.85,-0.11 2.49,-5.17 7.33,-11.79 16.36,-14.46l0 0.06 0 0c0,3.89 -1.53,7.41 -4.02,10.02 -0.08,0.08 -0.16,0.16 -0.24,0.24 -2.62,2.63 -6.25,4.25 -10.25,4.25z"/>
  <path class="fil0" d="M753.43 1148.07l0.66 -9.25c0,0 -5.46,-3.16 -14.8,-3.16 -0.71,0 -1.45,0.02 -2.2,0.06 -2.08,-2.21 -4.15,-4.41 -6.21,-6.58 2.64,-0.77 5.36,-1.2 8.14,-1.2 1.26,0 2.54,0.08 3.82,0.29 21.84,3.31 21.17,8.59 21.17,8.59 0,0 0.9,-4.93 4.27,-10.19 2.11,2.28 4.23,4.58 6.32,6.89 -0.71,0.83 -1.37,1.7 -1.98,2.65l5.49 1.19c0.81,0.9 1.62,1.79 2.43,2.68 0.31,0.34 0.62,0.69 0.92,1.02l-28.03 7.01z"/>
  <path class="fil0" d="M2634.2 1580.38c0,0 0.31,-0.41 0.89,-1.1l0.5 0c-0.45,0.34 -0.91,0.71 -1.39,1.1zm86.25 -26.88c1.27,-1.9 2.47,-3.83 3.58,-5.82 0.79,-1.44 1.54,-2.91 2.26,-4.42 0.21,0 0.43,0 0.66,0 19.76,0 25.68,5.36 25.68,5.36 0,0 -1.61,-0.13 -4.24,-0.13 -6.12,0 -17.75,0.66 -27.94,5.01z"/>
  <path class="fil0" d="M2635.59 1579.28l-0.5 0c3.77,-4.65 19.37,-22.35 36.98,-22.35 0.81,0 1.64,0.03 2.47,0.11 -1.41,2.28 -2.18,4.94 -2.2,7.63 -9.08,0 -21.79,2.94 -36.75,14.61zm64.58 -5.63c3.42,-2.31 6.61,-4.86 9.54,-7.61l11.16 2.42 -20.7 5.19z"/>
  <path class="fil0" d="M2686.47 1577.07l0.67 -9.27c0,0 -5.46,-3.13 -14.8,-3.13 0.02,-2.69 0.79,-5.34 2.2,-7.63 0.45,0.06 0.89,0.12 1.34,0.18 21.85,3.3 21.17,8.59 21.17,8.59 0,0 3.99,-21.83 26.47,-22.49 0.95,-0.02 1.88,-0.04 2.77,-0.06 -0.72,1.51 -1.47,2.98 -2.26,4.42 -1.11,1.99 -2.31,3.92 -3.58,5.82 -5.85,2.5 -11.21,6.19 -14.79,11.65l4.05 0.89c-2.92,2.75 -6.12,5.3 -9.54,7.61l-13.7 3.42z"/>
 </g>
</svg>
