<?xml version="1.0" encoding="UTF-8"?>
<!DOCTYPE svg PUBLIC "-//W3C//DTD SVG 1.1//EN" "http://www.w3.org/Graphics/SVG/1.1/DTD/svg11.dtd">
<!-- Creator: CorelDRAW -->
<svg xmlns="http://www.w3.org/2000/svg" xml:space="preserve" width="16.9332mm" height="16.9332mm" version="1.1" style="shape-rendering:geometricPrecision; text-rendering:geometricPrecision; image-rendering:optimizeQuality; fill-rule:evenodd; clip-rule:evenodd"
viewBox="0 0 1693.32 1693.32"
 xmlns:xlink="http://www.w3.org/1999/xlink"
 xmlns:xodm="http://www.corel.com/coreldraw/odm/2003">
 <defs>
  <style type="text/css">
   <![CDATA[
    .fil0 {fill:#2B2B2A}
    .fil1 {fill:#FD5631}
   ]]>
  </style>
 </defs>
 <g id="Layer_x0020_1">
  <metadata id="CorelCorpID_0Corel-Layer"/>
  <path class="fil0" d="M462.77 693.82c7.89,2.43 277.42,211.91 291.63,228.57 -6.46,18.22 -21.68,33.75 -34.12,45.11 -16.69,-5.35 -277.87,-212.88 -292.97,-231.28l35.46 -42.4zm484.76 -31.64c31.37,20.6 8.73,29.86 17.43,54.63 3.53,10.04 309.1,238.05 324.21,249.39 62.05,46.56 123.08,94.58 184.64,140.83 22.98,17.28 80.7,50.83 81.87,79.66 1.88,46.56 -48.6,80.3 -83.4,51.25 -119.11,-99.42 -236.12,-196.14 -356.05,-294.75 -58.45,-48.06 -120.04,-96.47 -177.24,-145.99 -36.51,-31.61 -21.64,-13.41 -52.88,-10.03 -9.86,1.07 -25.94,-1.97 -27.09,-11.8 -0.87,-7.41 78.48,-104.69 88.51,-113.19zm-419.61 31.83c9.41,-24.22 236.56,-292.75 260.91,-335.01 17.74,6.83 208.98,159.64 215.47,169.53 -10.51,19.8 -50.06,65.59 -66.24,85.38l-132.18 166.82c-17.32,21.3 -48.1,65.56 -65.8,80.87l-212.16 -167.59zm249.02 -392.7c5.56,-17 24.87,-39.85 36.49,-47.86 35.85,15.77 242.95,198.22 290.34,225.92 -4.85,18.47 -20.56,34.56 -32.74,47.24 -16.33,-2.9 -62.39,-42.32 -77.62,-54.85l-216.47 -170.45zm-8.7 666.51c24.09,-30.48 35.4,-58.76 -0.43,-80.8l63.27 -81.86c22.39,8.58 29.15,20.87 60.08,17.46 28.89,-3.18 29.54,5.75 50.55,23.04 29.64,24.4 57.53,47.63 87.38,72.18l344.59 285.06c24.38,20.54 62.97,55.8 87.66,71.77 78.24,50.64 178.38,-76.49 106.82,-140.67 -51.79,-46.45 -368.2,-279.57 -448.53,-341.19 -31.99,-24.55 -58.96,-46.42 -90.81,-69.78 -35.02,-25.67 -20.94,-7.37 -28.78,-46.85 -4.48,-22.58 -17.5,-28.54 -28.55,-44.9 11.86,-19.59 49.65,-66.48 63.48,-80.74 40.76,27.44 55.77,9.51 79.52,-19.53 51.36,-62.82 21.25,-71.91 -63.69,-137.76 -23.73,-18.39 -45.57,-35.51 -68.3,-53.95 -24.44,-19.83 -47.3,-36.72 -70.62,-55.69 -94.78,-77.09 -96.31,-90.44 -149.86,-27.99 -34.18,39.87 -21.48,51.13 -0.53,79.75 -6.72,15.58 -111.46,142.8 -131.78,169.27 -25.29,32.97 -116.09,142.17 -129.73,165.85 -44.77,-18.1 -49.24,-20.88 -80.63,16.82 -24.42,29.34 -42.17,55.18 -9.43,84.28l209.09 165.82c86.15,66.77 96.39,97.24 149.23,30.41z"/>
  <path class="fil0" d="M173.35 1306.25c-9.31,-43.57 7.65,-59.94 48.09,-59.98l552.92 0.18c110.86,0 165.87,-17.54 156.61,59.9l-757.62 -0.1zm109.12 -129.89l537.74 -0.17 0.36 34.47 -538.14 -0.14 0.04 -34.16zm-35.5 33.78c-79.14,3.18 -111.72,7.85 -111.78,93.73 -0.02,26.67 -0.92,37.27 28.74,38.45 85.48,3.38 179.99,-0.31 266.52,-0.31 71.75,0 504.68,6.31 533.61,-4.3 9.55,-33.09 4.78,-80.43 -14.29,-102.95 -21.8,-25.75 -51.57,-23.2 -93.45,-24.44 0.23,-88.48 15.87,-69.82 -151.56,-69.82l-311.16 0c-155.9,0 -150.32,-18.8 -146.63,69.64z"/>
  <path class="fil1" d="M427.31 736.22c15.1,18.4 276.28,225.93 292.97,231.28 12.44,-11.36 27.66,-26.89 34.12,-45.11 -14.21,-16.66 -283.74,-226.14 -291.63,-228.57l-35.46 42.4z"/>
 </g>
</svg>
