<?xml version="1.0" encoding="UTF-8"?>
<!DOCTYPE svg PUBLIC "-//W3C//DTD SVG 1.1//EN" "http://www.w3.org/Graphics/SVG/1.1/DTD/svg11.dtd">
<!-- Creator: CorelDRAW -->
<svg xmlns="http://www.w3.org/2000/svg" xml:space="preserve" width="16.9332mm" height="16.9332mm" version="1.1" style="shape-rendering:geometricPrecision; text-rendering:geometricPrecision; image-rendering:optimizeQuality; fill-rule:evenodd; clip-rule:evenodd"
viewBox="0 0 1693.32 1693.32"
 xmlns:xlink="http://www.w3.org/1999/xlink"
 xmlns:xodm="http://www.corel.com/coreldraw/odm/2003">
 <defs>
  <style type="text/css">
   <![CDATA[
    .fil0 {fill:#2B2B2A}
    .fil1 {fill:#FD5631}
   ]]>
  </style>
 </defs>
 <g id="Layer_x0020_1">
  <metadata id="CorelCorpID_0Corel-Layer"/>
  <path class="fil0" d="M292.17 473.66c-34.66,0 -62.86,28.2 -62.86,62.86l0 720.8c0,34.66 28.2,62.86 62.86,62.86l1122.43 0c34.66,0 62.86,-28.2 62.86,-62.86l0 -720.8c0,-34.66 -28.2,-62.86 -62.86,-62.86l-1122.43 0zm1122.43 914.22l-1122.43 0c-71.99,0 -130.56,-58.57 -130.56,-130.56l0 -720.8c0,-71.99 58.57,-130.56 130.56,-130.56l1122.43 0c71.99,0 130.56,58.57 130.56,130.56l0.01 720.8c0,71.99 -58.58,130.56 -130.57,130.56z"/>
  <polygon class="fil1" points="1511.32,818.58 195.46,818.58 195.46,784.73 1511.32,784.73 "/>
  <path class="fil0" d="M697.58 405.96l311.61 0 0 -136.69c0,-8 -6.51,-14.51 -14.51,-14.51l-282.59 0c-8,0 -14.51,6.51 -14.51,14.51l0 136.69zm379.31 67.7l-447 0 0 -204.39c0,-45.33 36.87,-82.21 82.2,-82.21l282.59 0c45.33,0 82.21,36.88 82.21,82.21l0 204.39z"/>
  <path class="fil1" d="M738.81 784.73l0 31.79c0,62.66 50.97,113.64 113.64,113.64l1.88 0c62.66,0 113.64,-50.98 113.64,-113.64l0 -31.79 -229.16 0z"/>
 </g>
</svg>
