<?xml version="1.0" encoding="UTF-8"?>
<!DOCTYPE svg PUBLIC "-//W3C//DTD SVG 1.1//EN" "http://www.w3.org/Graphics/SVG/1.1/DTD/svg11.dtd">
<!-- Creator: CorelDRAW -->
<svg xmlns="http://www.w3.org/2000/svg" xml:space="preserve" width="16.9332mm" height="16.9332mm" version="1.1" style="shape-rendering:geometricPrecision; text-rendering:geometricPrecision; image-rendering:optimizeQuality; fill-rule:evenodd; clip-rule:evenodd"
viewBox="0 0 1693.32 1693.32"
 xmlns:xlink="http://www.w3.org/1999/xlink"
 xmlns:xodm="http://www.corel.com/coreldraw/odm/2003">
 <defs>
  <style type="text/css">
   <![CDATA[
    .fil0 {fill:#2B2B2A}
    .fil1 {fill:#FD5631}
   ]]>
  </style>
 </defs>
 <g id="Layer_x0020_1">
  <metadata id="CorelCorpID_0Corel-Layer"/>
  <path class="fil0" d="M1092.3 1205.09c-25.8,8.88 -54.25,23.04 -79.56,34.32 -42.51,18.93 -57.45,33.88 -72.13,18.88 -9.59,-9.8 -62.12,-132.55 -69.05,-152.51l203.34 -91.83 161.9 361.41 -201.59 90.58 -27.54 -57.78 145.68 -69.98 -25 -46.27 -144.44 64.42 -15.04 -38.3 147.82 -66.77 -24.39 -46.17zm-589.18 -373.87c9.45,-10.91 550.22,-264.43 606.19,-272.45 62.14,-8.91 79.14,100.15 129.81,198.57 18.57,36.07 42.67,84.4 16.83,108.81 -26.46,24.98 -420,194.22 -486.12,223.87 -143.65,64.42 -144.84,82.66 -192.44,-27.28 -17.86,-41.24 -36.02,-82.17 -54.59,-123.09 -19.71,-43.47 -46.73,-77.16 -19.68,-108.43zm403.16 -424.86c0.71,156.65 -143.43,248.11 -268.23,223.49 -31.35,-6.19 -82.65,-25.18 -107.54,-54.51l375.77 -168.98zm-107.81 -14.16c-42,19.08 -309.94,152.11 -337.62,143 -4.42,-17.61 117.97,-64.25 139,-73.88 32.61,-14.91 293.85,-136.85 311.86,-137.51 10.22,-0.37 3.16,-0.59 10.15,2.44 -13.09,32.31 -88.96,50.31 -123.39,65.95zm-336.2 72.93c-33.37,-102.18 19.15,-220.73 127.7,-267.47 103.99,-44.79 224,-4.78 278.41,82.88l-406.11 184.59zm622.06 38.38l-146.2 63.93c-4.11,-3.41 -3.3,4.32 -10.27,-13.39 -5.52,-14.03 2.13,-18.92 8.83,-30.12 19.78,-33.06 25.19,-84.46 25.84,-125.72 0.59,-37.93 21.99,-56.32 12.82,-85.85 -12.27,-39.48 -38.58,-33.73 -64.32,-67.2 -135.55,-176.29 -288.64,-104.51 -321.25,-109.54 -33.84,24.22 -63.12,29.17 -100.27,61.85 -24.11,21.2 -46.03,49.07 -57.77,72.51 -64.08,128.03 -19.48,194.65 -22.06,232.81 -0.88,13.02 -21.21,62.03 29.11,85.95 24.49,11.65 17.61,-1.15 39.42,15.78 29.3,22.74 43.96,39.44 73.99,53.42 22.85,10.64 67.75,19.15 75.72,47.55 -53.48,39.75 -157.06,53.15 -185.45,114.77 -24.16,52.44 29.71,140.76 57.54,200.89 103.4,223.38 94.39,208.48 319.69,106.37 25.61,56.26 169.02,386.87 189.47,408.68 53.82,-20.42 262.43,-108.91 297.92,-138.19 -41.65,-125.3 -125.92,-284.86 -183.04,-408.27 169.28,-75.54 241.41,-83.2 169.78,-240.77 -28.03,-61.66 -55.21,-125.6 -84.54,-186.4 -31.07,-64.43 -63.36,-70.63 -124.96,-59.06z"/>
  <path class="fil1" d="M940.81 911.61c14.79,-15.96 11.25,-12.28 2.84,-61.14 -3.61,-20.93 -8.51,-42.16 -8.5,-63.36 31.26,28.75 65.81,99.12 91.97,85.39 18.52,-9.72 3.77,-51.27 -2.84,-85.92 -4.94,-25.9 -4.43,-61.67 -25.79,-78.66 -33.69,19.06 -3.9,44.84 3.69,116.81 -24.14,-24.53 -50.65,-71.33 -77.01,-83.14l-18.8 8.67c-7.58,32.75 13.13,73.03 9.41,106.11 -16.33,-12.3 -32.37,-39.37 -46.97,-58.46 -27.35,-35.79 -48.87,-19.93 -28.35,12.56l68.99 88.78c12.84,14.63 13.56,15.3 31.36,12.36z"/>
  <path class="fil0" d="M1072.12 1588.14l223.15 -104.73 -20.17 -43.69c-28.61,2.06 -186.74,80.77 -225.92,98.53l22.94 49.89z"/>
  <path class="fil1" d="M560.62 909.85c15.36,50.01 38.24,97.88 64.3,143.22 44.71,-18.94 0.28,-37.73 -16.9,-106.14 75.72,37.15 88.28,80.06 127.51,54.99 -8.21,-32.8 -44,-124.58 -66.65,-142.99l-15.12 6.38c-1.97,26.85 26.09,71.48 37.51,98.21l-7.38 -2.9c-4.87,-2.3 -4.65,-1.97 -10.14,-5.1 -38.12,-21.76 -92.94,-74.66 -113.13,-45.67z"/>
  <path class="fil1" d="M1144.18 754.28c12.26,23.24 8.85,42.59 -20.76,47.87 -33.54,5.98 -21.32,-27.91 -57.82,-10.86 12.91,64.52 111.02,33.72 116.3,-16.96 6.64,-63.86 -60.32,-48.57 -84.11,-44.7 -23.01,3.75 -26.44,5.66 -34.08,-18.74 8.03,-9.28 19.13,-21.33 36.51,-19.29 29.14,3.42 9.43,23.02 39.7,7 7.86,-55.88 -91.86,-31.98 -102.29,10.27 -17.18,69.54 74.45,44.17 106.55,45.41z"/>
  <path class="fil1" d="M720.75 871.83l52.34 110.05 80.42 -33.38c21.37,-9.68 25.96,-8.73 18.14,-29.72 -23.66,-1.22 -54.89,21.18 -81.91,29.04l-17.25 -37.35 69.84 -35.54c-19.54,-35.97 -22.4,-5.12 -81.34,10.08l-14.16 -32.68c23,-13.45 59.49,-20.9 72.27,-41.5 -12.53,-21.24 -10.1,-14.89 -80.5,17.02 -28.9,13.1 -31.34,14.22 -17.85,43.98z"/>
 </g>
</svg>
