<?xml version="1.0" encoding="UTF-8"?>
<!DOCTYPE svg PUBLIC "-//W3C//DTD SVG 1.1//EN" "http://www.w3.org/Graphics/SVG/1.1/DTD/svg11.dtd">
<!-- Creator: CorelDRAW -->
<svg xmlns="http://www.w3.org/2000/svg" xml:space="preserve" width="16.9332mm" height="16.9332mm" version="1.1" style="shape-rendering:geometricPrecision; text-rendering:geometricPrecision; image-rendering:optimizeQuality; fill-rule:evenodd; clip-rule:evenodd"
viewBox="0 0 1693.32 1693.32"
 xmlns:xlink="http://www.w3.org/1999/xlink"
 xmlns:xodm="http://www.corel.com/coreldraw/odm/2003">
 <defs>
  <style type="text/css">
   <![CDATA[
    .str0 {stroke:#FD5631;stroke-width:7.62;stroke-miterlimit:22.9256}
    .fil1 {fill:#2B2B2A}
    .fil0 {fill:#FD5631}
   ]]>
  </style>
 </defs>
 <g id="Layer_x0020_1">
  <metadata id="CorelCorpID_0Corel-Layer"/>
  <path class="fil0" d="M914.67 372.92c-9.05,4.08 -19.24,6.78 -17.29,19.53 1.73,11.25 8.96,15.3 14.96,23.43 77.8,32.44 135.5,86.7 202.19,46.12 32.86,12.49 84.87,55.95 104.02,84.13 30.56,44.96 29.63,98.64 -6.92,135.88 -32.76,33.39 -88.49,41.43 -148.16,39.29 -37.45,-1.34 -130.54,-12.59 -160.25,-25.97 -15.65,-2.74 -30.87,-7.86 -46.62,-11.38 -16.5,-3.68 -31.5,-5.81 -47.58,-8.71 -63.73,-7.81 -130.63,-5.99 -183.55,17.96 -42.81,19.37 -89.25,61.02 -102.01,109.46 -14.64,23.32 -18.64,84.45 -13.22,115.63 23.67,136.15 197.78,167.2 225.01,184.45 -8.69,6.83 -18.61,12.92 -26.72,20.03 -159.22,139.61 -66.57,392.24 131.04,404.42l-3.43 -76.54c-53.92,-12.09 -56.64,-16.81 -90.5,-46.3 -21.65,-18.86 -40.25,-58.64 -42.15,-97.82 -3.82,-78.73 49.15,-138.54 124.31,-156.27 19.47,-4.25 39.66,-3.11 59.16,0.65 45.23,14.13 60.99,25.33 84.93,51.65 20.33,22.35 36.24,60.72 35.17,102.04 -2.05,78.87 -59.28,132.31 -129.72,145.55 -3.19,9.07 -4.32,63.75 -4.34,77.01 163.74,-10.66 261.17,-187.29 188.18,-332.19 -7.93,-15.73 -29.86,-45.47 -30.25,-47.41 -12.46,-6.3 -18.81,-18.03 -30.3,-26.76 -10.44,-7.93 -18.64,-14.05 -31.23,-21.69 -22.66,-13.77 -51.41,-20.76 -79.7,-28.84l-67.31 -18.03c-79.71,-21.1 -237.35,-58.16 -244.72,-157.35 -7.21,-97.09 61.54,-149.12 147.46,-153.59 15.04,-0.78 83.75,1.37 92.49,6.93 18.32,0.66 65.05,13.69 82.77,19.52 91.58,22.35 193.3,44.5 286.85,10.17 71.18,-26.12 140.91,-99.22 120.05,-202.19 -16.66,-82.25 -93.48,-137.99 -154.99,-173.33 -38.84,-22.3 -20.71,-6.18 -49.81,-33.79 -51.84,-49.18 -136.6,-21.58 -187.82,4.31z"/>
  <path class="fil1" d="M791.73 298.19c-6.54,23.44 -12.38,21.31 -10.61,54.12 5.18,95.8 8.49,217.05 11.38,313.89l4.32 127.24 2.23 45.52 8.09 209.27c88.85,23.82 76.15,22.51 97.47,26.24l7.73 -236.85 2.33 -42.96c7.42,-123.37 7.65,-252.43 13.36,-377.21 2.14,-46.74 14.5,-100.28 -20.42,-131.49 -13.65,-12.21 -34.58,-21.34 -60.14,-19.86 -9.12,-2.7 -25.65,6.03 -32.75,10.47 -6.39,4 -6.67,4.11 -12.45,10.05 -4.56,4.68 -6.87,8.56 -10.54,11.57z"/>
  <path class="fil0" d="M537.96 415.78c-49.8,29.7 -108.73,80.37 -128.72,144.71 -19.99,64.38 2.64,133.36 48.62,177.51 5.86,5.63 10.94,7.51 16.54,14.74 11.41,4.46 20.86,12.8 34.65,18.12 1.5,-1.5 1.1,-0.89 2.96,-3.62 0.89,-1.3 1.74,-2.82 2.37,-3.9 24.92,-42.88 30.97,-37.36 40.95,-49.99 -10.37,-7.92 -45.72,-12.38 -66.67,-46.79 -69.47,-114.12 103.6,-203.76 108.05,-204.22 12.2,-1.26 28.48,34.14 107.3,-0.4 20.65,-9.05 83.33,-41.34 95.04,-44.72 6.65,-9.59 18.62,-13.37 15.63,-34.85 -8.38,-6.58 -10.7,-5.9 -17.86,-10.66 -17.23,-4.89 -31.52,-17.15 -67.39,-25.37 -24.88,-5.71 -56.76,-6.69 -81.25,0.63 -34.18,10.21 -45.65,31.69 -52.68,36.94 -6.74,5.04 -22.15,10.88 -29.78,15.17 -9.38,5.26 -19.61,11.12 -27.76,16.7z"/>
  <path class="fil1" d="M803.04 210.39c19.16,8.61 38.42,18.06 64.73,14.76 59.4,-7.46 106.9,-69.74 71.88,-144.04 -3.67,-2.38 -3.33,-4.18 -4.98,-7.77 -17.09,-37.23 -98.32,-62.2 -144.7,-15.11 -18.77,19.06 -34.97,44.26 -30.4,83.99 5.88,51.12 40.73,62.87 43.47,68.17z"/>
  <path class="fil0 str0" d="M1092.61 1054.79c21.75,-13.35 43.78,-27.11 60.83,-43.62 8.25,-7.98 16.83,-18.23 23.88,-29.23 6.36,-9.92 11.51,-23.7 17.08,-32.11 5.28,-28.03 11.88,-39.37 10.77,-73.39 -0.95,-28.81 -8.49,-46.73 -13.41,-72.21l-69.73 13.11c-4,21.63 53.55,97.55 -42.84,162.46 -39.94,26.89 -115.03,55.43 -168.87,68.05 4.93,3.36 51.09,17.82 90.04,40.87 9.88,5.84 34.79,-7.61 45.21,-12.1 13.75,-5.93 34.41,-18.01 47.04,-21.83z"/>
  <path class="fil1" d="M822.39 1526.07l15.39 72.42 51.92 72.18 10.69 -514.99c-33.96,-13.66 -57.85,-9.77 -76.73,-5.95l-13.14 5.48 11.87 370.86z"/>
 </g>
</svg>
