<?xml version="1.0" encoding="UTF-8"?>
<!DOCTYPE svg PUBLIC "-//W3C//DTD SVG 1.1//EN" "http://www.w3.org/Graphics/SVG/1.1/DTD/svg11.dtd">
<!-- Creator: CorelDRAW -->
<svg xmlns="http://www.w3.org/2000/svg" xml:space="preserve" width="42.3332mm" height="33.8666mm" version="1.1" style="shape-rendering:geometricPrecision; text-rendering:geometricPrecision; image-rendering:optimizeQuality; fill-rule:evenodd; clip-rule:evenodd"
viewBox="0 0 4233.32 3386.66"
 xmlns:xlink="http://www.w3.org/1999/xlink"
 xmlns:xodm="http://www.corel.com/coreldraw/odm/2003">
 <defs>
  <style type="text/css">
   <![CDATA[
    .str0 {stroke:#FD5631;stroke-width:7.62;stroke-miterlimit:22.9256}
    .fil0 {fill:#2B2B2A}
    .fil1 {fill:#FD5631}
   ]]>
  </style>
 </defs>
 <g id="Layer_x0020_1">
  <metadata id="CorelCorpID_0Corel-Layer"/>
  <path class="fil0" d="M2095.15 1116.32l547.53 0 0 2011.17c0,8.09 6.57,14.66 14.66,14.66 8.09,0 14.65,-6.57 14.65,-14.65l0 -2025.83c0,-3.87 -1.56,-7.64 -4.3,-10.36 -2.71,-2.73 -6.5,-4.3 -10.35,-4.3l-562.19 0c-8.08,0 -14.65,6.57 -14.65,14.66 0,8.08 6.56,14.65 14.65,14.65l0 0z"/>
  <path class="fil0" d="M2671.99 1101.67l0 -368.01 173.28 0 0 2393.83c0,8.09 6.56,14.66 14.65,14.66 8.09,0 14.65,-6.57 14.65,-14.65l0 -2408.49c0,-3.86 -1.56,-7.63 -4.29,-10.36 -2.72,-2.73 -6.49,-4.29 -10.36,-4.29l-202.58 0c-3.87,0 -7.64,1.56 -10.36,4.29 -2.73,2.73 -4.3,6.5 -4.3,10.36l0 382.66c0,8.08 6.57,14.65 14.66,14.65 8.09,0 14.65,-6.56 14.65,-14.65l0 0z"/>
  <path class="fil0" d="M3696.16 3127.49l0 -1183.92c0,-8.09 -6.57,-14.65 -14.66,-14.65 -8.08,0 -14.65,6.56 -14.65,14.65l0 1183.92c0,8.09 6.57,14.66 14.65,14.66 8.09,0 14.66,-6.57 14.66,-14.66z"/>
  <path class="fil0" d="M2859.92 1425.82l806.93 0 0 446.79c0,8.09 6.57,14.65 14.65,14.65 8.09,0 14.66,-6.56 14.66,-14.65l0 -461.44c0,-3.87 -1.56,-7.64 -4.3,-10.36 -2.71,-2.73 -6.51,-4.3 -10.36,-4.3l-821.58 0c-8.09,0 -14.66,6.57 -14.66,14.66 0.01,8.09 6.57,14.65 14.66,14.65z"/>
  <path class="fil0" d="M2091.09 1020.66l551.59 0 0 66.35 -547.53 0c-8.08,0 -14.65,6.57 -14.65,14.66 0,8.08 6.56,14.65 14.65,14.65l562.19 0c3.91,0 7.6,-1.52 10.35,-4.3 2.78,-2.75 4.3,-6.44 4.3,-10.35l0 -95.67c0,-3.87 -1.56,-7.64 -4.3,-10.35 -2.71,-2.74 -6.5,-4.3 -10.35,-4.3l-566.25 0c-8.09,0 -14.66,6.56 -14.66,14.65 0.01,8.09 6.57,14.66 14.66,14.66z"/>
  <path class="fil0" d="M2095.15 1459.59l547.53 0 0 55.1 -546.84 0c-8.09,0 -14.66,6.56 -14.66,14.65 0,8.09 6.57,14.66 14.66,14.66l561.5 0c3.91,0 7.6,-1.53 10.35,-4.3 2.78,-2.76 4.3,-6.45 4.3,-10.36l0 -84.41c0,-3.87 -1.56,-7.64 -4.3,-10.35 -2.71,-2.74 -6.5,-4.3 -10.35,-4.3l-562.19 0c-8.08,0 -14.65,6.56 -14.65,14.65 0,8.09 6.56,14.66 14.65,14.66l0 0z"/>
  <path class="fil0" d="M3681.51 1487.14l0 -14.66 -806.94 0 0 -46.66 792.28 0 0 61.32 14.66 0 0 -14.66 0 14.66 14.65 0 0 -75.97c0,-3.87 -1.56,-7.64 -4.3,-10.36 -2.71,-2.73 -6.51,-4.3 -10.36,-4.3l-821.58 0c-3.85,0 -7.64,1.57 -10.36,4.3 -2.73,2.72 -4.3,6.49 -4.3,10.36l0.01 75.97c0,3.85 1.56,7.64 4.29,10.35 2.72,2.74 6.51,4.3 10.36,4.3l821.59 0c3.9,0 7.6,-1.52 10.35,-4.3 2.78,-2.75 4.3,-6.44 4.3,-10.35l-14.65 0z"/>
  <path class="fil0" d="M3754.66 1872.61l-14.65 0 0 56.31 -865.44 0 0 -41.66 880.09 0 0 -14.65 -14.65 0 14.65 0 0 -14.66 -894.74 0c-3.85,0 -7.64,1.57 -10.36,4.3 -2.73,2.72 -4.3,6.49 -4.3,10.36l0.01 70.96c0,3.85 1.56,7.64 4.29,10.36 2.72,2.73 6.51,4.3 10.36,4.3l894.74 0c3.91,0 7.6,-1.53 10.36,-4.3 2.77,-2.76 4.29,-6.45 4.29,-10.36l0.01 -70.96c0,-3.87 -1.57,-7.64 -4.3,-10.36 -2.72,-2.73 -6.49,-4.3 -10.36,-4.3l0 14.66z"/>
  <path class="fil0" d="M2122.39 1526.7l-18.89 103.35 -8.35 0c-8.08,0 -14.65,6.56 -14.65,14.65 0,8.09 6.56,14.66 14.65,14.66l20.56 0c7.07,0 13.15,-5.06 14.42,-12.02l21.1 -115.36c1.45,-7.97 -3.83,-15.59 -11.78,-17.06 -7.95,-1.44 -15.59,3.83 -17.06,11.78z"/>
  <path class="fil0" d="M2243.57 1526.7l-18.89 103.35 -8.34 0c-8.09,0 -14.66,6.56 -14.66,14.65 0,8.09 6.57,14.66 14.66,14.66l20.55 0c7.08,0 13.13,-5.06 14.42,-12.02l21.1 -115.36c1.45,-7.97 -3.83,-15.59 -11.78,-17.06 -7.97,-1.44 -15.59,3.83 -17.06,11.78z"/>
  <path class="fil0" d="M2160.26 1531.98l21.1 115.36c1.27,6.95 7.35,12.02 14.42,12.02l20.56 0c8.09,0 14.65,-6.57 14.65,-14.66 0,-8.09 -6.56,-14.65 -14.65,-14.65l-8.35 0 -18.89 -103.35c-1.47,-7.95 -9.11,-13.22 -17.06,-11.78 -7.95,1.47 -13.23,9.09 -11.78,17.06z"/>
  <path class="fil0" d="M2364.76 1526.7l-18.9 103.35 -8.34 0c-8.09,0 -14.66,6.56 -14.66,14.65 0,8.09 6.57,14.66 14.66,14.66l20.55 0c7.08,0 13.13,-5.06 14.42,-12.02l21.11 -115.36c1.44,-7.97 -3.83,-15.59 -11.79,-17.06 -7.97,-1.44 -15.59,3.83 -17.05,11.78z"/>
  <path class="fil0" d="M2281.44 1531.98l21.1 115.36c1.27,6.95 7.35,12.02 14.42,12.02l20.56 0c8.09,0 14.65,-6.57 14.65,-14.66 0,-8.09 -6.56,-14.65 -14.65,-14.65l-8.34 0 -18.9 -103.35c-1.46,-7.95 -9.1,-13.22 -17.06,-11.78 -7.95,1.47 -13.23,9.09 -11.78,17.06z"/>
  <path class="fil0" d="M2485.94 1526.7l-18.9 103.35 -8.34 0c-8.09,0 -14.65,6.56 -14.65,14.65 0,8.09 6.56,14.66 14.65,14.66l20.56 0c7.07,0 13.13,-5.06 14.42,-12.02l21.1 -115.36c1.45,-7.97 -3.83,-15.59 -11.78,-17.06 -7.98,-1.44 -15.6,3.83 -17.06,11.78z"/>
  <path class="fil0" d="M2402.63 1531.98l21.1 115.36c1.27,6.95 7.34,12.02 14.42,12.02l20.55 0c8.09,0 14.66,-6.57 14.66,-14.66 0,-8.09 -6.57,-14.65 -14.66,-14.65l-8.34 0 -18.91 -103.35c-1.45,-7.97 -9.09,-13.22 -17.04,-11.78 -7.98,1.47 -13.25,9.11 -11.78,17.06z"/>
  <path class="fil0" d="M2607.12 1526.7l-18.91 103.35 -8.32 0c-8.11,0 -14.66,6.56 -14.66,14.65 0,8.09 6.54,14.66 14.65,14.66l20.56 0c7.07,0 13.13,-5.06 14.4,-12.02l21.1 -115.36c1.47,-7.97 -3.81,-15.59 -11.76,-17.06 -7.97,-1.44 -15.61,3.83 -17.06,11.78z"/>
  <path class="fil0" d="M2523.81 1531.98l21.1 115.36c1.27,6.95 7.33,12.02 14.42,12.02l20.56 0c8.08,0 14.65,-6.57 14.65,-14.66 0,-8.09 -6.57,-14.65 -14.66,-14.65l-8.34 0 -18.91 -103.35c-1.45,-7.95 -9.09,-13.22 -17.04,-11.78 -7.97,1.47 -13.25,9.09 -11.78,17.06z"/>
  <path class="fil0" d="M2095.15 1760.65l562.19 0c8.09,0 14.65,-6.57 14.65,-14.66 0,-8.09 -6.56,-14.65 -14.65,-14.65l-562.19 0c-8.08,0 -14.65,6.56 -14.65,14.65 0,8.09 6.56,14.66 14.65,14.66z"/>
  <path class="fil0" d="M2095.15 1828.18l505.56 0c8.09,0 14.66,-6.57 14.66,-14.66 0,-8.09 -6.57,-14.65 -14.66,-14.65l-505.56 0c-8.08,0 -14.65,6.56 -14.65,14.65 0,8.09 6.56,14.66 14.65,14.66z"/>
  <path class="fil0" d="M2092.32 1922.47l0 0c0.47,0.08 29.39,5.84 72.34,19.78 32.2,10.43 72.31,25.47 114.2,46.13 31.42,15.47 63.86,34.11 94.75,56.27 46.33,33.22 89.08,74.35 120.14,124.54 15.54,25.11 28.18,52.49 36.95,82.44 8.78,29.93 13.7,62.45 13.7,97.89 0,3.85 1.56,7.64 4.28,10.36 2.74,2.73 6.51,4.3 10.37,4.3l27.01 0 0 763.31c0,8.09 6.56,14.66 14.65,14.66 8.09,0 14.66,-6.57 14.66,-14.65l0 -777.98c0,-3.87 -1.57,-7.64 -4.3,-10.35 -2.74,-2.74 -6.51,-4.3 -10.36,-4.3l-41.65 0 0 14.65 14.65 0c0,-45.41 -7.54,-86.85 -20.77,-124.41 -11.57,-32.86 -27.49,-62.74 -46.39,-89.76 -33.08,-47.28 -75.26,-85.89 -119.73,-117.27 -66.73,-47.07 -138.69,-78 -194.09,-97.31 -55.39,-19.3 -94.25,-26.96 -94.74,-27.06 -7.96,-1.56 -15.65,3.61 -17.22,11.55 -1.56,7.95 3.62,15.65 11.57,17.21l-0.02 0z"/>
  <path class="fil0" d="M2907.17 1345.05l0 66.12c0,8.09 6.56,14.65 14.65,14.65 8.09,0 14.65,-6.56 14.65,-14.65l0.01 -66.12c0,-8.09 -6.57,-14.66 -14.66,-14.66 -8.09,0 -14.65,6.57 -14.65,14.66z"/>
  <path class="fil0" d="M2974.69 1345.05l0 66.12c0,8.09 6.57,14.65 14.66,14.65 8.09,0 14.65,-6.56 14.65,-14.65l0 -66.12c0,-8.09 -6.56,-14.66 -14.65,-14.66 -8.09,0 -14.66,6.57 -14.66,14.66z"/>
  <path class="fil0" d="M3042.22 1345.05l0 66.12c0,8.09 6.57,14.65 14.66,14.65 8.08,0 14.65,-6.56 14.65,-14.65l0 -66.12c0,-8.09 -6.57,-14.66 -14.65,-14.66 -8.09,0 -14.66,6.57 -14.66,14.66z"/>
  <path class="fil0" d="M2688.37 1587.02l0 66.12c0,8.09 6.56,14.66 14.65,14.66 8.09,0 14.65,-6.57 14.65,-14.66l0 -66.12c0,-8.09 -6.56,-14.65 -14.65,-14.65 -8.09,0 -14.65,6.56 -14.65,14.65z"/>
  <path class="fil0" d="M2743.98 1587.02l0 66.12c0,8.09 6.56,14.66 14.65,14.66 8.09,0 14.65,-6.57 14.65,-14.66l0 -66.12c0,-8.09 -6.56,-14.65 -14.65,-14.65 -8.09,0 -14.66,6.56 -14.65,14.65z"/>
  <path class="fil0" d="M2798.53 1587.02l0 66.12c0,8.09 6.56,14.66 14.65,14.66 8.09,0 14.66,-6.57 14.66,-14.66l0 -66.12c0,-8.09 -6.57,-14.65 -14.66,-14.65 -8.09,0 -14.65,6.56 -14.65,14.65z"/>
  <path class="fil0" d="M2688.37 1864.17l0 66.12c0,8.09 6.56,14.65 14.65,14.65 8.09,0 14.65,-6.56 14.65,-14.65l0 -66.12c0,-8.09 -6.56,-14.66 -14.65,-14.66 -8.09,0 -14.65,6.57 -14.65,14.66z"/>
  <path class="fil0" d="M2743.98 1864.17l0 66.12c0,8.09 6.56,14.65 14.65,14.65 8.09,0 14.65,-6.56 14.65,-14.65l0 -66.12c0,-8.09 -6.56,-14.66 -14.65,-14.66 -8.09,0 -14.66,6.57 -14.65,14.66z"/>
  <path class="fil0" d="M2798.53 1864.17l0 66.12c0,8.09 6.56,14.65 14.65,14.65 8.09,0 14.66,-6.56 14.66,-14.65l0 -66.12c0,-8.09 -6.57,-14.66 -14.66,-14.66 -8.09,0 -14.65,6.57 -14.65,14.66z"/>
  <path class="fil0" d="M3109.75 1345.05l0 66.12c0,8.09 6.56,14.65 14.65,14.65 8.09,0 14.66,-6.56 14.66,-14.65l0 -66.12c0,-8.09 -6.57,-14.66 -14.66,-14.66 -8.09,0 -14.65,6.57 -14.65,14.66z"/>
  <path class="fil0" d="M3177.28 1345.05l0 66.12c0,8.09 6.56,14.65 14.65,14.65 8.09,0 14.65,-6.56 14.65,-14.65l0.01 -66.12c0,-8.09 -6.57,-14.66 -14.66,-14.66 -8.09,0 -14.65,6.57 -14.65,14.66z"/>
  <path class="fil0" d="M3244.81 1345.05l0 66.12c0,8.09 6.56,14.65 14.65,14.65 8.09,0 14.65,-6.56 14.65,-14.65l0 -66.12c0,-8.09 -6.56,-14.66 -14.65,-14.66 -8.09,0 -14.66,6.57 -14.65,14.66z"/>
  <path class="fil0" d="M3312.33 1345.05l0 66.12c0,8.09 6.57,14.65 14.66,14.65 8.08,0 14.65,-6.56 14.65,-14.65l0 -66.12c0,-8.09 -6.57,-14.66 -14.65,-14.66 -8.09,0 -14.66,6.57 -14.66,14.66z"/>
  <path class="fil0" d="M3379.86 1345.05l0 66.12c0,8.09 6.56,14.65 14.65,14.65 8.09,0 14.66,-6.56 14.66,-14.65l0 -66.12c0,-8.09 -6.57,-14.66 -14.66,-14.66 -8.09,0 -14.65,6.57 -14.65,14.66z"/>
  <path class="fil0" d="M3447.39 1345.05l0 66.12c0,8.09 6.56,14.65 14.65,14.65 8.09,0 14.65,-6.56 14.65,-14.65l0.01 -66.12c0,-8.09 -6.57,-14.66 -14.66,-14.66 -8.09,0 -14.65,6.57 -14.65,14.66z"/>
  <path class="fil0" d="M3514.92 1345.05l0 66.12c0,8.09 6.56,14.65 14.65,14.65 8.09,0 14.65,-6.56 14.65,-14.65l0 -66.12c0,-8.09 -6.56,-14.66 -14.65,-14.66 -8.09,0 -14.66,6.57 -14.65,14.66z"/>
  <path class="fil0" d="M3582.44 1345.05l0 66.12c0,8.09 6.57,14.65 14.66,14.65 8.09,0 14.65,-6.56 14.65,-14.65l0 -66.12c0,-8.09 -6.56,-14.66 -14.65,-14.66 -8.09,0 -14.66,6.57 -14.66,14.66z"/>
  <path class="fil0" d="M3649.97 1345.05l0 66.12c0,8.09 6.56,14.65 14.65,14.65 8.09,0 14.66,-6.56 14.66,-14.65l0 -66.12c0,-8.09 -6.57,-14.66 -14.66,-14.66 -8.09,0 -14.65,6.57 -14.65,14.66z"/>
  <path class="fil0" d="M2080.5 939.88l0 66.12c0,8.09 6.56,14.66 14.65,14.66 8.09,0 14.66,-6.57 14.66,-14.66l0 -66.12c0,-8.09 -6.57,-14.65 -14.66,-14.65 -8.08,0 -14.65,6.56 -14.65,14.65z"/>
  <path class="fil0" d="M2132.94 939.88l0 66.12c0,8.09 6.57,14.66 14.66,14.66 8.09,0 14.65,-6.57 14.65,-14.66l0 -66.12c0,-8.09 -6.56,-14.65 -14.65,-14.65 -8.09,0 -14.66,6.56 -14.66,14.65z"/>
  <path class="fil0" d="M2188.75 939.88l0 66.12c0,8.09 6.56,14.66 14.65,14.66 8.09,0 14.66,-6.57 14.66,-14.66l0 -66.12c0,-8.09 -6.57,-14.65 -14.66,-14.65 -8.09,0 -14.65,6.56 -14.65,14.65z"/>
  <path class="fil0" d="M2256.28 939.88l0 66.12c0,8.09 6.56,14.66 14.65,14.66 8.09,0 14.65,-6.57 14.65,-14.66l0 -66.12c0,-8.09 -6.56,-14.65 -14.65,-14.65 -8.09,0 -14.66,6.56 -14.65,14.65z"/>
  <path class="fil0" d="M2323.8 939.88l0 66.12c0,8.09 6.57,14.66 14.66,14.66 8.09,0 14.65,-6.57 14.65,-14.66l0 -66.12c0,-8.09 -6.56,-14.65 -14.65,-14.65 -8.09,0 -14.66,6.56 -14.66,14.65z"/>
  <path class="fil0" d="M2391.33 939.88l0 66.12c0,8.09 6.56,14.66 14.65,14.66 8.1,0 14.66,-6.57 14.66,-14.66l0 -66.12c0,-8.09 -6.57,-14.65 -14.66,-14.65 -8.08,0 -14.65,6.56 -14.65,14.65z"/>
  <path class="fil0" d="M2458.86 939.88l0 66.12c0,8.09 6.56,14.66 14.65,14.66 8.09,0 14.66,-6.57 14.66,-14.66l0 -66.12c0,-8.09 -6.57,-14.65 -14.66,-14.65 -8.09,0 -14.65,6.56 -14.65,14.65z"/>
  <path class="fil0" d="M2526.39 939.88l0 66.12c0,8.09 6.56,14.66 14.65,14.66 8.09,0 14.65,-6.57 14.65,-14.66l0 -66.12c0,-8.09 -6.56,-14.65 -14.65,-14.65 -8.09,0 -14.66,6.56 -14.65,14.65z"/>
  <path class="fil0" d="M2593.91 939.88l0 66.12c0,8.09 6.57,14.66 14.66,14.66 8.09,0 14.65,-6.57 14.65,-14.66l0 -66.12c0,-8.09 -6.56,-14.65 -14.65,-14.65 -8.09,0 -14.66,6.56 -14.66,14.65z"/>
  <path class="fil0" d="M2907.17 1943.57l0 66.12c0,8.09 6.56,14.66 14.65,14.66 8.09,0 14.65,-6.57 14.65,-14.66l0.01 -66.12c0,-8.09 -6.57,-14.65 -14.66,-14.65 -8.09,0 -14.65,6.56 -14.65,14.65z"/>
  <path class="fil0" d="M2974.69 1943.57l0 66.12c0,8.09 6.57,14.66 14.66,14.66 8.09,0 14.65,-6.57 14.65,-14.66l0 -66.12c0,-8.09 -6.56,-14.65 -14.65,-14.65 -8.09,0 -14.66,6.56 -14.66,14.65z"/>
  <path class="fil0" d="M3042.22 1943.57l0 66.12c0,8.09 6.57,14.66 14.66,14.66 8.08,0 14.65,-6.57 14.65,-14.66l0 -66.12c0,-8.09 -6.57,-14.65 -14.65,-14.65 -8.09,0 -14.66,6.56 -14.66,14.65z"/>
  <path class="fil0" d="M3109.75 1943.57l0 66.12c0,8.09 6.56,14.66 14.65,14.66 8.09,0 14.66,-6.57 14.66,-14.66l0 -66.12c0,-8.09 -6.57,-14.65 -14.66,-14.65 -8.09,0 -14.65,6.56 -14.65,14.65z"/>
  <path class="fil0" d="M3177.28 1943.57l0 66.12c0,8.09 6.56,14.66 14.65,14.66 8.09,0 14.65,-6.57 14.65,-14.66l0.01 -66.12c0,-8.09 -6.57,-14.65 -14.66,-14.65 -8.09,0 -14.65,6.56 -14.65,14.65z"/>
  <path class="fil0" d="M3244.81 1943.57l0 66.12c0,8.09 6.56,14.66 14.65,14.66 8.09,0 14.65,-6.57 14.65,-14.66l0 -66.12c0,-8.09 -6.56,-14.65 -14.65,-14.65 -8.09,0 -14.66,6.56 -14.65,14.65z"/>
  <path class="fil0" d="M3312.33 1943.57l0 66.12c0,8.09 6.57,14.66 14.66,14.66 8.08,0 14.65,-6.57 14.65,-14.66l0 -66.12c0,-8.09 -6.57,-14.65 -14.65,-14.65 -8.09,0 -14.66,6.56 -14.66,14.65z"/>
  <path class="fil0" d="M3379.86 1943.57l0 66.12c0,8.09 6.56,14.66 14.65,14.66 8.09,0 14.66,-6.57 14.66,-14.66l0 -66.12c0,-8.09 -6.57,-14.65 -14.66,-14.65 -8.09,0 -14.65,6.56 -14.65,14.65z"/>
  <path class="fil0" d="M3447.39 1943.57l0 66.12c0,8.09 6.56,14.66 14.65,14.66 8.09,0 14.65,-6.57 14.65,-14.66l0.01 -66.12c0,-8.09 -6.57,-14.65 -14.66,-14.65 -8.09,0 -14.65,6.56 -14.65,14.65z"/>
  <path class="fil0" d="M3514.92 1943.57l0 66.12c0,8.09 6.56,14.66 14.65,14.66 8.09,0 14.65,-6.57 14.65,-14.66l0 -66.12c0,-8.09 -6.56,-14.65 -14.65,-14.65 -8.09,0 -14.66,6.56 -14.65,14.65z"/>
  <path class="fil0" d="M3582.44 1943.57l0 66.12c0,8.09 6.57,14.66 14.66,14.66 8.09,0 14.65,-6.57 14.65,-14.66l0 -66.12c0,-8.09 -6.56,-14.65 -14.65,-14.65 -8.09,0 -14.66,6.56 -14.66,14.65z"/>
  <path class="fil0" d="M3649.97 1943.57l0 66.12c0,8.09 6.56,14.66 14.65,14.66 8.09,0 14.66,-6.57 14.66,-14.66l0 -66.12c0,-8.09 -6.57,-14.65 -14.66,-14.65 -8.09,0 -14.65,6.56 -14.65,14.65z"/>
  <path class="fil1" d="M2921.82 1560.88l689.34 0c8.09,0 14.66,-6.57 14.66,-14.66 0,-8.09 -6.57,-14.65 -14.66,-14.65l-689.34 0c-8.09,0 -14.65,6.56 -14.65,14.65 0,8.09 6.56,14.66 14.65,14.66z"/>
  <path class="fil0" d="M2970.24 3127.49l0 -987 589.69 0 0 975.75c0,8.09 6.57,14.66 14.66,14.66 8.09,0 14.65,-6.57 14.65,-14.66l0 -990.4c0,-3.87 -1.56,-7.64 -4.3,-10.36 -2.71,-2.74 -6.49,-4.3 -10.35,-4.3l-619.01 0c-3.85,0 -7.64,1.56 -10.35,4.3 -2.74,2.72 -4.3,6.49 -4.3,10.36l0 1001.65c0,8.09 6.56,14.66 14.65,14.66 8.09,0 14.66,-6.57 14.66,-14.66z"/>
  <path class="fil0" d="M3253.99 2202.27c-0.45,0.2 -12.76,5.16 -31.09,15.34 -27.49,15.26 -68.6,42.15 -103.42,82.54 -17.39,20.2 -33.18,43.82 -44.65,71.06 -11.47,27.22 -18.54,58.07 -18.54,92.26l14.65 0 0 -14.65 -42.2 0c-3.87,0 -7.64,1.56 -10.36,4.3 -2.73,2.71 -4.3,6.49 -4.3,10.35l0.01 652.77c0,8.09 6.56,14.66 14.65,14.66 8.09,0 14.65,-6.57 14.65,-14.66l0 -638.11 27.55 0c3.91,0 7.6,-1.53 10.36,-4.3 2.78,-2.76 4.3,-6.45 4.3,-10.36 0,-20.1 2.75,-38.7 7.56,-55.98 8.42,-30.2 23.17,-56.41 40.82,-78.84 26.43,-33.66 59.38,-58.69 85.68,-75.13 13.15,-8.2 24.6,-14.3 32.71,-18.28 4.06,-2 7.26,-3.46 9.43,-4.42 1.08,-0.49 1.9,-0.84 2.43,-1.05 0.27,-0.12 0.46,-0.2 0.58,-0.26l0.12 -0.04c7.5,-3.03 11.14,-11.56 8.13,-19.07 -3.03,-7.5 -11.57,-11.14 -19.07,-8.13z"/>
  <path class="fil0" d="M3039.99 2532.45l219.47 0c8.09,0 14.65,-6.57 14.65,-14.66 0,-8.09 -6.56,-14.65 -14.65,-14.65l-219.47 0c-8.09,0 -14.65,6.56 -14.65,14.65 0,8.09 6.56,14.66 14.65,14.66z"/>
  <path class="fil0" d="M3254.2 2576.41c-0.35,0.14 -7.62,2.93 -18.44,8.34 -8.11,4.07 -18.23,9.6 -28.96,16.59 -16.06,10.53 -33.51,24.33 -47.42,41.95 -6.96,8.82 -13.02,18.64 -17.35,29.51 -4.36,10.84 -6.96,22.78 -6.96,35.46l0 10.67 -30.36 0c-3.87,0 -7.64,1.56 -10.36,4.3 -2.73,2.71 -4.3,6.49 -4.3,10.35l0 382.66c0,8.09 6.57,14.66 14.66,14.66 8.09,0 14.65,-6.57 14.65,-14.66l0 -368 30.37 0c3.9,0 7.6,-1.53 10.35,-4.3 2.78,-2.76 4.3,-6.45 4.3,-10.36l0 -25.32c0,-7.74 1.39,-14.98 3.87,-21.98 2.17,-6.12 5.22,-12.02 8.97,-17.68 6.54,-9.95 15.26,-19.13 24.75,-27.2 14.21,-12.14 30.11,-21.69 42.34,-28.1 6.12,-3.2 11.32,-5.63 14.95,-7.23 1.8,-0.8 3.23,-1.41 4.16,-1.78 0.47,-0.19 0.82,-0.33 1.04,-0.43l0.23 -0.08 0.04 -0.01 -3.43 -8.93 3.41 8.93 0.02 0 -3.43 -8.93 3.41 8.93c7.57,-2.92 11.34,-11.4 8.43,-18.94 -2.92,-7.56 -11.4,-11.33 -18.94,-8.42z"/>
  <path class="fil0" d="M3253.99 2229.47l5.47 -13.6 -5.49 13.58 0.02 0.02 5.47 -13.6 -5.49 13.58c0.37,0.16 12.03,4.93 29.19,14.54 25.75,14.4 63.81,39.76 94.88,76.24 15.55,18.23 29.37,39.2 39.29,62.98 9.91,23.78 15.99,50.37 15.99,80.26 0,3.85 1.56,7.64 4.3,10.36 2.71,2.73 6.5,4.3 10.35,4.3l27.55 0 0 638.11c0,8.09 6.57,14.66 14.66,14.66 8.09,0 14.65,-6.57 14.65,-14.66l0 -652.77c0,-3.87 -1.56,-7.64 -4.3,-10.35 -2.71,-2.74 -6.5,-4.3 -10.35,-4.3l-42.21 0 0 14.65 14.66 0c0,-22.8 -3.15,-44.12 -8.64,-63.85 -9.63,-34.55 -26.44,-64.21 -46.01,-89.08 -29.39,-37.36 -64.93,-64.19 -93.19,-81.87 -28.25,-17.66 -49.27,-26.16 -49.86,-26.4 -7.5,-3.02 -16.04,0.61 -19.07,8.13 -3.03,7.5 0.6,16.04 8.13,19.07z"/>
  <path class="fil0" d="M3478.92 2503.14l-219.46 0c-8.09,0 -14.66,6.56 -14.66,14.65 0.01,8.09 6.57,14.66 14.66,14.66l219.46 0c8.09,0 14.66,-6.57 14.66,-14.66 0,-8.09 -6.57,-14.65 -14.66,-14.65z"/>
  <path class="fil0" d="M3254.2 2603.77l2.46 -6.45 -2.48 6.45 0.02 0 2.46 -6.45 -2.48 6.45c0.08,0.01 6.74,2.59 16.55,7.56 7.39,3.71 16.53,8.75 26.01,14.98 14.24,9.36 29.15,21.5 40.03,35.45 5.48,6.97 9.93,14.38 12.98,22.1 3.07,7.73 4.79,15.78 4.79,24.4l0 25.32c0,3.85 1.56,7.64 4.29,10.36 2.72,2.74 6.49,4.3 10.36,4.3l30.37 0 0 368c0,8.09 6.56,14.66 14.65,14.66 8.09,0 14.65,-6.57 14.65,-14.66l0 -382.66c0,-3.87 -1.56,-7.64 -4.3,-10.35 -2.71,-2.74 -6.48,-4.3 -10.35,-4.3l-30.36 0 0 -10.67c0,-11.27 -2.06,-21.96 -5.57,-31.81 -3.07,-8.64 -7.25,-16.63 -12.12,-24.01 -8.52,-12.9 -19.17,-23.94 -30.21,-33.36 -16.58,-14.12 -34.19,-24.61 -47.75,-31.73 -13.56,-7.11 -23.1,-10.78 -23.49,-10.94 -7.56,-2.91 -16.02,0.86 -18.93,8.42 -2.91,7.54 0.86,16.02 8.42,18.94z"/>
  <path class="fil1" d="M2544.75 1943.57l-14.65 0c0,4.15 -0.84,8.02 -2.35,11.57 -2.22,5.31 -6.03,9.89 -10.78,13.09 -4.77,3.23 -10.4,5.08 -16.61,5.08 -4.14,0 -8.03,-0.84 -11.57,-2.32 -5.33,-2.25 -9.91,-6.04 -13.11,-10.81 -3.2,-4.77 -5.06,-10.39 -5.06,-16.61 0,-4.14 0.82,-8.03 2.32,-11.56 2.25,-5.32 6.04,-9.89 10.79,-13.11 4.77,-3.21 10.42,-5.06 16.63,-5.06 4.14,-0.01 8.01,0.84 11.57,2.32 5.31,2.25 9.88,6.04 13.09,10.79 3.2,4.76 5.06,10.41 5.08,16.62l14.65 0 14.66 0c0,-8.1 -1.66,-15.92 -4.65,-22.99 -4.5,-10.61 -11.96,-19.6 -21.38,-25.97 -9.4,-6.35 -20.85,-10.08 -33.02,-10.08 -8.11,0 -15.93,1.64 -23,4.65 -10.61,4.49 -19.6,11.95 -25.97,21.37 -6.35,9.4 -10.1,20.85 -10.08,33.02 0,8.11 1.64,15.93 4.65,22.98 4.5,10.63 11.96,19.62 21.38,25.97 9.4,6.37 20.83,10.1 33.02,10.1 8.11,0 15.9,-1.66 22.98,-4.65 10.63,-4.49 19.61,-11.96 25.96,-21.37 6.37,-9.4 10.11,-20.85 10.11,-33.03l-14.66 0z"/>
  <path class="fil1" d="M3025.34 2215.87l0 53.46c0,8.09 6.56,14.66 14.65,14.66 8.09,0 14.66,-6.57 14.66,-14.66l0 -53.46c0,-8.09 -6.57,-14.65 -14.66,-14.65 -8.09,0 -14.65,6.56 -14.65,14.65z"/>
  <path class="fil1" d="M3464.27 2215.87l0 53.46c0,8.09 6.56,14.66 14.65,14.66 8.09,0 14.66,-6.57 14.66,-14.66l0 -53.46c0,-8.09 -6.57,-14.65 -14.66,-14.65 -8.09,0 -14.65,6.56 -14.65,14.65z"/>
  <path class="fil1" d="M2095.84 1182.44l504.87 0c8.09,0 14.66,-6.56 14.66,-14.65 0,-8.09 -6.57,-14.66 -14.66,-14.66l-504.87 0c-8.09,0 -14.66,6.57 -14.66,14.66 0,8.09 6.57,14.65 14.66,14.65z"/>
  <path class="fil0" d="M2657.34 2945.19l202.58 0c8.09,0 14.65,-6.56 14.65,-14.65 0,-8.09 -6.56,-14.65 -14.65,-14.65l-202.58 0c-8.09,0 -14.66,6.56 -14.66,14.65 0,8.09 6.57,14.65 14.66,14.65z"/>
  <path class="fil0" d="M2657.34 2888.92l202.58 0c8.09,0 14.65,-6.56 14.65,-14.65 0,-8.09 -6.56,-14.66 -14.65,-14.66l-202.58 0c-8.09,0 -14.66,6.57 -14.66,14.66 0,8.09 6.57,14.65 14.66,14.65z"/>
  <path class="fil0" d="M2657.34 2635.69l202.58 0c8.09,0 14.65,-6.56 14.65,-14.65 0,-8.09 -6.56,-14.66 -14.65,-14.66l-202.58 0c-8.09,0 -14.66,6.57 -14.66,14.66 0,8.09 6.57,14.65 14.66,14.65z"/>
  <path class="fil0" d="M2657.34 2382.46l202.58 0c8.09,0 14.65,-6.56 14.65,-14.65 0,-8.09 -6.56,-14.65 -14.65,-14.65l-202.58 0c-8.09,0 -14.66,6.56 -14.66,14.65 0,8.09 6.57,14.65 14.66,14.65z"/>
  <path class="fil0" d="M2657.34 2129.24l202.58 0c8.09,0 14.65,-6.57 14.65,-14.66 0,-8.09 -6.56,-14.65 -14.65,-14.65l-202.58 0c-8.09,0 -14.66,6.56 -14.66,14.65 0,8.09 6.57,14.66 14.66,14.66z"/>
  <path class="fil0" d="M2657.34 1876.01l202.58 0c8.09,0 14.65,-6.57 14.65,-14.66 0,-8.09 -6.56,-14.65 -14.65,-14.65l-202.58 0c-8.09,0 -14.66,6.56 -14.66,14.65 0,8.09 6.57,14.66 14.66,14.66z"/>
  <path class="fil0" d="M2657.34 1819.73l202.58 0c8.09,0 14.65,-6.56 14.65,-14.65 0,-8.09 -6.56,-14.65 -14.65,-14.65l-202.58 0c-8.09,0 -14.66,6.56 -14.66,14.65 0,8.09 6.57,14.65 14.66,14.65z"/>
  <path class="fil0" d="M2657.34 1600.27l202.58 0c8.09,0 14.65,-6.57 14.65,-14.65 0,-8.1 -6.56,-14.66 -14.65,-14.66l-202.58 0c-8.09,0 -14.66,6.57 -14.66,14.66 0,8.08 6.57,14.65 14.66,14.65z"/>
  <path class="fil0" d="M2657.34 1544l202.58 0c8.09,0 14.65,-6.57 14.65,-14.66 0,-8.09 -6.56,-14.65 -14.65,-14.65l-202.58 0c-8.09,0 -14.66,6.56 -14.66,14.65 0,8.09 6.57,14.66 14.66,14.66z"/>
  <path class="fil0" d="M2657.34 1096.63l202.58 0c8.09,0 14.65,-6.57 14.65,-14.66 0,-8.09 -6.56,-14.65 -14.65,-14.65l-202.58 0c-8.09,0 -14.66,6.56 -14.66,14.65 0,8.09 6.57,14.66 14.66,14.66z"/>
  <path class="fil0" d="M2657.34 1040.35l202.58 0c8.09,0 14.65,-6.56 14.65,-14.65 0,-8.09 -6.56,-14.66 -14.65,-14.66l-202.58 0c-8.09,0 -14.66,6.57 -14.66,14.66 0,8.09 6.57,14.65 14.66,14.65z"/>
  <path class="fil0" d="M2657.34 787.12l202.58 0c8.09,0 14.65,-6.56 14.65,-14.65 0,-8.1 -6.56,-14.66 -14.65,-14.66l-202.58 0c-8.09,0 -14.66,6.57 -14.66,14.66 0,8.09 6.57,14.65 14.66,14.65z"/>
  <path class="fil0" d="M2621.54 733.66l270.74 0c8.09,0 14.65,-6.56 14.65,-14.65 0,-8.09 -6.56,-14.65 -14.65,-14.65l-270.74 0c-8.11,0 -14.65,6.56 -14.65,14.65 0,8.09 6.54,14.66 14.65,14.65z"/>
  <path class="fil0" d="M2750.34 456.2c-0.44,0.22 -7.19,3.62 -17.13,10.28 -14.93,10 -37.19,27.29 -56.1,52.57 -9.45,12.64 -18.05,27.3 -24.31,44.03 -6.25,16.71 -10.12,35.49 -10.12,56.05 0,99.88 0,99.88 0,99.88 0,8.09 6.57,14.66 14.66,14.66 8.09,-0.01 14.65,-6.57 14.65,-14.66 0,0 0,0 0,-99.88 0.02,-22.53 5.57,-42.01 14.01,-59.02 6.35,-12.73 14.36,-24.02 22.88,-33.78 12.76,-14.63 26.61,-25.78 37.2,-33.16 5.3,-3.7 9.77,-6.46 12.86,-8.25 1.55,-0.91 2.74,-1.57 3.52,-1.98 0.39,-0.22 0.66,-0.37 0.84,-0.46l0.18 -0.09 -0.14 -0.25 0.14 0.25 -0.14 -0.25 0.14 0.25c7.23,-3.62 10.15,-12.43 6.52,-19.66 -3.63,-7.24 -12.43,-10.16 -19.66,-6.53z"/>
  <path class="fil0" d="M2872.86 719.01c0,0 -0.01,0 -0.01,-99.88 0.01,-27.43 -6.89,-51.64 -17.09,-72.09 -7.66,-15.36 -17.16,-28.65 -27.03,-39.97 -14.8,-16.97 -30.46,-29.52 -42.51,-37.94 -12.06,-8.41 -20.52,-12.68 -21.03,-12.93l-6.56 13.1 14.65 0 0 -56.98c0,-8.09 -6.56,-14.65 -14.65,-14.65 -8.09,0 -14.66,6.56 -14.66,14.65l0.01 56.98c0,5.56 3.1,10.6 8.08,13.09l4.59 -9.16 -4.61 9.16 0.02 0 4.59 -9.16 -4.61 9.16 2.41 -4.76 -2.41 4.75 0 0.01 2.41 -4.76 -2.41 4.75 0.24 0.13c1.35,0.7 7.91,4.22 16.92,10.49 13.52,9.38 32.43,24.98 47.62,46.13 7.6,10.58 14.28,22.52 19.05,35.81 4.77,13.3 7.68,27.94 7.68,44.19 0,99.88 0,99.88 0,99.88 0,8.09 6.56,14.66 14.65,14.66 8.09,-0.01 14.65,-6.57 14.66,-14.66z"/>
  <path class="fil0" d="M2692.47 619.12l0 99.89c0,8.09 6.56,14.66 14.65,14.66 8.09,-0.01 14.66,-6.57 14.66,-14.66l0 -99.89c0,-8.09 -6.57,-14.65 -14.66,-14.65 -8.09,0 -14.65,6.56 -14.65,14.65z"/>
  <path class="fil0" d="M2742.25 619.12l0 99.89c0,8.09 6.57,14.66 14.66,14.66 8.09,-0.01 14.65,-6.57 14.65,-14.66l0 -99.89c0,-8.09 -6.56,-14.65 -14.65,-14.65 -8.09,0 -14.66,6.56 -14.66,14.65z"/>
  <path class="fil0" d="M2792.04 619.12l0 99.89c0,8.09 6.55,14.66 14.65,14.66 8.09,-0.01 14.66,-6.57 14.66,-14.66l0 -99.89c0,-8.09 -6.57,-14.65 -14.66,-14.65 -8.1,0 -14.65,6.56 -14.65,14.65z"/>
  <path class="fil1 str0" d="M2092.56 1991.05l0.7 -3.92 -0.72 3.92 0.02 0 0.7 -3.92 -0.72 3.92c0.27,0.04 25.38,4.65 62.7,16.93 27.98,9.2 62.84,22.72 99.24,41.79 54.63,28.62 112.62,69.74 156.66,127.22 22.02,28.76 40.62,61.61 53.75,99.22 13.14,37.63 20.81,80.07 20.81,128.18 0,3.85 1.57,7.64 4.28,10.35 2.74,2.74 6.51,4.3 10.38,4.3l29.74 0 0 635.3c0,8.09 6.56,14.65 14.65,14.65 8.09,0 14.66,-6.56 14.66,-14.65l0 -649.95c0,-3.87 -1.57,-7.64 -4.3,-10.36 -2.74,-2.73 -6.51,-4.3 -10.36,-4.3l-44.39 0 0 14.66 14.65 0c0,-45.73 -6.54,-87.15 -18.07,-124.49 -20.14,-65.4 -55.51,-118.15 -96.86,-160.12 -31.02,-31.52 -65.41,-57.06 -99.49,-77.65 -51.13,-30.91 -101.59,-50.8 -139.37,-63.03 -37.81,-12.24 -62.96,-16.79 -63.47,-16.89 -7.95,-1.44 -15.59,3.85 -17.02,11.83 -1.44,7.95 3.85,15.57 11.83,17.01z"/>
  <path class="fil0" d="M2600.71 3039.69l-100.35 0c-3.87,0 -7.64,1.56 -10.38,4.29 -2.71,2.72 -4.28,6.49 -4.28,10.36l0 61.9c0,8.09 6.57,14.66 14.66,14.66 8.09,0 14.65,-6.57 14.65,-14.66l0 -47.25 85.7 0c8.09,0 14.66,-6.56 14.66,-14.65 0,-8.09 -6.57,-14.65 -14.66,-14.65z"/>
  <path class="fil0" d="M2090.19 2207.16l1.41 -3.95 -1.41 3.95 1.41 -3.95 -1.41 3.95c0.26,0.08 17.74,6.41 43.73,18.29 19.48,8.91 43.75,20.92 69.09,35.73 38.01,22.18 78.37,50.71 108.6,83.79 15.12,16.53 27.69,34.15 36.38,52.54 8.72,18.39 13.6,37.48 13.6,57.52 0,160.38 0,578.21 0,578.21l14.66 0 0 -14.66 -38.73 0c-3.87,0 -7.64,1.57 -10.38,4.3 -2.71,2.72 -4.28,6.49 -4.28,10.36l0 83c0,8.09 6.57,14.66 14.66,14.66 8.09,0 14.65,-6.57 14.65,-14.66l0 -68.35 24.08 0c3.91,0 7.6,-1.52 10.35,-4.3 2.78,-2.77 4.3,-6.44 4.3,-10.35 0,0 0,-417.83 0,-578.21 0,-22.19 -4.88,-43.33 -13.25,-63.01 -7.31,-17.24 -17.23,-33.35 -28.9,-48.44 -20.43,-26.38 -46.17,-49.59 -73.23,-69.77 -40.6,-30.23 -84.25,-53.64 -117.86,-69.64 -33.63,-15.96 -57.21,-24.46 -57.54,-24.6 -7.62,-2.74 -16.01,1.21 -18.76,8.83 -2.74,7.6 1.21,16 8.83,18.76z"/>
  <path class="fil0" d="M2097.81 1087.01l-562.18 0c-3.86,0 -7.64,1.57 -10.37,4.3 -2.72,2.72 -4.29,6.49 -4.29,10.36l0 2025.82c0,8.09 6.56,14.66 14.66,14.66 8.09,0 14.65,-6.57 14.65,-14.65l0 -2011.18 547.53 0c8.09,0 14.66,-6.56 14.66,-14.65 0,-8.09 -6.57,-14.66 -14.66,-14.66z"/>
  <path class="fil0" d="M1550.28 1101.67l0 -382.66c0,-3.86 -1.56,-7.63 -4.29,-10.36 -2.73,-2.73 -6.5,-4.29 -10.36,-4.29l-202.59 0c-3.85,0 -7.63,1.56 -10.36,4.29 -2.73,2.73 -4.29,6.5 -4.29,10.36l0 2408.48c0,8.09 6.56,14.66 14.65,14.66 8.1,0 14.66,-6.57 14.66,-14.65l0 -2393.84 173.27 0 0 368.01c0,8.08 6.56,14.65 14.66,14.65 8.09,0 14.65,-6.56 14.65,-14.65z"/>
  <path class="fil0" d="M496.81 1943.57l0 1183.92c0,8.09 6.55,14.66 14.65,14.66 8.09,0 14.65,-6.57 14.65,-14.65l0 -1183.93c0,-8.09 -6.56,-14.65 -14.65,-14.65 -8.1,0 -14.65,6.56 -14.65,14.65z"/>
  <path class="fil0" d="M526.11 1872.61l0 -446.79 806.93 0c8.09,0 14.66,-6.56 14.66,-14.65 0,-8.09 -6.57,-14.66 -14.66,-14.66l-821.58 0c-3.86,0 -7.63,1.57 -10.36,4.3 -2.73,2.72 -4.29,6.49 -4.29,10.36l0 461.44c0,8.09 6.55,14.65 14.65,14.65 8.09,0 14.65,-6.56 14.65,-14.65z"/>
  <path class="fil0" d="M2101.88 991.35l-566.25 0c-3.86,0 -7.64,1.56 -10.37,4.3 -2.72,2.71 -4.29,6.48 -4.29,10.35l0 95.67c0,3.85 1.57,7.64 4.29,10.35 2.74,2.74 6.51,4.3 10.37,4.3l562.18 0c8.09,0 14.66,-6.56 14.66,-14.65 0,-8.09 -6.57,-14.66 -14.66,-14.66l-547.53 0 0 -66.35 551.6 0c8.09,0 14.65,-6.57 14.65,-14.66 0,-8.09 -6.57,-14.65 -14.65,-14.65z"/>
  <path class="fil0" d="M2097.81 1430.28l-562.18 0c-3.86,0 -7.64,1.56 -10.37,4.3 -2.72,2.71 -4.29,6.48 -4.29,10.35l0 84.41c0,3.85 1.57,7.64 4.29,10.36 2.74,2.73 6.51,4.3 10.37,4.3l561.5 0c8.09,0 14.65,-6.57 14.65,-14.66 0,-8.09 -6.56,-14.65 -14.65,-14.65l-546.85 0 0 -55.1 547.53 0c8.09,0 14.66,-6.57 14.66,-14.66 0,-8.09 -6.57,-14.65 -14.66,-14.65z"/>
  <path class="fil0" d="M511.46 1487.14l0 14.65 821.58 0c3.92,0 7.6,-1.52 10.36,-4.3 2.77,-2.75 4.3,-6.44 4.3,-10.35l0 -75.97c0,-3.87 -1.57,-7.64 -4.3,-10.36 -2.72,-2.73 -6.5,-4.3 -10.36,-4.3l-821.58 0c-3.86,0 -7.63,1.57 -10.36,4.3 -2.73,2.72 -4.29,6.49 -4.29,10.36l0 75.97c0,3.85 1.56,7.64 4.29,10.35 2.73,2.74 6.5,4.3 10.36,4.3l0 -14.65 14.65 0 0 -61.32 792.28 0 0 46.66 -806.93 0 0 14.66 14.65 0 -14.65 0z"/>
  <path class="fil0" d="M438.3 1872.61l-14.65 0 0 70.96c0,3.85 1.56,7.64 4.29,10.36 2.73,2.73 6.5,4.3 10.36,4.3l894.74 0c3.92,0 7.6,-1.53 10.36,-4.3 2.77,-2.76 4.3,-6.45 4.3,-10.36l0 -70.96c0,-3.87 -1.57,-7.64 -4.3,-10.36 -2.72,-2.73 -6.5,-4.3 -10.36,-4.3l-894.74 0c-3.86,0 -7.63,1.57 -10.36,4.3 -2.73,2.72 -4.29,6.49 -4.29,10.36l14.65 0 0 14.65 880.09 0 0 41.66 -865.43 0 0 -56.31 -14.66 0 0 14.65 0 -14.65z"/>
  <path class="fil0" d="M2041.73 1531.98l21.11 115.36c1.27,6.95 7.34,12.02 14.42,12.02l20.55 0c8.09,0 14.66,-6.57 14.66,-14.66 0,-8.09 -6.57,-14.65 -14.66,-14.65l-8.34 0 -18.9 -103.35c-1.46,-7.95 -9.1,-13.22 -17.05,-11.78 -7.96,1.47 -13.23,9.09 -11.79,17.06z"/>
  <path class="fil0" d="M1920.55 1531.98l21.1 115.36c1.27,6.95 7.35,12.02 14.42,12.02l20.56 0c8.09,0 14.65,-6.57 14.65,-14.66 0,-8.09 -6.56,-14.65 -14.65,-14.65l-8.34 0 -18.9 -103.35c-1.46,-7.95 -9.1,-13.22 -17.06,-11.78 -7.95,1.47 -13.22,9.09 -11.78,17.06z"/>
  <path class="fil0" d="M2003.87 1526.7l-18.9 103.35 -8.34 0c-8.09,0 -14.66,6.56 -14.66,14.65 0,8.09 6.57,14.66 14.66,14.66l20.55 0c7.08,0 13.15,-5.06 14.42,-12.02l21.11 -115.36c1.44,-7.97 -3.83,-15.59 -11.79,-17.06 -7.97,-1.44 -15.59,3.83 -17.05,11.78z"/>
  <path class="fil0" d="M1799.37 1531.98l21.1 115.36c1.27,6.95 7.35,12.02 14.42,12.02l20.56 0c8.09,0 14.65,-6.57 14.65,-14.66 0,-8.09 -6.56,-14.65 -14.65,-14.65l-8.35 0 -18.89 -103.35c-1.47,-7.95 -9.11,-13.22 -17.06,-11.78 -7.95,1.47 -13.23,9.09 -11.78,17.06z"/>
  <path class="fil0" d="M1882.68 1526.7l-18.89 103.35 -8.34 0c-8.09,0 -14.66,6.56 -14.66,14.65 0,8.09 6.57,14.66 14.66,14.66l20.55 0c7.08,0 13.15,-5.06 14.42,-12.02l21.1 -115.36c1.45,-7.97 -3.83,-15.59 -11.78,-17.06 -7.95,-1.44 -15.59,3.83 -17.06,11.78z"/>
  <path class="fil0" d="M1678.19 1531.98l21.1 115.36c1.27,6.95 7.35,12.02 14.42,12.02l20.55 0c8.09,0 14.66,-6.57 14.66,-14.66 0,-8.09 -6.57,-14.65 -14.66,-14.65l-8.34 0 -18.89 -103.35c-1.47,-7.95 -9.09,-13.22 -17.06,-11.78 -7.95,1.47 -13.23,9.09 -11.78,17.06z"/>
  <path class="fil0" d="M1761.5 1526.7l-18.89 103.35 -8.35 0c-8.09,0 -14.65,6.56 -14.65,14.65 0,8.09 6.56,14.66 14.65,14.66l20.56 0c7.07,0 13.15,-5.06 14.42,-12.02l21.1 -115.36c1.45,-7.97 -3.81,-15.59 -11.78,-17.06 -7.95,-1.44 -15.59,3.83 -17.04,11.78l-0.02 0z"/>
  <path class="fil0" d="M1557.01 1531.98l21.11 115.36c1.27,6.95 7.34,12.02 14.41,12.02l20.55 0c8.09,0 14.66,-6.57 14.66,-14.66 0,-8.09 -6.57,-14.65 -14.66,-14.65l-8.33 0 -18.91 -103.35c-1.45,-7.95 -9.09,-13.22 -17.05,-11.78 -7.96,1.47 -13.23,9.09 -11.78,17.06z"/>
  <path class="fil0" d="M1640.32 1526.7l-18.89 103.35 -8.35 0c-8.09,0 -14.65,6.56 -14.65,14.65 0,8.09 6.56,14.66 14.65,14.66l20.56 0c7.07,0 13.15,-5.06 14.42,-12.02l21.1 -115.36c1.45,-7.97 -3.83,-15.59 -11.78,-17.06 -7.96,-1.44 -15.6,3.83 -17.04,11.78l-0.02 0z"/>
  <path class="fil0" d="M2097.81 1731.34l-562.18 0c-8.1,0 -14.66,6.56 -14.66,14.65 0,8.09 6.56,14.66 14.66,14.66l562.18 0c8.09,0 14.66,-6.57 14.66,-14.66 0,-8.09 -6.57,-14.65 -14.66,-14.65z"/>
  <path class="fil0" d="M2097.81 1798.87l-505.55 0c-8.1,0 -14.66,6.56 -14.66,14.65 0,8.09 6.56,14.66 14.66,14.66l505.55 0c8.09,0 14.66,-6.57 14.66,-14.66 0,-8.09 -6.57,-14.65 -14.66,-14.65z"/>
  <path class="fil0" d="M2094.98 1893.71c-0.43,0.08 -29.96,5.9 -74.15,20.14 -33.14,10.69 -74.55,26.11 -118.16,47.49 -32.69,16.02 -66.63,35.38 -99.24,58.67 -48.9,34.9 -94.86,78.63 -128.74,133.12 -16.94,27.24 -30.81,57.15 -40.45,89.86 -9.61,32.71 -14.98,68.21 -14.98,106.53l14.65 0 0 -14.65 -41.65 0c-3.86,0 -7.64,1.56 -10.37,4.3 -2.72,2.71 -4.29,6.48 -4.29,10.35l0 777.97c0,8.09 6.56,14.66 14.66,14.66 8.09,0 14.65,-6.57 14.65,-14.65l0 -763.32 27 0c3.93,0 7.6,-1.53 10.38,-4.3 2.75,-2.76 4.28,-6.45 4.28,-10.36 0,-42.16 6.97,-80.19 19.1,-114.67 10.63,-30.17 25.23,-57.65 42.76,-82.69 30.63,-43.83 70.26,-80.25 112.62,-110.13 63.52,-44.86 133.18,-74.91 186.81,-93.59 26.83,-9.34 49.65,-15.87 65.7,-20.03 8.03,-2.09 14.36,-3.59 18.66,-4.55 2.13,-0.49 3.77,-0.84 4.86,-1.08 0.55,-0.11 0.94,-0.19 1.21,-0.25l0.28 -0.06 0.06 0 0.02 0c7.93,-1.56 13.11,-9.26 11.54,-17.21 -1.56,-7.94 -9.26,-13.11 -17.21,-11.55z"/>
  <path class="fil0" d="M1256.49 1345.05l0 66.12c0,8.09 6.56,14.65 14.66,14.65 8.09,0 14.65,-6.56 14.65,-14.65l0 -66.12c0,-8.09 -6.56,-14.66 -14.65,-14.66 -8.1,0 -14.66,6.57 -14.66,14.66z"/>
  <path class="fil0" d="M1188.96 1345.05l0 66.12c0,8.09 6.56,14.65 14.66,14.65 8.09,0 14.65,-6.56 14.65,-14.65l0 -66.12c0,-8.09 -6.56,-14.66 -14.65,-14.66 -8.1,0 -14.66,6.57 -14.66,14.66z"/>
  <path class="fil0" d="M1121.43 1345.05l0 66.12c0,8.09 6.56,14.65 14.66,14.65 8.09,0 14.65,-6.56 14.65,-14.65l0 -66.12c0,-8.09 -6.56,-14.66 -14.65,-14.66 -8.09,0 -14.66,6.57 -14.66,14.66z"/>
  <path class="fil0" d="M1475.29 1587.02l0 66.12c0,8.09 6.56,14.66 14.66,14.66 8.09,0 14.65,-6.57 14.65,-14.66l0 -66.12c0,-8.09 -6.56,-14.65 -14.65,-14.65 -8.1,0 -14.66,6.56 -14.66,14.65z"/>
  <path class="fil0" d="M1419.68 1587.02l0 66.12c0,8.09 6.56,14.66 14.66,14.66 8.09,0 14.65,-6.57 14.65,-14.66l0 -66.12c0,-8.09 -6.56,-14.65 -14.65,-14.65 -8.1,0 -14.66,6.56 -14.66,14.65z"/>
  <path class="fil0" d="M1365.13 1587.02l0 66.12c0,8.09 6.56,14.66 14.65,14.66 8.1,0 14.66,-6.57 14.66,-14.66l0 -66.12c0,-8.09 -6.57,-14.65 -14.66,-14.65 -8.09,0 -14.65,6.56 -14.65,14.65z"/>
  <path class="fil0" d="M1475.29 1864.17l0 66.12c0,8.09 6.56,14.65 14.66,14.65 8.09,0 14.65,-6.56 14.65,-14.65l0 -66.12c0,-8.09 -6.56,-14.66 -14.65,-14.66 -8.1,0 -14.66,6.57 -14.66,14.66z"/>
  <path class="fil0" d="M1419.68 1864.17l0 66.12c0,8.09 6.56,14.65 14.66,14.65 8.09,0 14.65,-6.56 14.65,-14.65l0 -66.12c0,-8.09 -6.56,-14.66 -14.65,-14.66 -8.1,0 -14.66,6.57 -14.66,14.66z"/>
  <path class="fil0" d="M1365.13 1864.17l0 66.12c0,8.09 6.56,14.65 14.65,14.65 8.1,0 14.66,-6.56 14.66,-14.65l0 -66.12c0,-8.09 -6.57,-14.66 -14.66,-14.66 -8.09,0 -14.65,6.57 -14.65,14.66z"/>
  <path class="fil0" d="M1053.91 1345.05l0 66.12c0,8.09 6.56,14.65 14.65,14.65 8.1,0 14.66,-6.56 14.66,-14.65l0 -66.12c0,-8.09 -6.56,-14.66 -14.66,-14.66 -8.09,0 -14.65,6.57 -14.65,14.66z"/>
  <path class="fil0" d="M986.38 1345.05l0 66.12c0,8.09 6.56,14.65 14.65,14.65 8.1,0 14.66,-6.56 14.66,-14.65l0 -66.12c0,-8.09 -6.56,-14.66 -14.66,-14.66 -8.09,0 -14.65,6.57 -14.65,14.66z"/>
  <path class="fil0" d="M918.85 1345.05l0 66.12c0,8.09 6.56,14.65 14.66,14.65 8.09,0 14.65,-6.56 14.65,-14.65l0 -66.12c0,-8.09 -6.56,-14.66 -14.65,-14.66 -8.1,0 -14.66,6.57 -14.66,14.66z"/>
  <path class="fil0" d="M851.32 1345.05l0 66.12c0,8.09 6.56,14.65 14.66,14.65 8.09,0 14.65,-6.56 14.65,-14.65l0 -66.12c0,-8.09 -6.56,-14.66 -14.65,-14.66 -8.1,0 -14.66,6.57 -14.66,14.66z"/>
  <path class="fil0" d="M783.8 1345.05l0 66.12c0,8.09 6.56,14.65 14.65,14.65 8.09,0 14.66,-6.56 14.66,-14.65l0 -66.12c0,-8.09 -6.57,-14.66 -14.66,-14.66 -8.09,0 -14.65,6.57 -14.65,14.66z"/>
  <path class="fil0" d="M716.27 1345.05l0 66.12c0,8.09 6.56,14.65 14.65,14.65 8.1,0 14.66,-6.56 14.66,-14.65l0 -66.12c0,-8.09 -6.56,-14.66 -14.66,-14.66 -8.09,0 -14.65,6.57 -14.65,14.66z"/>
  <path class="fil0" d="M648.74 1345.05l0 66.12c0,8.09 6.56,14.65 14.66,14.65 8.09,0 14.65,-6.56 14.65,-14.65l0 -66.12c0,-8.09 -6.56,-14.66 -14.65,-14.66 -8.1,0 -14.66,6.57 -14.66,14.66z"/>
  <path class="fil0" d="M581.21 1345.05l0 66.12c0,8.09 6.56,14.65 14.66,14.65 8.09,0 14.65,-6.56 14.65,-14.65l0 -66.12c0,-8.09 -6.56,-14.66 -14.65,-14.66 -8.1,0 -14.66,6.57 -14.66,14.66z"/>
  <path class="fil0" d="M513.69 1345.05l0 66.12c0,8.09 6.56,14.65 14.65,14.65 8.09,0 14.65,-6.56 14.65,-14.65l0 -66.12c0,-8.09 -6.56,-14.66 -14.65,-14.66 -8.09,0 -14.65,6.57 -14.65,14.66z"/>
  <path class="fil0" d="M2083.16 939.88l0 66.12c0,8.09 6.56,14.66 14.65,14.66 8.09,0 14.66,-6.57 14.66,-14.66l0 -66.12c0,-8.09 -6.57,-14.65 -14.66,-14.65 -8.09,0 -14.65,6.56 -14.65,14.65z"/>
  <path class="fil0" d="M2030.72 939.88l0 66.12c0,8.09 6.56,14.66 14.65,14.66 8.09,0 14.65,-6.57 14.65,-14.66l0 -66.12c0,-8.09 -6.56,-14.65 -14.65,-14.65 -8.09,0 -14.66,6.56 -14.65,14.65z"/>
  <path class="fil0" d="M1974.91 939.88l0 66.12c0,8.09 6.56,14.66 14.65,14.66 8.09,0 14.66,-6.57 14.66,-14.66l0 -66.12c0,-8.09 -6.57,-14.65 -14.66,-14.65 -8.08,0 -14.65,6.56 -14.65,14.65z"/>
  <path class="fil0" d="M1907.38 939.88l0 66.12c0,8.09 6.57,14.66 14.66,14.66 8.09,0 14.65,-6.57 14.65,-14.66l0 -66.12c0,-8.09 -6.56,-14.65 -14.65,-14.65 -8.09,0 -14.66,6.56 -14.66,14.65z"/>
  <path class="fil0" d="M1839.85 939.88l0 66.12c0,8.09 6.57,14.66 14.66,14.66 8.09,0 14.65,-6.57 14.65,-14.66l0 -66.12c0,-8.09 -6.56,-14.65 -14.65,-14.65 -8.09,0 -14.66,6.56 -14.66,14.65z"/>
  <path class="fil0" d="M1772.33 939.88l0 66.12c0,8.09 6.56,14.66 14.65,14.66 8.09,0 14.66,-6.57 14.66,-14.66l0 -66.12c0,-8.09 -6.57,-14.65 -14.66,-14.65 -8.09,0 -14.65,6.56 -14.65,14.65z"/>
  <path class="fil0" d="M1704.8 939.88l0 66.12c0,8.09 6.56,14.66 14.65,14.66 8.09,0 14.66,-6.57 14.66,-14.66l0 -66.12c0,-8.09 -6.57,-14.65 -14.66,-14.65 -8.09,0 -14.65,6.56 -14.65,14.65z"/>
  <path class="fil0" d="M1637.27 939.88l0 66.12c0,8.09 6.57,14.66 14.66,14.66 8.09,0 14.65,-6.57 14.65,-14.66l0 -66.12c0,-8.09 -6.57,-14.65 -14.65,-14.65 -8.09,0 -14.66,6.56 -14.66,14.65z"/>
  <path class="fil0" d="M1569.75 939.88l0 66.12c0,8.09 6.55,14.66 14.65,14.66 8.09,0 14.65,-6.57 14.65,-14.66l0 -66.12c0,-8.09 -6.56,-14.65 -14.65,-14.65 -8.09,0 -14.65,6.56 -14.65,14.65z"/>
  <path class="fil0" d="M1256.49 1943.57l0 66.12c0,8.09 6.56,14.66 14.66,14.66 8.09,0 14.65,-6.57 14.65,-14.66l0 -66.12c0,-8.09 -6.56,-14.65 -14.65,-14.65 -8.1,0 -14.66,6.56 -14.66,14.65z"/>
  <path class="fil0" d="M1188.96 1943.57l0 66.12c0,8.09 6.56,14.66 14.66,14.66 8.09,0 14.65,-6.57 14.65,-14.66l0 -66.12c0,-8.09 -6.56,-14.65 -14.65,-14.65 -8.1,0 -14.66,6.56 -14.66,14.65z"/>
  <path class="fil0" d="M1121.43 1943.57l0 66.12c0,8.09 6.56,14.66 14.66,14.66 8.09,0 14.65,-6.57 14.65,-14.66l0 -66.12c0,-8.09 -6.56,-14.65 -14.65,-14.65 -8.09,0 -14.66,6.56 -14.66,14.65z"/>
  <path class="fil0" d="M1053.91 1943.57l0 66.12c0,8.09 6.56,14.66 14.65,14.66 8.1,0 14.66,-6.57 14.66,-14.66l0 -66.12c0,-8.09 -6.56,-14.65 -14.66,-14.65 -8.09,0 -14.65,6.56 -14.65,14.65z"/>
  <path class="fil0" d="M986.38 1943.57l0 66.12c0,8.09 6.56,14.66 14.65,14.66 8.1,0 14.66,-6.57 14.66,-14.66l0 -66.12c0,-8.09 -6.56,-14.65 -14.66,-14.65 -8.09,0 -14.65,6.56 -14.65,14.65z"/>
  <path class="fil0" d="M918.85 1943.57l0 66.12c0,8.09 6.56,14.66 14.66,14.66 8.09,0 14.65,-6.57 14.65,-14.66l0 -66.12c0,-8.09 -6.56,-14.65 -14.65,-14.65 -8.1,0 -14.66,6.56 -14.66,14.65z"/>
  <path class="fil0" d="M851.32 1943.57l0 66.12c0,8.09 6.56,14.66 14.66,14.66 8.09,0 14.65,-6.57 14.65,-14.66l0 -66.12c0,-8.09 -6.56,-14.65 -14.65,-14.65 -8.1,0 -14.66,6.56 -14.66,14.65z"/>
  <path class="fil0" d="M783.8 1943.57l0 66.12c0,8.09 6.56,14.66 14.65,14.66 8.09,0 14.66,-6.57 14.66,-14.66l0 -66.12c0,-8.09 -6.57,-14.65 -14.66,-14.65 -8.09,0 -14.65,6.56 -14.65,14.65z"/>
  <path class="fil0" d="M716.27 1943.57l0 66.12c0,8.09 6.56,14.66 14.65,14.66 8.1,0 14.66,-6.57 14.66,-14.66l0 -66.12c0,-8.09 -6.56,-14.65 -14.66,-14.65 -8.09,0 -14.65,6.56 -14.65,14.65z"/>
  <path class="fil0" d="M648.74 1943.57l0 66.12c0,8.09 6.56,14.66 14.66,14.66 8.09,0 14.65,-6.57 14.65,-14.66l0 -66.12c0,-8.09 -6.56,-14.65 -14.65,-14.65 -8.1,0 -14.66,6.56 -14.66,14.65z"/>
  <path class="fil0" d="M581.21 1943.57l0 66.12c0,8.09 6.56,14.66 14.66,14.66 8.09,0 14.65,-6.57 14.65,-14.66l0 -66.12c0,-8.09 -6.56,-14.65 -14.65,-14.65 -8.1,0 -14.66,6.56 -14.66,14.65z"/>
  <path class="fil0" d="M513.69 1943.57l0 66.12c0,8.09 6.56,14.66 14.65,14.66 8.09,0 14.65,-6.57 14.65,-14.66l0 -66.12c0,-8.09 -6.56,-14.65 -14.65,-14.65 -8.09,0 -14.65,6.56 -14.65,14.65z"/>
  <path class="fil1 str0" d="M1271.15 1531.57l-689.35 0c-8.09,0 -14.65,6.56 -14.65,14.65 0,8.09 6.56,14.66 14.65,14.66l689.35 0c8.09,0 14.65,-6.57 14.65,-14.66 0,-8.09 -6.56,-14.65 -14.65,-14.65z"/>
  <path class="fil0" d="M1252.03 3127.49l0 -1001.65c0,-3.87 -1.56,-7.64 -4.29,-10.36 -2.73,-2.74 -6.5,-4.3 -10.36,-4.3l-619 0c-3.86,0 -7.64,1.56 -10.37,4.3 -2.73,2.72 -4.29,6.49 -4.29,10.36l0 990.4c0,8.09 6.56,14.66 14.66,14.66 8.09,0 14.65,-6.57 14.65,-14.66l0 -975.75 589.69 0 0 987c0,8.09 6.57,14.66 14.66,14.66 8.09,0 14.65,-6.57 14.65,-14.66z"/>
  <path class="fil0" d="M928.03 2229.47l5.48 -13.6 -5.49 13.58 0.01 0.02 5.48 -13.6 -5.49 13.58 0 0c0.37,0.16 12.03,4.93 29.19,14.54 25.75,14.4 63.81,39.76 94.88,76.24 15.56,18.23 29.37,39.2 39.29,62.98 9.92,23.78 15.98,50.37 15.99,80.26 0,3.85 1.56,7.64 4.29,10.36 2.73,2.73 6.5,4.3 10.36,4.3l27.55 0 0 638.11c0,8.09 6.56,14.66 14.66,14.66 8.09,0 14.65,-6.57 14.65,-14.66l0 -652.77c0,-3.87 -1.56,-7.64 -4.29,-10.35 -2.73,-2.74 -6.51,-4.3 -10.36,-4.3l-42.21 0 0 14.65 14.65 0c0.01,-22.8 -3.13,-44.12 -8.63,-63.85 -9.63,-34.55 -26.44,-64.21 -46.01,-89.08 -29.39,-37.36 -64.94,-64.19 -93.19,-81.87 -28.25,-17.66 -49.27,-26.16 -49.86,-26.4 -7.51,-3.02 -16.04,0.61 -19.07,8.13 -3.02,7.5 0.61,16.04 8.12,19.07z"/>
  <path class="fil0" d="M1152.97 2503.14l-219.46 0c-8.1,0 -14.66,6.56 -14.66,14.65 0,8.09 6.56,14.66 14.66,14.66l219.46 0c8.09,0 14.65,-6.57 14.65,-14.66 0,-8.09 -6.56,-14.65 -14.65,-14.65z"/>
  <path class="fil0" d="M928.25 2603.77l2.16 -5.63 -2.18 5.63 0.02 0 2.16 -5.63 -2.18 5.63c0.08,0.01 6.73,2.59 16.56,7.56 7.37,3.71 16.52,8.75 26,14.98 14.23,9.36 29.15,21.5 40.04,35.45 5.46,6.97 9.91,14.38 12.98,22.1 3.06,7.73 4.77,15.78 4.78,24.4l0 25.32c0,3.85 1.56,7.64 4.29,10.36 2.73,2.74 6.5,4.3 10.36,4.3l30.36 0 0 368c0,8.09 6.56,14.66 14.66,14.66 8.09,0 14.65,-6.57 14.65,-14.66l0 -382.66c0,-3.87 -1.56,-7.64 -4.29,-10.35 -2.73,-2.74 -6.5,-4.3 -10.36,-4.3l-30.37 0 0 -10.67c0.01,-11.27 -2.05,-21.96 -5.56,-31.81 -3.08,-8.64 -7.25,-16.63 -12.12,-24.01 -8.53,-12.9 -19.16,-23.94 -30.21,-33.36 -16.59,-14.12 -34.19,-24.61 -47.75,-31.73 -13.56,-7.11 -23.09,-10.78 -23.49,-10.94 -7.55,-2.91 -16.03,0.86 -18.93,8.42 -2.91,7.54 0.86,16.02 8.42,18.94z"/>
  <path class="fil0" d="M928.03 2202.27c-0.44,0.18 -12.76,5.16 -31.09,15.34 -27.48,15.26 -68.6,42.15 -103.41,82.54 -17.39,20.2 -33.18,43.82 -44.65,71.06 -11.47,27.22 -18.55,58.07 -18.54,92.26l14.65 0 0 -14.65 -42.2 0c-3.86,0 -7.64,1.56 -10.37,4.3 -2.72,2.71 -4.29,6.49 -4.29,10.35l0 652.77c0,8.09 6.56,14.66 14.66,14.66 8.09,0 14.65,-6.57 14.65,-14.66l0 -638.11 27.55 0c3.91,0 7.59,-1.53 10.36,-4.3 2.77,-2.76 4.29,-6.45 4.29,-10.36 0.01,-20.1 2.76,-38.7 7.57,-55.98 8.41,-30.2 23.17,-56.41 40.81,-78.84 26.43,-33.66 59.38,-58.69 85.69,-75.13 13.14,-8.2 24.6,-14.3 32.71,-18.28 4.05,-2 7.27,-3.46 9.43,-4.42 1.08,-0.49 1.9,-0.84 2.43,-1.05 0.27,-0.12 0.46,-0.2 0.58,-0.26l0.12 -0.04 0 0c7.51,-3.03 11.14,-11.56 8.12,-19.07 -3.03,-7.5 -11.56,-11.14 -19.07,-8.13z"/>
  <path class="fil0" d="M714.04 2532.45l219.47 0c8.09,0 14.65,-6.57 14.65,-14.66 0,-8.09 -6.56,-14.65 -14.65,-14.65l-219.47 0c-8.09,0 -14.65,6.56 -14.65,14.65 0,8.09 6.56,14.66 14.65,14.66z"/>
  <path class="fil0" d="M928.25 2576.41c-0.35,0.14 -7.62,2.93 -18.44,8.34 -8.12,4.07 -18.24,9.6 -28.96,16.59 -16.06,10.53 -33.51,24.33 -47.43,41.95 -6.95,8.82 -13,18.64 -17.35,29.51 -4.35,10.84 -6.96,22.78 -6.95,35.46l0 10.67 -30.36 0c-3.86,0 -7.64,1.56 -10.37,4.3 -2.73,2.71 -4.29,6.49 -4.29,10.35l0 382.66c0,8.09 6.56,14.66 14.66,14.66 8.09,0 14.65,-6.57 14.65,-14.66l0 -368 30.36 0c3.92,0 7.6,-1.53 10.36,-4.3 2.77,-2.76 4.3,-6.45 4.3,-10.36l0 -25.32c0,-7.74 1.38,-14.98 3.86,-21.98 2.18,-6.12 5.23,-12.02 8.97,-17.68 6.55,-9.95 15.26,-19.13 24.75,-27.2 14.22,-12.14 30.12,-21.69 42.36,-28.1 6.11,-3.2 11.31,-5.63 14.93,-7.23 1.81,-0.8 3.23,-1.41 4.17,-1.78 0.47,-0.19 0.81,-0.33 1.03,-0.43l0.24 -0.08 0.04 -0.01 0 0 -3.77 -9.77 3.75 9.77 0.02 0 -3.77 -9.77 3.75 9.77c7.56,-2.92 11.33,-11.4 8.42,-18.94 -2.9,-7.56 -11.38,-11.33 -18.93,-8.42z"/>
  <path class="fil1" d="M1648.21 1943.57l-14.65 0c0,8.11 1.66,15.93 4.65,22.98 4.49,10.63 11.96,19.62 21.37,25.97 9.4,6.37 20.85,10.1 33.03,10.1 8.11,0 15.92,-1.66 22.99,-4.65 10.61,-4.49 19.6,-11.96 25.97,-21.37 6.35,-9.4 10.08,-20.85 10.08,-33.03 0.01,-8.1 -1.64,-15.92 -4.65,-22.99 -4.49,-10.61 -11.95,-19.6 -21.37,-25.97 -9.4,-6.35 -20.85,-10.08 -33.02,-10.08 -8.11,0 -15.91,1.64 -22.98,4.65 -10.63,4.49 -19.62,11.95 -25.97,21.37 -6.37,9.4 -10.1,20.85 -10.1,33.02l14.65 0 14.66 0c0,-4.14 0.84,-8.03 2.32,-11.56 2.25,-5.32 6.04,-9.89 10.81,-13.11 4.77,-3.21 10.39,-5.06 16.61,-5.06 4.14,-0.01 8.03,0.84 11.56,2.32 5.32,2.25 9.89,6.04 13.11,10.79 3.21,4.76 5.06,10.41 5.06,16.62 0.01,4.15 -0.84,8.02 -2.32,11.57 -2.25,5.31 -6.04,9.89 -10.79,13.09 -4.76,3.23 -10.41,5.08 -16.62,5.08 -4.15,0 -8.01,-0.84 -11.57,-2.32 -5.32,-2.25 -9.89,-6.04 -13.09,-10.81 -3.23,-4.77 -5.08,-10.39 -5.08,-16.61l-14.66 0z"/>
  <path class="fil1" d="M1138.32 2215.87l0 53.46c0,8.09 6.56,14.66 14.65,14.66 8.09,0 14.65,-6.57 14.65,-14.66l0 -53.46c0,-8.09 -6.56,-14.65 -14.65,-14.65 -8.09,0 -14.65,6.56 -14.65,14.65z"/>
  <path class="fil1 str0" d="M699.39 2215.87l0 53.46c0,8.09 6.56,14.66 14.65,14.66 8.09,0 14.65,-6.57 14.65,-14.66l0 -53.46c0,-8.09 -6.56,-14.65 -14.65,-14.65 -8.09,0 -14.65,6.56 -14.65,14.65z"/>
  <path class="fil1" d="M2097.13 1153.13l-504.87 0c-8.1,0 -14.66,6.57 -14.66,14.66 0,8.09 6.56,14.65 14.66,14.65l504.87 0c8.09,0 14.65,-6.56 14.65,-14.65 0,-8.09 -6.56,-14.66 -14.65,-14.66z"/>
  <path class="fil0" d="M1535.63 2915.89l-202.59 0c-8.09,0 -14.65,6.56 -14.65,14.65 0,8.09 6.56,14.65 14.65,14.65l202.59 0c8.09,0 14.65,-6.56 14.65,-14.65 0,-8.09 -6.56,-14.65 -14.65,-14.65z"/>
  <path class="fil0" d="M1535.63 2859.61l-202.59 0c-8.09,0 -14.65,6.57 -14.65,14.66 0,8.09 6.56,14.65 14.65,14.65l202.59 0c8.09,0 14.65,-6.56 14.65,-14.65 0,-8.09 -6.56,-14.66 -14.65,-14.66z"/>
  <path class="fil0" d="M1535.63 2606.38l-202.59 0c-8.09,0 -14.65,6.57 -14.65,14.66 0,8.09 6.56,14.65 14.65,14.65l202.59 0c8.09,0 14.65,-6.56 14.65,-14.65 0,-8.09 -6.56,-14.66 -14.65,-14.66z"/>
  <path class="fil0" d="M1535.63 2353.16l-202.59 0c-8.09,0 -14.65,6.56 -14.65,14.65 0,8.09 6.56,14.65 14.65,14.65l202.59 0c8.09,0 14.65,-6.56 14.65,-14.65 0,-8.09 -6.56,-14.65 -14.65,-14.65z"/>
  <path class="fil0" d="M1535.63 2099.93l-202.59 0c-8.09,0 -14.65,6.56 -14.65,14.65 0,8.09 6.56,14.66 14.65,14.66l202.59 0c8.09,0 14.65,-6.57 14.65,-14.66 0,-8.09 -6.56,-14.65 -14.65,-14.65z"/>
  <path class="fil0" d="M1535.63 1846.7l-202.59 0c-8.09,0 -14.65,6.56 -14.65,14.65 0,8.09 6.56,14.66 14.65,14.66l202.59 0c8.09,0 14.65,-6.57 14.65,-14.66 0,-8.09 -6.56,-14.65 -14.65,-14.65z"/>
  <path class="fil0" d="M1535.63 1790.43l-202.59 0c-8.09,0 -14.65,6.56 -14.65,14.65 0,8.09 6.56,14.65 14.65,14.65l202.59 0c8.09,0 14.65,-6.56 14.65,-14.65 0,-8.09 -6.56,-14.65 -14.65,-14.65z"/>
  <path class="fil0" d="M1535.63 1570.96l-202.59 0c-8.09,0 -14.65,6.57 -14.65,14.66 0,8.08 6.56,14.65 14.65,14.65l202.59 0c8.09,0 14.65,-6.57 14.65,-14.65 0,-8.1 -6.56,-14.66 -14.65,-14.66z"/>
  <path class="fil0" d="M1535.63 1514.69l-202.59 0c-8.09,0 -14.65,6.56 -14.65,14.65 0,8.09 6.56,14.66 14.65,14.66l202.59 0c8.09,0 14.65,-6.57 14.65,-14.66 0,-8.09 -6.56,-14.65 -14.65,-14.65z"/>
  <path class="fil0" d="M1535.63 1067.32l-202.59 0c-8.09,0 -14.65,6.56 -14.65,14.65 0,8.09 6.56,14.66 14.65,14.66l202.59 0c8.09,0 14.65,-6.57 14.65,-14.66 0,-8.09 -6.56,-14.65 -14.65,-14.65z"/>
  <path class="fil0" d="M1535.63 1011.04l-202.59 0c-8.09,0 -14.65,6.57 -14.65,14.66 0,8.09 6.56,14.65 14.65,14.65l202.59 0c8.09,0 14.65,-6.56 14.65,-14.65 0,-8.09 -6.56,-14.66 -14.65,-14.66z"/>
  <path class="fil0" d="M1535.63 757.81l-202.59 0c-8.09,0 -14.65,6.57 -14.65,14.66 0,8.09 6.56,14.65 14.65,14.65l202.59 0c8.09,0 14.65,-6.56 14.65,-14.65 0,-8.1 -6.56,-14.66 -14.65,-14.66z"/>
  <path class="fil0" d="M1571.43 704.36l-270.74 0c-8.1,0 -14.66,6.56 -14.66,14.65 0,8.09 6.56,14.66 14.66,14.66l270.74 -0.01c8.09,0 14.65,-6.56 14.65,-14.65 0.01,-8.09 -6.56,-14.65 -14.65,-14.65z"/>
  <path class="fil0" d="M1429.49 482.39l4.78 -9.52 -4.8 9.52 0.02 0 4.78 -9.52 -4.8 9.52 0.86 -1.71 -0.86 1.7 0 0.01 0.86 -1.71 -0.86 1.7c0.12,0.07 6.11,3.12 14.93,9.09 13.23,8.93 32.74,24.46 48.55,45.89 7.92,10.71 14.92,22.87 19.94,36.46 5.02,13.59 8.08,28.6 8.08,45.31 0,99.88 0,99.88 0,99.88 0,8.09 6.56,14.66 14.66,14.66 8.09,-0.01 14.65,-6.57 14.65,-14.66 0,0 0,0 0,-99.88 0.01,-27.43 -6.88,-51.64 -17.09,-72.09 -7.66,-15.36 -17.15,-28.65 -27.02,-39.97 -14.81,-16.97 -30.47,-29.52 -42.53,-37.94 -12.06,-8.41 -20.52,-12.68 -21.01,-12.93 -7.24,-3.63 -16.04,-0.71 -19.67,6.53 -3.63,7.23 -0.71,16.04 6.53,19.66z"/>
  <path class="fil0" d="M1349.42 719.01c0,0 0,0 0,-99.88 0.01,-22.53 5.56,-42.01 14.02,-59.02 6.35,-12.73 14.36,-24.02 22.87,-33.78 12.75,-14.63 26.62,-25.78 37.21,-33.16 5.3,-3.7 9.76,-6.46 12.85,-8.25 1.54,-0.91 2.74,-1.57 3.52,-1.98 0.39,-0.22 0.67,-0.37 0.84,-0.46l0.18 -0.09 -0.13 -0.25 0.13 0.25 0 0 -0.13 -0.25 0.13 0.25c4.96,-2.49 8.08,-7.53 8.08,-13.09l0 -56.98c0,-8.09 -6.56,-14.65 -14.65,-14.65 -8.1,0 -14.66,6.56 -14.66,14.65l0 56.98 14.66 0 -6.58 -13.1c-0.43,0.22 -7.17,3.62 -17.13,10.28 -14.93,10 -37.17,27.29 -56.1,52.57 -9.45,12.64 -18.05,27.3 -24.3,44.03 -6.25,16.71 -10.12,35.49 -10.12,56.05 0,99.88 0,99.88 0,99.88 0,8.09 6.56,14.66 14.66,14.66 8.09,-0.01 14.65,-6.57 14.65,-14.66z"/>
  <path class="fil0" d="M1471.19 619.12l0 99.89c0,8.09 6.56,14.66 14.65,14.66 8.1,-0.01 14.66,-6.57 14.66,-14.66l0 -99.89c0,-8.09 -6.56,-14.65 -14.66,-14.65 -8.09,0 -14.65,6.56 -14.65,14.65z"/>
  <path class="fil0" d="M1421.4 619.12l0 99.89c0,8.09 6.56,14.66 14.66,14.66 8.09,-0.01 14.65,-6.57 14.65,-14.66l0 -99.89c0,-8.09 -6.56,-14.65 -14.65,-14.65 -8.1,0 -14.66,6.56 -14.66,14.65z"/>
  <path class="fil0" d="M1371.62 619.12l0 99.89c0,8.09 6.56,14.66 14.65,14.66 8.1,-0.01 14.66,-6.57 14.66,-14.66l0 -99.89c0,-8.09 -6.56,-14.65 -14.66,-14.65 -8.09,0 -14.65,6.56 -14.65,14.65z"/>
  <path class="fil1" d="M2095.21 1962.21c-0.52,0.1 -26.45,4.81 -65.26,17.47 -29.11,9.52 -65.44,23.49 -103.71,43.44 -57.41,29.91 -119.29,73.23 -167.12,135.33 -23.9,31.03 -44.24,66.76 -58.56,107.64 -14.32,40.87 -22.61,86.87 -22.61,138.3l14.66 0 0 -14.66 -44.4 0c-3.85,0 -7.64,1.57 -10.35,4.3 -2.74,2.72 -4.3,6.49 -4.3,10.36l0 649.95c0,8.09 6.56,14.65 14.65,14.65 8.09,0 14.66,-6.56 14.66,-14.65l0 -635.3 29.74 0c3.91,0 7.6,-1.52 10.35,-4.3 2.78,-2.75 4.3,-6.44 4.3,-10.35 0,-42.93 6.12,-81.34 16.77,-115.85 18.62,-60.38 51.11,-108.95 89.74,-148.21 28.98,-29.42 61.39,-53.55 93.77,-73.13 48.57,-29.37 97.03,-48.52 133.24,-60.22 18.11,-5.86 33.13,-9.87 43.59,-12.39 5.22,-1.27 9.3,-2.17 12.03,-2.73 1.37,-0.3 2.41,-0.49 3.09,-0.63 0.34,-0.06 0.59,-0.12 0.74,-0.14l0.16 -0.04 0.04 0 -0.62 -3.32 0.6 3.32 0.02 0 -0.62 -3.32 0.6 3.32c7.97,-1.44 13.25,-9.06 11.82,-17.01 -1.44,-7.98 -9.07,-13.27 -17.02,-11.83z"/>
  <path class="fil0" d="M1592.26 3068.99l85.69 0 0 47.25c0,8.09 6.57,14.66 14.66,14.66 8.09,0 14.65,-6.57 14.65,-14.66l0 -61.9c0,-3.87 -1.56,-7.64 -4.3,-10.36 -2.71,-2.73 -6.48,-4.29 -10.35,-4.29l-100.35 0c-8.1,0 -14.66,6.56 -14.66,14.65 0,8.09 6.56,14.65 14.66,14.65z"/>
  <path class="fil0" d="M2092.85 2179.57c-0.29,0.12 -18.21,6.58 -45.04,18.8 -20.1,9.14 -45.23,21.55 -71.71,36.96 -39.7,23.14 -82.47,52.97 -115.98,89.44 -16.75,18.24 -31.19,38.17 -41.52,59.94 -10.34,21.73 -16.55,45.33 -16.53,70.32 0,160.38 0,578.21 0,578.21 0,3.85 1.56,7.64 4.29,10.35 2.72,2.74 6.49,4.3 10.36,4.3l24.07 0 0 68.35c0,8.09 6.57,14.66 14.66,14.66 8.09,0 14.65,-6.57 14.65,-14.66l0 -83c0,-3.87 -1.56,-7.64 -4.3,-10.36 -2.71,-2.73 -6.48,-4.3 -10.35,-4.3l-38.73 0 0 14.66 14.65 0c0,0 0,-417.83 0,-578.21 0,-17.9 3.89,-34.99 10.91,-51.56 6.15,-14.48 14.71,-28.53 25.1,-41.95 18.2,-23.53 42.01,-45.18 67.57,-64.21 38.34,-28.56 80.48,-51.25 112.94,-66.67 16.24,-7.71 30.03,-13.61 39.74,-17.58 4.85,-1.97 8.68,-3.46 11.28,-4.46 1.28,-0.5 2.28,-0.88 2.95,-1.11 0.31,-0.12 0.56,-0.21 0.72,-0.27l0.16 -0.06 0.04 0c7.61,-2.76 11.56,-11.16 8.83,-18.76 -2.76,-7.62 -11.16,-11.57 -18.76,-8.83z"/>
  <path class="fil0" d="M197.2 3228.12l3798.56 0c8.08,0 14.65,-6.56 14.65,-14.65 0,-8.09 -6.57,-14.66 -14.66,-14.66l-3798.55 0c-8.09,0 -14.65,6.57 -14.65,14.66 0,8.09 6.56,14.65 14.65,14.65z"/>
  <path class="fil0" d="M197.2 3142.15l3798.56 0c8.08,0 14.65,-6.57 14.65,-14.65 0,-8.09 -6.57,-14.66 -14.66,-14.66l-3798.55 0c-8.09,0 -14.65,6.57 -14.65,14.66 0,8.08 6.56,14.65 14.65,14.65z"/>
  <path class="fil0" d="M2642.68 875.95l0 -10.71c6.37,-2.78 13.17,-4.55 20.21,-4.55 1.99,0 4,0.14 6.03,0.45 1.06,0.16 2.07,0.32 3.07,0.49l0 11.86c-2.6,-0.36 -5.49,-0.59 -8.67,-0.59 -5.94,0 -12.88,0.8 -20.64,3.05z"/>
  <path class="fil0" d="M2845.27 921.86l0 -10.68c6.42,-2.83 13.3,-4.65 20.39,-4.65 2,0 4.03,0.15 6.04,0.46 1,0.14 1.96,0.3 2.87,0.45l0 11.87c-2.54,-0.34 -5.37,-0.57 -8.48,-0.57 -5.99,0 -12.99,0.82 -20.82,3.12z"/>
  <path class="fil0" d="M2671.99 1470.84c0,0 0,0 0,0l0 -7.58 0 7.58z"/>
  <path class="fil0" d="M2642.68 1474.98l0 -5.35c6.1,-4.12 13.35,-7.42 20.99,-7.42 1.27,-0.01 2.56,0.09 3.87,0.29 1.6,0.23 3.08,0.49 4.45,0.76l0 7.58c-2.21,-0.47 -4.92,-0.82 -8.05,-0.82 -5.74,0 -12.95,1.17 -21.26,4.96z"/>
  <path class="fil0" d="M2845.27 1486.82l0 -9.04c0,0 -0.01,0 -0.01,0l0.01 9.04c0,0 -0.01,0.01 0,0z"/>
  <path class="fil0" d="M2845.27 1486.82l0 -9.04c1.17,-0.04 2.32,-0.06 3.41,-0.06 19.94,0 25.93,5.39 25.93,5.39 0,0 -1.62,-0.11 -4.3,-0.11 -5.52,-0.01 -15.59,0.52 -25.04,3.82z"/>
  <path class="fil0" d="M2755.03 1515.18c0,0 0.14,-0.18 0.39,-0.49l0.24 0c-0.22,0.15 -0.41,0.33 -0.63,0.49z"/>
  <path class="fil0" d="M2860.74 1348.55l0.69 -9.34c0,0 -5.52,-3.19 -14.95,-3.19 -0.41,0 -0.8,0.02 -1.22,0.02l0.01 -7.8c0.31,-0.02 0.62,-0.02 0.93,-0.02 1.27,0 2.56,0.1 3.85,0.3 22.06,3.34 21.4,8.67 21.4,8.67 0,0 0.68,-3.81 3.12,-8.3l0 16.22 -13.83 3.44z"/>
 </g>
</svg>
