<?xml version="1.0" encoding="UTF-8"?>
<!DOCTYPE svg PUBLIC "-//W3C//DTD SVG 1.1//EN" "http://www.w3.org/Graphics/SVG/1.1/DTD/svg11.dtd">
<!-- Creator: CorelDRAW -->
<svg xmlns="http://www.w3.org/2000/svg" xml:space="preserve" width="16.9332mm" height="16.9332mm" version="1.1" style="shape-rendering:geometricPrecision; text-rendering:geometricPrecision; image-rendering:optimizeQuality; fill-rule:evenodd; clip-rule:evenodd"
viewBox="0 0 1693.32 1693.32"
 xmlns:xlink="http://www.w3.org/1999/xlink"
 xmlns:xodm="http://www.corel.com/coreldraw/odm/2003">
 <defs>
  <style type="text/css">
   <![CDATA[
    .fil0 {fill:black}
    .fil1 {fill:#FD5631}
   ]]>
  </style>
 </defs>
 <g id="Layer_x0020_1">
  <metadata id="CorelCorpID_0Corel-Layer"/>
  <path class="fil0" d="M606.4 695.48c0,-111.46 -11.36,-87.56 40,-98.46 91.68,-19.45 201.94,-61.94 285.87,-109.07 15.54,24.63 81.64,84.19 110.54,103 24.38,15.88 17.39,-2.88 17.39,104.53 0,43.84 -5.37,73.23 -19.3,102.49 -9.8,20.59 -19.24,38.84 -34.41,55.72 -6.27,6.97 -7.99,11.05 -14.43,17.98 -35.2,37.89 -99.41,87.71 -163.59,87.71 -53.91,0 -124.12,-56.07 -152.71,-86.44l-26.63 -33.22c-10.14,-14.46 -14.63,-23.21 -22.62,-40.04 -14.67,-30.93 -20.11,-58.98 -20.11,-104.2zm201.85 -586.73l56.45 0c66.82,2.92 132,16.3 188.61,40.63 14.62,6.28 29.8,11.26 43.13,18.26 132.43,69.57 119.04,47.88 85.48,136.93 -4.43,11.76 -7.18,19.44 -11.77,31.13 -6.44,16.41 -6.13,14 -1.08,31.49 32,110.65 84.26,332.95 74.25,440.67 -5.23,56.38 -32.07,68.06 -75.86,96.27 -50.65,32.63 -121.44,60.97 -180.69,72.11 -28.2,5.3 -28.1,0.03 -30.38,11.3 -4.92,24.29 8.95,65.89 -7.74,78.97 -9.16,7.17 -20.71,6.11 -28.02,-2.52 -11.28,-13.31 -5.26,-58.8 -5.26,-81.55 -53.35,29.96 -110.79,29.96 -164.14,0 0,23.51 6.26,70.21 -6.46,82.85 -8.33,8.27 -19.67,7.81 -28.18,0.07 -9.52,-8.66 -6.45,-19.61 -6.4,-36.8 0.16,-55.86 2.49,-47.25 -15.74,-49.9 -66.72,-9.71 -142.25,-40.58 -196.81,-75.5 -41.4,-26.5 -69.04,-38.03 -74.36,-95.3 -10.06,-108.22 42.16,-330.44 74.85,-442.65 5.07,-17.38 3.73,-15.56 -2.4,-31.35l-34.16 -94.44c0,-17.65 30.43,-30.68 51.48,-42.72l60.35 -30.74c69.17,-34.25 151.8,-53.62 234.85,-57.21zm292.98 589.29l0 -84.55c55.14,0 51.68,83.33 0,84.55zm-535.86 -84.55l0 84.55c-51.68,-1.22 -55.14,-84.55 0,-84.55zm-84.49 38.43c0,54.09 36.95,91.06 86.9,92.24 0,18.39 7.1,44.59 12.87,58.08 21.63,50.66 21.36,46.33 52.66,87.58 18.62,24.55 26.14,24.69 33.44,36.25 -41.4,-3.66 -137.05,-50.65 -175.55,-80.13 -26.29,-20.12 -27.22,-22.03 -27.22,-76.16 0,-33.43 4.48,-65.45 9,-92.94 14.6,-88.72 24.71,-128.8 44.11,-211.95 2.82,-12.07 8.7,-31.4 9.65,-43.56 2.2,2.69 1.27,0.7 4.02,5.99l10.45 27.33c16.99,46.37 31.12,20.68 77.95,0.72 121.01,-51.56 305.85,-52.34 426.56,-0.74 8.62,3.69 19.07,7.3 27.06,12.27 22.34,13.91 38.56,26.33 51.93,-10.4l10.3 -27.5c2.04,-4.28 2.25,-4.49 4.85,-7.67 0.9,11.56 6.68,30.9 9.16,41.51l28.85 125.67c9.33,46.47 36.71,186.07 19.43,234.55 -11.39,31.92 -155.28,99.28 -197.45,103.01 6.32,-10.02 9.34,-9.78 17.5,-17.3 15.78,-14.56 45.81,-58.6 58.12,-81.78 4.54,-8.55 6.57,-15.58 10.48,-24.75 5.77,-13.49 12.87,-39.69 12.87,-58.08 23.21,-0.55 45.09,-10.64 57.39,-23.63 25.36,-26.8 27.1,-40.44 27.1,-73.73 0,-26.81 -22.04,-58.26 -44.96,-70.14 -36.39,-18.87 -50.75,13.39 -142.72,-84.23 -8.87,-9.41 -20.11,-19.88 -27.51,-29.72 -36.73,-48.87 -31.7,-21.13 -116.53,16.47 -93.91,41.62 -185.44,69.8 -286.91,87.46 -26.8,4.66 -42.24,8.86 -57.93,25.63 -11.97,12.8 -25.87,35.63 -25.87,59.65zm28.97 -402.25c41.87,-23.52 98.14,-53.26 143.96,-67.54 39.67,-12.37 86.73,-24.91 128.79,-27.27 8.59,-0.49 17.99,0.51 26.57,0.02 33.2,-1.89 2.77,-3.94 45.98,-0.15 30.89,2.72 22.68,-1.94 74,6 81.27,12.59 156.38,48.94 227.6,88.94l-65.17 176.78c-33.21,-18.65 -79.4,-32.06 -116.87,-39.93 -43.28,-9.09 -97.15,-16.43 -141.41,-16.43 -41.17,0 -99.44,7.59 -139.4,16.01 -19.48,4.1 -42.59,9.46 -61.89,16.3l-56.99 24.05c-0.78,-9.92 -11.45,-34.24 -15.52,-45.02 -5.94,-15.78 -10.66,-28.3 -16.55,-43.91l-33.1 -87.85z"/>
  <path class="fil0" d="M1019.16 1271.96l-164.14 51.24c0,-34.03 -1.88,-22.34 40.44,-67.26l129.14 -137.07c5.5,-5.84 20.9,-26.26 28.36,-26.26 19.34,0 18.09,7.44 24.95,22.2 5.64,12.15 10.49,22.94 16.08,34.16 -9.71,2.41 -52.59,25.78 -63.67,32.34 -14.26,8.46 -11.25,17.9 -11.16,39.4 0.07,17.07 0,34.17 0,51.25zm432.08 107.61l0 19.64c-0.84,11.5 -4.65,21.35 -19.31,21.35 -52.19,0 16.63,-97.73 -99.52,-219.75 -45.4,-47.69 -153.87,-92.83 -211.86,-97.95 3.37,15.36 21.72,41.03 21.72,53.8 0,21.82 -19.04,25.48 -37.01,35.02 -15.74,8.35 -30.24,15.58 -45.06,23.91 0,17.22 4.13,79.06 -5.39,89.07 -8.7,9.14 -112.75,38.73 -133.1,45.76 -11.45,3.96 -23.47,7.74 -33.4,10.67 -8.74,2.57 -26.8,7.48 -33.29,10.79 0,8.68 3.21,48.68 -16.89,48.68 -29.38,0 -26.55,-18.76 -26.55,-48.68 -7.26,-3.69 -25.26,-8.32 -35.19,-11.33 -11.64,-3.53 -21.75,-6.77 -33.31,-10.77 -160.47,-55.46 -136.68,-16.02 -136.68,-134.19 -14.82,-8.33 -29.32,-15.56 -45.06,-23.91 -13.91,-7.38 -37.01,-13.86 -37.01,-32.46 0,-18.16 17.71,-38.08 21.72,-56.36 -33.35,2.94 -88.01,23.1 -118.28,35.86 -22.1,9.32 -55.08,29.08 -73.8,44.64 -7.16,5.95 -13.66,11.02 -19.78,17.45 -40.79,42.85 -70.82,98.29 -75.26,163.51 -1.7,24.97 2.95,56.24 -21.85,56.24 -16.81,0 -20.89,-8.81 -21.72,-20.79l0 -20.2c0,-60.55 20.22,-115.06 50.23,-161.9 21.49,-33.53 26.73,-35.41 51.73,-60.39 18.3,-18.28 59.52,-43.93 81.52,-54.4 39.81,-18.94 92.09,-36.1 135.14,-43.58 24.79,-4.31 48.48,-10.25 77.25,-10.25 30.79,0 24.36,-1.05 46.46,22.42 24.74,26.27 164.66,177.33 175.61,185.11 10.61,-7.54 131.53,-138.32 151.47,-159.49 14.1,-14.96 40.07,-48.04 53.71,-48.04 43.49,0 54.02,2.26 95.93,10.91 25.29,5.22 47.48,10.24 71.53,18.87 12.72,4.57 22.29,6.87 34.29,12.29 28.17,12.7 61.76,29.76 85.49,47.61 72.7,54.71 125.52,142.03 125.52,240.84zm-842.43 -286.96c14.57,0 18.63,10.8 31.99,24.98l155.69 165.25c16.25,17.15 15.09,8.8 15.09,40.36 -12.08,-1.07 -29.43,-7.96 -41.91,-11.89l-122.23 -39.35c0,-16.23 -0.04,-32.46 0,-48.69 0.05,-20.94 3.23,-32.64 -9.61,-41.04 -7.87,-5.16 -57.23,-31.28 -65.22,-33.26 4.99,-10.02 9.7,-20.56 14.48,-30.74 8.34,-17.76 8.2,-25.62 21.72,-25.62z"/>
  <path class="fil1" d="M811.58 224.05l0 15.37c-13.42,0 -41.04,-3.49 -41.04,23.06 0,22.75 26.29,23.06 41.04,23.06l0 17.93c0,31.96 43.44,31.96 43.44,0l0 -17.93c63.51,0 40.32,-46.12 19.32,-46.12l-19.32 0c0,-16.7 2.17,-43.56 -21.72,-43.56 -14.82,0 -21.72,12.2 -21.72,28.19z"/>
  <path class="fil0" d="M830.89 874.83c26.21,0 48.4,-7 66.19,-19.42 8.43,-5.89 18.14,-10.3 19.87,-22.45 1.71,-12.01 -5.04,-24.75 -23.3,-24.75 -10.33,0 -16.68,8.4 -24.51,12.42 -49.41,25.38 -83.93,-12.42 -96.19,-12.42 -12.69,0 -24.27,6.31 -23.5,22.77 1.08,22.97 52.44,43.85 81.44,43.85z"/>
  <path class="fil0" d="M751.23 657.05c0,-26.65 -18.55,-46.12 -41.04,-46.12 -38.27,0 -54.37,46.98 -31.26,74.18 24.84,29.24 72.3,10.69 72.3,-28.06z"/>
  <path class="fil0" d="M915.37 654.48c0,42.83 46.07,58.53 71.13,31.94 24.83,-26.34 9,-75.49 -30.09,-75.49 -22.07,0 -41.04,20.14 -41.04,43.55z"/>
 </g>
</svg>
