<?xml version="1.0" encoding="UTF-8"?>
<!DOCTYPE svg PUBLIC "-//W3C//DTD SVG 1.1//EN" "http://www.w3.org/Graphics/SVG/1.1/DTD/svg11.dtd">
<!-- Creator: CorelDRAW -->
<svg xmlns="http://www.w3.org/2000/svg" xml:space="preserve" width="16.9332mm" height="16.9332mm" version="1.1" style="shape-rendering:geometricPrecision; text-rendering:geometricPrecision; image-rendering:optimizeQuality; fill-rule:evenodd; clip-rule:evenodd"
viewBox="0 0 1693.32 1693.32"
 xmlns:xlink="http://www.w3.org/1999/xlink"
 xmlns:xodm="http://www.corel.com/coreldraw/odm/2003">
 <defs>
  <style type="text/css">
   <![CDATA[
    .fil0 {fill:black}
    .fil1 {fill:#FD5631}
   ]]>
  </style>
 </defs>
 <g id="Layer_x0020_1">
  <metadata id="CorelCorpID_0Corel-Layer"/>
  <g id="_140627126295920">
   <path class="fil0" d="M162.11 575.55l1339.2 0c-14.1,169.38 -44.75,273.65 -154.92,405.41 -16.07,19.23 -56.79,58.04 -78.77,75.32l-55.78 39.48c-7.53,4.45 -12.29,8.25 -18.81,12.01 -35.56,20.54 -57.44,27.33 -84.53,41.54 -21.33,11.19 -18.02,44.8 8.98,45.41l0 53.23c0,19.72 -22.3,42.02 -42.02,42.02l-487.5 0c-19.72,0 -42.02,-22.3 -42.02,-42.02l0 -53.23c17.59,-0.4 22.41,-9.97 22.41,-25.22 0,-24.53 -40.47,-28.46 -74.46,-48.81l-94.88 -62.02c-41.44,-31.07 -60.78,-57.49 -93.31,-91.59 -59.08,-61.93 -114.31,-186.05 -130.77,-278.28 -9.65,-54.05 -7.22,-69.56 -12.82,-113.25zm-47.63 22.41l0 -20.33c0.87,-21.71 6.79,-46.67 39.81,-51.93l568.15 -0.59c21.96,0 190.07,4.05 201.07,-3.45l230.39 -212.27c-14.85,-17.09 -22.41,-23.11 -22.41,-50.43 0,-43.74 60.6,-92.46 106.46,-92.46 58.39,0 72.23,14.79 111.37,53.93 12.82,12.83 23.6,23.6 36.42,36.42 14.33,14.34 23.14,20.95 33.87,38.97 30.89,51.88 2.22,120.25 -40.34,149.28 -51.45,35.08 -70.34,12.53 -90.89,-1.23l-67.24 81.24 277.5 -0.13c30.59,0.64 50.3,25.09 50.3,42.16 0,135.49 -31.88,244.63 -97.53,353.54 -38.65,64.12 -108.28,144.78 -172.55,188.87 -27.78,19.05 -80.85,58.54 -110.95,65.55 0,49.11 4.11,91.28 -16.76,120.53 -19.98,28 -44.75,44.77 -92.5,44.77l-453.88 0c-47.75,0 -72.52,-16.77 -92.5,-44.77 -20.87,-29.25 -16.76,-71.42 -16.76,-120.53 -45.43,-10.58 -154.5,-96.12 -191.57,-136.22l-16.47 -17.16c-23.7,-23.36 -84.16,-107.24 -97.78,-140.36 -11.33,-27.56 -26.13,-51.99 -37.07,-83.4 -18.13,-52.04 -38.14,-132.17 -38.14,-200zm1042.22 -72.85l-162.49 0 145.68 -134.48c9.81,-7.48 15.29,-14.33 24.46,-23.17l25.97 -21.65 60.96 62.32c-13.42,20.37 -31.61,38.31 -46.94,58.15l-35.82 42.64c-7.53,8.5 -6.27,5.72 -11.82,16.19zm25.22 -260.55c0,-24.74 31.86,-43.53 50.63,-47.62 29.37,-6.4 48.39,4.94 66.35,23.1 16.45,16.64 31.06,31.08 47.62,47.63 15.17,15.18 37.12,29.53 37.12,58.14 0,26.87 -28.2,67.24 -53.23,67.24 -9.43,0 -99.14,-94.93 -112.77,-108.57 -7.15,-7.14 -35.72,-30.82 -35.72,-39.92z"/>
   <path class="fil1" d="M714.04 886.53c105.29,0 95.26,10.04 95.26,-95.26l44.82 0c0,105.3 -10.04,95.26 95.26,95.26l0 44.83c-104.79,0 -95.26,-12.39 -95.26,95.26l-44.82 0c0,-107.65 9.52,-95.26 -95.26,-95.26l0 -44.83zm44.83 -114.87l0 64.44c-111.56,0 -95.26,-16.53 -95.26,120.47 0,34.45 54.95,25.22 95.26,25.22 0,110.06 -14.81,95.26 114.86,95.26 40.51,0 30.82,-38.08 30.82,-95.26 111.62,0 95.26,14.74 95.26,-120.47 0,-34.76 -50.21,-25.22 -95.26,-25.22 0,-112.45 14.94,-95.26 -120.47,-95.26 -17.2,0 -25.21,13.34 -25.21,30.82z"/>
   <path class="fil1" d="M711.24 1217.13c0,44.98 106.89,36.42 137.28,36.42 23.19,0 39.99,-3.01 60.82,-6.42 8.3,-1.36 42.84,-1.82 42.84,-27.2 0,-43.18 -67.61,-14.01 -120.47,-14.01 -52.42,0 -120.47,-28.05 -120.47,11.21z"/>
  </g>
 </g>
</svg>
