<?xml version="1.0" encoding="UTF-8"?>
<!DOCTYPE svg PUBLIC "-//W3C//DTD SVG 1.1//EN" "http://www.w3.org/Graphics/SVG/1.1/DTD/svg11.dtd">
<!-- Creator: CorelDRAW -->
<svg xmlns="http://www.w3.org/2000/svg" xml:space="preserve" width="42.3332mm" height="33.8666mm" version="1.1" style="shape-rendering:geometricPrecision; text-rendering:geometricPrecision; image-rendering:optimizeQuality; fill-rule:evenodd; clip-rule:evenodd"
viewBox="0 0 4233.32 3386.66"
 xmlns:xlink="http://www.w3.org/1999/xlink"
 xmlns:xodm="http://www.corel.com/coreldraw/odm/2003">
 <defs>
  <style type="text/css">
   <![CDATA[
    .str0 {stroke:black;stroke-width:20;stroke-miterlimit:22.9256}
    .str1 {stroke:#FD5631;stroke-width:20;stroke-miterlimit:22.9256}
    .fil3 {fill:#2C2B2B}
    .fil0 {fill:#2A2A2A}
    .fil2 {fill:#2A2929}
    .fil1 {fill:#2A292A}
    .fil4 {fill:#FD5631}
   ]]>
  </style>
 </defs>
 <g id="Layer_x0020_1">
  <metadata id="CorelCorpID_0Corel-Layer"/>
  <path class="fil0 str0" d="M2637.73 1821.83l281.43 0.04 0.07 539.89c-0.02,52.01 -6.62,58.3 18.39,57.74 6.99,-24.32 2.19,-525.38 2.58,-597.68l277.23 0.2 -0.17 1142.15 -277 -0.58c-1.1,-81.6 -0.13,-163.87 -0.13,-245.54 0,-24.57 5.8,-229.73 -6.6,-235.57 -19.75,-2.03 -14.43,23.94 -14.32,44.8l-0.13 436.89 -281.79 -0.16 0.44 -1142.18zm-1311.46 -268.64l281.73 54.87 -0.09 192.38 -281.86 -0.07 0.22 -247.18zm-319.93 1408.57c-6.17,5.38 1.53,3.12 -13.37,3.96l-267.97 -1.69c-7.4,-24.53 -1.71,-1129.8 -2.3,-1318.44l3.73 -37.91 200.02 -38.99c39.09,-7.81 51.48,-3.6 55.33,-24.73 -18.95,-12.04 -106.56,13.3 -136.5,19.02 -26.36,5.03 -121.27,19.86 -139.79,28.45 -4.05,52.7 -0.72,118.69 -0.72,172.92 0,137.91 4.13,1180.04 -2.46,1199.65 -26.76,3.55 -148.86,0.95 -191.87,0.95 -17.77,0 -55.31,3.26 -61.65,-4.21 -4.21,-31.61 -1.01,-501.76 -1,-584.58 0,-16 6.4,-65.38 -11.92,-61.96 -13.94,7.88 -9.71,19.14 -9.46,36.72l0.05 611.82c-29.78,4.39 -81.77,1.36 -113.95,1.36 -40.14,0 -89.54,-6.81 -104.37,10.17l0 1.74c19.29,19.41 81.45,9.21 111.57,9.21 1220.61,0 2443.4,-2.86 3663.64,0.01 21.58,0.05 40.76,4.29 53.98,-9.74l0 -0.62c-13.18,-15.76 -22.09,-10.92 -46.75,-10.79l-171.91 -0.89c-0.71,-81.2 5.19,-619.07 -2.58,-648.76 -25.61,-3.47 -18.74,11.54 -18.73,61.73l-0.09 587.98 -255.39 -1.52 -1.37 -1371.02c-21.86,-9.64 -111.36,-22.91 -140.39,-28.53 -27.89,-5.41 -120.03,-29.75 -136.6,-19.2 2.82,16.8 7.4,15.97 25.14,19.13l201.99 39.24c19.87,3.68 27.43,2.66 30.03,10.95l-0.06 1350.91 -282.09 -0.07 0.35 -1141.73 201.04 -0.46c22.59,0.04 45.81,6.04 54.39,-10.71 -6.49,-12.79 -7.88,-10.81 -25.29,-10.97 -73.33,-0.67 -159.93,2.82 -230.47,-0.13l-0.03 -269.94c-43.18,-0.84 -252.52,-4.82 -277.34,2.49 -0.26,16.8 -1.2,17.99 17.91,18.74l238.28 -0.24 -0.28 249.37 -276.87 -0.45 -1.22 -272.38 -254.77 49.59c-53.57,10.07 -70.31,6.64 -66.08,30.74 26.05,4.48 250.69,-46.55 301.02,-54.41l-0.17 246.92 -281.43 -0.2c-1.1,-58.17 10.19,-104.66 -17.03,-103.2 -13.05,22.9 -4.59,268.46 -4.59,315.61l-0.06 951.43 -986.44 -0.31c-0.59,-35.29 5.98,-157.89 -3.84,-181.08l-14.31 0.32c-7.66,21.37 -3.02,146.11 -3.43,181.06l-281.68 -0.09 -0.16 -379.11c0,-29.89 8.21,-112.5 -14.35,-102.67 -13.72,13.48 -6.77,93.62 -6.77,117.07l-0.16 364.73 -276.88 -0.11 0.17 -1142.09 276.84 0.85c0.11,69.77 -4.28,573.15 2.63,596.91 27.03,3.89 18.53,-27.98 18.52,-54.22l0 -233.93c0.04,-102.55 -2.1,-207.28 0.23,-309.6l281.47 0.32c2.45,107.14 -6.19,862.1 3.34,892.7 16.17,-0.14 17.67,-1.55 18.58,-18.08 0.59,-10.58 -0.35,-25.19 -0.37,-36.3l0 -1004.09c0,-15.77 3.18,-52.4 -3.13,-66.39l-321.13 -62.46 -0.16 272.86 -276.98 -0.05 0.17 -249.2 205.77 -0.2c46.48,0.09 50.64,5.34 50.41,-18.16 -23.18,-7.39 -234.27,-3.17 -277.34,-2.82l-0.35 270.17 -200.99 0.32c-10.45,-0.02 -22.55,-0.64 -32.73,-0.3 -16.08,0.53 -15.95,-0.82 -21.84,10.98 6.39,12.84 7.83,10.94 25.48,11.04l230.43 0.04 -0.55 1139.55z"/>
  <path class="fil1 str0" d="M2658.46 1184.93l-8.9 0 -5.75 15.36 154.51 129.23 -1338.92 -0.2 88.33 -74.22c66.89,-55.66 48.91,-48.89 113.4,-48.87l881.73 0c23.76,0.02 67.96,8.47 49.41,-21.3l-994.19 0 -99.26 82.4c-15.99,13.68 -32.6,27.56 -49.43,40.57l-49.46 41.24 185.32 1.58c0.43,36.24 -6.14,188.84 4.96,207.31l10.6 1.02c12.06,-18.91 4.91,-170.16 5.82,-208.28l1044.51 -0.14c0.84,39.8 -8.09,187.56 5.8,208.32 21.69,-3.25 15.94,-15.59 15.69,-39.28 -0.21,-19.19 -0.07,-38.43 -0.07,-57.63 0,-36.99 -0.45,-74.26 0.14,-111.22l185.17 -0.35c-11.21,-13.48 -79.13,-66.3 -98.9,-82.98l-100.51 -82.56z"/>
  <path class="fil2 str0" d="M1925.67 2347.36c5,6.4 -3.46,8.41 16.1,10.8 4.8,0.59 19.43,-0.12 25.23,-0.17l151.24 0.08 -0.41 168.67c-37.32,0.54 -166.64,-4.34 -190.7,2.39 -0.85,25.08 11.48,19.13 36.2,18.8l154.98 -0.02 -1.72 168.36c-33.06,-0.02 -66.11,-0.01 -99.17,-0.01 -34.9,0 -81.63,-6.35 -92.38,9.77 7.62,16.77 21.51,11.77 41.97,11.57l150.8 -0.02 2.61 129.7c16.33,2.94 18.17,2.47 19.44,-15.69 2.03,-29.04 -4.04,-84.6 1.27,-114.03 33.14,-0.02 66.28,-0.01 99.42,-0.01 31.87,0 84.81,6.54 90.57,-9.92 3.77,-17.78 -69.43,-11.37 -86.97,-11.37 -34.28,0 -68.59,-0.17 -104.35,0.06l-0.09 -168.43 158.59 0.1c23.46,0.36 32.87,4.92 32.45,-18.64 -23.14,-6.82 -153.92,-2.04 -191.09,-2.63l-0.07 -168.75c34.85,-0.07 69.71,-0.02 104.56,-0.02 63.97,0 88.11,9.11 86.35,-18.25 -22.24,-6.93 -155.45,-3.14 -190.89,-3.06 0,-31.05 5.72,-157.26 -4.38,-175.76l-12.49 0.56c-9.58,19.09 -4.51,142.3 -4.51,175.17l-151.23 -0.03c-36.12,-0.32 -34.74,-3 -41.33,10.78z"/>
  <path class="fil3 str0" d="M1811.16 2868c11.39,-16.51 5.33,-231.9 5.33,-272.32 0,-177.67 18.69,-265.01 148.3,-398.07l76.57 -60.1c13.86,-8.99 74.98,-47.37 87.61,-47.34 12.18,0.03 76.82,40.4 89.66,48.9 14.93,9.9 26.47,19.14 39.24,29.09 61.53,47.93 113.02,109.76 149.68,192.02 65.62,147.25 12.35,467.78 39.16,508.12 16.18,-0.27 15.35,-3.92 15.85,-20.49l-0.26 -108.17c0,-194.81 20.58,-330.84 -90.4,-483.98 -35.81,-49.41 -38.43,-42.46 -68.39,-75.65 -26.73,-29.63 -147.72,-112.67 -174.55,-112.81 -14.52,-0.08 -82.68,41.74 -96.4,50.59 -59.06,38.13 -105.78,84.06 -147.8,140.24 -82.95,110.94 -89.32,202.7 -89.33,341.26l0 215.93c-0.05,42.44 -5.78,53.65 15.73,52.78z"/>
  <path class="fil0 str0" d="M2809.16 3056.34c1.89,-23.17 -18.14,-16.26 -39.58,-16.26l-1461.14 0c-11.35,-0.02 -35.38,-1.9 -27.29,14.32 5.78,11.57 32.14,7.04 45.29,6.98l1090.45 -0.02c22.96,0 101.34,1.61 182.14,2.18l96.76 0c59.36,-0.58 106.31,-2.52 113.37,-7.2z"/>
  <path class="fil0 str0" d="M2918.8 3054.68c14.13,12.98 193.54,6.68 225.07,6.68l640.59 0.01c19.47,0.02 44.84,3.78 55.75,-6.65 0.48,-19.91 -17.66,-14.87 -37.64,-14.68l-842.32 0.01c-20.18,-0.15 -41.85,-5.58 -41.45,14.63z"/>
  <path class="fil0 str0" d="M1700.46 1615.07c0.18,19.2 1.43,18.4 21.85,18.4l820.55 0c14.16,0 14.17,-4.79 14.52,-18.23 -22.62,-7.77 -641.85,-3.26 -759.49,-3.15 -17.24,0.04 -88.59,-2.2 -97.43,2.98z"/>
  <path class="fil1 str0" d="M1700.74 1844.62c22.07,6.48 838.92,5.38 856.59,-0.35 -0.23,-27.7 -27.91,-17.97 -93.65,-17.97l-723.42 -0.04c-24.76,-0.21 -40.11,-7.04 -39.52,18.36z"/>
  <path class="fil0 str0" d="M1722.31 2903.84c-15.17,0 -12.56,-1.39 -19.49,7.96 1.24,5.97 -4.56,13.29 14.1,13.29l822.34 0c20.85,0 25.87,-21.25 -1.8,-21.25l-815.15 0z"/>
  <path class="fil0 str0" d="M417.39 3055.29c14.54,11.93 319.65,6.07 362.02,6.07 49.71,0 347.27,5.15 366.85,-4.18 -0.56,-24.94 -12.7,-17.1 -75.34,-17.1l-622.81 -0.15c-19.74,-0.25 -30.9,-3.79 -30.72,15.36z"/>
  <path class="fil0 str0" d="M3818.96 2266.62c12.9,-16.52 5.39,-168.44 5.93,-214.42 0.51,-43.77 -7.9,-37.04 -59.22,-89.11 -14.41,-14.61 -19.86,-28.15 -45.73,-28.37 -21.36,-0.17 -134.2,-3.28 -144.49,2.74 -45.65,26.68 107.98,18.76 115.46,18.72 39.16,-0.21 33.2,-4.55 53.97,16.89 13.13,13.53 24.22,24.52 37.67,37.94 20.37,20.33 21.49,12.02 21.12,52l-0.31 183.78c0.62,15.19 0.46,20.52 15.6,19.83z"/>
  <path class="fil0 str0" d="M439.07 2266.6c15.12,0.65 14.65,-4.79 15.23,-19.82 0.42,-11.28 -0.24,-24.62 -0.25,-36.17 -0.01,-23.99 0,-47.99 0,-71.98 0,-134.99 -13.65,-90.54 58.87,-165.73 20.72,-21.5 14.9,-16.88 54.14,-16.69 7.79,0.04 159.67,7.8 115.34,-18.58 -10.6,-6.31 -122.51,-3 -144.36,-2.91 -26.81,0.11 -30.99,13.02 -46.09,28.04 -50.63,50.33 -59.66,46.52 -59.29,89.45 0.39,44.84 -6.85,198.99 6.41,214.39z"/>
  <path class="fil4 str1" d="M2438 1961.01c39.66,-11.82 73.62,14.73 81.92,45.77 10.87,40.65 -16.56,74.91 -48.3,82.13 -81.89,18.62 -118.09,-102.74 -33.62,-127.9zm-0.32 -22.16c-115.26,27.17 -74.58,194.55 36.48,170.97 113.85,-24.18 75.01,-197.25 -36.48,-170.97z"/>
  <path class="fil1 str0" d="M2045.72 1598.78l14.37 0.17c19.86,-45 -33.31,-194.48 72.58,-189.14 80.83,4.07 58.8,101.75 60.9,167.7 0.51,15.95 -0.33,16.45 10.99,22.25 17.09,-7.96 10.7,-25.53 10.7,-65.74 0,-46.56 10.44,-141.51 -82.62,-145.35 -45.3,-1.87 -78.17,28.34 -87.38,65.21 -5.13,20.53 -5.15,127.71 0.46,144.9z"/>
  <path class="fil4 str1" d="M1783.8 1961.4c40.57,-13.51 74.15,14.98 81.86,44.91 10.74,41.72 -15.93,73.68 -46.15,81.87 -79.96,21.67 -123.43,-97.58 -35.71,-126.78zm-0.85 -22.49c-42.69,10.63 -77.35,50.91 -66.55,104.86 8.31,41.49 52.15,76.41 102.85,66.29 115.97,-23.17 74.25,-198.67 -36.3,-171.15z"/>
  <path class="fil0 str0" d="M1781.48 1599.05c17.25,-49.08 -31.41,-192.03 70.44,-189.28 105.71,2.85 39.72,167.99 71.93,189.91 19.41,-5.92 12.48,-20.52 12.47,-65.66 0,-22.96 1.99,-56.71 -2.47,-78.34 -18.57,-90.16 -156.9,-91.19 -169.18,8.97l-1.49 112.75c0.1,20.22 -0.11,21.1 18.3,21.65z"/>
  <path class="fil0 str0" d="M2339.51 1599c16.99,-47.95 -31.15,-192.18 70.22,-189.24 80.24,2.33 62.43,100.11 62.9,164.13 0.12,17.93 -2.72,21.15 12.64,25.84 16.48,-11.13 9,-50.06 9,-69.31 0,-22.38 1.85,-53.53 -2.54,-74.78 -18.65,-90.24 -152.7,-88.82 -168.42,3.11l-2.28 115.16c0.07,22.03 -1.65,24.48 18.48,25.09z"/>
  <path class="fil4 str1" d="M3360.37 1778.57c17.88,-38.34 -17.24,-129.89 27.61,-124.98 49.1,5.37 -9.55,124.53 36.58,124.74 0.01,-0.01 32.09,-157.04 -45.11,-145.49 -45.86,6.87 -35.71,64.47 -36.39,113.7 -0.32,24.23 -4.29,32.08 17.31,32.03z"/>
  <path class="fil4 str1" d="M3046.75 1778.37c23.68,-0.23 17.25,-12.99 17.21,-57.21 -0.02,-27.29 -6.44,-55.22 13.82,-66.39 48.41,-18.04 19.52,94.23 33.12,123.79 25.96,-1 17.18,-23.54 17.34,-82.73 0.08,-33.19 -4.66,-57.95 -36.54,-62.94 -76.54,-11.99 -44.95,145.47 -44.95,145.48z"/>
  <path class="fil4 str1" d="M1434.62 1778.1c23.53,0.67 17.28,-9.11 17.23,-56.94 -0.03,-27.25 -6.55,-55.66 14.11,-66.14 50.42,-12.43 18.44,91.64 32.81,123.47 21.92,-0.37 17.74,-10.59 17.47,-31.95 -0.64,-50.4 9.48,-106.24 -36.73,-113.71 -31.28,-5.06 -47.94,18.73 -48.91,48.56 -0.76,23.18 -3.24,80.45 4.02,96.71z"/>
  <path class="fil4 str1" d="M2758.98 1778.36c12.97,-29.2 -15.88,-134.83 30.8,-124.33 25.74,5.79 14.94,64.07 15.8,103.51 0.36,17.11 -0.32,21.87 17.35,20.54 0.01,-0.01 32.64,-157.34 -44.57,-145.3 -46.46,7.25 -36.2,63.05 -36.88,113.75 -0.29,21.41 -4.66,31.73 17.5,31.83z"/>
  <path class="fil4 str1" d="M1146.91 1778.39c14.4,-32.61 -18.05,-134.72 32.76,-123.49 22.85,8.44 12.99,65.3 13.81,102.59 0.37,17.06 -0.39,21.18 17.55,20.6 7.29,-16.25 4.88,-73.52 4.08,-96.7 -2.21,-64.09 -85.84,-75.47 -85.66,14.44 0.12,59.76 -8.64,82.36 17.46,82.56z"/>
  <path class="fil4 str1" d="M833.25 1778.4c39.29,-0.72 1.83,-82.65 21.59,-114.25 7.97,-12.95 16.66,-14.14 30.62,-5.72 22.15,23.72 -2.45,89.85 11.82,120.26 25.88,-0.42 17.18,-18.03 17.28,-82.88 0.05,-32.14 -5.22,-58.01 -36.07,-62.97 -31.58,-5.07 -48.26,19.06 -49.26,48.52 -0.82,24.05 -3.85,80.16 4.02,97.04z"/>
  <path class="fil4 str1" d="M590.44 2181.32c-27.71,-4.31 -18.91,21.4 -18.91,83.27 0,60.41 -9.31,89.5 17.48,89.58 6.43,-15.38 6.26,-153.22 1.43,-172.85z"/>
  <path class="fil4 str1" d="M3668.66 2354.21c22.06,-0.11 17.94,-10.65 17.65,-31.84 -0.4,-29.02 4.81,-133.04 -6.3,-140.65 -22.4,-15.38 -14.98,66.67 -14.98,79.27 0,25 -4.36,74.22 3.63,93.22z"/>
  <path class="fil4 str1" d="M3438.35 2083.36c10.06,-14.66 9.03,-126.32 2.44,-146.43 -20.76,-0.08 -18.95,5.73 -18.73,25.11l0.1 94.07c-0.09,18.97 -2.35,27.95 16.19,27.25z"/>
  <path class="fil4 str1" d="M3346.34 1936.85c-18.47,-0.25 -18.38,1.32 -18.55,21.52 -0.25,28.18 -4.9,116.61 6.23,124.01 21.94,14.57 15.16,-49.19 15.16,-62.51 0.01,-25.08 3.86,-62.23 -2.84,-83.02z"/>
  <path class="fil4 str1" d="M1134.03 2082.74c3.73,-20.31 4.2,-127.77 -1.22,-145.59 -26.57,-1.21 -18.22,12.63 -18.22,75.52 -0.01,56.33 -7.69,74.68 19.44,70.07z"/>
  <path class="fil4 str1" d="M819.46 2083.42c23.42,0.35 15.82,-21.98 15.82,-70.75 0,-53.25 8.1,-77.02 -16.28,-74.91 -10.19,15.46 -8.15,133.75 0.46,145.66z"/>
  <path class="fil4 str1" d="M3033.08 2083.02c23.31,1.52 15.78,-20.89 15.77,-70.35 0,-54.57 8.17,-77.48 -16.55,-74.77 -9.71,15.35 -7.63,133.77 0.78,145.12z"/>
  <path class="fil4 str1" d="M1224.65 2082.96c8.48,-12.1 7.98,-128.01 2.52,-146.05 -26.14,-0.16 -18.37,10 -18.37,72.16 0,49.24 -7.9,76.27 15.85,73.89z"/>
  <path class="fil4 str1" d="M2826.79 2083.96l9.95 -0.74c8.21,-12.34 7.82,-128.08 2.51,-146.14 -25.92,-0.59 -18.35,8.83 -18.34,68.39 0,24.16 -5.01,63.42 5.88,78.49z"/>
  <path class="fil4 str1" d="M2726.72 1958.69l0.05 89.97c-0.05,25.2 -5.24,38.39 19.16,34.01 3.06,-28.72 5.39,-123.91 -1.01,-145.55 -17.91,-0.56 -18.23,3.8 -18.2,21.57z"/>
  <path class="fil4 str1" d="M907.86 1965.83c0.65,16.21 -3.91,103.44 6.19,117.32 19.56,1.31 15.53,-10.92 15.57,-30.89l0.4 -97.37c-0.77,-19.1 -1.94,-18.27 -18.68,-17.95l-3.48 28.89z"/>
  <path class="fil4 str1" d="M3121.61 1955l0.55 108.06c0.01,14.81 1.42,18.94 14.66,20.84 11.78,-15.6 6.2,-74.56 6.26,-96.43 0.12,-48.07 5.53,-51.08 -18.25,-50.38l-3.22 17.91z"/>
  <path class="fil4 str1" d="M1415.14 1973.05c0.59,20.2 -3.65,96.54 5.85,109.96 20.6,1.87 15.89,-8.35 15.89,-45.15l0 -64.78c0,-24.15 6.52,-36.32 -18.55,-36.19l-3.19 36.16z"/>
  <path class="fil4 str1" d="M1509.27 1954.98l0.6 108.08c0,18.99 11.8,33.03 19.79,13.23l1.46 -103.29c0.33,-24 6.4,-36.79 -18.32,-35.95l-3.53 17.93z"/>
 </g>
</svg>
