<?xml version="1.0" encoding="UTF-8"?>
<!DOCTYPE svg PUBLIC "-//W3C//DTD SVG 1.1//EN" "http://www.w3.org/Graphics/SVG/1.1/DTD/svg11.dtd">
<!-- Creator: CorelDRAW -->
<svg xmlns="http://www.w3.org/2000/svg" xml:space="preserve" width="16.9332mm" height="16.9332mm" version="1.1" style="shape-rendering:geometricPrecision; text-rendering:geometricPrecision; image-rendering:optimizeQuality; fill-rule:evenodd; clip-rule:evenodd"
viewBox="0 0 1693.32 1693.32"
 xmlns:xlink="http://www.w3.org/1999/xlink"
 xmlns:xodm="http://www.corel.com/coreldraw/odm/2003">
 <defs>
  <style type="text/css">
   <![CDATA[
    .str0 {stroke:#FD5631;stroke-width:7.62;stroke-miterlimit:22.9256}
    .fil1 {fill:#222222}
    .fil0 {fill:#FD5631}
   ]]>
  </style>
 </defs>
 <g id="Layer_x0020_1">
  <metadata id="CorelCorpID_0Corel-Layer"/>
  <path class="fil0" d="M623.54 1440.2c51.94,-28.04 45.19,-8.78 63.92,7.14 -1.73,35.9 -6.2,44.14 -44.27,44.35 -22.64,-8.07 -22.78,-32.69 -19.65,-51.49zm81.65 -96.12c61.99,-30.32 98.44,71.02 38.66,93.26 -58.34,21.71 -104.34,-61.14 -38.66,-93.26zm-58.81 -139.26c94.33,-21.45 116.11,115.47 33.28,132.58 -95.23,19.67 -113.51,-114.34 -33.28,-132.58zm-235.08 254.97c-64.59,108.61 70.98,86.87 120.83,86.87l484.24 0c57.24,-0.01 139.52,16.72 138.49,-46.05 -0.29,-18.32 -9.6,-27.63 -17.05,-41.22l-175.05 -306.66 -374.87 -0.14 -176.59 307.2z"/>
  <path class="fil1" d="M624.12 496.59c8.86,-17.89 18.9,-10.47 67.94,-10.44 42.33,0.03 218.92,-5.37 233.37,6 -4.5,19.17 -23.27,11.93 -47.78,12.42 0.34,70.14 -5.39,400.87 4.19,441.6 10.6,45.09 236.65,426.68 281.18,501.15 14.06,23.5 32.39,48.82 17.99,85.02 -23.18,58.25 -104.93,42.34 -177.96,42.34l-448.71 0c-70.11,0 -156.9,15.85 -183.53,-37.22 -24.51,-48.87 32.28,-117.46 52.82,-154.2 39.23,-70.17 230.93,-386.77 242.96,-432.13 11.94,-45.07 3.3,-369.11 5.66,-446.7 -7.67,-0.03 -22.65,0.91 -29.46,0.27 -19.64,-1.84 -10.49,1.78 -18.67,-8.11zm6.4 57.76c0.06,75.52 0.01,151.05 0.01,226.57 0,79.83 11.26,140.46 -24.31,202.9l-250.49 433.64c-33.09,58.85 -56.09,108.32 -3.87,165.69 39.69,43.62 123.23,32.93 193.59,32.93l457.6 0c75.2,0 148.61,13.19 193.09,-33.36 55,-57.55 30.58,-108.6 -2.76,-165.73 -28.04,-48.06 -56.57,-97.11 -84.43,-146.65 -55.51,-98.7 -110.39,-189.39 -166.05,-287.19 -34.6,-60.8 -23.7,-123.6 -23.7,-202.23 0,-76.43 -1.69,-154.85 0.27,-231.01 18.42,-14.13 35.96,-7.7 45.46,-38.2 28.21,-90.61 -122.07,-67.08 -192.9,-67.08 -66.81,0 -215.56,-23.14 -187.52,66.37 3.46,11.03 11.78,20.29 19.09,25.2 15.07,10.12 20.38,4.16 26.92,18.15z"/>
  <path class="fil1" d="M1077.57 853.17l-0.32 292.2c2.36,21.78 24.62,55.8 36.02,67.83l0.11 -396.72c-21.95,-2.52 -49.72,3.66 -64.45,-10.24 -14.15,-13.37 -12.72,-40.06 5.68,-49.33 13.93,-7.01 287.22,-6.25 303.49,-2.65 20.57,4.56 33.44,27.21 18.16,48.75 -12.65,17.81 -44.48,12.02 -67.31,12.43 -3.46,109.61 -0.38,224.07 -0.38,334.22 0,112.45 25.77,231.39 -88.78,248.41l17.44 33.43c46.44,-7.2 80.63,-41.74 96,-75.94 18.55,-41.25 11.72,-112.45 11.72,-161.47 0,-111.28 -4.58,-232.29 0.46,-342.32 32.85,-1.77 53.27,-11.91 65.79,-35.86 14.34,-27.46 6.89,-59.06 -9.95,-77.64 -31.45,-34.71 -134.09,-21.73 -189.4,-21.73 -54.86,0 -158.64,-12.78 -190.34,20.76 -20.93,22.13 -45.61,99.45 56.06,115.87z"/>
  <path class="fil0" d="M1208.17 1217.74c5.9,-19.07 24.05,-19.91 47.16,-16.76 8.45,15.28 16.95,18.35 10.15,41.2 -5.52,18.57 -22.9,18.61 -43.64,15.84 -9.81,-13.46 -21.54,-14.9 -13.67,-40.28zm19.92 -93.81c2.39,15.78 7.24,22.68 2.27,38.64 -3.36,10.79 -3.61,7.86 -9.49,14.09 -8.6,9.1 -2.67,0.04 -9.04,8.52 -46.91,-1.32 -53.27,-8.26 -53.27,-53.26 10.3,-6.6 23.71,-41.59 69.53,-7.99zm-26.37 249.29c94.64,0.13 83.79,-75.98 83.81,-156.92 0.02,-71.37 5.57,-168.95 -0.89,-237.13 -23.8,-6.17 -117.21,-3.14 -147.04,-2.23 -4.36,73.53 -0.12,155.87 -0.64,230.48 -0.46,63.51 -1.67,46.91 23.78,91.23 11.39,19.84 33.11,54.97 40.98,74.57z"/>
  <path class="fil0 str0" d="M782.28 120.19c55.94,-34.83 102.42,57.74 46.45,86.79 -52.64,27.3 -110.21,-47.1 -46.45,-86.79zm-0.52 -37.01c-110.59,36.34 -54.71,191.39 47.97,159.89 103.2,-31.65 57.63,-194.58 -47.97,-159.89z"/>
  <path class="fil0" d="M665.35 264.54c45.97,-24.22 76.96,46.64 36.34,68.68 -46.13,25.04 -85.82,-42.61 -36.34,-68.68zm-5.01 -27.02c-81.94,29.87 -40.69,149.44 43.4,124.04 76.01,-22.96 42.9,-155.5 -43.4,-124.04z"/>
  <path class="fil0" d="M1252.79 488.59c41.63,-31.32 81.74,31.94 46.28,59.42 -40.73,31.57 -88.66,-27.52 -46.28,-59.42zm9 -32.95c-91.86,25.7 -51.19,147.67 32.92,124.33 77.64,-21.54 45.27,-146.2 -32.92,-124.33z"/>
  <path class="fil0" d="M649.78 1225.65c-66.79,23.64 -30.14,107.84 28,92.48 56.65,-14.97 36.75,-115.39 -28,-92.48z"/>
  <path class="fil0" d="M826.81 405.43c-19.78,7.36 -43.8,11.97 -47.45,-15.71 -3.89,-29.44 16.41,-34.07 40.75,-29.7 10.43,15.59 12.52,22.37 6.7,45.41zm-46.76 -59.89c-49.97,31.48 -4.13,108.87 48.79,78.79 48.21,-27.41 8.22,-114.71 -48.79,-78.79z"/>
  <path class="fil0" d="M1206.3 669.39c-16.96,3.05 -32.5,6.16 -40.34,-7.08 -6.58,-11.11 -3.09,-30.02 6.48,-36.43 26.02,-17.47 51.34,4.78 33.86,43.51zm-35.2 -63.28c-55.57,22.3 -20.69,107.87 36.48,81.96 50.07,-22.7 22.54,-105.64 -36.48,-81.96z"/>
 </g>
</svg>
