<?xml version="1.0" encoding="UTF-8"?>
<!DOCTYPE svg PUBLIC "-//W3C//DTD SVG 1.1//EN" "http://www.w3.org/Graphics/SVG/1.1/DTD/svg11.dtd">
<!-- Creator: CorelDRAW -->
<svg xmlns="http://www.w3.org/2000/svg" xml:space="preserve" width="210mm" height="297mm" version="1.1" style="shape-rendering:geometricPrecision; text-rendering:geometricPrecision; image-rendering:optimizeQuality; fill-rule:evenodd; clip-rule:evenodd"
viewBox="0 0 21000 29700"
 xmlns:xlink="http://www.w3.org/1999/xlink"
 xmlns:xodm="http://www.corel.com/coreldraw/odm/2003">
 <defs>
  <style type="text/css">
   <![CDATA[
    .str0 {stroke:#C6C7C7;stroke-width:50;stroke-miterlimit:22.9256}
    .fil0 {fill:white}
    .fil2 {fill:#414143;fill-rule:nonzero}
    .fil1 {fill:#FD5631;fill-rule:nonzero}
   ]]>
  </style>
 </defs>
 <g id="Layer_x0020_1">
  <metadata id="CorelCorpID_0Corel-Layer"/>
  <path class="fil0 str0" d="M829.07 586.76l7549.84 0c119.21,0 216.74,97.53 216.74,216.74l0 1247.8c0,119.21 -97.53,216.74 -216.74,216.74l-7549.84 0c-119.21,0 -216.74,-97.53 -216.74,-216.74l0 -1247.8c0,-119.21 97.53,-216.74 216.74,-216.74z"/>
  <path class="fil1" d="M8052.3 1828.82c-7.85,0 -14.45,-2.44 -19.8,-7.31 -5.35,-4.88 -8.02,-11.6 -8.02,-20.16 0,-8.32 2.67,-14.91 8.02,-19.79 5.35,-4.87 11.95,-7.31 19.8,-7.31 7.6,0 14.08,2.44 19.43,7.31 5.35,4.88 8.03,11.47 8.03,19.79 0,8.56 -2.68,15.28 -8.03,20.16 -5.35,4.87 -11.83,7.31 -19.43,7.31zm-115.92 -167.64c0,7.14 1.19,13.74 3.57,19.8 2.37,6.06 5.82,11.29 10.34,15.69 4.52,4.4 10.11,7.91 16.76,10.53 6.66,2.61 14.39,3.92 23.19,3.92 17.59,0 30.85,-4.64 39.76,-13.91 8.92,-9.28 13.38,-21.28 13.38,-36.03 0,-8.32 -1.13,-15.51 -3.39,-21.57 -2.26,-6.07 -4.69,-11.48 -7.31,-16.23 2.38,-3.33 5.11,-6.01 8.2,-8.03 3.09,-2.02 6.66,-3.03 10.7,-3.03 8.09,0 14.75,4.76 19.98,14.27 5.23,9.51 7.84,22.35 7.84,38.52 0,13.55 -1.84,25.98 -5.53,37.27 -3.68,11.29 -9.27,20.98 -16.76,29.07 -7.49,8.08 -16.82,14.32 -28,18.72 -11.17,4.4 -24.13,6.6 -38.87,6.6 -14.98,0 -28.12,-2.38 -39.42,-7.13 -11.29,-4.76 -20.68,-11.24 -28.17,-19.44 -7.49,-8.2 -13.08,-17.77 -16.76,-28.71 -3.69,-10.94 -5.53,-22.59 -5.53,-34.96 0,-15.93 2.79,-28.65 8.38,-38.16 5.59,-9.51 12.42,-14.27 20.51,-14.27 3.8,0 7.25,1.02 10.34,3.04 3.09,2.02 5.59,4.34 7.49,6.95 -2.62,4.76 -5.05,10.05 -7.31,15.87 -2.26,5.83 -3.39,12.9 -3.39,21.22zm53.5 -246.81c13.79,0 26.22,2.08 37.27,6.24 11.06,4.16 20.51,10.05 28.36,17.66 7.84,7.61 13.85,16.76 18.01,27.46 4.16,10.7 6.24,22.71 6.24,36.02 0,13.32 -2.08,25.33 -6.24,36.03 -4.16,10.7 -10.11,19.85 -17.84,27.46 -7.72,7.61 -17.11,13.49 -28.17,17.66 -11.06,4.16 -23.6,6.24 -37.63,6.24 -13.79,0 -26.22,-2.08 -37.27,-6.24 -11.06,-4.17 -20.45,-10.11 -28.18,-17.84 -7.73,-7.73 -13.67,-16.94 -17.83,-27.64 -4.16,-10.7 -6.24,-22.59 -6.24,-35.67 0,-13.07 2.08,-24.96 6.24,-35.66 4.16,-10.7 10.16,-19.92 18.01,-27.65 7.85,-7.72 17.3,-13.67 28.35,-17.83 11.06,-4.16 23.37,-6.24 36.92,-6.24zm-53.86 87.38c0,12.84 4.7,22.95 14.09,30.32 9.39,7.37 22.65,11.06 39.77,11.06 17.36,0 30.67,-3.63 39.95,-10.88 9.27,-7.25 13.91,-17.42 13.91,-30.5 0,-13.07 -4.7,-23.24 -14.09,-30.49 -9.4,-7.25 -22.65,-10.88 -39.77,-10.88 -17.12,0 -30.38,3.68 -39.77,11.06 -9.39,7.37 -14.09,17.47 -14.09,30.31zm138.03 -375.57c0.48,1.9 1.07,4.7 1.79,8.38 0.71,3.69 1.07,7.67 1.07,11.95 0,8.56 -1.55,14.8 -4.64,18.73 -3.09,3.92 -8.56,5.88 -16.41,5.88l-92.73 0c-9.51,0 -16.41,2.62 -20.69,7.85 -4.28,5.23 -6.42,12.12 -6.42,20.68 0,5.71 1.07,11.24 3.21,16.59 2.14,5.35 5,10.05 8.56,14.09 3.33,-0.72 6.66,-1.07 9.99,-1.07l116.27 0c0.48,1.9 1.07,4.69 1.79,8.38 0.71,3.69 1.07,7.67 1.07,11.95 0,8.56 -1.55,14.8 -4.64,18.72 -3.09,3.93 -8.56,5.89 -16.41,5.89l-92.73 0c-9.51,0 -16.41,2.73 -20.69,8.2 -4.28,5.47 -6.42,12.48 -6.42,21.04 0,5.95 0.95,11.42 2.86,16.41 1.9,4.99 3.8,9.16 5.7,12.48l129.47 0c0.48,2.15 1.07,5 1.79,8.57 0.71,3.56 1.07,7.6 1.07,12.12 0,8.32 -1.55,14.51 -4.64,18.55 -3.09,4.04 -8.56,6.06 -16.41,6.06l-114.49 0c-5.47,0 -10.04,-1.19 -13.73,-3.56 -3.69,-2.38 -7.19,-6.07 -10.52,-11.06 -4.76,-7.13 -8.74,-16.17 -11.95,-27.11 -3.21,-10.94 -4.81,-22.23 -4.81,-33.88 0,-21.64 5.82,-39.23 17.47,-52.79 -4.99,-6.89 -9.15,-14.8 -12.48,-23.72 -3.33,-8.91 -4.99,-19.44 -4.99,-31.56 0,-9.28 1.12,-18.07 3.38,-26.39 2.26,-8.33 5.89,-15.52 10.88,-21.58 5,-6.07 11.36,-10.88 19.08,-14.45 7.73,-3.56 16.94,-5.35 27.65,-5.35l112.7 0z"/>
  <path class="fil1" d="M1682.46 1604.64c0,62.53 -23.33,111.53 -69.99,146.99 -46.67,35.47 -114.33,53.2 -202.99,53.2 -36.4,0 -70,-2.8 -100.79,-8.4 -30.8,-5.6 -57.17,-13.53 -79.1,-23.8 -21.93,-10.27 -38.96,-22.4 -51.1,-36.4 -12.13,-14 -18.19,-29.39 -18.19,-46.19 0,-14 3.5,-27.07 10.5,-39.2 6.99,-12.13 16.56,-21.93 28.69,-29.4 26.14,16.8 56,32.2 89.6,46.2 33.6,14 72.79,21 117.59,21 42,0 74.2,-7.24 96.59,-21.7 22.4,-14.47 33.6,-35.23 33.6,-62.3 0,-23.33 -7.7,-42 -23.1,-55.99 -15.4,-14 -38.03,-24.74 -67.89,-32.2l-95.2 -25.2c-63.46,-16.8 -110.12,-39.67 -139.99,-68.6 -29.86,-28.93 -44.79,-68.59 -44.79,-118.99 0,-27.06 5.6,-52.5 16.79,-76.29 11.2,-23.8 27.77,-44.33 49.7,-61.6 21.93,-17.27 49.23,-30.8 81.9,-40.6 32.66,-9.8 69.99,-14.7 111.99,-14.7 33.6,0 64.16,2.57 91.69,7.7 27.53,5.14 51.33,12.14 71.4,21 20.06,8.87 35.7,19.83 46.9,32.9 11.19,13.07 16.79,27.06 16.79,42 0,14.93 -3.26,27.76 -9.8,38.49 -6.53,10.74 -14.93,19.37 -25.19,25.9 -16.8,-10.26 -41.77,-21.46 -74.9,-33.6 -33.13,-12.13 -68.83,-18.19 -107.09,-18.19 -39.2,0 -70,6.76 -92.4,20.29 -22.39,13.54 -33.59,32.44 -33.59,56.7 0,18.67 6.3,34.07 18.9,46.2 12.59,12.13 34.29,21.93 65.09,29.4l81.2 20.99c70.92,18.67 123.19,43.87 156.79,75.6 33.59,31.73 50.39,74.66 50.39,128.79zm267.83 177.79c-6.53,2.8 -15.63,5.37 -27.29,7.7 -11.67,2.33 -24.97,3.5 -39.9,3.5 -27.07,0 -47.13,-5.13 -60.2,-15.4 -13.06,-10.27 -19.6,-27.53 -19.6,-51.8l0 -592.16c7.47,-1.86 17.04,-4.2 28.7,-7 11.67,-2.8 24.97,-4.2 39.9,-4.2 27.06,0 46.9,5.14 59.5,15.4 12.59,10.27 18.89,28 18.89,53.2l0 590.76zm-162.39 -853.94c0,-24.27 8.4,-44.57 25.2,-60.9 16.8,-16.33 38.27,-24.5 64.4,-24.5 26.13,0 47.13,8.17 62.99,24.5 15.87,16.33 23.8,36.63 23.8,60.9 0,24.26 -7.93,44.56 -23.8,60.89 -15.86,16.33 -36.86,24.5 -62.99,24.5 -26.13,0 -47.6,-8.17 -64.4,-24.5 -16.8,-16.33 -25.2,-36.63 -25.2,-60.89zm472.22 853.94c-6.53,2.8 -15.63,5.37 -27.29,7.7 -11.67,2.33 -24.5,3.5 -38.5,3.5 -27.07,0 -47.13,-5.13 -60.2,-15.4 -13.06,-10.27 -19.6,-27.53 -19.6,-51.8l0 -849.74c6.54,-1.87 15.87,-4.2 28,-7 12.13,-2.8 25.2,-4.2 39.2,-4.2 27.06,0 46.9,5.13 59.5,15.4 12.59,10.26 18.89,27.53 18.89,51.79l0 468.97 288.39 -284.18c29.86,0.94 53.43,7.94 70.69,21 17.27,13.07 25.9,29.87 25.9,50.4 0,16.8 -5.6,31.73 -16.8,44.8 -11.2,13.06 -27.53,28.93 -49,47.59l-186.18 163.79 288.38 263.18c-2.8,27.07 -10.97,48.3 -24.5,63.7 -13.53,15.4 -32.43,23.1 -56.7,23.1 -18.66,0 -35.23,-4.67 -49.69,-14 -14.47,-9.33 -30.1,-23.33 -46.9,-42l-243.59 -257.58 0 300.98zm999.99 -177.79c0,62.53 -23.33,111.53 -69.99,146.99 -46.67,35.47 -114.33,53.2 -202.99,53.2 -36.4,0 -70,-2.8 -100.79,-8.4 -30.8,-5.6 -57.17,-13.53 -79.1,-23.8 -21.93,-10.27 -38.96,-22.4 -51.1,-36.4 -12.13,-14 -18.19,-29.39 -18.19,-46.19 0,-14 3.5,-27.07 10.5,-39.2 6.99,-12.13 16.56,-21.93 28.69,-29.4 26.14,16.8 56,32.2 89.6,46.2 33.6,14 72.79,21 117.59,21 42,0 74.2,-7.24 96.59,-21.7 22.4,-14.47 33.6,-35.23 33.6,-62.3 0,-23.33 -7.7,-42 -23.1,-55.99 -15.4,-14 -38.03,-24.74 -67.89,-32.2l-95.2 -25.2c-63.46,-16.8 -110.12,-39.67 -139.99,-68.6 -29.86,-28.93 -44.79,-68.59 -44.79,-118.99 0,-27.06 5.6,-52.5 16.79,-76.29 11.2,-23.8 27.77,-44.33 49.7,-61.6 21.93,-17.27 49.23,-30.8 81.9,-40.6 32.66,-9.8 69.99,-14.7 111.99,-14.7 33.6,0 64.16,2.57 91.69,7.7 27.53,5.14 51.33,12.14 71.4,21 20.06,8.87 35.7,19.83 46.9,32.9 11.19,13.07 16.79,27.06 16.79,42 0,14.93 -3.26,27.76 -9.8,38.49 -6.53,10.74 -14.93,19.37 -25.19,25.9 -16.8,-10.26 -41.77,-21.46 -74.9,-33.6 -33.13,-12.13 -68.83,-18.19 -107.09,-18.19 -39.2,0 -70,6.76 -92.4,20.29 -22.39,13.54 -33.59,32.44 -33.59,56.7 0,18.67 6.3,34.07 18.9,46.2 12.59,12.13 34.29,21.93 65.09,29.4l81.2 20.99c70.92,18.67 123.19,43.87 156.79,75.6 33.59,31.73 50.39,74.66 50.39,128.79zm560.42 -228.18c0,-51.33 -13.77,-88.9 -41.3,-112.7 -27.53,-23.79 -63.7,-35.69 -108.5,-35.69 -29.86,0 -57.16,4.9 -81.89,14.69 -24.73,9.8 -46.43,21.7 -65.1,35.7l0 503.97c-6.53,2.8 -15.63,5.37 -27.29,7.7 -11.67,2.33 -24.5,3.5 -38.5,3.5 -27.07,0 -47.13,-5.13 -60.2,-15.4 -13.06,-10.27 -19.6,-27.53 -19.6,-51.8l0 -849.74c6.54,-1.87 15.87,-4.2 28,-7 12.13,-2.8 25.2,-4.2 39.2,-4.2 27.06,0 46.9,5.13 59.5,15.4 12.59,10.26 18.89,27.53 18.89,51.79l0 221.19c21.47,-11.2 46.43,-21.23 74.9,-30.1 28.46,-8.86 60.43,-13.3 95.89,-13.3 81.2,0 146.76,21.47 196.69,64.4 49.93,42.93 74.9,108.26 74.9,195.99l0 411.57c-6.54,2.8 -15.87,5.37 -28,7.7 -12.13,2.33 -24.73,3.5 -37.8,3.5 -28,0 -48.3,-5.13 -60.9,-15.4 -12.6,-10.27 -18.89,-27.53 -18.89,-51.8l0 -349.97zm546.41 314.98c32.66,0 61.13,-3.27 85.39,-9.8 24.27,-6.54 41.53,-13.54 51.8,-21l0 -177.79 -152.59 15.4c-42.93,4.66 -75.13,14.23 -96.59,28.7 -21.47,14.46 -32.2,36.63 -32.2,66.49 0,30.8 11.66,54.83 34.99,72.1 23.34,17.26 59.73,25.9 109.2,25.9zm-2.8 -580.97c86.79,0 155.85,18.9 207.18,56.7 51.33,37.8 77,97.29 77,178.49l0 326.18c0,21.46 -4.9,38.03 -14.7,49.69 -9.8,11.67 -23.1,22.64 -39.9,32.9 -24.26,14 -55.53,26.13 -93.79,36.4 -38.26,10.27 -82.6,15.4 -132.99,15.4 -90.53,0 -161.23,-17.73 -212.09,-53.2 -50.86,-35.46 -76.29,-87.73 -76.29,-156.79 0,-61.59 19.83,-108.72 59.49,-141.39 39.67,-32.66 96.83,-52.73 171.49,-60.19l194.59 -19.6 0 -30.8c0,-41.07 -13.3,-70.93 -39.9,-89.6 -26.6,-18.66 -63.69,-27.99 -111.29,-27.99 -37.33,0 -73.26,5.13 -107.79,15.39 -34.54,10.27 -65.33,21.94 -92.4,35 -9.33,-7.46 -17.26,-16.56 -23.8,-27.3 -6.53,-10.73 -9.8,-22.63 -9.8,-35.69 0,-15.87 3.97,-28.93 11.9,-39.2 7.94,-10.27 20.3,-19.13 37.1,-26.6 26.13,-13.06 56,-22.63 89.59,-28.7 33.6,-6.06 69.07,-9.1 106.4,-9.1z"/>
  <path class="fil2" d="M5051.7 1791.9c-29.86,0 -57.86,-3.03 -83.99,-9.1 -26.13,-6.07 -48.53,-13.77 -67.2,-23.1l0 263.18c-6.53,2.8 -15.63,5.37 -27.29,7.7 -11.67,2.34 -24.5,3.5 -38.5,3.5 -27.07,0 -47.13,-5.13 -60.2,-15.4 -13.06,-10.26 -19.6,-27.99 -19.6,-53.19l0 -723.76c0,-20.53 3.74,-37.09 11.2,-49.69 7.47,-12.6 21.47,-24.97 42,-37.1 26.13,-14.93 58.1,-28.23 95.89,-39.9 37.8,-11.66 80.5,-17.5 128.1,-17.5 48.53,0 93.79,6.77 135.79,20.3 41.99,13.53 78.39,34.3 109.19,62.3 30.8,28 55.06,63.69 72.8,107.09 17.73,43.4 26.59,94.96 26.59,154.69 0,58.8 -8.16,109.89 -24.49,153.29 -16.34,43.4 -38.74,79.8 -67.2,109.19 -28.47,29.4 -62.53,51.33 -102.19,65.8 -39.67,14.47 -83.3,21.7 -130.9,21.7zm-22.39 -118.99c60.66,0 108.72,-18.44 144.19,-55.3 35.46,-36.86 53.19,-95.43 53.19,-175.69 0,-41.06 -5.13,-76.06 -15.4,-104.99 -10.26,-28.93 -24.03,-52.5 -41.29,-70.7 -17.27,-18.2 -37.8,-31.26 -61.6,-39.19 -23.8,-7.94 -49.23,-11.9 -76.29,-11.9 -29.87,0 -55.3,3.5 -76.3,10.5 -21,6.99 -39.43,15.16 -55.3,24.49l0 384.98c15.87,11.2 34.54,20.3 56,27.3 21.47,7 45.73,10.5 72.8,10.5zm580.01 -153.99c13.06,53.19 38.49,92.62 76.29,118.29 37.8,25.66 86.1,38.5 144.89,38.5 39.2,0 75.13,-6.07 107.8,-18.2 32.66,-12.14 58.79,-25.2 78.39,-39.2 26.13,14.93 39.2,35.93 39.2,63 0,15.86 -6.07,30.56 -18.2,44.09 -12.13,13.54 -28.7,25.2 -49.7,35 -21,9.8 -45.73,17.5 -74.19,23.1 -28.47,5.6 -59.03,8.4 -91.7,8.4 -54.13,0 -103.36,-7.47 -147.69,-22.4 -44.33,-14.93 -82.36,-37.33 -114.09,-67.2 -31.73,-29.86 -56.23,-66.72 -73.5,-110.59 -17.26,-43.86 -25.89,-94.73 -25.89,-152.59 0,-55.99 8.4,-105.23 25.19,-147.69 16.8,-42.46 39.67,-77.93 68.6,-106.39 28.93,-28.47 63,-50.17 102.19,-65.1 39.2,-14.93 81.2,-22.4 126,-22.4 44.79,0 85.62,7.24 122.49,21.7 36.86,14.47 68.59,34.53 95.19,60.2 26.6,25.66 47.13,56.23 61.6,91.69 14.46,35.47 21.7,74.2 21.7,116.19 0,23.34 -5.6,40.37 -16.8,51.1 -11.2,10.73 -27.53,17.97 -49,21.7l-408.77 58.8zm173.59 -307.98c-51.33,0 -94.03,17.26 -128.1,51.79 -34.06,34.53 -52.03,84 -53.89,148.39l344.37 -48.99c-3.73,-42 -19.13,-77.7 -46.19,-107.1 -27.07,-29.39 -65.8,-44.09 -116.19,-44.09zm705.99 -113.4c28,0 54.37,3.04 79.1,9.1 24.73,6.07 46.43,13.77 65.1,23.1l0 -265.98c6.53,-1.87 15.86,-4.2 27.99,-7 12.14,-2.8 25.2,-4.2 39.2,-4.2 27.07,0 47.13,5.13 60.2,15.4 13.06,10.26 19.6,27.53 19.6,51.79l0 733.56c0,19.6 -4.2,35.7 -12.6,48.29 -8.4,12.6 -21.47,24.5 -39.2,35.7 -21.47,14 -50.63,26.6 -87.49,37.8 -36.87,11.2 -79.1,16.8 -126.7,16.8 -53.19,0 -101.72,-6.77 -145.59,-20.3 -43.86,-13.53 -81.19,-34.53 -111.99,-63 -30.8,-28.46 -54.6,-64.39 -71.4,-107.79 -16.79,-43.4 -25.19,-94.49 -25.19,-153.29 0,-60.66 8.63,-113.16 25.89,-157.49 17.27,-44.33 40.84,-80.73 70.7,-109.19 29.86,-28.47 64.63,-49.47 104.29,-63 39.67,-13.53 82.36,-20.3 128.09,-20.3zm145.6 155.39c-15.87,-10.26 -34.54,-19.13 -56,-26.59 -21.47,-7.47 -45.26,-11.2 -71.4,-11.2 -27.99,0 -53.89,4.2 -77.69,12.59 -23.8,8.4 -44.57,22.17 -62.3,41.3 -17.73,19.13 -31.73,43.4 -41.99,72.8 -10.27,29.4 -15.4,65.09 -15.4,107.09 0,78.4 18.43,135.33 55.29,170.79 36.87,35.46 86.1,53.2 147.69,53.2 28,0 51.57,-3.04 70.7,-9.1 19.13,-6.07 36.16,-13.3 51.1,-21.7l0 -389.18zm455.41 516.57c-6.53,2.8 -15.63,5.37 -27.29,7.7 -11.67,2.33 -24.97,3.5 -39.9,3.5 -27.07,0 -47.13,-5.13 -60.2,-15.4 -13.06,-10.27 -19.6,-27.53 -19.6,-51.8l0 -592.16c7.47,-1.86 17.04,-4.2 28.7,-7 11.67,-2.8 24.97,-4.2 39.9,-4.2 27.06,0 46.9,5.14 59.5,15.4 12.59,10.27 18.89,28 18.89,53.2l0 590.76zm-162.39 -853.94c0,-24.27 8.4,-44.57 25.2,-60.9 16.8,-16.33 38.27,-24.5 64.4,-24.5 26.13,0 47.13,8.17 62.99,24.5 15.87,16.33 23.8,36.63 23.8,60.9 0,24.26 -7.93,44.56 -23.8,60.89 -15.86,16.33 -36.86,24.5 -62.99,24.5 -26.13,0 -47.6,-8.17 -64.4,-24.5 -16.8,-16.33 -25.2,-36.63 -25.2,-60.89zm570.22 762.95c32.66,0 61.13,-3.27 85.39,-9.8 24.27,-6.54 41.53,-13.54 51.8,-21l0 -177.79 -152.59 15.4c-42.93,4.66 -75.13,14.23 -96.59,28.7 -21.47,14.46 -32.2,36.63 -32.2,66.49 0,30.8 11.66,54.83 34.99,72.1 23.34,17.26 59.73,25.9 109.2,25.9zm-2.8 -580.97c86.79,0 155.85,18.9 207.18,56.7 51.33,37.8 77,97.29 77,178.49l0 326.18c0,21.46 -4.9,38.03 -14.7,49.69 -9.8,11.67 -23.1,22.64 -39.9,32.9 -24.26,14 -55.53,26.13 -93.79,36.4 -38.26,10.27 -82.6,15.4 -132.99,15.4 -90.53,0 -161.23,-17.73 -212.09,-53.2 -50.86,-35.46 -76.29,-87.73 -76.29,-156.79 0,-61.59 19.83,-108.72 59.49,-141.39 39.67,-32.66 96.83,-52.73 171.49,-60.19l194.59 -19.6 0 -30.8c0,-41.07 -13.3,-70.93 -39.9,-89.6 -26.6,-18.66 -63.69,-27.99 -111.29,-27.99 -37.33,0 -73.26,5.13 -107.79,15.39 -34.54,10.27 -65.33,21.94 -92.4,35 -9.33,-7.46 -17.26,-16.56 -23.8,-27.3 -6.53,-10.73 -9.8,-22.63 -9.8,-35.69 0,-15.87 3.97,-28.93 11.9,-39.2 7.94,-10.27 20.3,-19.13 37.1,-26.6 26.13,-13.06 56,-22.63 89.59,-28.7 33.6,-6.06 69.07,-9.1 106.4,-9.1z"/>
 </g>
</svg>
