<?xml version="1.0" encoding="UTF-8"?>
<!DOCTYPE svg PUBLIC "-//W3C//DTD SVG 1.1//EN" "http://www.w3.org/Graphics/SVG/1.1/DTD/svg11.dtd">
<!-- Creator: CorelDRAW -->
<svg xmlns="http://www.w3.org/2000/svg" xml:space="preserve" width="16.9332mm" height="16.9332mm" version="1.1" style="shape-rendering:geometricPrecision; text-rendering:geometricPrecision; image-rendering:optimizeQuality; fill-rule:evenodd; clip-rule:evenodd"
viewBox="0 0 1693.32 1693.32"
 xmlns:xlink="http://www.w3.org/1999/xlink"
 xmlns:xodm="http://www.corel.com/coreldraw/odm/2003">
 <defs>
  <style type="text/css">
   <![CDATA[
    .str0 {stroke:#FD5631;stroke-width:7.62;stroke-miterlimit:22.9256}
    .fil0 {fill:#2B2B2A}
    .fil1 {fill:#FD5631}
   ]]>
  </style>
 </defs>
 <g id="Layer_x0020_1">
  <metadata id="CorelCorpID_0Corel-Layer"/>
  <path class="fil0" d="M869.14 466.2c15.11,-8.26 33.54,-22.11 51.77,-33.1 129.92,-78.29 319.08,-112.93 470.53,-114.23l-1.52 763.88c-130.2,-1.84 -295.75,27.03 -413.58,79.72 -42.16,18.85 -96.43,50.54 -107.39,55.17l0.19 -751.44zm-574.51 -146.89c175.61,-5.87 408.16,58.01 520.71,147.48l1.75 750.82c-33.66,-15.13 -60.87,-35.82 -108.47,-55.57 -135.74,-56.35 -263.38,-75.81 -412.85,-79.63l-1.14 -763.1zm666.21 910.4c28.1,-25.8 166.58,-65 216.01,-73.68 99.34,-17.44 165.6,-19.14 266.44,-20.8l-0.38 -867.71c-237.9,-3.04 -406.01,29.54 -598.86,152.54 -24.72,-8.02 -83.9,-68.96 -260.98,-116.31 -81.57,-21.81 -256.02,-48.4 -340.24,-35.1l1.29 865.76c110.96,7.76 138.93,-4.14 266.87,22.04 66.84,13.68 160.78,40.97 214.34,72.36 -33.14,4.64 -314.11,1.18 -373.35,1.18 -64.99,0 -114.95,5.19 -143.15,-42.48 -20.02,-33.84 -12.29,-127.01 -12.29,-171.6l0 -556.26c0,-24.82 6.66,-70.96 -11.8,-82.4 -27.34,-16.93 -54.79,-0.23 -56,32.24 -4.49,121.05 0.19,252.42 0.19,374.65 0,123.61 0,247.22 0,370.83 0,168.01 38.69,148.37 223.05,148.37 121.35,0 250.46,-4.23 370.83,0.36 29.82,36.72 54.59,68.82 117.67,68.79 65.11,-0.02 88,-33.61 117.67,-68.69 118.81,-5.55 250.57,-0.46 370.84,-0.46 184.36,0 223.04,19.6 223.04,-148.37 0,-246.39 3.9,-495.85 0.21,-741.84 -0.5,-33.07 -25.59,-55.14 -50.48,-33.89 -16.08,13.73 -9.72,59.02 -9.72,83.98l0 556.25c0,45.99 8.65,136.61 -13.64,170.81 -29.87,45.86 -82.21,39.71 -145.85,39.71 -122.41,0 -249.95,3.47 -371.71,-0.28z"/>
  <path class="fil1" d="M953.3 1053.23c47.32,-16.15 49.98,-36.36 184.24,-71.71 72.94,-19.2 139.35,-27.19 216.03,-38.36l-3.03 -34.75c-129.61,8.62 -327.87,52.07 -414.45,118.2 4.34,9 -0.11,0.47 4.45,6.74l12.76 19.88z"/>
  <path class="fil1" d="M335.47 623.6c9.87,3.72 157.2,24.22 215.63,39.97 34.17,9.22 62.84,17.84 95,29.65 27.63,10.15 70.62,36.54 87.41,41.17 11.66,-11.58 12.47,-14.7 19.65,-25.13 -52.38,-55.27 -343.62,-123.16 -414.22,-117.41l-3.47 31.75z"/>
  <path class="fil1" d="M335.46 940.97c23.85,10.42 79.93,12.71 109.52,17.66 100.86,16.9 203.66,44.07 286.56,94.62 8.52,-10.31 5.64,-0.71 22.11,-26.94 -59.13,-56.51 -340.38,-121.78 -414.69,-116.89l-3.5 31.55z"/>
  <path class="fil1 str0" d="M335.34 463.21l9.14 4.15c39.63,12.29 197.3,14.3 347.99,86.79 15.22,7.32 27.77,16.99 41.14,22.72 5.64,-9.25 13.98,-16.2 20.36,-24.71 -38.45,-50.37 -326.56,-123.47 -414.55,-119.48l-4.08 30.53z"/>
  <path class="fil1" d="M936.01 709.26c3.76,6.85 0.55,1.2 4.61,6.6l17.53 19.3c28.44,-14.87 49.79,-27.73 84.26,-41.48 98.06,-39.15 205.49,-53.71 310.16,-68.15l-1.66 -34.95c-114.28,8.31 -346.45,56.29 -414.9,118.68z"/>
  <path class="fil1" d="M935.05 864.48c7.54,17.7 10.4,18.7 23.1,29.34 57.7,-31.37 105.63,-52.74 180.68,-71.51 71.53,-17.9 140.01,-28.86 215.13,-37.99l-3.8 -34.79c-77.48,7.23 -150.94,21.6 -223.7,38.78 -43.21,10.2 -107.87,32.73 -147.4,52.43 -15.63,7.8 -30.47,19.09 -44.01,23.74z"/>
  <path class="fil1" d="M934.79 546.64c8.59,17.91 10.41,18.32 23.36,29.46 104.27,-65.63 255.03,-91.24 395.7,-109.19l-3.69 -35.19c-75.86,6.86 -152.96,21.4 -224.01,39.31 -46.34,11.67 -105.22,30.76 -147.52,51.96 -15.48,7.76 -30.07,18.75 -43.84,23.65z"/>
  <path class="fil1" d="M334.76 785.42c98.78,4.68 263.56,41.2 357.4,86.44 15.81,7.62 27.57,17.41 41.99,22.81 7.3,-12.87 12.24,-14.61 19.52,-25.09 -44.13,-54.89 -318.17,-117.56 -414.05,-119.44l-4.86 35.28z"/>
 </g>
</svg>
