<?xml version="1.0" encoding="UTF-8"?>
<!DOCTYPE svg PUBLIC "-//W3C//DTD SVG 1.1//EN" "http://www.w3.org/Graphics/SVG/1.1/DTD/svg11.dtd">
<!-- Creator: CorelDRAW -->
<svg xmlns="http://www.w3.org/2000/svg" xml:space="preserve" width="16.9332mm" height="16.9332mm" version="1.1" style="shape-rendering:geometricPrecision; text-rendering:geometricPrecision; image-rendering:optimizeQuality; fill-rule:evenodd; clip-rule:evenodd"
viewBox="0 0 1693.32 1693.32"
 xmlns:xlink="http://www.w3.org/1999/xlink"
 xmlns:xodm="http://www.corel.com/coreldraw/odm/2003">
 <defs>
  <style type="text/css">
   <![CDATA[
    .fil1 {fill:#E9532B}
    .fil3 {fill:#989997}
    .fil2 {fill:#787879}
    .fil0 {fill:#2A2B2A}
   ]]>
  </style>
 </defs>
 <g id="Layer_x0020_1">
  <metadata id="CorelCorpID_0Corel-Layer"/>
  <path class="fil0" d="M1144.26 1283.17c-3.33,18.39 -15.17,29.81 -28.92,36.59 -13.94,6.88 -43.12,4.32 -60.33,4.32 -23.43,0 -37.19,1.46 -52.53,-12.11 -27.52,-24.35 -22.29,-66.5 12.37,-82.74 13.95,-6.53 42.92,-4.27 60.16,-4.27 22.02,0 39.16,-0.14 52.5,11.98 10.49,9.52 20.58,25.05 16.75,46.23zm-862.16 -498.58l162.85 0.02 0.06 474.48 -162.35 -0.05 -0.56 -474.45zm703.49 366.07c-2.93,-22.56 9.94,-40.74 22.49,-48.2 18.94,-11.25 39.99,-7.89 64.43,-7.91 17.04,-0.01 55,-1.86 68.31,2.81 37.01,12.98 45.9,65.31 10.26,88.14 -18.62,11.93 -40.62,7.89 -64.82,7.88 -16.03,0 -56.61,1.95 -68.74,-2.73 -15.55,-5.99 -29.44,-20.87 -31.93,-39.99zm0.88 58.75c-7.76,7.92 -13.87,11.52 -20.77,23.17 -6.57,11.1 -12.01,23.64 -12.01,36.84 0,31.17 10.18,50.81 31.42,68.63 6.87,5.77 13.75,7.45 21.27,12.62 1.16,12.01 0.36,43.62 0.45,59.3 14.83,4.41 30.32,12.02 33.67,28.66 -63.53,1.86 -143.25,0.41 -208.74,0.34 1.29,-10.02 12.68,-21.63 21.27,-25.27 4.56,-1.93 7.84,-1.55 12.12,-4.28 1.8,-28.85 0.21,-113.79 0.21,-148.75l0.09 -334.81c1.13,-5.74 26.25,-20.24 38.63,-36.13l16.99 -20.48c0.83,27.12 -2.55,115.57 2.61,133.95 2.7,9.61 6.45,16.13 8.34,25.39 4.44,21.78 16.82,40.04 34.27,52.02 3.83,2.64 7.51,3.93 10.84,6.38 -13.57,20.64 -26.05,30.68 -22.75,64.75 3.64,37.47 28.71,52.36 32.09,57.67zm92.31 -146.27l0.02 -98.87c17.44,-0.47 71.32,-2 85.16,1.26 50.05,11.78 50.76,83.5 0.89,96.14 -14.43,3.66 -67.65,1.65 -86.07,1.47zm0.18 -138.91l-0.16 -99.11c18.63,-0.42 52.48,-2.58 66.89,4.92 37.47,19.49 37.56,69.48 0.18,88.96 -15.82,8.24 -47.06,5.1 -66.91,5.23zm-381.14 3.04l-4.17 31.02c40.36,2.91 69,4.74 109.02,-6.2 11.23,-3.06 21.32,-8.09 31.56,-10.72l-0.02 382.76c-38.28,-0.55 -76.35,0.11 -114.22,-0.04 -25.74,-0.1 -45.67,-6.21 -64.68,-21.25 -20.85,-16.5 -12.7,-12.25 -27.82,-28.46l-19.89 -22.55c-29.33,-35.18 -16.26,-28.03 -73.86,-28.03 -18.83,0 -37.99,0.35 -56.77,-0.06l-0.51 -398.28c17.02,-2.2 107.84,0.65 113.23,-0.57 7.46,-1.69 2.62,-5.8 0.3,-9l4.79 4.13c9.85,-7.66 34.74,-32.69 50.59,-45.26 55.76,-44.22 110.53,-81.41 179.39,-108.11 36.2,-14.03 68.31,-13.02 105.17,2.82 12.43,5.34 32.6,17.06 39.11,24.66l58.39 69.09c5,5.72 9.09,10.8 14.31,16.91 8.16,9.54 5.74,9.98 5.74,26.77 0,42.5 0,85 0,127.5 0,41.89 1.26,85.74 -0.1,127.38 -26.72,-3.38 -52.23,-13.46 -68.08,-26.69 -6.92,-5.78 -16.17,-16.71 -20.73,-26.72 -7.53,-16.52 -6.04,-22.98 -6.04,-42.72l0 -143.75c0.01,-15.17 1.87,-33.1 -15.05,-33.59 -26.24,-0.77 -9.35,48.08 -85.16,105.92 -40.22,30.69 -93.52,38.64 -154.5,33.04zm216.72 -319.44l43.03 0.06 -0.02 37.96c-7.02,-3.17 -13.54,-7.28 -21.31,-10.16 -3.48,-1.29 -7.51,-2.82 -11.18,-3.87 -12.87,-3.69 -8.5,-1.49 -10.54,-4.93l0.02 -19.06zm91.26 -32.2l-139.82 0.87c-1.12,-2.3 -0.1,2.89 -1.21,-3.27 -1.75,-9.79 0.34,-82.01 0.68,-83.37 8.87,-1.71 136.08,-1.42 141.33,0.32 1.19,9.45 0.32,50.66 0.32,65.46 0,3.75 -0.02,7.51 0.02,11.27 0.01,1.13 0.14,4.09 0.04,5.03 -0.6,5.64 0.69,2.11 -1.36,3.69zm-335.5 -232.65c8.46,-30.43 30.57,-62.83 47.07,-82.45 18.54,-22.04 41.42,-40.23 72.82,-55.92 37.29,-18.62 63.45,-20.59 109.82,-20.59 42.91,0 85.83,0 128.75,0 4.1,1.04 43.1,62.04 47.21,68.15 3.48,5.19 11.59,18.63 15.29,21.96 14.24,0.89 30.54,0.19 45.01,0.19 26.78,0.01 17.71,0.16 31.14,-13.81 7.19,-7.46 16.72,-21.29 22.65,-21.77 10.2,-0.82 32.43,-0.5 43.25,0.23l-0.25 134.93 -49.59 -0.02 -14.7 -34.31c-46.05,-3.02 -74.56,-0.54 -108.85,29.71 -22.42,19.78 -46.09,56.77 -50.05,88.92l-148.62 -0.2c-3.66,-5.24 -19.1,-63.85 -22.33,-75.07 -8.44,-29.3 -15.37,-47.13 -33.32,-62.92 -32.17,-28.32 -72.37,-17.28 -107.47,3.76 -10.52,6.31 -18.74,13.67 -27.83,19.21zm124.12 1127.7l282.9 0c2.67,-21.48 -7.8,-50.47 -22.72,-68.33 -8.71,-10.43 -10.21,-8.05 -16.52,-14.18l-0.18 -32.12c33.33,-4.88 86.33,12 118.44,-29.07 5.49,-7.02 10.02,-12.34 14.03,-22.21 10.36,-25.51 7.61,-52.25 -7.43,-74.53 -2.68,-3.97 -6.43,-7.2 -7.96,-10.83 9.25,-6.66 16.46,-7.3 28.83,-21.23 18.52,-20.86 26.17,-48.61 18.21,-75.71 -4.7,-15.99 -10.05,-21.54 -18.47,-33.06l10.06 -6.38c24.72,-13.15 41.02,-43.79 39.66,-73.51 -0.97,-21.24 -14.73,-46.77 -25.74,-55.1 -9.29,-7.03 -7.74,-6.89 -19.31,-13.15 -3.97,-2.15 -8.5,-3.19 -11.75,-5.54 9.05,-6.41 20.08,-21.99 25,-37.43 5.26,-16.51 3.67,-41.98 3.58,-60.75l-6.28 4.73c-4.83,-5.7 -4.6,-10.87 -17.27,-24.37 -27.04,-28.83 -63.84,-24.11 -102.14,-24.08 -2.88,-14.72 2.8,-14.52 -7.54,-26.24 -2.97,-3.37 -4.18,-5.27 -7.97,-9.5l-55.46 -65.82c-17.46,-21.73 -19.72,-17.99 -19.55,-32.84 0.14,-12.05 -0.81,-44.51 0.56,-51.96l48.51 0.03c0.13,-28.98 0.03,-57.93 0.03,-86.86 0,-30.61 -2.06,-51.22 8.8,-78.25 13.01,-32.42 32.4,-54.5 62.53,-67.54 12.5,-5.41 24.34,-4.94 39.23,-3.98l13.69 33.35 101.57 0.16 0.01 -195.62 -91.04 -0.1c-4.14,2.87 -4.88,4.11 -7.98,7.96l-15.32 17.11c-3.01,3.18 -4.85,6.31 -7.73,9.31l-34.42 -0.03 -59.88 -89.82c-52.88,-1.98 -108.79,-0.44 -162.4,-0.44 -88.69,0 -165.23,42.67 -212.03,114.6 -16.79,25.8 -42.68,79.75 -46.96,117.03 4.78,4.78 19.79,13.37 26.48,17.68l33.79 -31.37c37.83,-32.34 96.51,-64.52 118.24,5.45l28.9 101.09c4.19,20.84 -2.49,106.28 1.19,130.07l48.6 0.23 0.04 17c-47.3,-0.62 -78.12,15.12 -112.43,31.93 -47.86,23.44 -92.03,50.36 -132.6,82.42 -7.15,5.65 -12.71,10.96 -19.92,16.34l-37.44 35.08c-5.92,5.84 -16.6,3.52 -32.12,3.52 -23.86,0 -47.97,0.34 -71.8,-0.05l-0.59 -40.28 -225.05 -0.03 -0.39 536.69 224.98 0.01 0.7 -35.08 84.74 -0.14c8.84,-0.1 7.09,-1.45 17.3,10.82 8.82,10.6 18.25,20.28 26.54,30.99 26.62,34.42 64.54,58.09 113.54,58.6 38.41,0.4 77.05,0.02 115.49,0.01l-0.02 32.81c-11.61,10.3 -18.65,11.39 -29.07,32.65 -6.16,12.57 -11.17,33.6 -10.69,49.86z"/>
  <path class="fil1" d="M352.37 1147.74c29.97,-8.5 55.14,14.52 60.2,37.99 6.57,30.46 -14.02,53.32 -37.06,59.15 -60.81,15.41 -90.78,-77.97 -23.14,-97.14zm-69.71 111.3l162.35 0.05 -0.06 -474.48 -162.85 -0.02 0.56 474.45z"/>
  <path class="fil1" d="M986.47 1209.41c-3.38,-5.31 -28.45,-20.2 -32.09,-57.67 -3.3,-34.07 9.18,-44.11 22.75,-64.75 -3.33,-2.45 -7.01,-3.74 -10.84,-6.38 -17.45,-11.98 -29.83,-30.24 -34.27,-52.02 -1.89,-9.26 -5.64,-15.78 -8.34,-25.39 -5.16,-18.38 -1.78,-106.83 -2.61,-133.95l-16.99 20.48c-12.38,15.89 -37.5,30.39 -38.63,36.13l-0.09 334.81c0,34.96 1.59,119.9 -0.21,148.75 -4.28,2.73 -7.56,2.35 -12.12,4.28 -8.59,3.64 -19.98,15.25 -21.27,25.27 65.49,0.07 145.21,1.52 208.74,-0.34 -3.35,-16.64 -18.84,-24.25 -33.67,-28.66 -0.09,-15.68 0.71,-47.29 -0.45,-59.3 -7.52,-5.17 -14.4,-6.85 -21.27,-12.62 -21.24,-17.82 -31.42,-37.46 -31.42,-68.63 0,-13.2 5.44,-25.74 12.01,-36.84 6.9,-11.65 13.01,-15.25 20.77,-23.17z"/>
  <path class="fil0" d="M360.32 1177.83c23.61,-5.22 31.85,31.56 7.52,36.94 -24.05,5.31 -33.64,-31.17 -7.52,-36.94zm-7.95 -30.09c-67.64,19.17 -37.67,112.55 23.14,97.14 23.04,-5.83 43.63,-28.69 37.06,-59.15 -5.06,-23.47 -30.23,-46.49 -60.2,-37.99z"/>
  <path class="fil0" d="M996.39 432.32c5.68,-35.92 20.02,-62.86 44.95,-81.64 14.83,-11.18 33.06,-20.12 52.76,-22.57l-2.7 -31.25c-69.65,9.31 -114.96,62.16 -126.01,131.06l31 4.4z"/>
  <path class="fil2" d="M1162.19 404.22l1.9 0.89c8.54,2.15 98.8,0.37 100.93,0.09l0 -197.62c-13.06,-1.43 -61.14,-0.14 -81.27,-0.38 -1.46,-0.02 -5.08,-0.18 -6.3,-0.07 -6.32,0.57 -2.82,0.01 -4.72,1.53l91.04 0.1 -0.01 195.62 -101.57 -0.16z"/>
  <path class="fil3" d="M865.98 576.5l0.05 -85.94 139.79 0.06 -0.02 85.01c2.05,-1.58 0.76,1.95 1.36,-3.69 0.1,-0.94 -0.03,-3.9 -0.04,-5.03 -0.04,-3.76 -0.02,-7.52 -0.02,-11.27 0,-14.8 0.87,-56.01 -0.32,-65.46 -5.25,-1.74 -132.46,-2.03 -141.33,-0.32 -0.34,1.36 -2.43,73.58 -0.68,83.37 1.11,6.16 0.09,0.97 1.21,3.27z"/>
 </g>
</svg>
